<svg width="490" height="159" viewBox="0 0 490 159" fill="none" xmlns="http://www.w3.org/2000/svg">
<path d="M0.689941 155.662H27.7799L58.3599 110.922H110.08V155.662H132.25V3.78192H104.95L0.689941 155.662ZM110.09 32.5219V90.6019H72.3299L109.68 32.5219H110.09Z" fill="#2E3196"/>
<path d="M165.49 3.78192H143.33V155.662H218.24V135.352H165.49V3.78192Z" fill="#2E3196"/>
<path d="M251.48 3.78192H229.31V155.662H251.48V3.78192Z" fill="#2E3196"/>
<path d="M410.33 0.911917C371.08 0.911917 336.93 29.8219 331.96 69.6719H284.73V24.1019H339.33V3.78192H262.57V155.662H284.74V89.9819H332.01C337.04 128.492 369.95 158.532 410.34 158.532C442.56 158.532 471.5 139.652 484.23 107.832H460.42C449.75 128.152 431.69 138.212 410.34 138.212C382.02 138.212 360.46 119.532 354.51 90.8019H488.54C489.36 87.1019 489.36 83.6119 489.36 78.6919C489.36 36.4119 454.47 0.901917 410.34 0.901917L410.33 0.911917ZM354.29 70.4919C359.63 40.7319 382 21.2319 410.12 21.2319C438.24 21.2319 461.02 41.5519 466.36 70.4919H354.3H354.29Z" fill="#2E3196"/>
</svg>
