<svg width="1085" height="159" viewBox="0 0 1085 159" fill="none" xmlns="http://www.w3.org/2000/svg">
<path d="M0.689941 155.662H27.7799L58.3599 110.922H110.08V155.662H132.25V3.78192H104.95L0.689941 155.662ZM110.09 32.5219V90.6019H72.3299L109.68 32.5219H110.09Z" fill="#2E3196"/>
<path d="M165.49 3.78192H143.33V155.662H218.24V135.352H165.49V3.78192Z" fill="#2E3196"/>
<path d="M251.48 3.78192H229.31V155.662H251.48V3.78192Z" fill="#2E3196"/>
<path d="M410.33 0.911917C371.08 0.911917 336.93 29.8219 331.96 69.6719H284.73V24.1019H339.33V3.78192H262.57V155.662H284.74V89.9819H332.01C337.04 128.492 369.95 158.532 410.34 158.532C442.56 158.532 471.5 139.652 484.23 107.832H460.42C449.75 128.152 431.69 138.212 410.34 138.212C382.02 138.212 360.46 119.532 354.51 90.8019H488.54C489.36 87.1019 489.36 83.6119 489.36 78.6919C489.36 36.4119 454.47 0.901917 410.34 0.901917L410.33 0.911917ZM354.29 70.4919C359.63 40.7319 382 21.2319 410.12 21.2319C438.24 21.2319 461.02 41.5519 466.36 70.4919H354.3H354.29Z" fill="#2E3196"/>
<path d="M590.46 42.6419H590.63L612.02 72.7119H623.86L605.71 48.5119C614.83 48.2519 624.3 41.7619 624.3 29.4019C624.3 16.0719 617.37 7.83194 601.77 7.83194H580.99V72.7119H590.46V42.6419ZM590.46 16.5119H600.45C608.87 16.5119 614.83 21.1619 614.83 28.6119C614.83 37.0319 608.43 41.3219 597.38 41.3219H590.45V16.5119H590.46Z" fill="#2E3196"/>
<path d="M638.8 72.7119H648.26V16.5119H660.72V7.83194H626.35V16.5119H638.8V72.7119Z" fill="#2E3196"/>
<path d="M677.14 7.83194H667.67V72.7119H677.14V7.83194Z" fill="#2E3196"/>
<path d="M684.1 72.7119H693.57V44.6619H716.9V35.9819H693.57V16.5119H716.9V7.83194H684.1V72.7119Z" fill="#2E3196"/>
<path d="M733.32 7.83194H723.85V72.7119H733.32V7.83194Z" fill="#2E3196"/>
<path d="M801.27 56.6719H789.61C784.35 62.6319 778.3 65.2619 771.55 65.2619C758.22 65.2619 747.96 53.2519 747.96 39.6619C747.96 26.7719 758.48 15.2919 772.07 15.2919C779.7 15.2919 785.4 18.7119 790.31 24.4119H801.71C795.13 12.2219 783.65 6.61194 771.38 6.61194C753.93 6.61194 738.5 20.9919 738.5 40.5419C738.5 57.8119 753.32 73.9419 771.29 73.9419C784.27 73.9419 794.7 67.9819 801.28 56.6719H801.27Z" fill="#2E3196"/>
<path d="M816.25 68.4219V7.83194H806.78V72.7119H824.88L837.94 53.6019H860.03V72.7119H869.5V7.83194H857.84L816.25 68.4219ZM860.04 20.1119V44.9219H843.91L859.87 20.1119H860.05H860.04Z" fill="#2E3196"/>
<path d="M885.94 7.83194H876.47V72.7119H908.47V64.0319H885.94V7.83194Z" fill="#2E3196"/>
<path d="M939 7.83194H929.53V72.7119H961.53V64.0319H939V7.83194Z" fill="#2E3196"/>
<path d="M977.96 7.83194H968.49V72.7119H977.96V7.83194Z" fill="#2E3196"/>
<path d="M1084.19 39.8319C1084.19 21.7719 1069.29 6.60193 1050.44 6.60193C1033.67 6.60193 1019.09 18.9519 1016.96 35.9719H994.39V16.5119H1017.71V7.83193H984.92V72.7119H994.39V44.6519H1016.98C1019.13 61.1019 1033.18 73.9319 1050.44 73.9319C1064.21 73.9319 1076.57 65.8619 1082 52.2719H1071.83C1067.27 60.9519 1059.56 65.2419 1050.44 65.2419C1038.34 65.2419 1029.14 57.2619 1026.59 44.9919H1083.84C1084.19 43.4119 1084.19 41.9219 1084.19 39.8219V39.8319ZM1026.5 36.3319C1028.78 23.6219 1038.34 15.2919 1050.35 15.2919C1062.36 15.2919 1072.09 23.9719 1074.37 36.3319H1026.5Z" fill="#2E3196"/>
<path d="M565.89 72.7119H575.97L551.33 7.83194H542.83L518.19 72.7119H528.18L535.37 53.6019H558.69L565.88 72.7119H565.89ZM538.71 44.9219L547.04 20.1119H547.21L555.45 44.9219H538.7H538.71Z" fill="#2E3196"/>
<path d="M532.12 86.7319H522.65V151.612H532.12V86.7319Z" fill="#2E3196"/>
<path d="M581.17 136.092H580.99L549.43 86.7319H539.08V151.612H548.55V101.462H548.73L580.82 151.612H590.64V86.7319H581.17V136.092Z" fill="#2E3196"/>
<path d="M685.04 86.7319H675.57V151.612H685.04V86.7319Z" fill="#2E3196"/>
<path d="M692.01 95.4119H705.42V151.612H714.89V86.7319H692.01V95.4119Z" fill="#2E3196"/>
<path d="M755.87 130.752C755.87 139.172 750.7 144.162 743.6 144.162C736.5 144.162 731.32 139.252 731.32 130.572V95.4119H745V86.7319H721.85V131.272C721.85 144.772 731.49 152.842 743.6 152.842C755.71 152.842 765.34 144.952 765.34 131.102V86.7419H755.87V130.752Z" fill="#2E3196"/>
<path d="M772.3 95.4119H784.75V151.612H794.22V95.4119H806.67V86.7319H772.3V95.4119Z" fill="#2E3196"/>
<path d="M813.63 151.612H848.61V142.932H823.1V123.212H848.61V114.532H823.1V95.4119H848.61V86.7319H813.63V151.612Z" fill="#2E3196"/>
<path d="M614.78 112.252C608.47 110.232 605.4 107.602 605.4 103.042C605.4 98.4819 609.52 94.1919 614.08 94.1919C619.43 94.1919 623.2 97.6919 623.2 103.572H632.67C632.5 92.2619 624.78 85.5119 614.08 85.5119C604.08 85.5119 595.93 93.3119 595.93 103.222C595.93 112.432 599.43 117.692 615.48 123.122C622.4 125.492 624.51 128.472 624.51 133.202C624.51 139.602 620.39 144.162 614.08 144.162C607.77 144.162 603.65 139.432 603.56 132.412H594.09C594.26 144.602 602.51 152.842 614.08 152.842C625.65 152.842 633.98 144.952 633.98 133.202C633.98 121.452 628.81 116.722 614.78 112.252Z" fill="#2E3196"/>
<path d="M634.25 95.4219H646.7V151.612H656.16V95.4219H668.61V86.7419H634.25V95.4219Z" fill="#2E3196"/>
</svg>
