<svg width="11" height="646" viewBox="0 0 11 646" fill="none" xmlns="http://www.w3.org/2000/svg">
<path d="M7.42891 593.921C7.88369 593.921 8.25235 593.561 8.25235 593.118C8.25235 592.674 7.88369 592.314 7.42891 592.314C6.97414 592.314 6.60547 592.674 6.60547 593.118C6.60547 593.561 6.97414 593.921 7.42891 593.921Z" fill="#1CA500"/>
<path d="M6.54219 292.428C6.99697 292.428 7.36564 292.068 7.36564 291.625C7.36564 291.181 6.99697 290.821 6.54219 290.821C6.08742 290.821 5.71875 291.181 5.71875 291.625C5.71875 292.068 6.08742 292.428 6.54219 292.428Z" fill="#1CA500"/>
<path d="M6.78829 383.454C7.24306 383.454 7.61173 383.094 7.61173 382.65C7.61173 382.206 7.24306 381.847 6.78829 381.847C6.33351 381.847 5.96484 382.206 5.96484 382.65C5.96484 383.094 6.33351 383.454 6.78829 383.454Z" fill="#1CA500"/>
<path d="M8.31954 98.2903C8.77431 98.2903 9.14298 97.9305 9.14298 97.4867C9.14298 97.0429 8.77431 96.6831 8.31954 96.6831C7.86476 96.6831 7.49609 97.0429 7.49609 97.4867C7.49609 97.9305 7.86476 98.2903 8.31954 98.2903Z" fill="#1CA500"/>
<path d="M8.92891 447.165C9.38369 447.165 9.75235 446.805 9.75235 446.361C9.75235 445.917 9.38369 445.557 8.92891 445.557C8.47414 445.557 8.10547 445.917 8.10547 446.361C8.10547 446.805 8.47414 447.165 8.92891 447.165Z" fill="#1CA500"/>
<path d="M5.15938 446.787C5.61416 446.787 5.98282 446.427 5.98282 445.983C5.98282 445.539 5.61416 445.18 5.15938 445.18C4.70461 445.18 4.33594 445.539 4.33594 445.983C4.33594 446.427 4.70461 446.787 5.15938 446.787Z" fill="#1CA500"/>
<path d="M6.0461 75.7972C6.50087 75.7972 6.86954 75.4374 6.86954 74.9936C6.86954 74.5497 6.50087 74.1899 6.0461 74.1899C5.59132 74.1899 5.22266 74.5497 5.22266 74.9936C5.22266 75.4374 5.59132 75.7972 6.0461 75.7972Z" fill="#1CA500"/>
<path d="M7.92501 82.4269C8.37978 82.4269 8.74845 82.0671 8.74845 81.6233C8.74845 81.1795 8.37978 80.8197 7.92501 80.8197C7.47023 80.8197 7.10156 81.1795 7.10156 81.6233C7.10156 82.0671 7.47023 82.4269 7.92501 82.4269Z" fill="#1CA500"/>
<path d="M6.66329 167.53C7.11806 167.53 7.48673 167.17 7.48673 166.726C7.48673 166.283 7.11806 165.923 6.66329 165.923C6.20851 165.923 5.83984 166.283 5.83984 166.726C5.83984 167.17 6.20851 167.53 6.66329 167.53Z" fill="#1CA500"/>
<path d="M7.11641 581.65C7.57119 581.65 7.93985 581.29 7.93985 580.846C7.93985 580.402 7.57119 580.042 7.11641 580.042C6.66164 580.042 6.29297 580.402 6.29297 580.846C6.29297 581.29 6.66164 581.65 7.11641 581.65Z" fill="#1CA500"/>
<path d="M7.33907 569.515C7.79384 569.515 8.16251 569.155 8.16251 568.712C8.16251 568.268 7.79384 567.908 7.33907 567.908C6.88429 567.908 6.51562 568.268 6.51562 568.712C6.51562 569.155 6.88429 569.515 7.33907 569.515Z" fill="#1CA500"/>
<path d="M8.46016 90.5195C8.91494 90.5195 9.2836 90.1597 9.2836 89.7158C9.2836 89.272 8.91494 88.9122 8.46016 88.9122C8.00539 88.9122 7.63672 89.272 7.63672 89.7158C7.63672 90.1597 8.00539 90.5195 8.46016 90.5195Z" fill="#1CA500"/>
<path d="M2.76876 268.328C3.22353 268.328 3.5922 267.968 3.5922 267.524C3.5922 267.08 3.22353 266.72 2.76876 266.72C2.31398 266.72 1.94531 267.08 1.94531 267.524C1.94531 267.968 2.31398 268.328 2.76876 268.328Z" fill="#1CA500"/>
<path d="M6.3586 24.1246C6.81337 24.1246 7.18204 23.7648 7.18204 23.321C7.18204 22.8771 6.81337 22.5173 6.3586 22.5173C5.90382 22.5173 5.53516 22.8771 5.53516 23.321C5.53516 23.7648 5.90382 24.1246 6.3586 24.1246Z" fill="#1CA500"/>
<path d="M5.80001 39.1602C6.25478 39.1602 6.62345 38.8004 6.62345 38.3566C6.62345 37.9128 6.25478 37.553 5.80001 37.553C5.34523 37.553 4.97656 37.9128 4.97656 38.3566C4.97656 38.8004 5.34523 39.1602 5.80001 39.1602Z" fill="#1CA500"/>
<path d="M4.10469 151.53C4.55947 151.53 4.92814 151.17 4.92814 150.726C4.92814 150.283 4.55947 149.923 4.10469 149.923C3.64992 149.923 3.28125 150.283 3.28125 150.726C3.28125 151.17 3.64992 151.53 4.10469 151.53Z" fill="#1CA500"/>
<path d="M7.75313 151.426C8.20791 151.426 8.57657 151.066 8.57657 150.622C8.57657 150.178 8.20791 149.818 7.75313 149.818C7.29836 149.818 6.92969 150.178 6.92969 150.622C6.92969 151.066 7.29836 151.426 7.75313 151.426Z" fill="#1CA500"/>
<path d="M7.16719 565.312C7.62197 565.312 7.99064 564.953 7.99064 564.509C7.99064 564.065 7.62197 563.705 7.16719 563.705C6.71242 563.705 6.34375 564.065 6.34375 564.509C6.34375 564.953 6.71242 565.312 7.16719 565.312Z" fill="#1CA500"/>
<path d="M8.17891 198.244C8.63369 198.244 9.00235 197.884 9.00235 197.441C9.00235 196.997 8.63369 196.637 8.17891 196.637C7.72414 196.637 7.35547 196.997 7.35547 197.441C7.35547 197.884 7.72414 198.244 8.17891 198.244Z" fill="#1CA500"/>
<path d="M8.24532 106.086C8.70009 106.086 9.06876 105.726 9.06876 105.282C9.06876 104.838 8.70009 104.478 8.24532 104.478C7.79054 104.478 7.42188 104.838 7.42188 105.282C7.42188 105.726 7.79054 106.086 8.24532 106.086Z" fill="#1CA500"/>
<path d="M5.92501 616.286C6.37978 616.286 6.74845 615.926 6.74845 615.482C6.74845 615.038 6.37978 614.678 5.92501 614.678C5.47023 614.678 5.10156 615.038 5.10156 615.482C5.10156 615.926 5.47023 616.286 5.92501 616.286Z" fill="#1CA500"/>
<path d="M7.85079 367.807C8.30556 367.807 8.67423 367.448 8.67423 367.004C8.67423 366.56 8.30556 366.2 7.85079 366.2C7.39601 366.2 7.02734 366.56 7.02734 367.004C7.02734 367.448 7.39601 367.807 7.85079 367.807Z" fill="#1CA500"/>
<path d="M5.62032 232.406C6.07509 232.406 6.44376 232.046 6.44376 231.602C6.44376 231.159 6.07509 230.799 5.62032 230.799C5.16554 230.799 4.79688 231.159 4.79688 231.602C4.79688 232.046 5.16554 232.406 5.62032 232.406Z" fill="#1CA500"/>
<path d="M6.90547 427.58C7.36025 427.58 7.72892 427.221 7.72892 426.777C7.72892 426.333 7.36025 425.973 6.90547 425.973C6.4507 425.973 6.08203 426.333 6.08203 426.777C6.08203 427.221 6.4507 427.58 6.90547 427.58Z" fill="#1CA500"/>
<path d="M8.54219 190.811C8.99697 190.811 9.36564 190.451 9.36564 190.007C9.36564 189.563 8.99697 189.204 8.54219 189.204C8.08742 189.204 7.71875 189.563 7.71875 190.007C7.71875 190.451 8.08742 190.811 8.54219 190.811Z" fill="#1CA500"/>
<path d="M5.96407 214.799C6.41884 214.799 6.78751 214.439 6.78751 213.995C6.78751 213.551 6.41884 213.192 5.96407 213.192C5.50929 213.192 5.14062 213.551 5.14062 213.995C5.14062 214.439 5.50929 214.799 5.96407 214.799Z" fill="#1CA500"/>
<path d="M6.15547 33.3421C6.61025 33.3421 6.97892 32.9823 6.97892 32.5385C6.97892 32.0947 6.61025 31.7349 6.15547 31.7349C5.7007 31.7349 5.33203 32.0947 5.33203 32.5385C5.33203 32.9823 5.7007 33.3421 6.15547 33.3421Z" fill="#1CA500"/>
<path d="M8.51094 12.0381C8.96572 12.0381 9.33439 11.6784 9.33439 11.2345C9.33439 10.7907 8.96572 10.4309 8.51094 10.4309C8.05617 10.4309 7.6875 10.7907 7.6875 11.2345C7.6875 11.6784 8.05617 12.0381 8.51094 12.0381Z" fill="#1CA500"/>
<path d="M6.12032 15.7027C6.57509 15.7027 6.94376 15.3429 6.94376 14.8991C6.94376 14.4553 6.57509 14.0955 6.12032 14.0955C5.66554 14.0955 5.29688 14.4553 5.29688 14.8991C5.29688 15.3429 5.66554 15.7027 6.12032 15.7027Z" fill="#1CA500"/>
<path d="M8.56563 207.18C9.02041 207.18 9.38907 206.821 9.38907 206.377C9.38907 205.933 9.02041 205.573 8.56563 205.573C8.11086 205.573 7.74219 205.933 7.74219 206.377C7.74219 206.821 8.11086 207.18 8.56563 207.18Z" fill="#1CA500"/>
<path d="M6.85469 226.958C7.30947 226.958 7.67814 226.598 7.67814 226.154C7.67814 225.71 7.30947 225.35 6.85469 225.35C6.39992 225.35 6.03125 225.71 6.03125 226.154C6.03125 226.598 6.39992 226.958 6.85469 226.958Z" fill="#1CA500"/>
<path d="M7.79219 325.714C8.24697 325.714 8.61564 325.354 8.61564 324.91C8.61564 324.466 8.24697 324.107 7.79219 324.107C7.33742 324.107 6.96875 324.466 6.96875 324.91C6.96875 325.354 7.33742 325.714 7.79219 325.714Z" fill="#1CA500"/>
<path d="M7.29219 249.893C7.74697 249.893 8.11564 249.533 8.11564 249.089C8.11564 248.645 7.74697 248.285 7.29219 248.285C6.83742 248.285 6.46875 248.645 6.46875 249.089C6.46875 249.533 6.83742 249.893 7.29219 249.893Z" fill="#1CA500"/>
<path d="M6.23751 480.94C6.69228 480.94 7.06095 480.581 7.06095 480.137C7.06095 479.693 6.69228 479.333 6.23751 479.333C5.78273 479.333 5.41406 479.693 5.41406 480.137C5.41406 480.581 5.78273 480.94 6.23751 480.94Z" fill="#1CA500"/>
<path d="M7.94844 604.995C8.40322 604.995 8.77189 604.635 8.77189 604.191C8.77189 603.747 8.40322 603.388 7.94844 603.388C7.49367 603.388 7.125 603.747 7.125 604.191C7.125 604.635 7.49367 604.995 7.94844 604.995Z" fill="#1CA500"/>
<path d="M7.11641 355.384C7.57119 355.384 7.93985 355.024 7.93985 354.58C7.93985 354.136 7.57119 353.776 7.11641 353.776C6.66164 353.776 6.29297 354.136 6.29297 354.58C6.29297 355.024 6.66164 355.384 7.11641 355.384Z" fill="#1CA500"/>
<path d="M3.11641 409.523C3.57119 409.523 3.93985 409.163 3.93985 408.72C3.93985 408.276 3.57119 407.916 3.11641 407.916C2.66164 407.916 2.29297 408.276 2.29297 408.72C2.29297 409.163 2.66164 409.523 3.11641 409.523Z" fill="#1CA500"/>
<path d="M2.17891 114.845C2.63369 114.845 3.00235 114.485 3.00235 114.041C3.00235 113.597 2.63369 113.238 2.17891 113.238C1.72414 113.238 1.35547 113.597 1.35547 114.041C1.35547 114.485 1.72414 114.845 2.17891 114.845Z" fill="#1CA500"/>
<path d="M6.66329 219.396C7.11806 219.396 7.48673 219.036 7.48673 218.592C7.48673 218.148 7.11806 217.788 6.66329 217.788C6.20851 217.788 5.83984 218.148 5.83984 218.592C5.83984 219.036 6.20851 219.396 6.66329 219.396Z" fill="#1CA500"/>
<path d="M8.36251 299.54C8.81728 299.54 9.18595 299.18 9.18595 298.736C9.18595 298.293 8.81728 297.933 8.36251 297.933C7.90773 297.933 7.53906 298.293 7.53906 298.736C7.53906 299.18 7.90773 299.54 8.36251 299.54Z" fill="#1CA500"/>
<path d="M8.02266 131.721C8.47744 131.721 8.8461 131.361 8.8461 130.917C8.8461 130.473 8.47744 130.114 8.02266 130.114C7.56789 130.114 7.19922 130.473 7.19922 130.917C7.19922 131.361 7.56789 131.721 8.02266 131.721Z" fill="#1CA500"/>
<path d="M4.05391 300.697C4.50869 300.697 4.87735 300.338 4.87735 299.894C4.87735 299.45 4.50869 299.09 4.05391 299.09C3.59914 299.09 3.23047 299.45 3.23047 299.894C3.23047 300.338 3.59914 300.697 4.05391 300.697Z" fill="#1CA500"/>
<path d="M5.91719 470.558C6.37197 470.558 6.74064 470.198 6.74064 469.754C6.74064 469.31 6.37197 468.951 5.91719 468.951C5.46242 468.951 5.09375 469.31 5.09375 469.754C5.09375 470.198 5.46242 470.558 5.91719 470.558Z" fill="#1CA500"/>
<path d="M7.09297 283.058C7.54775 283.058 7.91642 282.698 7.91642 282.254C7.91642 281.81 7.54775 281.451 7.09297 281.451C6.6382 281.451 6.26953 281.81 6.26953 282.254C6.26953 282.698 6.6382 283.058 7.09297 283.058Z" fill="#1CA500"/>
<path d="M7.42891 420.452C7.88369 420.452 8.25235 420.093 8.25235 419.649C8.25235 419.205 7.88369 418.845 7.42891 418.845C6.97414 418.845 6.60547 419.205 6.60547 419.649C6.60547 420.093 6.97414 420.452 7.42891 420.452Z" fill="#1CA500"/>
<path d="M8.42501 552.197C8.87978 552.197 9.24845 551.838 9.24845 551.394C9.24845 550.95 8.87978 550.59 8.42501 550.59C7.97023 550.59 7.60156 550.95 7.60156 551.394C7.60156 551.838 7.97023 552.197 8.42501 552.197Z" fill="#1CA500"/>
<path d="M7.71797 561.021C8.17275 561.021 8.54142 560.661 8.54142 560.217C8.54142 559.774 8.17275 559.414 7.71797 559.414C7.2632 559.414 6.89453 559.774 6.89453 560.217C6.89453 560.661 7.2632 561.021 7.71797 561.021Z" fill="#1CA500"/>
<path d="M8.17891 69.6575C8.63369 69.6575 9.00235 69.2977 9.00235 68.8539C9.00235 68.4101 8.63369 68.0503 8.17891 68.0503C7.72414 68.0503 7.35547 68.4101 7.35547 68.8539C7.35547 69.2977 7.72414 69.6575 8.17891 69.6575Z" fill="#1CA500"/>
<path d="M9.12032 266.961C9.57509 266.961 9.94376 266.602 9.94376 266.158C9.94376 265.714 9.57509 265.354 9.12032 265.354C8.66554 265.354 8.29688 265.714 8.29688 266.158C8.29688 266.602 8.66554 266.961 9.12032 266.961Z" fill="#1CA500"/>
<path d="M6.21016 66.7485C6.66494 66.7485 7.0336 66.3887 7.0336 65.9449C7.0336 65.501 6.66494 65.1412 6.21016 65.1412C5.75539 65.1412 5.38672 65.501 5.38672 65.9449C5.38672 66.3887 5.75539 66.7485 6.21016 66.7485Z" fill="#1CA500"/>
<path d="M9.01876 404.348C9.47353 404.348 9.8422 403.988 9.8422 403.544C9.8422 403.101 9.47353 402.741 9.01876 402.741C8.56398 402.741 8.19531 403.101 8.19531 403.544C8.19531 403.988 8.56398 404.348 9.01876 404.348Z" fill="#1CA500"/>
<path d="M8.87032 290.99C9.32509 290.99 9.69376 290.63 9.69376 290.186C9.69376 289.742 9.32509 289.383 8.87032 289.383C8.41554 289.383 8.04688 289.742 8.04688 290.186C8.04688 290.63 8.41554 290.99 8.87032 290.99Z" fill="#1CA500"/>
<path d="M8.72188 61.4687C9.17666 61.4687 9.54532 61.1089 9.54532 60.6651C9.54532 60.2212 9.17666 59.8615 8.72188 59.8615C8.26711 59.8615 7.89844 60.2212 7.89844 60.6651C7.89844 61.1089 8.26711 61.4687 8.72188 61.4687Z" fill="#1CA500"/>
<path d="M5.38985 134.003C5.84462 134.003 6.21329 133.643 6.21329 133.199C6.21329 132.756 5.84462 132.396 5.38985 132.396C4.93507 132.396 4.56641 132.756 4.56641 133.199C4.56641 133.643 4.93507 134.003 5.38985 134.003Z" fill="#1CA500"/>
<path d="M8.13985 478.056C8.59462 478.056 8.96329 477.696 8.96329 477.252C8.96329 476.808 8.59462 476.448 8.13985 476.448C7.68507 476.448 7.31641 476.808 7.31641 477.252C7.31641 477.696 7.68507 478.056 8.13985 478.056Z" fill="#1CA500"/>
<path d="M8.22969 414.457C8.68447 414.457 9.05314 414.098 9.05314 413.654C9.05314 413.21 8.68447 412.85 8.22969 412.85C7.77492 412.85 7.40625 413.21 7.40625 413.654C7.40625 414.098 7.77492 414.457 8.22969 414.457Z" fill="#1CA500"/>
<path d="M6.94454 608.434C7.39931 608.434 7.76798 608.075 7.76798 607.631C7.76798 607.187 7.39931 606.827 6.94454 606.827C6.48976 606.827 6.12109 607.187 6.12109 607.631C6.12109 608.075 6.48976 608.434 6.94454 608.434Z" fill="#1CA500"/>
<path d="M7.97579 142.28C8.43056 142.28 8.79923 141.921 8.79923 141.477C8.79923 141.033 8.43056 140.673 7.97579 140.673C7.52101 140.673 7.15234 141.033 7.15234 141.477C7.15234 141.921 7.52101 142.28 7.97579 142.28Z" fill="#1CA500"/>
<path d="M7.44063 312.929C7.89541 312.929 8.26407 312.569 8.26407 312.125C8.26407 311.681 7.89541 311.321 7.44063 311.321C6.98586 311.321 6.61719 311.681 6.61719 312.125C6.61719 312.569 6.98586 312.929 7.44063 312.929Z" fill="#1CA500"/>
<path d="M8.54219 253.71C8.99697 253.71 9.36564 253.35 9.36564 252.906C9.36564 252.462 8.99697 252.103 8.54219 252.103C8.08742 252.103 7.71875 252.462 7.71875 252.906C7.71875 253.35 8.08742 253.71 8.54219 253.71Z" fill="#1CA500"/>
<path d="M3.24922 101.762C3.704 101.762 4.07267 101.402 4.07267 100.958C4.07267 100.515 3.704 100.155 3.24922 100.155C2.79445 100.155 2.42578 100.515 2.42578 100.958C2.42578 101.402 2.79445 101.762 3.24922 101.762Z" fill="#1CA500"/>
<path d="M7.51485 244.179C7.96962 244.179 8.33829 243.819 8.33829 243.375C8.33829 242.932 7.96962 242.572 7.51485 242.572C7.06007 242.572 6.69141 242.932 6.69141 243.375C6.69141 243.819 7.06007 244.179 7.51485 244.179Z" fill="#1CA500"/>
<path d="M7.25704 272.314C7.71181 272.314 8.08048 271.954 8.08048 271.51C8.08048 271.066 7.71181 270.706 7.25704 270.706C6.80226 270.706 6.43359 271.066 6.43359 271.51C6.43359 271.954 6.80226 272.314 7.25704 272.314Z" fill="#1CA500"/>
<path d="M8.38594 95.1965C8.84072 95.1965 9.20939 94.8367 9.20939 94.3929C9.20939 93.949 8.84072 93.5892 8.38594 93.5892C7.93117 93.5892 7.5625 93.949 7.5625 94.3929C7.5625 94.8367 7.93117 95.1965 8.38594 95.1965Z" fill="#1CA500"/>
<path d="M8.78829 472.253C9.24306 472.253 9.61173 471.894 9.61173 471.45C9.61173 471.006 9.24306 470.646 8.78829 470.646C8.33351 470.646 7.96484 471.006 7.96484 471.45C7.96484 471.894 8.33351 472.253 8.78829 472.253Z" fill="#1CA500"/>
<path d="M8.08126 42.7203C8.53603 42.7203 8.9047 42.3605 8.9047 41.9167C8.9047 41.4728 8.53603 41.113 8.08126 41.113C7.62648 41.113 7.25781 41.4728 7.25781 41.9167C7.25781 42.3605 7.62648 42.7203 8.08126 42.7203Z" fill="#1CA500"/>
<path d="M8.47579 590.699C8.93056 590.699 9.29923 590.339 9.29923 589.895C9.29923 589.451 8.93056 589.091 8.47579 589.091C8.02101 589.091 7.65234 589.451 7.65234 589.895C7.65234 590.339 8.02101 590.699 8.47579 590.699Z" fill="#1CA500"/>
<path d="M7.62032 344.205C8.07509 344.205 8.44376 343.845 8.44376 343.402C8.44376 342.958 8.07509 342.598 7.62032 342.598C7.16554 342.598 6.79688 342.958 6.79688 343.402C6.79688 343.845 7.16554 344.205 7.62032 344.205Z" fill="#1CA500"/>
<path d="M8.88985 147.07C9.34462 147.07 9.71329 146.71 9.71329 146.266C9.71329 145.822 9.34462 145.463 8.88985 145.463C8.43507 145.463 8.06641 145.822 8.06641 146.266C8.06641 146.71 8.43507 147.07 8.88985 147.07Z" fill="#1CA500"/>
<path d="M8.33516 636.585C8.78994 636.585 9.1586 636.225 9.1586 635.782C9.1586 635.338 8.78994 634.978 8.33516 634.978C7.88039 634.978 7.51172 635.338 7.51172 635.782C7.51172 636.225 7.88039 636.585 8.33516 636.585Z" fill="#1CA500"/>
<path d="M8.05001 390.349C8.50478 390.349 8.87345 389.989 8.87345 389.545C8.87345 389.101 8.50478 388.742 8.05001 388.742C7.59523 388.742 7.22656 389.101 7.22656 389.545C7.22656 389.989 7.59523 390.349 8.05001 390.349Z" fill="#1CA500"/>
<path d="M7.35469 128.675C7.80947 128.675 8.17814 128.315 8.17814 127.871C8.17814 127.428 7.80947 127.068 7.35469 127.068C6.89992 127.068 6.53125 127.428 6.53125 127.871C6.53125 128.315 6.89992 128.675 7.35469 128.675Z" fill="#1CA500"/>
<path d="M6.72969 401.439C7.18447 401.439 7.55314 401.079 7.55314 400.635C7.55314 400.191 7.18447 399.832 6.72969 399.832C6.27492 399.832 5.90625 400.191 5.90625 400.635C5.90625 401.079 6.27492 401.439 6.72969 401.439Z" fill="#1CA500"/>
<path d="M7.10079 239.414C7.55556 239.414 7.92423 239.054 7.92423 238.61C7.92423 238.166 7.55556 237.806 7.10079 237.806C6.64601 237.806 6.27734 238.166 6.27734 238.61C6.27734 239.054 6.64601 239.414 7.10079 239.414Z" fill="#1CA500"/>
<path d="M8.13985 526.241C8.59462 526.241 8.96329 525.881 8.96329 525.437C8.96329 524.993 8.59462 524.633 8.13985 524.633C7.68507 524.633 7.31641 524.993 7.31641 525.437C7.31641 525.881 7.68507 526.241 8.13985 526.241Z" fill="#1CA500"/>
<path d="M8.4836 619.934C8.93837 619.934 9.30704 619.574 9.30704 619.131C9.30704 618.687 8.93837 618.327 8.4836 618.327C8.02882 618.327 7.66016 618.687 7.66016 619.131C7.66016 619.574 8.02882 619.934 8.4836 619.934Z" fill="#1CA500"/>
<path d="M7.35469 442.359C7.80947 442.359 8.17814 441.999 8.17814 441.555C8.17814 441.112 7.80947 440.752 7.35469 440.752C6.89992 440.752 6.53125 441.112 6.53125 441.555C6.53125 441.999 6.89992 442.359 7.35469 442.359Z" fill="#1CA500"/>
<path d="M7.53047 124.657C7.98525 124.657 8.35392 124.297 8.35392 123.853C8.35392 123.41 7.98525 123.05 7.53047 123.05C7.0757 123.05 6.70703 123.41 6.70703 123.853C6.70703 124.297 7.0757 124.657 7.53047 124.657Z" fill="#1CA500"/>
<path d="M9.62813 330.094C10.0829 330.094 10.4516 329.734 10.4516 329.29C10.4516 328.846 10.0829 328.486 9.62813 328.486C9.17336 328.486 8.80469 328.846 8.80469 329.29C8.80469 329.734 9.17336 330.094 9.62813 330.094Z" fill="#1CA500"/>
<path d="M7.97579 601.781C8.43056 601.781 8.79923 601.421 8.79923 600.977C8.79923 600.533 8.43056 600.173 7.97579 600.173C7.52101 600.173 7.15234 600.533 7.15234 600.977C7.15234 601.421 7.52101 601.781 7.97579 601.781Z" fill="#1CA500"/>
<path d="M6.85469 417.294C7.30947 417.294 7.67814 416.934 7.67814 416.491C7.67814 416.047 7.30947 415.687 6.85469 415.687C6.39992 415.687 6.03125 416.047 6.03125 416.491C6.03125 416.934 6.39992 417.294 6.85469 417.294Z" fill="#1CA500"/>
<path d="M7.65157 504.832C8.10634 504.832 8.47501 504.472 8.47501 504.028C8.47501 503.585 8.10634 503.225 7.65157 503.225C7.19679 503.225 6.82812 503.585 6.82812 504.028C6.82812 504.472 7.19679 504.832 7.65157 504.832Z" fill="#1CA500"/>
<path d="M4.00313 61.6856C4.45791 61.6856 4.82657 61.3258 4.82657 60.882C4.82657 60.4382 4.45791 60.0784 4.00313 60.0784C3.54836 60.0784 3.17969 60.4382 3.17969 60.882C3.17969 61.3258 3.54836 61.6856 4.00313 61.6856Z" fill="#1CA500"/>
<path d="M6.80391 352.273C7.25869 352.273 7.62735 351.914 7.62735 351.47C7.62735 351.026 7.25869 350.666 6.80391 350.666C6.34914 350.666 5.98047 351.026 5.98047 351.47C5.98047 351.914 6.34914 352.273 6.80391 352.273Z" fill="#1CA500"/>
<path d="M7.88985 640.86C8.34462 640.86 8.71329 640.501 8.71329 640.057C8.71329 639.613 8.34462 639.253 7.88985 639.253C7.43507 639.253 7.06641 639.613 7.06641 640.057C7.06641 640.501 7.43507 640.86 7.88985 640.86Z" fill="#1CA500"/>
<path d="M6.94454 176.844C7.39931 176.844 7.76798 176.484 7.76798 176.04C7.76798 175.597 7.39931 175.237 6.94454 175.237C6.48976 175.237 6.12109 175.597 6.12109 176.04C6.12109 176.484 6.48976 176.844 6.94454 176.844Z" fill="#1CA500"/>
<path d="M8.20626 101.537C8.66103 101.537 9.0297 101.177 9.0297 100.733C9.0297 100.29 8.66103 99.9298 8.20626 99.9298C7.75148 99.9298 7.38281 100.29 7.38281 100.733C7.38281 101.177 7.75148 101.537 8.20626 101.537Z" fill="#1CA500"/>
<path d="M7.19063 278.831C7.64541 278.831 8.01407 278.471 8.01407 278.027C8.01407 277.583 7.64541 277.224 7.19063 277.224C6.73586 277.224 6.36719 277.583 6.36719 278.027C6.36719 278.471 6.73586 278.831 7.19063 278.831Z" fill="#1CA500"/>
<path d="M7.15938 155.307C7.61416 155.307 7.98282 154.947 7.98282 154.503C7.98282 154.059 7.61416 153.7 7.15938 153.7C6.70461 153.7 6.33594 154.059 6.33594 154.503C6.33594 154.947 6.70461 155.307 7.15938 155.307Z" fill="#1CA500"/>
<path d="M8.08907 47.8875C8.54384 47.8875 8.91251 47.5277 8.91251 47.0839C8.91251 46.6401 8.54384 46.2803 8.08907 46.2803C7.63429 46.2803 7.26562 46.6401 7.26562 47.0839C7.26562 47.5277 7.63429 47.8875 8.08907 47.8875Z" fill="#1CA500"/>
<path d="M8.59297 217.129C9.04775 217.129 9.41642 216.769 9.41642 216.326C9.41642 215.882 9.04775 215.522 8.59297 215.522C8.1382 215.522 7.76953 215.882 7.76953 216.326C7.76953 216.769 8.1382 217.129 8.59297 217.129Z" fill="#1CA500"/>
<path d="M6.14766 255.189C6.60244 255.189 6.9711 254.829 6.9711 254.385C6.9711 253.941 6.60244 253.581 6.14766 253.581C5.69289 253.581 5.32422 253.941 5.32422 254.385C5.32422 254.829 5.69289 255.189 6.14766 255.189Z" fill="#1CA500"/>
<path d="M7.05001 394.592C7.50478 394.592 7.87345 394.232 7.87345 393.788C7.87345 393.345 7.50478 392.985 7.05001 392.985C6.59523 392.985 6.22656 393.345 6.22656 393.788C6.22656 394.232 6.59523 394.592 7.05001 394.592Z" fill="#1CA500"/>
<path d="M8.01485 466.323C8.46962 466.323 8.83829 465.963 8.83829 465.519C8.83829 465.075 8.46962 464.716 8.01485 464.716C7.56007 464.716 7.19141 465.075 7.19141 465.519C7.19141 465.963 7.56007 466.323 8.01485 466.323Z" fill="#1CA500"/>
<path d="M7.03438 317.75C7.48916 317.75 7.85782 317.39 7.85782 316.946C7.85782 316.503 7.48916 316.143 7.03438 316.143C6.57961 316.143 6.21094 316.503 6.21094 316.946C6.21094 317.39 6.57961 317.75 7.03438 317.75Z" fill="#1CA500"/>
<path d="M6.97579 110.232C7.43056 110.232 7.79923 109.872 7.79923 109.428C7.79923 108.985 7.43056 108.625 6.97579 108.625C6.52101 108.625 6.15234 108.985 6.15234 109.428C6.15234 109.872 6.52101 110.232 6.97579 110.232Z" fill="#1CA500"/>
<path d="M8.28047 398.361C8.73525 398.361 9.10392 398.001 9.10392 397.557C9.10392 397.113 8.73525 396.754 8.28047 396.754C7.8257 396.754 7.45703 397.113 7.45703 397.557C7.45703 398.001 7.8257 398.361 8.28047 398.361Z" fill="#1CA500"/>
<path d="M7.30782 181.971C7.76259 181.971 8.13126 181.611 8.13126 181.167C8.13126 180.724 7.76259 180.364 7.30782 180.364C6.85304 180.364 6.48438 180.724 6.48438 181.167C6.48438 181.611 6.85304 181.971 7.30782 181.971Z" fill="#1CA500"/>
<path d="M8.16329 484.951C8.61806 484.951 8.98673 484.591 8.98673 484.147C8.98673 483.703 8.61806 483.344 8.16329 483.344C7.70851 483.344 7.33984 483.703 7.33984 484.147C7.33984 484.591 7.70851 484.951 8.16329 484.951Z" fill="#1CA500"/>
<path d="M5.63594 328.535C6.09072 328.535 6.45939 328.175 6.45939 327.731C6.45939 327.287 6.09072 326.927 5.63594 326.927C5.18117 326.927 4.8125 327.287 4.8125 327.731C4.8125 328.175 5.18117 328.535 5.63594 328.535Z" fill="#1CA500"/>
<path d="M8.18672 349.38C8.6415 349.38 9.01017 349.021 9.01017 348.577C9.01017 348.133 8.6415 347.773 8.18672 347.773C7.73195 347.773 7.36328 348.133 7.36328 348.577C7.36328 349.021 7.73195 349.38 8.18672 349.38Z" fill="#1CA500"/>
<path d="M6.81172 475.171C7.2665 475.171 7.63517 474.811 7.63517 474.367C7.63517 473.923 7.2665 473.563 6.81172 473.563C6.35695 473.563 5.98828 473.923 5.98828 474.367C5.98828 474.811 6.35695 475.171 6.81172 475.171Z" fill="#1CA500"/>
<path d="M1.85469 524.039C2.30947 524.039 2.67814 523.679 2.67814 523.235C2.67814 522.791 2.30947 522.431 1.85469 522.431C1.39992 522.431 1.03125 522.791 1.03125 523.235C1.03125 523.679 1.39992 524.039 1.85469 524.039Z" fill="#1CA500"/>
<path d="M7.95626 584.382C8.41103 584.382 8.7797 584.022 8.7797 583.579C8.7797 583.135 8.41103 582.775 7.95626 582.775C7.50148 582.775 7.13281 583.135 7.13281 583.579C7.13281 584.022 7.50148 584.382 7.95626 584.382Z" fill="#1CA500"/>
<path d="M8.65938 304.924C9.11416 304.924 9.48282 304.565 9.48282 304.121C9.48282 303.677 9.11416 303.317 8.65938 303.317C8.20461 303.317 7.83594 303.677 7.83594 304.121C7.83594 304.565 8.20461 304.924 8.65938 304.924Z" fill="#1CA500"/>
<path d="M8.60079 135.008C9.05556 135.008 9.42423 134.648 9.42423 134.204C9.42423 133.76 9.05556 133.4 8.60079 133.4C8.14601 133.4 7.77734 133.76 7.77734 134.204C7.77734 134.648 8.14601 135.008 8.60079 135.008Z" fill="#1CA500"/>
<path d="M6.94454 500.854C7.39931 500.854 7.76798 500.495 7.76798 500.051C7.76798 499.607 7.39931 499.247 6.94454 499.247C6.48976 499.247 6.12109 499.607 6.12109 500.051C6.12109 500.495 6.48976 500.854 6.94454 500.854Z" fill="#1CA500"/>
<path d="M7.51485 264.294C7.96962 264.294 8.33829 263.934 8.33829 263.49C8.33829 263.046 7.96962 262.686 7.51485 262.686C7.06007 262.686 6.69141 263.046 6.69141 263.49C6.69141 263.934 7.06007 264.294 7.51485 264.294Z" fill="#1CA500"/>
<path d="M8.59297 371.56C9.04775 371.56 9.41642 371.201 9.41642 370.757C9.41642 370.313 9.04775 369.953 8.59297 369.953C8.1382 369.953 7.76953 370.313 7.76953 370.757C7.76953 371.201 8.1382 371.56 8.59297 371.56Z" fill="#1CA500"/>
<path d="M7.82735 512.467C8.28212 512.467 8.65079 512.107 8.65079 511.663C8.65079 511.219 8.28212 510.859 7.82735 510.859C7.37257 510.859 7.00391 511.219 7.00391 511.663C7.00391 512.107 7.37257 512.467 7.82735 512.467Z" fill="#1CA500"/>
<path d="M6.78047 162.467C7.23525 162.467 7.60392 162.107 7.60392 161.664C7.60392 161.22 7.23525 160.86 6.78047 160.86C6.3257 160.86 5.95703 161.22 5.95703 161.664C5.95703 162.107 6.3257 162.467 6.78047 162.467Z" fill="#1CA500"/>
<path d="M7.55391 119.008C8.00869 119.008 8.37735 118.648 8.37735 118.204C8.37735 117.76 8.00869 117.4 7.55391 117.4C7.09914 117.4 6.73047 117.76 6.73047 118.204C6.73047 118.648 7.09914 119.008 7.55391 119.008Z" fill="#1CA500"/>
<path d="M7.40547 287.623C7.86025 287.623 8.22892 287.263 8.22892 286.819C8.22892 286.375 7.86025 286.015 7.40547 286.015C6.9507 286.015 6.58203 286.375 6.58203 286.819C6.58203 287.263 6.9507 287.623 7.40547 287.623Z" fill="#1CA500"/>
<path d="M8.24532 138.761C8.70009 138.761 9.06876 138.401 9.06876 137.957C9.06876 137.513 8.70009 137.153 8.24532 137.153C7.79054 137.153 7.42188 137.513 7.42188 137.957C7.42188 138.401 7.79054 138.761 8.24532 138.761Z" fill="#1CA500"/>
<path d="M8.34297 631.924C8.79775 631.924 9.16642 631.564 9.16642 631.121C9.16642 630.677 8.79775 630.317 8.34297 630.317C7.8882 630.317 7.51953 630.677 7.51953 631.121C7.51953 631.564 7.8882 631.924 8.34297 631.924Z" fill="#1CA500"/>
<path d="M8.17891 611.874C8.63369 611.874 9.00235 611.514 9.00235 611.07C9.00235 610.626 8.63369 610.267 8.17891 610.267C7.72414 610.267 7.35547 610.626 7.35547 611.07C7.35547 611.514 7.72414 611.874 8.17891 611.874Z" fill="#1CA500"/>
<path d="M6.40157 358.815C6.85634 358.815 7.22501 358.455 7.22501 358.011C7.22501 357.568 6.85634 357.208 6.40157 357.208C5.94679 357.208 5.57812 357.568 5.57812 358.011C5.57812 358.455 5.94679 358.815 6.40157 358.815Z" fill="#1CA500"/>
<path d="M7.38204 545.294C7.83681 545.294 8.20548 544.934 8.20548 544.491C8.20548 544.047 7.83681 543.687 7.38204 543.687C6.92726 543.687 6.55859 544.047 6.55859 544.491C6.55859 544.934 6.92726 545.294 7.38204 545.294Z" fill="#1CA500"/>
<path d="M6.62422 507.532C7.079 507.532 7.44767 507.172 7.44767 506.729C7.44767 506.285 7.079 505.925 6.62422 505.925C6.16945 505.925 5.80078 506.285 5.80078 506.729C5.80078 507.172 6.16945 507.532 6.62422 507.532Z" fill="#1CA500"/>
<path d="M7.10079 194.106C7.55556 194.106 7.92423 193.746 7.92423 193.302C7.92423 192.858 7.55556 192.498 7.10079 192.498C6.64601 192.498 6.27734 192.858 6.27734 193.302C6.27734 193.746 6.64601 194.106 7.10079 194.106Z" fill="#1CA500"/>
<path d="M7.04219 577.134C7.49697 577.134 7.86564 576.774 7.86564 576.33C7.86564 575.886 7.49697 575.526 7.04219 575.526C6.58742 575.526 6.21875 575.886 6.21875 576.33C6.21875 576.774 6.58742 577.134 7.04219 577.134Z" fill="#1CA500"/>
<path d="M5.52657 85.7298C5.98134 85.7298 6.35001 85.37 6.35001 84.9262C6.35001 84.4824 5.98134 84.1226 5.52657 84.1226C5.07179 84.1226 4.70312 84.4824 4.70312 84.9262C4.70312 85.37 5.07179 85.7298 5.52657 85.7298Z" fill="#1CA500"/>
<path d="M5.46407 307.464C5.91884 307.464 6.28751 307.104 6.28751 306.66C6.28751 306.216 5.91884 305.857 5.46407 305.857C5.00929 305.857 4.64062 306.216 4.64062 306.66C4.64062 307.104 5.00929 307.464 5.46407 307.464Z" fill="#1CA500"/>
<path d="M6.19454 454.445C6.64931 454.445 7.01798 454.086 7.01798 453.642C7.01798 453.198 6.64931 452.838 6.19454 452.838C5.73976 452.838 5.37109 453.198 5.37109 453.642C5.37109 454.086 5.73976 454.445 6.19454 454.445Z" fill="#1CA500"/>
<path d="M8.08126 530.926C8.53603 530.926 8.9047 530.566 8.9047 530.122C8.9047 529.678 8.53603 529.318 8.08126 529.318C7.62648 529.318 7.25781 529.678 7.25781 530.122C7.25781 530.566 7.62648 530.926 8.08126 530.926Z" fill="#1CA500"/>
<path d="M9.20235 438.51C9.65712 438.51 10.0258 438.15 10.0258 437.706C10.0258 437.262 9.65712 436.902 9.20235 436.902C8.74757 436.902 8.37891 437.262 8.37891 437.706C8.37891 438.15 8.74757 438.51 9.20235 438.51Z" fill="#1CA500"/>
<path d="M7.92501 622.65C8.37978 622.65 8.74845 622.291 8.74845 621.847C8.74845 621.403 8.37978 621.043 7.92501 621.043C7.47023 621.043 7.10156 621.403 7.10156 621.847C7.10156 622.291 7.47023 622.65 7.92501 622.65Z" fill="#1CA500"/>
<path d="M3.96407 144.458C4.41884 144.458 4.78751 144.098 4.78751 143.655C4.78751 143.211 4.41884 142.851 3.96407 142.851C3.50929 142.851 3.14062 143.211 3.14062 143.655C3.14062 144.098 3.50929 144.458 3.96407 144.458Z" fill="#1CA500"/>
<path d="M9.09297 285.348C9.54775 285.348 9.91642 284.988 9.91642 284.545C9.91642 284.101 9.54775 283.741 9.09297 283.741C8.6382 283.741 8.26953 284.101 8.26953 284.545C8.26953 284.988 8.6382 285.348 9.09297 285.348Z" fill="#1CA500"/>
<path d="M7.57735 51.327C8.03212 51.327 8.40079 50.9672 8.40079 50.5233C8.40079 50.0795 8.03212 49.7197 7.57735 49.7197C7.12257 49.7197 6.75391 50.0795 6.75391 50.5233C6.75391 50.9672 7.12257 51.327 7.57735 51.327Z" fill="#1CA500"/>
<path d="M7.71016 5.74591C8.16494 5.74591 8.5336 5.38611 8.5336 4.94229C8.5336 4.49846 8.16494 4.13867 7.71016 4.13867C7.25539 4.13867 6.88672 4.49846 6.88672 4.94229C6.88672 5.38611 7.25539 5.74591 7.71016 5.74591Z" fill="#1CA500"/>
<path d="M1.45235 572.866C1.90712 572.866 2.27579 572.506 2.27579 572.063C2.27579 571.619 1.90712 571.259 1.45235 571.259C0.997574 571.259 0.628906 571.619 0.628906 572.063C0.628906 572.506 0.997574 572.866 1.45235 572.866Z" fill="#1CA500"/>
<path d="M8.72188 113.254C9.17666 113.254 9.54532 112.894 9.54532 112.45C9.54532 112.006 9.17666 111.646 8.72188 111.646C8.26711 111.646 7.89844 112.006 7.89844 112.45C7.89844 112.894 8.26711 113.254 8.72188 113.254Z" fill="#1CA500"/>
<path d="M9.30782 233.121C9.76259 233.121 10.1313 232.761 10.1313 232.318C10.1313 231.874 9.76259 231.514 9.30782 231.514C8.85304 231.514 8.48438 231.874 8.48438 232.318C8.48438 232.761 8.85304 233.121 9.30782 233.121Z" fill="#1CA500"/>
<path d="M2.30001 280.575C2.75478 280.575 3.12345 280.215 3.12345 279.771C3.12345 279.327 2.75478 278.968 2.30001 278.968C1.84523 278.968 1.47656 279.327 1.47656 279.771C1.47656 280.215 1.84523 280.575 2.30001 280.575Z" fill="#1CA500"/>
<path d="M8.32735 55.1442C8.78212 55.1442 9.15079 54.7844 9.15079 54.3406C9.15079 53.8968 8.78212 53.537 8.32735 53.537C7.87257 53.537 7.50391 53.8968 7.50391 54.3406C7.50391 54.7844 7.87257 55.1442 8.32735 55.1442Z" fill="#1CA500"/>
<path d="M5.36251 588.079C5.81728 588.079 6.18595 587.719 6.18595 587.275C6.18595 586.831 5.81728 586.472 5.36251 586.472C4.90773 586.472 4.53906 586.831 4.53906 587.275C4.53906 587.719 4.90773 588.079 5.36251 588.079Z" fill="#1CA500"/>
<path d="M8.72188 535.289C9.17666 535.289 9.54532 534.929 9.54532 534.486C9.54532 534.042 9.17666 533.682 8.72188 533.682C8.26711 533.682 7.89844 534.042 7.89844 534.486C7.89844 534.929 8.26711 535.289 8.72188 535.289Z" fill="#1CA500"/>
<path d="M7.99922 628.477C8.454 628.477 8.82267 628.117 8.82267 627.673C8.82267 627.229 8.454 626.869 7.99922 626.869C7.54445 626.869 7.17578 627.229 7.17578 627.673C7.17578 628.117 7.54445 628.477 7.99922 628.477Z" fill="#1CA500"/>
<path d="M7.10079 548.983C7.55556 548.983 7.92423 548.623 7.92423 548.179C7.92423 547.735 7.55556 547.375 7.10079 547.375C6.64601 547.375 6.27734 547.735 6.27734 548.179C6.27734 548.623 6.64601 548.983 7.10079 548.983Z" fill="#1CA500"/>
<path d="M1.78047 370.7C2.23525 370.7 2.60392 370.341 2.60392 369.897C2.60392 369.453 2.23525 369.093 1.78047 369.093C1.3257 369.093 0.957031 369.453 0.957031 369.897C0.957031 370.341 1.3257 370.7 1.78047 370.7Z" fill="#1CA500"/>
<path d="M8.05001 336.442C8.50478 336.442 8.87345 336.082 8.87345 335.639C8.87345 335.195 8.50478 334.835 8.05001 334.835C7.59523 334.835 7.22656 335.195 7.22656 335.639C7.22656 336.082 7.59523 336.442 8.05001 336.442Z" fill="#1CA500"/>
<path d="M7.04219 515.938C7.49697 515.938 7.86564 515.578 7.86564 515.135C7.86564 514.691 7.49697 514.331 7.04219 514.331C6.58742 514.331 6.21875 514.691 6.21875 515.135C6.21875 515.578 6.58742 515.938 7.04219 515.938Z" fill="#1CA500"/>
<path d="M5.71016 93.4606C6.16494 93.4606 6.5336 93.1008 6.5336 92.657C6.5336 92.2132 6.16494 91.8534 5.71016 91.8534C5.25539 91.8534 4.88672 92.2132 4.88672 92.657C4.88672 93.1008 5.25539 93.4606 5.71016 93.4606Z" fill="#1CA500"/>
<path d="M8.06563 186.744C8.52041 186.744 8.88907 186.385 8.88907 185.941C8.88907 185.497 8.52041 185.137 8.06563 185.137C7.61086 185.137 7.24219 185.497 7.24219 185.941C7.24219 186.385 7.61086 186.744 8.06563 186.744Z" fill="#1CA500"/>
<path d="M5.35469 436.235C5.80947 436.235 6.17814 435.876 6.17814 435.432C6.17814 434.988 5.80947 434.628 5.35469 434.628C4.89992 434.628 4.53125 434.988 4.53125 435.432C4.53125 435.876 4.89992 436.235 5.35469 436.235Z" fill="#1CA500"/>
<path d="M7.87422 386.307C8.329 386.307 8.69767 385.947 8.69767 385.503C8.69767 385.059 8.329 384.699 7.87422 384.699C7.41945 384.699 7.05078 385.059 7.05078 385.503C7.05078 385.947 7.41945 386.307 7.87422 386.307Z" fill="#1CA500"/>
<path d="M8.10469 260.983C8.55947 260.983 8.92814 260.623 8.92814 260.179C8.92814 259.735 8.55947 259.375 8.10469 259.375C7.64992 259.375 7.28125 259.735 7.28125 260.179C7.28125 260.623 7.64992 260.983 8.10469 260.983Z" fill="#1CA500"/>
<path d="M7.62032 374.502C8.07509 374.502 8.44376 374.142 8.44376 373.698C8.44376 373.254 8.07509 372.894 7.62032 372.894C7.16554 372.894 6.79688 373.254 6.79688 373.698C6.79688 374.142 7.16554 374.502 7.62032 374.502Z" fill="#1CA500"/>
<path d="M8.39376 451.769C8.84853 451.769 9.2172 451.41 9.2172 450.966C9.2172 450.522 8.84853 450.162 8.39376 450.162C7.93898 450.162 7.57031 450.522 7.57031 450.966C7.57031 451.41 7.93898 451.769 8.39376 451.769Z" fill="#1CA500"/>
<path d="M2.77657 9.82818C3.23134 9.82818 3.60001 9.46839 3.60001 9.02456C3.60001 8.58074 3.23134 8.22095 2.77657 8.22095C2.32179 8.22095 1.95312 8.58074 1.95312 9.02456C1.95312 9.46839 2.32179 9.82818 2.77657 9.82818Z" fill="#1CA500"/>
<path d="M1.56954 186.809C2.02431 186.809 2.39298 186.449 2.39298 186.005C2.39298 185.561 2.02431 185.202 1.56954 185.202C1.11476 185.202 0.746094 185.561 0.746094 186.005C0.746094 186.449 1.11476 186.809 1.56954 186.809Z" fill="#1CA500"/>
<path d="M8.35469 407.667C8.80947 407.667 9.17814 407.307 9.17814 406.863C9.17814 406.419 8.80947 406.06 8.35469 406.06C7.89992 406.06 7.53125 406.419 7.53125 406.863C7.53125 407.307 7.89992 407.667 8.35469 407.667Z" fill="#1CA500"/>
<path d="M8.37032 340.774C8.82509 340.774 9.19376 340.414 9.19376 339.97C9.19376 339.526 8.82509 339.167 8.37032 339.167C7.91554 339.167 7.54688 339.526 7.54688 339.97C7.54688 340.414 7.91554 340.774 8.37032 340.774Z" fill="#1CA500"/>
<path d="M8.71407 296.069C9.16884 296.069 9.53751 295.709 9.53751 295.265C9.53751 294.821 9.16884 294.461 8.71407 294.461C8.25929 294.461 7.89062 294.821 7.89062 295.265C7.89062 295.709 8.25929 296.069 8.71407 296.069Z" fill="#1CA500"/>
<path d="M4.44063 533.481C4.89541 533.481 5.26407 533.121 5.26407 532.677C5.26407 532.234 4.89541 531.874 4.44063 531.874C3.98586 531.874 3.61719 532.234 3.61719 532.677C3.61719 533.121 3.98586 533.481 4.44063 533.481Z" fill="#1CA500"/>
<path d="M6.85469 542.015C7.30947 542.015 7.67814 541.656 7.67814 541.212C7.67814 540.768 7.30947 540.408 6.85469 540.408C6.39992 540.408 6.03125 540.768 6.03125 541.212C6.03125 541.656 6.39992 542.015 6.85469 542.015Z" fill="#1CA500"/>
<path d="M6.12032 431.976C6.57509 431.976 6.94376 431.616 6.94376 431.173C6.94376 430.729 6.57509 430.369 6.12032 430.369C5.66554 430.369 5.29688 430.729 5.29688 431.173C5.29688 431.616 5.66554 431.976 6.12032 431.976Z" fill="#1CA500"/>
<path d="M7.80782 457.748C8.26259 457.748 8.63126 457.389 8.63126 456.945C8.63126 456.501 8.26259 456.141 7.80782 456.141C7.35304 456.141 6.98438 456.501 6.98438 456.945C6.98438 457.389 7.35304 457.748 7.80782 457.748Z" fill="#1CA500"/>
<path d="M7.16719 462.2C7.62197 462.2 7.99064 461.84 7.99064 461.397C7.99064 460.953 7.62197 460.593 7.16719 460.593C6.71242 460.593 6.34375 460.953 6.34375 461.397C6.34375 461.84 6.71242 462.2 7.16719 462.2Z" fill="#1CA500"/>
<path d="M3.48751 197.063C3.94228 197.063 4.31095 196.703 4.31095 196.259C4.31095 195.816 3.94228 195.456 3.48751 195.456C3.03273 195.456 2.66406 195.816 2.66406 196.259C2.66406 196.703 3.03273 197.063 3.48751 197.063Z" fill="#1CA500"/>
<path d="M8.05001 20.4279C8.50478 20.4279 8.87345 20.0681 8.87345 19.6243C8.87345 19.1805 8.50478 18.8207 8.05001 18.8207C7.59523 18.8207 7.22656 19.1805 7.22656 19.6243C7.22656 20.0681 7.59523 20.4279 8.05001 20.4279Z" fill="#1CA500"/>
<path d="M5.18282 54.3406C5.63759 54.3406 6.00626 53.9808 6.00626 53.537C6.00626 53.0932 5.63759 52.7334 5.18282 52.7334C4.72804 52.7334 4.35938 53.0932 4.35938 53.537C4.35938 53.9808 4.72804 54.3406 5.18282 54.3406Z" fill="#1CA500"/>
<path d="M8.47579 574.385C8.93056 574.385 9.29923 574.025 9.29923 573.581C9.29923 573.138 8.93056 572.778 8.47579 572.778C8.02101 572.778 7.65234 573.138 7.65234 573.581C7.65234 574.025 8.02101 574.385 8.47579 574.385Z" fill="#1CA500"/>
<path d="M7.60469 73.105C8.05947 73.105 8.42814 72.7452 8.42814 72.3014C8.42814 71.8576 8.05947 71.4978 7.60469 71.4978C7.14992 71.4978 6.78125 71.8576 6.78125 72.3014C6.78125 72.7452 7.14992 73.105 7.60469 73.105Z" fill="#1CA500"/>
<path d="M3.9211 597.971C4.37587 597.971 4.74454 597.611 4.74454 597.168C4.74454 596.724 4.37587 596.364 3.9211 596.364C3.46632 596.364 3.09766 596.724 3.09766 597.168C3.09766 597.611 3.46632 597.971 3.9211 597.971Z" fill="#1CA500"/>
<path d="M6.62422 333.083C7.079 333.083 7.44767 332.723 7.44767 332.279C7.44767 331.836 7.079 331.476 6.62422 331.476C6.16945 331.476 5.80078 331.836 5.80078 332.279C5.80078 332.723 6.16945 333.083 6.62422 333.083Z" fill="#1CA500"/>
<path d="M7.53047 322.106C7.98525 322.106 8.35392 321.746 8.35392 321.302C8.35392 320.858 7.98525 320.499 7.53047 320.499C7.0757 320.499 6.70703 320.858 6.70703 321.302C6.70703 321.746 7.0757 322.106 7.53047 322.106Z" fill="#1CA500"/>
<path d="M7.55391 222.272C8.00869 222.272 8.37735 221.912 8.37735 221.469C8.37735 221.025 8.00869 220.665 7.55391 220.665C7.09914 220.665 6.73047 221.025 6.73047 221.469C6.73047 221.912 7.09914 222.272 7.55391 222.272Z" fill="#1CA500"/>
<path d="M6.2961 626.235C6.75087 626.235 7.11954 625.875 7.11954 625.431C7.11954 624.987 6.75087 624.627 6.2961 624.627C5.84132 624.627 5.47266 624.987 5.47266 625.431C5.47266 625.875 5.84132 626.235 6.2961 626.235Z" fill="#1CA500"/>
<path d="M6.46797 378.303C6.92275 378.303 7.29142 377.943 7.29142 377.499C7.29142 377.055 6.92275 376.695 6.46797 376.695C6.0132 376.695 5.64453 377.055 5.64453 377.499C5.64453 377.943 6.0132 378.303 6.46797 378.303Z" fill="#1CA500"/>
<path d="M8.35469 79.0438C8.80947 79.0438 9.17814 78.684 9.17814 78.2401C9.17814 77.7963 8.80947 77.4365 8.35469 77.4365C7.89992 77.4365 7.53125 77.7963 7.53125 78.2401C7.53125 78.684 7.89992 79.0438 8.35469 79.0438Z" fill="#1CA500"/>
<path d="M8.21407 170.752C8.66884 170.752 9.03751 170.393 9.03751 169.949C9.03751 169.505 8.66884 169.145 8.21407 169.145C7.75929 169.145 7.39062 169.505 7.39062 169.949C7.39062 170.393 7.75929 170.752 8.21407 170.752Z" fill="#1CA500"/>
<path d="M7.38985 201.145C7.84462 201.145 8.21329 200.786 8.21329 200.342C8.21329 199.898 7.84462 199.538 7.38985 199.538C6.93507 199.538 6.56641 199.898 6.56641 200.342C6.56641 200.786 6.93507 201.145 7.38985 201.145Z" fill="#1CA500"/>
<path d="M7.33907 2.25811C7.79384 2.25811 8.16251 1.89832 8.16251 1.4545C8.16251 1.01067 7.79384 0.650879 7.33907 0.650879C6.88429 0.650879 6.51562 1.01067 6.51562 1.4545C6.51562 1.89832 6.88429 2.25811 7.33907 2.25811Z" fill="#1CA500"/>
<path d="M7.75313 210.821C8.20791 210.821 8.57657 210.461 8.57657 210.017C8.57657 209.573 8.20791 209.214 7.75313 209.214C7.29836 209.214 6.92969 209.573 6.92969 210.017C6.92969 210.461 7.29836 210.821 7.75313 210.821Z" fill="#1CA500"/>
<path d="M6.02266 645.176C6.47744 645.176 6.8461 644.816 6.8461 644.372C6.8461 643.928 6.47744 643.569 6.02266 643.569C5.56789 643.569 5.19922 643.928 5.19922 644.372C5.19922 644.816 5.56789 645.176 6.02266 645.176Z" fill="#1CA500"/>
<path d="M7.83516 520.696C8.28994 520.696 8.6586 520.336 8.6586 519.892C8.6586 519.448 8.28994 519.088 7.83516 519.088C7.38039 519.088 7.01172 519.448 7.01172 519.892C7.01172 520.336 7.38039 520.696 7.83516 520.696Z" fill="#1CA500"/>
<path d="M8.64766 309.69C9.10244 309.69 9.4711 309.33 9.4711 308.886C9.4711 308.442 9.10244 308.083 8.64766 308.083C8.19289 308.083 7.82422 308.442 7.82422 308.886C7.82422 309.33 8.19289 309.69 8.64766 309.69Z" fill="#1CA500"/>
<path d="M7.8586 158.779C8.31337 158.779 8.68204 158.419 8.68204 157.975C8.68204 157.531 8.31337 157.171 7.8586 157.171C7.40382 157.171 7.03516 157.531 7.03516 157.975C7.03516 158.419 7.40382 158.779 7.8586 158.779Z" fill="#1CA500"/>
<path d="M3.20626 205.75C3.66103 205.75 4.0297 205.39 4.0297 204.946C4.0297 204.503 3.66103 204.143 3.20626 204.143C2.75148 204.143 2.38281 204.503 2.38281 204.946C2.38281 205.39 2.75148 205.75 3.20626 205.75Z" fill="#1CA500"/>
<path d="M6.87032 538.231C7.32509 538.231 7.69376 537.871 7.69376 537.427C7.69376 536.983 7.32509 536.623 6.87032 536.623C6.41554 536.623 6.04688 536.983 6.04688 537.427C6.04688 537.871 6.41554 538.231 6.87032 538.231Z" fill="#1CA500"/>
<path d="M7.69454 422.944C8.14931 422.944 8.51798 422.584 8.51798 422.14C8.51798 421.696 8.14931 421.336 7.69454 421.336C7.23976 421.336 6.87109 421.696 6.87109 422.14C6.87109 422.584 7.23976 422.944 7.69454 422.944Z" fill="#1CA500"/>
<path d="M8.26094 362.367C8.71572 362.367 9.08439 362.007 9.08439 361.563C9.08439 361.12 8.71572 360.76 8.26094 360.76C7.80617 360.76 7.4375 361.12 7.4375 361.563C7.4375 362.007 7.80617 362.367 8.26094 362.367Z" fill="#1CA500"/>
<path d="M8.51876 173.702C8.97353 173.702 9.3422 173.342 9.3422 172.898C9.3422 172.454 8.97353 172.094 8.51876 172.094C8.06398 172.094 7.69531 172.454 7.69531 172.898C7.69531 173.342 8.06398 173.702 8.51876 173.702Z" fill="#1CA500"/>
<path d="M8.80391 497.913C9.25869 497.913 9.62735 497.553 9.62735 497.11C9.62735 496.666 9.25869 496.306 8.80391 496.306C8.34914 496.306 7.98047 496.666 7.98047 497.11C7.98047 497.553 8.34914 497.913 8.80391 497.913Z" fill="#1CA500"/>
<path d="M2.78829 45.8544C3.24306 45.8544 3.61173 45.4946 3.61173 45.0508C3.61173 44.607 3.24306 44.2472 2.78829 44.2472C2.33351 44.2472 1.96484 44.607 1.96484 45.0508C1.96484 45.4946 2.33351 45.8544 2.78829 45.8544Z" fill="#1CA500"/>
<path d="M8.45235 557.373C8.90712 557.373 9.27579 557.013 9.27579 556.569C9.27579 556.125 8.90712 555.765 8.45235 555.765C7.99757 555.765 7.62891 556.125 7.62891 556.569C7.62891 557.013 7.99757 557.373 8.45235 557.373Z" fill="#1CA500"/>
<path d="M8.2961 31.7027C8.75087 31.7027 9.11954 31.3429 9.11954 30.8991C9.11954 30.4553 8.75087 30.0955 8.2961 30.0955C7.84132 30.0955 7.47266 30.4553 7.47266 30.8991C7.47266 31.3429 7.84132 31.7027 8.2961 31.7027Z" fill="#1CA500"/>
<path d="M5.91719 493.565C6.37197 493.565 6.74064 493.206 6.74064 492.762C6.74064 492.318 6.37197 491.958 5.91719 491.958C5.46242 491.958 5.09375 492.318 5.09375 492.762C5.09375 493.206 5.46242 493.565 5.91719 493.565Z" fill="#1CA500"/>
<path d="M7.67891 28.3837C8.13369 28.3837 8.50235 28.0239 8.50235 27.5801C8.50235 27.1363 8.13369 26.7765 7.67891 26.7765C7.22414 26.7765 6.85547 27.1363 6.85547 27.5801C6.85547 28.0239 7.22414 28.3837 7.67891 28.3837Z" fill="#1CA500"/>
</svg>
