<svg width="7" height="647" viewBox="0 0 7 647" fill="none" xmlns="http://www.w3.org/2000/svg">
<path d="M3.18672 251.299C3.6415 251.299 4.01017 250.939 4.01017 250.496C4.01017 250.052 3.6415 249.692 3.18672 249.692C2.73195 249.692 2.36328 250.052 2.36328 250.496C2.36328 250.939 2.73195 251.299 3.18672 251.299Z" fill="#1CA500"/>
<path d="M4.94844 603.34C5.40322 603.34 5.77189 602.98 5.77189 602.536C5.77189 602.092 5.40322 601.732 4.94844 601.732C4.49367 601.732 4.125 602.092 4.125 602.536C4.125 602.98 4.49367 603.34 4.94844 603.34Z" fill="#1CA500"/>
<path d="M3.95235 586.247C4.40712 586.247 4.77579 585.887 4.77579 585.443C4.77579 584.999 4.40712 584.639 3.95235 584.639C3.49757 584.639 3.12891 584.999 3.12891 585.443C3.12891 585.887 3.49757 586.247 3.95235 586.247Z" fill="#1CA500"/>
<path d="M5.22188 599.82C5.67666 599.82 6.04532 599.46 6.04532 599.016C6.04532 598.572 5.67666 598.212 5.22188 598.212C4.76711 598.212 4.39844 598.572 4.39844 599.016C4.39844 599.46 4.76711 599.82 5.22188 599.82Z" fill="#1CA500"/>
<path d="M1.20235 377.861C1.65712 377.861 2.02579 377.501 2.02579 377.057C2.02579 376.613 1.65712 376.253 1.20235 376.253C0.747574 376.253 0.378906 376.613 0.378906 377.057C0.378906 377.501 0.747574 377.861 1.20235 377.861Z" fill="#1CA500"/>
<path d="M5.9211 528.852C6.37587 528.852 6.74454 528.493 6.74454 528.049C6.74454 527.605 6.37587 527.245 5.9211 527.245C5.46632 527.245 5.09766 527.605 5.09766 528.049C5.09766 528.493 5.46632 528.852 5.9211 528.852Z" fill="#1CA500"/>
<path d="M0.979693 393.194C1.43447 393.194 1.80314 392.834 1.80314 392.39C1.80314 391.946 1.43447 391.586 0.979693 391.586C0.524918 391.586 0.15625 391.946 0.15625 392.39C0.15625 392.834 0.524918 393.194 0.979693 393.194Z" fill="#1CA500"/>
<path d="M3.51876 445.148C3.97353 445.148 4.3422 444.788 4.3422 444.344C4.3422 443.9 3.97353 443.54 3.51876 443.54C3.06398 443.54 2.69531 443.9 2.69531 444.344C2.69531 444.788 3.06398 445.148 3.51876 445.148Z" fill="#1CA500"/>
<path d="M5.64766 113.423C6.10244 113.423 6.4711 113.063 6.4711 112.619C6.4711 112.175 6.10244 111.815 5.64766 111.815C5.19289 111.815 4.82422 112.175 4.82422 112.619C4.82422 113.063 5.19289 113.423 5.64766 113.423Z" fill="#1CA500"/>
<path d="M4.24922 286.144C4.704 286.144 5.07267 285.784 5.07267 285.34C5.07267 284.896 4.704 284.537 4.24922 284.537C3.79445 284.537 3.42578 284.896 3.42578 285.34C3.42578 285.784 3.79445 286.144 4.24922 286.144Z" fill="#1CA500"/>
<path d="M5.76485 231.643C6.21962 231.643 6.58829 231.283 6.58829 230.839C6.58829 230.395 6.21962 230.035 5.76485 230.035C5.31007 230.035 4.94141 230.395 4.94141 230.839C4.94141 231.283 5.31007 231.643 5.76485 231.643Z" fill="#1CA500"/>
<path d="M5.17891 556.135C5.63369 556.135 6.00235 555.775 6.00235 555.331C6.00235 554.888 5.63369 554.528 5.17891 554.528C4.72414 554.528 4.35547 554.888 4.35547 555.331C4.35547 555.775 4.72414 556.135 5.17891 556.135Z" fill="#1CA500"/>
<path d="M4.80782 399.687C5.26259 399.687 5.63126 399.327 5.63126 398.883C5.63126 398.439 5.26259 398.08 4.80782 398.08C4.35304 398.08 3.98438 398.439 3.98438 398.883C3.98438 399.327 4.35304 399.687 4.80782 399.687Z" fill="#1CA500"/>
<path d="M5.00704 4.66094C5.46181 4.66094 5.83048 4.30115 5.83048 3.85733C5.83048 3.4135 5.46181 3.05371 5.00704 3.05371C4.55226 3.05371 4.18359 3.4135 4.18359 3.85733C4.18359 4.30115 4.55226 4.66094 5.00704 4.66094Z" fill="#1CA500"/>
<path d="M5.38594 210.443C5.84072 210.443 6.20939 210.083 6.20939 209.64C6.20939 209.196 5.84072 208.836 5.38594 208.836C4.93117 208.836 4.5625 209.196 4.5625 209.64C4.5625 210.083 4.93117 210.443 5.38594 210.443Z" fill="#1CA500"/>
<path d="M5.34297 7.9638C5.79775 7.9638 6.16642 7.60401 6.16642 7.16018C6.16642 6.71636 5.79775 6.35657 5.34297 6.35657C4.8882 6.35657 4.51953 6.71636 4.51953 7.16018C4.51953 7.60401 4.8882 7.9638 5.34297 7.9638Z" fill="#1CA500"/>
<path d="M5.49141 396.569C5.94619 396.569 6.31485 396.209 6.31485 395.765C6.31485 395.321 5.94619 394.962 5.49141 394.962C5.03664 394.962 4.66797 395.321 4.66797 395.765C4.66797 396.209 5.03664 396.569 5.49141 396.569Z" fill="#1CA500"/>
<path d="M5.64766 592.386C6.10244 592.386 6.4711 592.026 6.4711 591.583C6.4711 591.139 6.10244 590.779 5.64766 590.779C5.19289 590.779 4.82422 591.139 4.82422 591.583C4.82422 592.026 5.19289 592.386 5.64766 592.386Z" fill="#1CA500"/>
<path d="M5.82344 214.525C6.27822 214.525 6.64689 214.166 6.64689 213.722C6.64689 213.278 6.27822 212.918 5.82344 212.918C5.36867 212.918 5 213.278 5 213.722C5 214.166 5.36867 214.525 5.82344 214.525Z" fill="#1CA500"/>
<path d="M5.59297 170.118C6.04775 170.118 6.41642 169.758 6.41642 169.314C6.41642 168.87 6.04775 168.51 5.59297 168.51C5.1382 168.51 4.76953 168.87 4.76953 169.314C4.76953 169.758 5.1382 170.118 5.59297 170.118Z" fill="#1CA500"/>
<path d="M5.22188 110.16C5.67666 110.16 6.04532 109.8 6.04532 109.356C6.04532 108.912 5.67666 108.553 5.22188 108.553C4.76711 108.553 4.39844 108.912 4.39844 109.356C4.39844 109.8 4.76711 110.16 5.22188 110.16Z" fill="#1CA500"/>
<path d="M5.43672 487.394C5.8915 487.394 6.26017 487.034 6.26017 486.59C6.26017 486.146 5.8915 485.786 5.43672 485.786C4.98195 485.786 4.61328 486.146 4.61328 486.59C4.61328 487.034 4.98195 487.394 5.43672 487.394Z" fill="#1CA500"/>
<path d="M5.65938 201.451C6.11416 201.451 6.48282 201.091 6.48282 200.647C6.48282 200.203 6.11416 199.844 5.65938 199.844C5.20461 199.844 4.83594 200.203 4.83594 200.647C4.83594 201.091 5.20461 201.451 5.65938 201.451Z" fill="#1CA500"/>
<path d="M2.35469 46.8267C2.80947 46.8267 3.17814 46.4669 3.17814 46.0231C3.17814 45.5793 2.80947 45.2195 2.35469 45.2195C1.89992 45.2195 1.53125 45.5793 1.53125 46.0231C1.53125 46.4669 1.89992 46.8267 2.35469 46.8267Z" fill="#1CA500"/>
<path d="M5.56563 448.683C6.02041 448.683 6.38907 448.324 6.38907 447.88C6.38907 447.436 6.02041 447.076 5.56563 447.076C5.11086 447.076 4.74219 447.436 4.74219 447.88C4.74219 448.324 5.11086 448.683 5.56563 448.683Z" fill="#1CA500"/>
<path d="M4.94063 317.557C5.39541 317.557 5.76407 317.197 5.76407 316.754C5.76407 316.31 5.39541 315.95 4.94063 315.95C4.48586 315.95 4.11719 316.31 4.11719 316.754C4.11719 317.197 4.48586 317.557 4.94063 317.557Z" fill="#1CA500"/>
<path d="M5.57735 71.6987C6.03212 71.6987 6.40079 71.3389 6.40079 70.895C6.40079 70.4512 6.03212 70.0914 5.57735 70.0914C5.12257 70.0914 4.75391 70.4512 4.75391 70.895C4.75391 71.3389 5.12257 71.6987 5.57735 71.6987Z" fill="#1CA500"/>
<path d="M4.40547 207.494C4.86025 207.494 5.22892 207.134 5.22892 206.69C5.22892 206.247 4.86025 205.887 4.40547 205.887C3.9507 205.887 3.58203 206.247 3.58203 206.69C3.58203 207.134 3.9507 207.494 4.40547 207.494Z" fill="#1CA500"/>
<path d="M4.80782 54.2442C5.26259 54.2442 5.63126 53.8844 5.63126 53.4406C5.63126 52.9968 5.26259 52.637 4.80782 52.637C4.35304 52.637 3.98438 52.9968 3.98438 53.4406C3.98438 53.8844 4.35304 54.2442 4.80782 54.2442Z" fill="#1CA500"/>
<path d="M2.94844 102.389C3.40322 102.389 3.77189 102.029 3.77189 101.585C3.77189 101.141 3.40322 100.782 2.94844 100.782C2.49367 100.782 2.125 101.141 2.125 101.585C2.125 102.029 2.49367 102.389 2.94844 102.389Z" fill="#1CA500"/>
<path d="M1.65547 157.846C2.11025 157.846 2.47892 157.487 2.47892 157.043C2.47892 156.599 2.11025 156.239 1.65547 156.239C1.2007 156.239 0.832031 156.599 0.832031 157.043C0.832031 157.487 1.2007 157.846 1.65547 157.846Z" fill="#1CA500"/>
<path d="M5.46797 296.414C5.92275 296.414 6.29142 296.054 6.29142 295.611C6.29142 295.167 5.92275 294.807 5.46797 294.807C5.0132 294.807 4.64453 295.167 4.64453 295.611C4.64453 296.054 5.0132 296.414 5.46797 296.414Z" fill="#1CA500"/>
<path d="M5.40938 146.001C5.86416 146.001 6.23282 145.641 6.23282 145.198C6.23282 144.754 5.86416 144.394 5.40938 144.394C4.95461 144.394 4.58594 144.754 4.58594 145.198C4.58594 145.641 4.95461 146.001 5.40938 146.001Z" fill="#1CA500"/>
<path d="M5.37032 311.836C5.82509 311.836 6.19376 311.476 6.19376 311.032C6.19376 310.588 5.82509 310.228 5.37032 310.228C4.91554 310.228 4.54688 310.588 4.54688 311.032C4.54688 311.476 4.91554 311.836 5.37032 311.836Z" fill="#1CA500"/>
<path d="M1.78829 77.1794C2.24306 77.1794 2.61173 76.8196 2.61173 76.3758C2.61173 75.9319 2.24306 75.5721 1.78829 75.5721C1.33351 75.5721 0.964844 75.9319 0.964844 76.3758C0.964844 76.8196 1.33351 77.1794 1.78829 77.1794Z" fill="#1CA500"/>
<path d="M5.80782 582.638C6.26259 582.638 6.63126 582.279 6.63126 581.835C6.63126 581.391 6.26259 581.031 5.80782 581.031C5.35304 581.031 4.98438 581.391 4.98438 581.835C4.98438 582.279 5.35304 582.638 5.80782 582.638Z" fill="#1CA500"/>
<path d="M5.44454 380.794C5.89931 380.794 6.26798 380.434 6.26798 379.99C6.26798 379.546 5.89931 379.187 5.44454 379.187C4.98976 379.187 4.62109 379.546 4.62109 379.99C4.62109 380.434 4.98976 380.794 5.44454 380.794Z" fill="#1CA500"/>
<path d="M6.17501 75.0899C6.62978 75.0899 6.99845 74.7301 6.99845 74.2863C6.99845 73.8425 6.62978 73.4827 6.17501 73.4827C5.72023 73.4827 5.35156 73.8425 5.35156 74.2863C5.35156 74.7301 5.72023 75.0899 6.17501 75.0899Z" fill="#1CA500"/>
<path d="M2.13985 546.419C2.59462 546.419 2.96329 546.059 2.96329 545.616C2.96329 545.172 2.59462 544.812 2.13985 544.812C1.68507 544.812 1.31641 545.172 1.31641 545.616C1.31641 546.059 1.68507 546.419 2.13985 546.419Z" fill="#1CA500"/>
<path d="M5.88204 546.733C6.33681 546.733 6.70548 546.373 6.70548 545.929C6.70548 545.485 6.33681 545.125 5.88204 545.125C5.42726 545.125 5.05859 545.485 5.05859 545.929C5.05859 546.373 5.42726 546.733 5.88204 546.733Z" fill="#1CA500"/>
<path d="M5.2961 309.031C5.75087 309.031 6.11954 308.671 6.11954 308.227C6.11954 307.783 5.75087 307.424 5.2961 307.424C4.84132 307.424 4.47266 307.783 4.47266 308.227C4.47266 308.671 4.84132 309.031 5.2961 309.031Z" fill="#1CA500"/>
<path d="M2.03438 540.263C2.48916 540.263 2.85782 539.904 2.85782 539.46C2.85782 539.016 2.48916 538.656 2.03438 538.656C1.57961 538.656 1.21094 539.016 1.21094 539.46C1.21094 539.904 1.57961 540.263 2.03438 540.263Z" fill="#1CA500"/>
<path d="M5.25313 82.3145C5.70791 82.3145 6.07657 81.9547 6.07657 81.5109C6.07657 81.0671 5.70791 80.7073 5.25313 80.7073C4.79836 80.7073 4.42969 81.0671 4.42969 81.5109C4.42969 81.9547 4.79836 82.3145 5.25313 82.3145Z" fill="#1CA500"/>
<path d="M3.53438 149.674C3.98916 149.674 4.35782 149.314 4.35782 148.87C4.35782 148.426 3.98916 148.066 3.53438 148.066C3.07961 148.066 2.71094 148.426 2.71094 148.87C2.71094 149.314 3.07961 149.674 3.53438 149.674Z" fill="#1CA500"/>
<path d="M5.91329 15.9678C6.36806 15.9678 6.73673 15.608 6.73673 15.1642C6.73673 14.7204 6.36806 14.3606 5.91329 14.3606C5.45851 14.3606 5.08984 14.7204 5.08984 15.1642C5.08984 15.608 5.45851 15.9678 5.91329 15.9678Z" fill="#1CA500"/>
<path d="M5.88204 63.3652C6.33681 63.3652 6.70548 63.0054 6.70548 62.5616C6.70548 62.1177 6.33681 61.7579 5.88204 61.7579C5.42726 61.7579 5.05859 62.1177 5.05859 62.5616C5.05859 63.0054 5.42726 63.3652 5.88204 63.3652Z" fill="#1CA500"/>
<path d="M5.41719 237.091C5.87197 237.091 6.24064 236.731 6.24064 236.288C6.24064 235.844 5.87197 235.484 5.41719 235.484C4.96242 235.484 4.59375 235.844 4.59375 236.288C4.59375 236.731 4.96242 237.091 5.41719 237.091Z" fill="#1CA500"/>
<path d="M5.13985 609.559C5.59462 609.559 5.96329 609.2 5.96329 608.756C5.96329 608.312 5.59462 607.952 5.13985 607.952C4.68507 607.952 4.31641 608.312 4.31641 608.756C4.31641 609.2 4.68507 609.559 5.13985 609.559Z" fill="#1CA500"/>
<path d="M5.27266 637.228C5.72744 637.228 6.0961 636.868 6.0961 636.424C6.0961 635.981 5.72744 635.621 5.27266 635.621C4.81789 635.621 4.44922 635.981 4.44922 636.424C4.44922 636.868 4.81789 637.228 5.27266 637.228Z" fill="#1CA500"/>
<path d="M5.69063 420.959C6.14541 420.959 6.51407 420.599 6.51407 420.155C6.51407 419.711 6.14541 419.352 5.69063 419.352C5.23586 419.352 4.86719 419.711 4.86719 420.155C4.86719 420.599 5.23586 420.959 5.69063 420.959Z" fill="#1CA500"/>
<path d="M4.80001 100.002C5.25478 100.002 5.62345 99.6423 5.62345 99.1985C5.62345 98.7547 5.25478 98.3949 4.80001 98.3949C4.34523 98.3949 3.97656 98.7547 3.97656 99.1985C3.97656 99.6423 4.34523 100.002 4.80001 100.002Z" fill="#1CA500"/>
<path d="M4.73751 405.634C5.19228 405.634 5.56095 405.274 5.56095 404.83C5.56095 404.386 5.19228 404.026 4.73751 404.026C4.28273 404.026 3.91406 404.386 3.91406 404.83C3.91406 405.274 4.28273 405.634 4.73751 405.634Z" fill="#1CA500"/>
<path d="M4.76094 502.823C5.21572 502.823 5.58439 502.463 5.58439 502.019C5.58439 501.576 5.21572 501.216 4.76094 501.216C4.30617 501.216 3.9375 501.576 3.9375 502.019C3.9375 502.463 4.30617 502.823 4.76094 502.823Z" fill="#1CA500"/>
<path d="M5.63204 466.387C6.08681 466.387 6.45548 466.027 6.45548 465.583C6.45548 465.14 6.08681 464.78 5.63204 464.78C5.17726 464.78 4.80859 465.14 4.80859 465.583C4.80859 466.027 5.17726 466.387 5.63204 466.387Z" fill="#1CA500"/>
<path d="M5.21407 186.664C5.66884 186.664 6.03751 186.304 6.03751 185.861C6.03751 185.417 5.66884 185.057 5.21407 185.057C4.75929 185.057 4.39062 185.417 4.39062 185.861C4.39062 186.304 4.75929 186.664 5.21407 186.664Z" fill="#1CA500"/>
<path d="M5.76485 482.178C6.21962 482.178 6.58829 481.818 6.58829 481.375C6.58829 480.931 6.21962 480.571 5.76485 480.571C5.31007 480.571 4.94141 480.931 4.94141 481.375C4.94141 481.818 5.31007 482.178 5.76485 482.178Z" fill="#1CA500"/>
<path d="M5.97188 443.621C6.42666 443.621 6.79532 443.261 6.79532 442.817C6.79532 442.373 6.42666 442.013 5.97188 442.013C5.51711 442.013 5.14844 442.373 5.14844 442.817C5.14844 443.261 5.51711 443.621 5.97188 443.621Z" fill="#1CA500"/>
<path d="M4.96797 374.477C5.42275 374.477 5.79142 374.118 5.79142 373.674C5.79142 373.23 5.42275 372.87 4.96797 372.87C4.5132 372.87 4.14453 373.23 4.14453 373.674C4.14453 374.118 4.5132 374.477 4.96797 374.477Z" fill="#1CA500"/>
<path d="M1.46016 202.383C1.91494 202.383 2.2836 202.023 2.2836 201.579C2.2836 201.135 1.91494 200.776 1.46016 200.776C1.00539 200.776 0.636719 201.135 0.636719 201.579C0.636719 202.023 1.00539 202.383 1.46016 202.383Z" fill="#1CA500"/>
<path d="M2.16719 626.652C2.62197 626.652 2.99064 626.293 2.99064 625.849C2.99064 625.405 2.62197 625.045 2.16719 625.045C1.71242 625.045 1.34375 625.405 1.34375 625.849C1.34375 626.293 1.71242 626.652 2.16719 626.652Z" fill="#1CA500"/>
<path d="M5.1711 127.872C5.62587 127.872 5.99454 127.512 5.99454 127.068C5.99454 126.624 5.62587 126.264 5.1711 126.264C4.71632 126.264 4.34766 126.624 4.34766 127.068C4.34766 127.512 4.71632 127.872 5.1711 127.872Z" fill="#1CA500"/>
<path d="M6.12032 256.298C6.57509 256.298 6.94376 255.938 6.94376 255.494C6.94376 255.05 6.57509 254.69 6.12032 254.69C5.66554 254.69 5.29688 255.05 5.29688 255.494C5.29688 255.938 5.66554 256.298 6.12032 256.298Z" fill="#1CA500"/>
<path d="M4.85079 334.216C5.30556 334.216 5.67423 333.856 5.67423 333.413C5.67423 332.969 5.30556 332.609 4.85079 332.609C4.39601 332.609 4.02734 332.969 4.02734 333.413C4.02734 333.856 4.39601 334.216 4.85079 334.216Z" fill="#1CA500"/>
<path d="M4.50313 616.27C4.95791 616.27 5.32657 615.91 5.32657 615.466C5.32657 615.022 4.95791 614.663 4.50313 614.663C4.04836 614.663 3.67969 615.022 3.67969 615.466C3.67969 615.91 4.04836 616.27 4.50313 616.27Z" fill="#1CA500"/>
<path d="M4.70235 370.66C5.15712 370.66 5.52579 370.3 5.52579 369.857C5.52579 369.413 5.15712 369.053 4.70235 369.053C4.24757 369.053 3.87891 369.413 3.87891 369.857C3.87891 370.3 4.24757 370.66 4.70235 370.66Z" fill="#1CA500"/>
<path d="M4.40547 255.719C4.86025 255.719 5.22892 255.359 5.22892 254.915C5.22892 254.472 4.86025 254.112 4.40547 254.112C3.9507 254.112 3.58203 254.472 3.58203 254.915C3.58203 255.359 3.9507 255.719 4.40547 255.719Z" fill="#1CA500"/>
<path d="M5.05001 43.1944C5.50478 43.1944 5.87345 42.8346 5.87345 42.3908C5.87345 41.9469 5.50478 41.5872 5.05001 41.5872C4.59523 41.5872 4.22656 41.9469 4.22656 42.3908C4.22656 42.8346 4.59523 43.1944 5.05001 43.1944Z" fill="#1CA500"/>
<path d="M3.08126 525.188C3.53603 525.188 3.9047 524.828 3.9047 524.384C3.9047 523.94 3.53603 523.581 3.08126 523.581C2.62648 523.581 2.25781 523.94 2.25781 524.384C2.25781 524.828 2.62648 525.188 3.08126 525.188Z" fill="#1CA500"/>
<path d="M5.32735 241.222C5.78212 241.222 6.15079 240.862 6.15079 240.418C6.15079 239.974 5.78212 239.615 5.32735 239.615C4.87257 239.615 4.50391 239.974 4.50391 240.418C4.50391 240.862 4.87257 241.222 5.32735 241.222Z" fill="#1CA500"/>
<path d="M5.31172 431.253C5.7665 431.253 6.13517 430.893 6.13517 430.449C6.13517 430.006 5.7665 429.646 5.31172 429.646C4.85695 429.646 4.48828 430.006 4.48828 430.449C4.48828 430.893 4.85695 431.253 5.31172 431.253Z" fill="#1CA500"/>
<path d="M5.38594 140.762C5.84072 140.762 6.20939 140.402 6.20939 139.958C6.20939 139.514 5.84072 139.154 5.38594 139.154C4.93117 139.154 4.5625 139.514 4.5625 139.958C4.5625 140.402 4.93117 140.762 5.38594 140.762Z" fill="#1CA500"/>
<path d="M5.52657 315.002C5.98134 315.002 6.35001 314.642 6.35001 314.198C6.35001 313.754 5.98134 313.395 5.52657 313.395C5.07179 313.395 4.70312 313.754 4.70312 314.198C4.70312 314.642 5.07179 315.002 5.52657 315.002Z" fill="#1CA500"/>
<path d="M5.55001 299.323C6.00478 299.323 6.37345 298.964 6.37345 298.52C6.37345 298.076 6.00478 297.716 5.55001 297.716C5.09523 297.716 4.72656 298.076 4.72656 298.52C4.72656 298.964 5.09523 299.323 5.55001 299.323Z" fill="#1CA500"/>
<path d="M5.31172 474.954C5.7665 474.954 6.13517 474.594 6.13517 474.15C6.13517 473.706 5.7665 473.346 5.31172 473.346C4.85695 473.346 4.48828 473.706 4.48828 474.15C4.48828 474.594 4.85695 474.954 5.31172 474.954Z" fill="#1CA500"/>
<path d="M5.7336 49.101C6.18837 49.101 6.55704 48.7412 6.55704 48.2974C6.55704 47.8536 6.18837 47.4938 5.7336 47.4938C5.27882 47.4938 4.91016 47.8536 4.91016 48.2974C4.91016 48.7412 5.27882 49.101 5.7336 49.101Z" fill="#1CA500"/>
<path d="M4.47969 417.704C4.93447 417.704 5.30314 417.344 5.30314 416.9C5.30314 416.456 4.93447 416.097 4.47969 416.097C4.02492 416.097 3.65625 416.456 3.65625 416.9C3.65625 417.344 4.02492 417.704 4.47969 417.704Z" fill="#1CA500"/>
<path d="M4.99922 336.788C5.454 336.788 5.82267 336.428 5.82267 335.984C5.82267 335.54 5.454 335.181 4.99922 335.181C4.54445 335.181 4.17578 335.54 4.17578 335.984C4.17578 336.428 4.54445 336.788 4.99922 336.788Z" fill="#1CA500"/>
<path d="M5.28829 39.345C5.74306 39.345 6.11173 38.9852 6.11173 38.5414C6.11173 38.0976 5.74306 37.7378 5.28829 37.7378C4.83351 37.7378 4.46484 38.0976 4.46484 38.5414C4.46484 38.9852 4.83351 39.345 5.28829 39.345Z" fill="#1CA500"/>
<path d="M5.21407 633.403C5.66884 633.403 6.03751 633.043 6.03751 632.599C6.03751 632.155 5.66884 631.796 5.21407 631.796C4.75929 631.796 4.39062 632.155 4.39062 632.599C4.39062 633.043 4.75929 633.403 5.21407 633.403Z" fill="#1CA500"/>
<path d="M5.07344 606.417C5.52822 606.417 5.89689 606.058 5.89689 605.614C5.89689 605.17 5.52822 604.81 5.07344 604.81C4.61867 604.81 4.25 605.17 4.25 605.614C4.25 606.058 4.61867 606.417 5.07344 606.417Z" fill="#1CA500"/>
<path d="M4.80782 1.84832C5.26259 1.84832 5.63126 1.48853 5.63126 1.04471C5.63126 0.60088 5.26259 0.241089 4.80782 0.241089C4.35304 0.241089 3.98438 0.60088 3.98438 1.04471C3.98438 1.48853 4.35304 1.84832 4.80782 1.84832Z" fill="#1CA500"/>
<path d="M5.16329 515.07C5.61806 515.07 5.98673 514.71 5.98673 514.267C5.98673 513.823 5.61806 513.463 5.16329 513.463C4.70851 513.463 4.33984 513.823 4.33984 514.267C4.33984 514.71 4.70851 515.07 5.16329 515.07Z" fill="#1CA500"/>
<path d="M5.74922 246.976C6.204 246.976 6.57267 246.616 6.57267 246.172C6.57267 245.728 6.204 245.368 5.74922 245.368C5.29445 245.368 4.92578 245.728 4.92578 246.172C4.92578 246.616 5.29445 246.976 5.74922 246.976Z" fill="#1CA500"/>
<path d="M5.62422 427.725C6.079 427.725 6.44767 427.365 6.44767 426.922C6.44767 426.478 6.079 426.118 5.62422 426.118C5.16945 426.118 4.80078 426.478 4.80078 426.922C4.80078 427.365 5.16945 427.725 5.62422 427.725Z" fill="#1CA500"/>
<path d="M5.30391 177.8C5.75869 177.8 6.12735 177.441 6.12735 176.997C6.12735 176.553 5.75869 176.193 5.30391 176.193C4.84914 176.193 4.48047 176.553 4.48047 176.997C4.48047 177.441 4.84914 177.8 5.30391 177.8Z" fill="#1CA500"/>
<path d="M5.91329 305.254C6.36806 305.254 6.73673 304.894 6.73673 304.45C6.73673 304.007 6.36806 303.647 5.91329 303.647C5.45851 303.647 5.08984 304.007 5.08984 304.45C5.08984 304.894 5.45851 305.254 5.91329 305.254Z" fill="#1CA500"/>
<path d="M5.13204 197.939C5.58681 197.939 5.95548 197.579 5.95548 197.135C5.95548 196.691 5.58681 196.332 5.13204 196.332C4.67726 196.332 4.30859 196.691 4.30859 197.135C4.30859 197.579 4.67726 197.939 5.13204 197.939Z" fill="#1CA500"/>
<path d="M1.02266 319.317C1.47744 319.317 1.8461 318.957 1.8461 318.514C1.8461 318.07 1.47744 317.71 1.02266 317.71C0.567887 317.71 0.199219 318.07 0.199219 318.514C0.199219 318.957 0.567887 319.317 1.02266 319.317Z" fill="#1CA500"/>
<path d="M5.00704 28.7053C5.46181 28.7053 5.83048 28.3455 5.83048 27.9016C5.83048 27.4578 5.46181 27.098 5.00704 27.098C4.55226 27.098 4.18359 27.4578 4.18359 27.9016C4.18359 28.3455 4.55226 28.7053 5.00704 28.7053Z" fill="#1CA500"/>
<path d="M5.94454 625.535C6.39931 625.535 6.76798 625.176 6.76798 624.732C6.76798 624.288 6.39931 623.928 5.94454 623.928C5.48976 623.928 5.12109 624.288 5.12109 624.732C5.12109 625.176 5.48976 625.535 5.94454 625.535Z" fill="#1CA500"/>
<path d="M5.69063 522.279C6.14541 522.279 6.51407 521.919 6.51407 521.475C6.51407 521.031 6.14541 520.671 5.69063 520.671C5.23586 520.671 4.86719 521.031 4.86719 521.475C4.86719 521.919 5.23586 522.279 5.69063 522.279Z" fill="#1CA500"/>
<path d="M5.50313 572.537C5.95791 572.537 6.32657 572.177 6.32657 571.733C6.32657 571.289 5.95791 570.93 5.50313 570.93C5.04836 570.93 4.67969 571.289 4.67969 571.733C4.67969 572.177 5.04836 572.537 5.50313 572.537Z" fill="#1CA500"/>
<path d="M4.97579 32.1849C5.43056 32.1849 5.79923 31.8251 5.79923 31.3813C5.79923 30.9374 5.43056 30.5776 4.97579 30.5776C4.52101 30.5776 4.15234 30.9374 4.15234 31.3813C4.15234 31.8251 4.52101 32.1849 4.97579 32.1849Z" fill="#1CA500"/>
<path d="M5.13204 105.732C5.58681 105.732 5.95548 105.372 5.95548 104.928C5.95548 104.484 5.58681 104.125 5.13204 104.125C4.67726 104.125 4.30859 104.484 4.30859 104.928C4.30859 105.372 4.67726 105.732 5.13204 105.732Z" fill="#1CA500"/>
<path d="M3.44454 167.458C3.89931 167.458 4.26798 167.098 4.26798 166.654C4.26798 166.21 3.89931 165.851 3.44454 165.851C2.98976 165.851 2.62109 166.21 2.62109 166.654C2.62109 167.098 2.98976 167.458 3.44454 167.458Z" fill="#1CA500"/>
<path d="M5.40938 362.327C5.86416 362.327 6.23282 361.967 6.23282 361.523C6.23282 361.079 5.86416 360.719 5.40938 360.719C4.95461 360.719 4.58594 361.079 4.58594 361.523C4.58594 361.967 4.95461 362.327 5.40938 362.327Z" fill="#1CA500"/>
<path d="M5.1711 160.852C5.62587 160.852 5.99454 160.492 5.99454 160.048C5.99454 159.605 5.62587 159.245 5.1711 159.245C4.71632 159.245 4.34766 159.605 4.34766 160.048C4.34766 160.492 4.71632 160.852 5.1711 160.852Z" fill="#1CA500"/>
<path d="M0.948443 215.2C1.40322 215.2 1.77189 214.841 1.77189 214.397C1.77189 213.953 1.40322 213.593 0.948443 213.593C0.493668 213.593 0.125 213.953 0.125 214.397C0.125 214.841 0.493668 215.2 0.948443 215.2Z" fill="#1CA500"/>
<path d="M5.53438 491.565C5.98916 491.565 6.35782 491.205 6.35782 490.761C6.35782 490.317 5.98916 489.957 5.53438 489.957C5.07961 489.957 4.71094 490.317 4.71094 490.761C4.71094 491.205 5.07961 491.565 5.53438 491.565Z" fill="#1CA500"/>
<path d="M5.4836 339.745C5.93837 339.745 6.30704 339.385 6.30704 338.942C6.30704 338.498 5.93837 338.138 5.4836 338.138C5.02882 338.138 4.66016 338.498 4.66016 338.942C4.66016 339.385 5.02882 339.745 5.4836 339.745Z" fill="#1CA500"/>
<path d="M4.88204 463.341C5.33681 463.341 5.70548 462.982 5.70548 462.538C5.70548 462.094 5.33681 461.734 4.88204 461.734C4.42726 461.734 4.05859 462.094 4.05859 462.538C4.05859 462.982 4.42726 463.341 4.88204 463.341Z" fill="#1CA500"/>
<path d="M5.28047 24.9764C5.73525 24.9764 6.10392 24.6166 6.10392 24.1728C6.10392 23.7289 5.73525 23.3691 5.28047 23.3691C4.8257 23.3691 4.45703 23.7289 4.45703 24.1728C4.45703 24.6166 4.8257 24.9764 5.28047 24.9764Z" fill="#1CA500"/>
<path d="M5.59297 499.159C6.04775 499.159 6.41642 498.799 6.41642 498.355C6.41642 497.911 6.04775 497.551 5.59297 497.551C5.1382 497.551 4.76953 497.911 4.76953 498.355C4.76953 498.799 5.1382 499.159 5.59297 499.159Z" fill="#1CA500"/>
<path d="M5.65938 376.84C6.11416 376.84 6.48282 376.48 6.48282 376.037C6.48282 375.593 6.11416 375.233 5.65938 375.233C5.20461 375.233 4.83594 375.593 4.83594 376.037C4.83594 376.48 5.20461 376.84 5.65938 376.84Z" fill="#1CA500"/>
<path d="M5.86251 356.934C6.31728 356.934 6.68595 356.575 6.68595 356.131C6.68595 355.687 6.31728 355.327 5.86251 355.327C5.40773 355.327 5.03906 355.687 5.03906 356.131C5.03906 356.575 5.40773 356.934 5.86251 356.934Z" fill="#1CA500"/>
<path d="M5.86251 646.253C6.31728 646.253 6.68595 645.893 6.68595 645.449C6.68595 645.005 6.31728 644.646 5.86251 644.646C5.40773 644.646 5.03906 645.005 5.03906 645.449C5.03906 645.893 5.40773 646.253 5.86251 646.253Z" fill="#1CA500"/>
<path d="M5.23751 260.219C5.69228 260.219 6.06095 259.859 6.06095 259.415C6.06095 258.972 5.69228 258.612 5.23751 258.612C4.78273 258.612 4.41406 258.972 4.41406 259.415C4.41406 259.859 4.78273 260.219 5.23751 260.219Z" fill="#1CA500"/>
<path d="M5.7336 119.08C6.18837 119.08 6.55704 118.72 6.55704 118.276C6.55704 117.832 6.18837 117.473 5.7336 117.473C5.27882 117.473 4.91016 117.832 4.91016 118.276C4.91016 118.72 5.27882 119.08 5.7336 119.08Z" fill="#1CA500"/>
<path d="M5.40157 181.352C5.85634 181.352 6.22501 180.993 6.22501 180.549C6.22501 180.105 5.85634 179.745 5.40157 179.745C4.94679 179.745 4.57812 180.105 4.57812 180.549C4.57812 180.993 4.94679 181.352 5.40157 181.352Z" fill="#1CA500"/>
<path d="M5.39376 12.649C5.84853 12.649 6.2172 12.2892 6.2172 11.8454C6.2172 11.4015 5.84853 11.0417 5.39376 11.0417C4.93898 11.0417 4.57031 11.4015 4.57031 11.8454C4.57031 12.2892 4.93898 12.649 5.39376 12.649Z" fill="#1CA500"/>
<path d="M2.74922 532.107C3.204 532.107 3.57267 531.747 3.57267 531.303C3.57267 530.86 3.204 530.5 2.74922 530.5C2.29445 530.5 1.92578 530.86 1.92578 531.303C1.92578 531.747 2.29445 532.107 2.74922 532.107Z" fill="#1CA500"/>
<path d="M4.44844 192.032C4.90322 192.032 5.27189 191.672 5.27189 191.229C5.27189 190.785 4.90322 190.425 4.44844 190.425C3.99367 190.425 3.625 190.785 3.625 191.229C3.625 191.672 3.99367 192.032 4.44844 192.032Z" fill="#1CA500"/>
<path d="M4.09297 563.271C4.54775 563.271 4.91642 562.912 4.91642 562.468C4.91642 562.024 4.54775 561.664 4.09297 561.664C3.6382 561.664 3.26953 562.024 3.26953 562.468C3.26953 562.912 3.6382 563.271 4.09297 563.271Z" fill="#1CA500"/>
<path d="M5.18672 263.257C5.6415 263.257 6.01017 262.897 6.01017 262.453C6.01017 262.009 5.6415 261.65 5.18672 261.65C4.73195 261.65 4.36328 262.009 4.36328 262.453C4.36328 262.897 4.73195 263.257 5.18672 263.257Z" fill="#1CA500"/>
<path d="M3.93672 568.382C4.3915 568.382 4.76017 568.022 4.76017 567.579C4.76017 567.135 4.3915 566.775 3.93672 566.775C3.48195 566.775 3.11328 567.135 3.11328 567.579C3.11328 568.022 3.48195 568.382 3.93672 568.382Z" fill="#1CA500"/>
<path d="M5.63985 227.44C6.09462 227.44 6.46329 227.08 6.46329 226.636C6.46329 226.192 6.09462 225.833 5.63985 225.833C5.18507 225.833 4.81641 226.192 4.81641 226.636C4.81641 227.08 5.18507 227.44 5.63985 227.44Z" fill="#1CA500"/>
<path d="M5.71407 642.042C6.16884 642.042 6.53751 641.682 6.53751 641.238C6.53751 640.794 6.16884 640.435 5.71407 640.435C5.25929 640.435 4.89062 640.794 4.89062 641.238C4.89062 641.682 5.25929 642.042 5.71407 642.042Z" fill="#1CA500"/>
<path d="M6.12813 189.589C6.58291 189.589 6.95157 189.23 6.95157 188.786C6.95157 188.342 6.58291 187.982 6.12813 187.982C5.67336 187.982 5.30469 188.342 5.30469 188.786C5.30469 189.23 5.67336 189.589 6.12813 189.589Z" fill="#1CA500"/>
<path d="M5.46016 383.47C5.91494 383.47 6.2836 383.11 6.2836 382.666C6.2836 382.223 5.91494 381.863 5.46016 381.863C5.00539 381.863 4.63672 382.223 4.63672 382.666C4.63672 383.11 5.00539 383.47 5.46016 383.47Z" fill="#1CA500"/>
<path d="M2.11641 478.682C2.57119 478.682 2.93985 478.323 2.93985 477.879C2.93985 477.435 2.57119 477.075 2.11641 477.075C1.66164 477.075 1.29297 477.435 1.29297 477.879C1.29297 478.323 1.66164 478.682 2.11641 478.682Z" fill="#1CA500"/>
<path d="M4.76876 366.297C5.22353 366.297 5.5922 365.937 5.5922 365.493C5.5922 365.049 5.22353 364.689 4.76876 364.689C4.31398 364.689 3.94531 365.049 3.94531 365.493C3.94531 365.937 4.31398 366.297 4.76876 366.297Z" fill="#1CA500"/>
<path d="M5.15547 137.37C5.61025 137.37 5.97892 137.011 5.97892 136.567C5.97892 136.123 5.61025 135.763 5.15547 135.763C4.7007 135.763 4.33203 136.123 4.33203 136.567C4.33203 137.011 4.7007 137.37 5.15547 137.37Z" fill="#1CA500"/>
<path d="M5.69063 471.578C6.14541 471.578 6.51407 471.219 6.51407 470.775C6.51407 470.331 6.14541 469.971 5.69063 469.971C5.23586 469.971 4.86719 470.331 4.86719 470.775C4.86719 471.219 5.23586 471.578 5.69063 471.578Z" fill="#1CA500"/>
<path d="M5.49141 278.694C5.94619 278.694 6.31485 278.335 6.31485 277.891C6.31485 277.447 5.94619 277.087 5.49141 277.087C5.03664 277.087 4.66797 277.447 4.66797 277.891C4.66797 278.335 5.03664 278.694 5.49141 278.694Z" fill="#1CA500"/>
<path d="M5.02266 164.436C5.47744 164.436 5.8461 164.076 5.8461 163.632C5.8461 163.189 5.47744 162.829 5.02266 162.829C4.56789 162.829 4.19922 163.189 4.19922 163.632C4.19922 164.076 4.56789 164.436 5.02266 164.436Z" fill="#1CA500"/>
<path d="M5.2961 409.427C5.75087 409.427 6.11954 409.067 6.11954 408.623C6.11954 408.179 5.75087 407.82 5.2961 407.82C4.84132 407.82 4.47266 408.179 4.47266 408.623C4.47266 409.067 4.84132 409.427 5.2961 409.427Z" fill="#1CA500"/>
<path d="M5.25313 589.26C5.70791 589.26 6.07657 588.9 6.07657 588.456C6.07657 588.013 5.70791 587.653 5.25313 587.653C4.79836 587.653 4.42969 588.013 4.42969 588.456C4.42969 588.9 4.79836 589.26 5.25313 589.26Z" fill="#1CA500"/>
<path d="M4.49532 302.65C4.95009 302.65 5.31876 302.29 5.31876 301.847C5.31876 301.403 4.95009 301.043 4.49532 301.043C4.04054 301.043 3.67188 301.403 3.67188 301.847C3.67188 302.29 4.04054 302.65 4.49532 302.65Z" fill="#1CA500"/>
<path d="M5.39376 223.711C5.84853 223.711 6.2172 223.351 6.2172 222.907C6.2172 222.464 5.84853 222.104 5.39376 222.104C4.93898 222.104 4.57031 222.464 4.57031 222.907C4.57031 223.351 4.93898 223.711 5.39376 223.711Z" fill="#1CA500"/>
<path d="M5.53438 282.391C5.98916 282.391 6.35782 282.031 6.35782 281.587C6.35782 281.143 5.98916 280.784 5.53438 280.784C5.07961 280.784 4.71094 281.143 4.71094 281.587C4.71094 282.031 5.07961 282.391 5.53438 282.391Z" fill="#1CA500"/>
<path d="M5.40938 325.135C5.86416 325.135 6.23282 324.776 6.23282 324.332C6.23282 323.888 5.86416 323.528 5.40938 323.528C4.95461 323.528 4.58594 323.888 4.58594 324.332C4.58594 324.776 4.95461 325.135 5.40938 325.135Z" fill="#1CA500"/>
<path d="M5.97188 630.365C6.42666 630.365 6.79532 630.005 6.79532 629.561C6.79532 629.118 6.42666 628.758 5.97188 628.758C5.51711 628.758 5.14844 629.118 5.14844 629.561C5.14844 630.005 5.51711 630.365 5.97188 630.365Z" fill="#1CA500"/>
<path d="M4.88204 495.952C5.33681 495.952 5.70548 495.592 5.70548 495.149C5.70548 494.705 5.33681 494.345 4.88204 494.345C4.42726 494.345 4.05859 494.705 4.05859 495.149C4.05859 495.592 4.42726 495.952 4.88204 495.952Z" fill="#1CA500"/>
<path d="M5.31954 289.117C5.77431 289.117 6.14298 288.757 6.14298 288.314C6.14298 287.87 5.77431 287.51 5.31954 287.51C4.86476 287.51 4.49609 287.87 4.49609 288.314C4.49609 288.757 4.86476 289.117 5.31954 289.117Z" fill="#1CA500"/>
<path d="M4.94063 173.959C5.39541 173.959 5.76407 173.599 5.76407 173.155C5.76407 172.712 5.39541 172.352 4.94063 172.352C4.48586 172.352 4.11719 172.712 4.11719 173.155C4.11719 173.599 4.48586 173.959 4.94063 173.959Z" fill="#1CA500"/>
<path d="M3.71407 130.965C4.16884 130.965 4.53751 130.606 4.53751 130.162C4.53751 129.718 4.16884 129.358 3.71407 129.358C3.25929 129.358 2.89062 129.718 2.89062 130.162C2.89062 130.606 3.25929 130.965 3.71407 130.965Z" fill="#1CA500"/>
<path d="M5.46797 536.23C5.92275 536.23 6.29142 535.87 6.29142 535.426C6.29142 534.982 5.92275 534.622 5.46797 534.622C5.0132 534.622 4.64453 534.982 4.64453 535.426C4.64453 535.87 5.0132 536.23 5.46797 536.23Z" fill="#1CA500"/>
<path d="M1.4836 639.96C1.93837 639.96 2.30704 639.6 2.30704 639.157C2.30704 638.713 1.93837 638.353 1.4836 638.353C1.02882 638.353 0.660156 638.713 0.660156 639.157C0.660156 639.6 1.02882 639.96 1.4836 639.96Z" fill="#1CA500"/>
<path d="M5.34297 620.955C5.79775 620.955 6.16642 620.595 6.16642 620.151C6.16642 619.707 5.79775 619.348 5.34297 619.348C4.8882 619.348 4.51953 619.707 4.51953 620.151C4.51953 620.595 4.8882 620.955 5.34297 620.955Z" fill="#1CA500"/>
<path d="M5.28829 612.252C5.74306 612.252 6.11173 611.892 6.11173 611.448C6.11173 611.004 5.74306 610.644 5.28829 610.644C4.83351 610.644 4.46484 611.004 4.46484 611.448C4.46484 611.892 4.83351 612.252 5.28829 612.252Z" fill="#1CA500"/>
<path d="M5.17891 559.984C5.63369 559.984 6.00235 559.625 6.00235 559.181C6.00235 558.737 5.63369 558.377 5.17891 558.377C4.72414 558.377 4.35547 558.737 4.35547 559.181C4.35547 559.625 4.72414 559.984 5.17891 559.984Z" fill="#1CA500"/>
<path d="M5.4836 389.473C5.93837 389.473 6.30704 389.113 6.30704 388.669C6.30704 388.226 5.93837 387.866 5.4836 387.866C5.02882 387.866 4.66016 388.226 4.66016 388.669C4.66016 389.113 5.02882 389.473 5.4836 389.473Z" fill="#1CA500"/>
<path d="M5.76485 596.412C6.21962 596.412 6.58829 596.053 6.58829 595.609C6.58829 595.165 6.21962 594.805 5.76485 594.805C5.31007 594.805 4.94141 595.165 4.94141 595.609C4.94141 596.053 5.31007 596.412 5.76485 596.412Z" fill="#1CA500"/>
<path d="M5.38594 154.801C5.84072 154.801 6.20939 154.441 6.20939 153.997C6.20939 153.553 5.84072 153.193 5.38594 153.193C4.93117 153.193 4.5625 153.553 4.5625 153.997C4.5625 154.441 4.93117 154.801 5.38594 154.801Z" fill="#1CA500"/>
<path d="M5.13204 266.664C5.58681 266.664 5.95548 266.304 5.95548 265.861C5.95548 265.417 5.58681 265.057 5.13204 265.057C4.67726 265.057 4.30859 265.417 4.30859 265.861C4.30859 266.304 4.67726 266.664 5.13204 266.664Z" fill="#1CA500"/>
<path d="M5.7336 274.274C6.18837 274.274 6.55704 273.915 6.55704 273.471C6.55704 273.027 6.18837 272.667 5.7336 272.667C5.27882 272.667 4.91016 273.027 4.91016 273.471C4.91016 273.915 5.27882 274.274 5.7336 274.274Z" fill="#1CA500"/>
<path d="M5.56563 321.559C6.02041 321.559 6.38907 321.2 6.38907 320.756C6.38907 320.312 6.02041 319.952 5.56563 319.952C5.11086 319.952 4.74219 320.312 4.74219 320.756C4.74219 321.2 5.11086 321.559 5.56563 321.559Z" fill="#1CA500"/>
<path d="M5.71407 91.5882C6.16884 91.5882 6.53751 91.2284 6.53751 90.7846C6.53751 90.3407 6.16884 89.981 5.71407 89.981C5.25929 89.981 4.89062 90.3407 4.89062 90.7846C4.89062 91.2284 5.25929 91.5882 5.71407 91.5882Z" fill="#1CA500"/>
<path d="M5.25313 551.329C5.70791 551.329 6.07657 550.97 6.07657 550.526C6.07657 550.082 5.70791 549.722 5.25313 549.722C4.79836 549.722 4.42969 550.082 4.42969 550.526C4.42969 550.97 4.79836 551.329 5.25313 551.329Z" fill="#1CA500"/>
<path d="M5.55782 133.794C6.01259 133.794 6.38126 133.434 6.38126 132.991C6.38126 132.547 6.01259 132.187 5.55782 132.187C5.10304 132.187 4.73438 132.547 4.73438 132.991C4.73438 133.434 5.10304 133.794 5.55782 133.794Z" fill="#1CA500"/>
<path d="M5.05782 348.432C5.51259 348.432 5.88126 348.072 5.88126 347.629C5.88126 347.185 5.51259 346.825 5.05782 346.825C4.60304 346.825 4.23438 347.185 4.23438 347.629C4.23438 348.072 4.60304 348.432 5.05782 348.432Z" fill="#1CA500"/>
<path d="M2.84297 115.713C3.29775 115.713 3.66642 115.353 3.66642 114.909C3.66642 114.465 3.29775 114.106 2.84297 114.106C2.3882 114.106 2.01953 114.465 2.01953 114.909C2.01953 115.353 2.3882 115.713 2.84297 115.713Z" fill="#1CA500"/>
<path d="M5.11251 436.091C5.56728 436.091 5.93595 435.731 5.93595 435.287C5.93595 434.843 5.56728 434.483 5.11251 434.483C4.65773 434.483 4.28906 434.843 4.28906 435.287C4.28906 435.731 4.65773 436.091 5.11251 436.091Z" fill="#1CA500"/>
<path d="M5.02266 194.732C5.47744 194.732 5.8461 194.373 5.8461 193.929C5.8461 193.485 5.47744 193.125 5.02266 193.125C4.56789 193.125 4.19922 193.485 4.19922 193.929C4.19922 194.373 4.56789 194.732 5.02266 194.732Z" fill="#1CA500"/>
<path d="M5.33516 36.2673C5.78994 36.2673 6.1586 35.9075 6.1586 35.4637C6.1586 35.0198 5.78994 34.66 5.33516 34.66C4.88039 34.66 4.51172 35.0198 4.51172 35.4637C4.51172 35.9075 4.88039 36.2673 5.33516 36.2673Z" fill="#1CA500"/>
<path d="M5.49141 413.357C5.94619 413.357 6.31485 412.997 6.31485 412.553C6.31485 412.109 5.94619 411.749 5.49141 411.749C5.03664 411.749 4.66797 412.109 4.66797 412.553C4.66797 412.997 5.03664 413.357 5.49141 413.357Z" fill="#1CA500"/>
<path d="M4.90938 270.457C5.36416 270.457 5.73282 270.098 5.73282 269.654C5.73282 269.21 5.36416 268.85 4.90938 268.85C4.45461 268.85 4.08594 269.21 4.08594 269.654C4.08594 270.098 4.45461 270.457 4.90938 270.457Z" fill="#1CA500"/>
<path d="M5.25313 452.051C5.70791 452.051 6.07657 451.691 6.07657 451.247C6.07657 450.803 5.70791 450.443 5.25313 450.443C4.79836 450.443 4.42969 450.803 4.42969 451.247C4.42969 451.691 4.79836 452.051 5.25313 452.051Z" fill="#1CA500"/>
<path d="M5.25313 402.652C5.70791 402.652 6.07657 402.292 6.07657 401.849C6.07657 401.405 5.70791 401.045 5.25313 401.045C4.79836 401.045 4.42969 401.405 4.42969 401.849C4.42969 402.292 4.79836 402.652 5.25313 402.652Z" fill="#1CA500"/>
<path d="M3.77266 386.572C4.22744 386.572 4.5961 386.212 4.5961 385.768C4.5961 385.324 4.22744 384.965 3.77266 384.965C3.31789 384.965 2.94922 385.324 2.94922 385.768C2.94922 386.212 3.31789 386.572 3.77266 386.572Z" fill="#1CA500"/>
<path d="M4.80001 51.2386C5.25478 51.2386 5.62345 50.8788 5.62345 50.435C5.62345 49.9911 5.25478 49.6313 4.80001 49.6313C4.34523 49.6313 3.97656 49.9911 3.97656 50.435C3.97656 50.8788 4.34523 51.2386 4.80001 51.2386Z" fill="#1CA500"/>
<path d="M5.24532 292.846C5.70009 292.846 6.06876 292.486 6.06876 292.042C6.06876 291.599 5.70009 291.239 5.24532 291.239C4.79054 291.239 4.42188 291.599 4.42188 292.042C4.42188 292.486 4.79054 292.846 5.24532 292.846Z" fill="#1CA500"/>
<path d="M5.59297 506.166C6.04775 506.166 6.41642 505.806 6.41642 505.362C6.41642 504.919 6.04775 504.559 5.59297 504.559C5.1382 504.559 4.76953 504.919 4.76953 505.362C4.76953 505.806 5.1382 506.166 5.59297 506.166Z" fill="#1CA500"/>
<path d="M4.88204 352.073C5.33681 352.073 5.70548 351.713 5.70548 351.269C5.70548 350.825 5.33681 350.465 4.88204 350.465C4.42726 350.465 4.05859 350.825 4.05859 351.269C4.05859 351.713 4.42726 352.073 4.88204 352.073Z" fill="#1CA500"/>
<path d="M4.76094 458.287C5.21572 458.287 5.58439 457.927 5.58439 457.483C5.58439 457.039 5.21572 456.679 4.76094 456.679C4.30617 456.679 3.9375 457.039 3.9375 457.483C3.9375 457.927 4.30617 458.287 4.76094 458.287Z" fill="#1CA500"/>
<path d="M5.56563 124.697C6.02041 124.697 6.38907 124.337 6.38907 123.894C6.38907 123.45 6.02041 123.09 5.56563 123.09C5.11086 123.09 4.74219 123.45 4.74219 123.894C4.74219 124.337 5.11086 124.697 5.56563 124.697Z" fill="#1CA500"/>
<path d="M5.30391 424.181C5.75869 424.181 6.12735 423.821 6.12735 423.378C6.12735 422.934 5.75869 422.574 5.30391 422.574C4.84914 422.574 4.48047 422.934 4.48047 423.378C4.48047 423.821 4.84914 424.181 5.30391 424.181Z" fill="#1CA500"/>
<path d="M4.69454 455.185C5.14931 455.185 5.51798 454.825 5.51798 454.381C5.51798 453.937 5.14931 453.577 4.69454 453.577C4.23976 453.577 3.87109 453.937 3.87109 454.381C3.87109 454.825 4.23976 455.185 4.69454 455.185Z" fill="#1CA500"/>
<path d="M5.24532 342.622C5.70009 342.622 6.06876 342.262 6.06876 341.819C6.06876 341.375 5.70009 341.015 5.24532 341.015C4.79054 341.015 4.42188 341.375 4.42188 341.819C4.42188 342.262 4.79054 342.622 5.24532 342.622Z" fill="#1CA500"/>
<path d="M5.85469 68.3556C6.30947 68.3556 6.67814 67.9959 6.67814 67.552C6.67814 67.1082 6.30947 66.7484 5.85469 66.7484C5.39992 66.7484 5.03125 67.1082 5.03125 67.552C5.03125 67.9959 5.39992 68.3556 5.85469 68.3556Z" fill="#1CA500"/>
<path d="M5.27266 330.15C5.72744 330.15 6.0961 329.79 6.0961 329.346C6.0961 328.903 5.72744 328.543 5.27266 328.543C4.81789 328.543 4.44922 328.903 4.44922 329.346C4.44922 329.79 4.81789 330.15 5.27266 330.15Z" fill="#1CA500"/>
<path d="M4.95626 220.054C5.41103 220.054 5.7797 219.695 5.7797 219.251C5.7797 218.807 5.41103 218.447 4.95626 218.447C4.50148 218.447 4.13281 218.807 4.13281 219.251C4.13281 219.695 4.50148 220.054 4.95626 220.054Z" fill="#1CA500"/>
<path d="M4.32344 60.3276C4.77822 60.3276 5.14689 59.9678 5.14689 59.524C5.14689 59.0801 4.77822 58.7203 4.32344 58.7203C3.86867 58.7203 3.5 59.0801 3.5 59.524C3.5 59.9678 3.86867 60.3276 4.32344 60.3276Z" fill="#1CA500"/>
<path d="M5.1711 87.8594C5.62587 87.8594 5.99454 87.4996 5.99454 87.0558C5.99454 86.612 5.62587 86.2522 5.1711 86.2522C4.71632 86.2522 4.34766 86.612 4.34766 87.0558C4.34766 87.4996 4.71632 87.8594 5.1711 87.8594Z" fill="#1CA500"/>
<path d="M5.43672 393.644C5.8915 393.644 6.26017 393.284 6.26017 392.84C6.26017 392.396 5.8915 392.036 5.43672 392.036C4.98195 392.036 4.61328 392.396 4.61328 392.84C4.61328 393.284 4.98195 393.644 5.43672 393.644Z" fill="#1CA500"/>
<path d="M5.16329 57.1533C5.61806 57.1533 5.98673 56.7935 5.98673 56.3496C5.98673 55.9058 5.61806 55.546 5.16329 55.546C4.70851 55.546 4.33984 55.9058 4.33984 56.3496C4.33984 56.7935 4.70851 57.1533 5.16329 57.1533Z" fill="#1CA500"/>
<path d="M5.27266 577.752C5.72744 577.752 6.0961 577.392 6.0961 576.949C6.0961 576.505 5.72744 576.145 5.27266 576.145C4.81789 576.145 4.44922 576.505 4.44922 576.949C4.44922 577.392 4.81789 577.752 5.27266 577.752Z" fill="#1CA500"/>
<path d="M5.17891 96.3858C5.63369 96.3858 6.00235 96.026 6.00235 95.5822C6.00235 95.1384 5.63369 94.7786 5.17891 94.7786C4.72414 94.7786 4.35547 95.1384 4.35547 95.5822C4.35547 96.026 4.72414 96.3858 5.17891 96.3858Z" fill="#1CA500"/>
<path d="M5.91329 565.473C6.36806 565.473 6.73673 565.113 6.73673 564.669C6.73673 564.226 6.36806 563.866 5.91329 563.866C5.45851 563.866 5.08984 564.226 5.08984 564.669C5.08984 565.113 5.45851 565.473 5.91329 565.473Z" fill="#1CA500"/>
<path d="M1.50704 345.483C1.96181 345.483 2.33048 345.123 2.33048 344.679C2.33048 344.236 1.96181 343.876 1.50704 343.876C1.05226 343.876 0.683594 344.236 0.683594 344.679C0.683594 345.123 1.05226 345.483 1.50704 345.483Z" fill="#1CA500"/>
<path d="M4.4211 518.51C4.87587 518.51 5.24454 518.15 5.24454 517.706C5.24454 517.262 4.87587 516.902 4.4211 516.902C3.96632 516.902 3.59766 517.262 3.59766 517.706C3.59766 518.15 3.96632 518.51 4.4211 518.51Z" fill="#1CA500"/>
<path d="M5.51876 20.669C5.97353 20.669 6.3422 20.3092 6.3422 19.8654C6.3422 19.4216 5.97353 19.0618 5.51876 19.0618C5.06398 19.0618 4.69531 19.4216 4.69531 19.8654C4.69531 20.3092 5.06398 20.669 5.51876 20.669Z" fill="#1CA500"/>
<path d="M5.10469 440.028C5.55947 440.028 5.92814 439.669 5.92814 439.225C5.92814 438.781 5.55947 438.421 5.10469 438.421C4.64992 438.421 4.28125 438.781 4.28125 439.225C4.28125 439.669 4.64992 440.028 5.10469 440.028Z" fill="#1CA500"/>
<path d="M5.77266 510.208C6.22744 510.208 6.5961 509.849 6.5961 509.405C6.5961 508.961 6.22744 508.601 5.77266 508.601C5.31789 508.601 4.94922 508.961 4.94922 509.405C4.94922 509.849 5.31789 510.208 5.77266 510.208Z" fill="#1CA500"/>
</svg>
