<svg width="16" height="647" viewBox="0 0 16 647" fill="none" xmlns="http://www.w3.org/2000/svg">
<path d="M9.77266 350.007C10.2274 350.007 10.5961 349.648 10.5961 349.204C10.5961 348.76 10.2274 348.4 9.77266 348.4C9.31789 348.4 8.94922 348.76 8.94922 349.204C8.94922 349.648 9.31789 350.007 9.77266 350.007Z" fill="#1CA500"/>
<path d="M6.79219 41.9809C7.24697 41.9809 7.61564 41.6211 7.61564 41.1773C7.61564 40.7334 7.24697 40.3737 6.79219 40.3737C6.33742 40.3737 5.96875 40.7334 5.96875 41.1773C5.96875 41.6211 6.33742 41.9809 6.79219 41.9809Z" fill="#1CA500"/>
<path d="M8.02657 453.489C8.48134 453.489 8.85001 453.129 8.85001 452.685C8.85001 452.242 8.48134 451.882 8.02657 451.882C7.57179 451.882 7.20312 452.242 7.20312 452.685C7.20312 453.129 7.57179 453.489 8.02657 453.489Z" fill="#1CA500"/>
<path d="M7.03829 390.413C7.49306 390.413 7.86173 390.053 7.86173 389.61C7.86173 389.166 7.49306 388.806 7.03829 388.806C6.58351 388.806 6.21484 389.166 6.21484 389.61C6.21484 390.053 6.58351 390.413 7.03829 390.413Z" fill="#1CA500"/>
<path d="M7.63204 345.796C8.08681 345.796 8.45548 345.437 8.45548 344.993C8.45548 344.549 8.08681 344.189 7.63204 344.189C7.17726 344.189 6.80859 344.549 6.80859 344.993C6.80859 345.437 7.17726 345.796 7.63204 345.796Z" fill="#1CA500"/>
<path d="M9.66719 275.568C10.122 275.568 10.4906 275.208 10.4906 274.765C10.4906 274.321 10.122 273.961 9.66719 273.961C9.21242 273.961 8.84375 274.321 8.84375 274.765C8.84375 275.208 9.21242 275.568 9.66719 275.568Z" fill="#1CA500"/>
<path d="M12.55 269.903C13.0048 269.903 13.3734 269.543 13.3734 269.099C13.3734 268.655 13.0048 268.295 12.55 268.295C12.0952 268.295 11.7266 268.655 11.7266 269.099C11.7266 269.543 12.0952 269.903 12.55 269.903Z" fill="#1CA500"/>
<path d="M10.4719 500.878C10.9267 500.878 11.2953 500.518 11.2953 500.075C11.2953 499.631 10.9267 499.271 10.4719 499.271C10.0171 499.271 9.64844 499.631 9.64844 500.075C9.64844 500.518 10.0171 500.878 10.4719 500.878Z" fill="#1CA500"/>
<path d="M10.1008 608.74C10.5556 608.74 10.9242 608.38 10.9242 607.936C10.9242 607.492 10.5556 607.133 10.1008 607.133C9.64601 607.133 9.27734 607.492 9.27734 607.936C9.27734 608.38 9.64601 608.74 10.1008 608.74Z" fill="#1CA500"/>
<path d="M11.3391 635.798C11.7938 635.798 12.1625 635.438 12.1625 634.994C12.1625 634.55 11.7938 634.19 11.3391 634.19C10.8843 634.19 10.5156 634.55 10.5156 634.994C10.5156 635.438 10.8843 635.798 11.3391 635.798Z" fill="#1CA500"/>
<path d="M8.07735 627.368C8.53212 627.368 8.90079 627.008 8.90079 626.564C8.90079 626.12 8.53212 625.76 8.07735 625.76C7.62257 625.76 7.25391 626.12 7.25391 626.564C7.25391 627.008 7.62257 627.368 8.07735 627.368Z" fill="#1CA500"/>
<path d="M12.8703 167.233C13.3251 167.233 13.6938 166.873 13.6938 166.429C13.6938 165.985 13.3251 165.625 12.8703 165.625C12.4155 165.625 12.0469 165.985 12.0469 166.429C12.0469 166.873 12.4155 167.233 12.8703 167.233Z" fill="#1CA500"/>
<path d="M7.72188 129.085C8.17666 129.085 8.54532 128.725 8.54532 128.281C8.54532 127.838 8.17666 127.478 7.72188 127.478C7.26711 127.478 6.89844 127.838 6.89844 128.281C6.89844 128.725 7.26711 129.085 7.72188 129.085Z" fill="#1CA500"/>
<path d="M12.4758 526.506C12.9306 526.506 13.2992 526.146 13.2992 525.702C13.2992 525.258 12.9306 524.898 12.4758 524.898C12.021 524.898 11.6523 525.258 11.6523 525.702C11.6523 526.146 12.021 526.506 12.4758 526.506Z" fill="#1CA500"/>
<path d="M13.2063 200.326C13.661 200.326 14.0297 199.966 14.0297 199.522C14.0297 199.078 13.661 198.719 13.2063 198.719C12.7515 198.719 12.3828 199.078 12.3828 199.522C12.3828 199.966 12.7515 200.326 13.2063 200.326Z" fill="#1CA500"/>
<path d="M12.7063 128.78C13.161 128.78 13.5297 128.42 13.5297 127.976C13.5297 127.532 13.161 127.172 12.7063 127.172C12.2515 127.172 11.8828 127.532 11.8828 127.976C11.8828 128.42 12.2515 128.78 12.7063 128.78Z" fill="#1CA500"/>
<path d="M10.5969 512.225C11.0517 512.225 11.4203 511.866 11.4203 511.422C11.4203 510.978 11.0517 510.618 10.5969 510.618C10.1421 510.618 9.77344 510.978 9.77344 511.422C9.77344 511.866 10.1421 512.225 10.5969 512.225Z" fill="#1CA500"/>
<path d="M9.87032 237.686C10.3251 237.686 10.6938 237.326 10.6938 236.882C10.6938 236.438 10.3251 236.079 9.87032 236.079C9.41554 236.079 9.04688 236.438 9.04688 236.882C9.04688 237.326 9.41554 237.686 9.87032 237.686Z" fill="#1CA500"/>
<path d="M12.0617 338.692C12.5165 338.692 12.8852 338.333 12.8852 337.889C12.8852 337.445 12.5165 337.085 12.0617 337.085C11.6069 337.085 11.2383 337.445 11.2383 337.889C11.2383 338.333 11.6069 338.692 12.0617 338.692Z" fill="#1CA500"/>
<path d="M12.9289 375.169C13.3837 375.169 13.7524 374.809 13.7524 374.365C13.7524 373.921 13.3837 373.561 12.9289 373.561C12.4741 373.561 12.1055 373.921 12.1055 374.365C12.1055 374.809 12.4741 375.169 12.9289 375.169Z" fill="#1CA500"/>
<path d="M12.3586 31.6706C12.8134 31.6706 13.182 31.3108 13.182 30.867C13.182 30.4231 12.8134 30.0634 12.3586 30.0634C11.9038 30.0634 11.5352 30.4231 11.5352 30.867C11.5352 31.3108 11.9038 31.6706 12.3586 31.6706Z" fill="#1CA500"/>
<path d="M13.4367 417.23C13.8915 417.23 14.2602 416.87 14.2602 416.426C14.2602 415.982 13.8915 415.623 13.4367 415.623C12.9819 415.623 12.6133 415.982 12.6133 416.426C12.6133 416.87 12.9819 417.23 13.4367 417.23Z" fill="#1CA500"/>
<path d="M7.03047 122.23C7.48525 122.23 7.85392 121.87 7.85392 121.427C7.85392 120.983 7.48525 120.623 7.03047 120.623C6.5757 120.623 6.20703 120.983 6.20703 121.427C6.20703 121.87 6.5757 122.23 7.03047 122.23Z" fill="#1CA500"/>
<path d="M10.3508 134.847C10.8056 134.847 11.1742 134.487 11.1742 134.043C11.1742 133.6 10.8056 133.24 10.3508 133.24C9.89601 133.24 9.52734 133.6 9.52734 134.043C9.52734 134.487 9.89601 134.847 10.3508 134.847Z" fill="#1CA500"/>
<path d="M11.3313 507.155C11.786 507.155 12.1547 506.795 12.1547 506.351C12.1547 505.907 11.786 505.547 11.3313 505.547C10.8765 505.547 10.5078 505.907 10.5078 506.351C10.5078 506.795 10.8765 507.155 11.3313 507.155Z" fill="#1CA500"/>
<path d="M7.40157 93.091C7.85634 93.091 8.22501 92.7312 8.22501 92.2874C8.22501 91.8436 7.85634 91.4838 7.40157 91.4838C6.94679 91.4838 6.57812 91.8436 6.57812 92.2874C6.57812 92.7312 6.94679 93.091 7.40157 93.091Z" fill="#1CA500"/>
<path d="M10.8859 267.419C11.3407 267.419 11.7094 267.06 11.7094 266.616C11.7094 266.172 11.3407 265.812 10.8859 265.812C10.4312 265.812 10.0625 266.172 10.0625 266.616C10.0625 267.06 10.4312 267.419 10.8859 267.419Z" fill="#1CA500"/>
<path d="M8.3586 185.531C8.81337 185.531 9.18204 185.171 9.18204 184.727C9.18204 184.284 8.81337 183.924 8.3586 183.924C7.90382 183.924 7.53516 184.284 7.53516 184.727C7.53516 185.171 7.90382 185.531 8.3586 185.531Z" fill="#1CA500"/>
<path d="M11.7922 84.2834C12.247 84.2834 12.6156 83.9236 12.6156 83.4798C12.6156 83.0359 12.247 82.6761 11.7922 82.6761C11.3374 82.6761 10.9688 83.0359 10.9688 83.4798C10.9688 83.9236 11.3374 84.2834 11.7922 84.2834Z" fill="#1CA500"/>
<path d="M12.2023 394.182C12.6571 394.182 13.0258 393.822 13.0258 393.379C13.0258 392.935 12.6571 392.575 12.2023 392.575C11.7476 392.575 11.3789 392.935 11.3789 393.379C11.3789 393.822 11.7476 394.182 12.2023 394.182Z" fill="#1CA500"/>
<path d="M8.27657 85.4808C8.73134 85.4808 9.10001 85.121 9.10001 84.6772C9.10001 84.2333 8.73134 83.8735 8.27657 83.8735C7.82179 83.8735 7.45312 84.2333 7.45312 84.6772C7.45312 85.121 7.82179 85.4808 8.27657 85.4808Z" fill="#1CA500"/>
<path d="M12.6398 75.315C13.0946 75.315 13.4633 74.9552 13.4633 74.5114C13.4633 74.0676 13.0946 73.7078 12.6398 73.7078C12.1851 73.7078 11.8164 74.0676 11.8164 74.5114C11.8164 74.9552 12.1851 75.315 12.6398 75.315Z" fill="#1CA500"/>
<path d="M9.77266 603.131C10.2274 603.131 10.5961 602.771 10.5961 602.327C10.5961 601.883 10.2274 601.523 9.77266 601.523C9.31789 601.523 8.94922 601.883 8.94922 602.327C8.94922 602.771 9.31789 603.131 9.77266 603.131Z" fill="#1CA500"/>
<path d="M12.6477 638.482C13.1024 638.482 13.4711 638.122 13.4711 637.678C13.4711 637.234 13.1024 636.875 12.6477 636.875C12.1929 636.875 11.8242 637.234 11.8242 637.678C11.8242 638.122 12.1929 638.482 12.6477 638.482Z" fill="#1CA500"/>
<path d="M8.14376 334.899C8.59853 334.899 8.9672 334.539 8.9672 334.096C8.9672 333.652 8.59853 333.292 8.14376 333.292C7.68898 333.292 7.32031 333.652 7.32031 334.096C7.32031 334.539 7.68898 334.899 8.14376 334.899Z" fill="#1CA500"/>
<path d="M9.01485 205.437C9.46962 205.437 9.83829 205.077 9.83829 204.633C9.83829 204.189 9.46962 203.829 9.01485 203.829C8.56007 203.829 8.19141 204.189 8.19141 204.633C8.19141 205.077 8.56007 205.437 9.01485 205.437Z" fill="#1CA500"/>
<path d="M2.90547 508.593C3.36025 508.593 3.72892 508.233 3.72892 507.789C3.72892 507.346 3.36025 506.986 2.90547 506.986C2.4507 506.986 2.08203 507.346 2.08203 507.789C2.08203 508.233 2.4507 508.593 2.90547 508.593Z" fill="#1CA500"/>
<path d="M13.2727 159.743C13.7274 159.743 14.0961 159.383 14.0961 158.939C14.0961 158.496 13.7274 158.136 13.2727 158.136C12.8179 158.136 12.4492 158.496 12.4492 158.939C12.4492 159.383 12.8179 159.743 13.2727 159.743Z" fill="#1CA500"/>
<path d="M2.08126 107.178C2.53603 107.178 2.9047 106.819 2.9047 106.375C2.9047 105.931 2.53603 105.571 2.08126 105.571C1.62648 105.571 1.25781 105.931 1.25781 106.375C1.25781 106.819 1.62648 107.178 2.08126 107.178Z" fill="#1CA500"/>
<path d="M12.4992 352.772C12.954 352.772 13.3227 352.412 13.3227 351.968C13.3227 351.524 12.954 351.165 12.4992 351.165C12.0444 351.165 11.6758 351.524 11.6758 351.968C11.6758 352.412 12.0444 352.772 12.4992 352.772Z" fill="#1CA500"/>
<path d="M7.82344 240.49C8.27822 240.49 8.64689 240.13 8.64689 239.687C8.64689 239.243 8.27822 238.883 7.82344 238.883C7.36867 238.883 7 239.243 7 239.687C7 240.13 7.36867 240.49 7.82344 240.49Z" fill="#1CA500"/>
<path d="M12.1281 259.681C12.5829 259.681 12.9516 259.321 12.9516 258.877C12.9516 258.433 12.5829 258.073 12.1281 258.073C11.6734 258.073 11.3047 258.433 11.3047 258.877C11.3047 259.321 11.6734 259.681 12.1281 259.681Z" fill="#1CA500"/>
<path d="M2.88985 235.926C3.34462 235.926 3.71329 235.566 3.71329 235.122C3.71329 234.678 3.34462 234.319 2.88985 234.319C2.43507 234.319 2.06641 234.678 2.06641 235.122C2.06641 235.566 2.43507 235.926 2.88985 235.926Z" fill="#1CA500"/>
<path d="M10.4914 312.567C10.9462 312.567 11.3149 312.207 11.3149 311.763C11.3149 311.319 10.9462 310.959 10.4914 310.959C10.0366 310.959 9.66797 311.319 9.66797 311.763C9.66797 312.207 10.0366 312.567 10.4914 312.567Z" fill="#1CA500"/>
<path d="M6.90938 46.4732C7.36416 46.4732 7.73282 46.1134 7.73282 45.6696C7.73282 45.2258 7.36416 44.866 6.90938 44.866C6.45461 44.866 6.08594 45.2258 6.08594 45.6696C6.08594 46.1134 6.45461 46.4732 6.90938 46.4732Z" fill="#1CA500"/>
<path d="M7.94454 566.622C8.39931 566.622 8.76798 566.263 8.76798 565.819C8.76798 565.375 8.39931 565.015 7.94454 565.015C7.48976 565.015 7.12109 565.375 7.12109 565.819C7.12109 566.263 7.48976 566.622 7.94454 566.622Z" fill="#1CA500"/>
<path d="M8.16719 208.37C8.62197 208.37 8.99064 208.01 8.99064 207.566C8.99064 207.122 8.62197 206.763 8.16719 206.763C7.71242 206.763 7.34375 207.122 7.34375 207.566C7.34375 208.01 7.71242 208.37 8.16719 208.37Z" fill="#1CA500"/>
<path d="M10.4992 103.771C10.954 103.771 11.3227 103.411 11.3227 102.967C11.3227 102.524 10.954 102.164 10.4992 102.164C10.0444 102.164 9.67578 102.524 9.67578 102.967C9.67578 103.411 10.0444 103.771 10.4992 103.771Z" fill="#1CA500"/>
<path d="M11.2805 452.718C11.7352 452.718 12.1039 452.358 12.1039 451.914C12.1039 451.47 11.7352 451.11 11.2805 451.11C10.8257 451.11 10.457 451.47 10.457 451.914C10.457 452.358 10.8257 452.718 11.2805 452.718Z" fill="#1CA500"/>
<path d="M8.56954 504.438C9.02431 504.438 9.39298 504.078 9.39298 503.635C9.39298 503.191 9.02431 502.831 8.56954 502.831C8.11476 502.831 7.74609 503.191 7.74609 503.635C7.74609 504.078 8.11476 504.438 8.56954 504.438Z" fill="#1CA500"/>
<path d="M8.71797 181.175C9.17275 181.175 9.54142 180.816 9.54142 180.372C9.54142 179.928 9.17275 179.568 8.71797 179.568C8.2632 179.568 7.89453 179.928 7.89453 180.372C7.89453 180.816 8.2632 181.175 8.71797 181.175Z" fill="#1CA500"/>
<path d="M12.7805 277.36C13.2352 277.36 13.6039 277.001 13.6039 276.557C13.6039 276.113 13.2352 275.753 12.7805 275.753C12.3257 275.753 11.957 276.113 11.957 276.557C11.957 277.001 12.3257 277.36 12.7805 277.36Z" fill="#1CA500"/>
<path d="M13.3078 413.469C13.7626 413.469 14.1313 413.109 14.1313 412.665C14.1313 412.222 13.7626 411.862 13.3078 411.862C12.853 411.862 12.4844 412.222 12.4844 412.665C12.4844 413.109 12.853 413.469 13.3078 413.469Z" fill="#1CA500"/>
<path d="M12.1203 616.246C12.5751 616.246 12.9438 615.886 12.9438 615.442C12.9438 614.998 12.5751 614.638 12.1203 614.638C11.6655 614.638 11.2969 614.998 11.2969 615.442C11.2969 615.886 11.6655 616.246 12.1203 616.246Z" fill="#1CA500"/>
<path d="M13.0188 180.066C13.4735 180.066 13.8422 179.707 13.8422 179.263C13.8422 178.819 13.4735 178.459 13.0188 178.459C12.564 178.459 12.1953 178.819 12.1953 179.263C12.1953 179.707 12.564 180.066 13.0188 180.066Z" fill="#1CA500"/>
<path d="M9.76485 621.091C10.2196 621.091 10.5883 620.732 10.5883 620.288C10.5883 619.844 10.2196 619.484 9.76485 619.484C9.31007 619.484 8.94141 619.844 8.94141 620.288C8.94141 620.732 9.31007 621.091 9.76485 621.091Z" fill="#1CA500"/>
<path d="M7.47579 244.782C7.93056 244.782 8.29923 244.422 8.29923 243.978C8.29923 243.534 7.93056 243.175 7.47579 243.175C7.02101 243.175 6.65234 243.534 6.65234 243.978C6.65234 244.422 7.02101 244.782 7.47579 244.782Z" fill="#1CA500"/>
<path d="M12.4836 435.03C12.9384 435.03 13.307 434.67 13.307 434.226C13.307 433.783 12.9384 433.423 12.4836 433.423C12.0288 433.423 11.6602 433.783 11.6602 434.226C11.6602 434.67 12.0288 435.03 12.4836 435.03Z" fill="#1CA500"/>
<path d="M10.7453 483.456C11.2001 483.456 11.5688 483.096 11.5688 482.652C11.5688 482.208 11.2001 481.849 10.7453 481.849C10.2905 481.849 9.92188 482.208 9.92188 482.652C9.92188 483.096 10.2905 483.456 10.7453 483.456Z" fill="#1CA500"/>
<path d="M12.1594 244.3C12.6142 244.3 12.9828 243.94 12.9828 243.496C12.9828 243.052 12.6142 242.692 12.1594 242.692C11.7046 242.692 11.3359 243.052 11.3359 243.496C11.3359 243.94 11.7046 244.3 12.1594 244.3Z" fill="#1CA500"/>
<path d="M12.0031 100.259C12.4579 100.259 12.8266 99.8994 12.8266 99.4556C12.8266 99.0118 12.4579 98.652 12.0031 98.652C11.5484 98.652 11.1797 99.0118 11.1797 99.4556C11.1797 99.8994 11.5484 100.259 12.0031 100.259Z" fill="#1CA500"/>
<path d="M12.3586 309.979C12.8134 309.979 13.182 309.619 13.182 309.175C13.182 308.732 12.8134 308.372 12.3586 308.372C11.9038 308.372 11.5352 308.732 11.5352 309.175C11.5352 309.619 11.9038 309.979 12.3586 309.979Z" fill="#1CA500"/>
<path d="M8.16719 530.741C8.62197 530.741 8.99064 530.381 8.99064 529.937C8.99064 529.493 8.62197 529.134 8.16719 529.134C7.71242 529.134 7.34375 529.493 7.34375 529.937C7.34375 530.381 7.71242 530.741 8.16719 530.741Z" fill="#1CA500"/>
<path d="M11.2805 51.7369C11.7352 51.7369 12.1039 51.3771 12.1039 50.9333C12.1039 50.4894 11.7352 50.1296 11.2805 50.1296C10.8257 50.1296 10.457 50.4894 10.457 50.9333C10.457 51.3771 10.8257 51.7369 11.2805 51.7369Z" fill="#1CA500"/>
<path d="M9.94454 74.4792C10.3993 74.4792 10.768 74.1194 10.768 73.6756C10.768 73.2317 10.3993 72.8719 9.94454 72.8719C9.48976 72.8719 9.12109 73.2317 9.12109 73.6756C9.12109 74.1194 9.48976 74.4792 9.94454 74.4792Z" fill="#1CA500"/>
<path d="M7.05782 616.76C7.51259 616.76 7.88126 616.4 7.88126 615.956C7.88126 615.512 7.51259 615.153 7.05782 615.153C6.60304 615.153 6.23438 615.512 6.23438 615.956C6.23438 616.4 6.60304 616.76 7.05782 616.76Z" fill="#1CA500"/>
<path d="M12.0617 488.912C12.5165 488.912 12.8852 488.553 12.8852 488.109C12.8852 487.665 12.5165 487.305 12.0617 487.305C11.6069 487.305 11.2383 487.665 11.2383 488.109C11.2383 488.553 11.6069 488.912 12.0617 488.912Z" fill="#1CA500"/>
<path d="M4.97188 54.4692C5.42666 54.4692 5.79532 54.1094 5.79532 53.6656C5.79532 53.2217 5.42666 52.8619 4.97188 52.8619C4.51711 52.8619 4.14844 53.2217 4.14844 53.6656C4.14844 54.1094 4.51711 54.4692 4.97188 54.4692Z" fill="#1CA500"/>
<path d="M7.82344 540.457C8.27822 540.457 8.64689 540.097 8.64689 539.653C8.64689 539.209 8.27822 538.849 7.82344 538.849C7.36867 538.849 7 539.209 7 539.653C7 540.097 7.36867 540.457 7.82344 540.457Z" fill="#1CA500"/>
<path d="M13.4211 620.296C13.8759 620.296 14.2445 619.936 14.2445 619.492C14.2445 619.048 13.8759 618.688 13.4211 618.688C12.9663 618.688 12.5977 619.048 12.5977 619.492C12.5977 619.936 12.9663 620.296 13.4211 620.296Z" fill="#1CA500"/>
<path d="M12.2453 72.3255C12.7001 72.3255 13.0688 71.9657 13.0688 71.5219C13.0688 71.0781 12.7001 70.7183 12.2453 70.7183C11.7905 70.7183 11.4219 71.0781 11.4219 71.5219C11.4219 71.9657 11.7905 72.3255 12.2453 72.3255Z" fill="#1CA500"/>
<path d="M7.03047 163.094C7.48525 163.094 7.85392 162.734 7.85392 162.29C7.85392 161.847 7.48525 161.487 7.03047 161.487C6.5757 161.487 6.20703 161.847 6.20703 162.29C6.20703 162.734 6.5757 163.094 7.03047 163.094Z" fill="#1CA500"/>
<path d="M10.5813 62.216C11.036 62.216 11.4047 61.8562 11.4047 61.4124C11.4047 60.9686 11.036 60.6088 10.5813 60.6088C10.1265 60.6088 9.75781 60.9686 9.75781 61.4124C9.75781 61.8562 10.1265 62.216 10.5813 62.216Z" fill="#1CA500"/>
<path d="M13.1984 41.772C13.6532 41.772 14.0219 41.4122 14.0219 40.9684C14.0219 40.5246 13.6532 40.1648 13.1984 40.1648C12.7437 40.1648 12.375 40.5246 12.375 40.9684C12.375 41.4122 12.7437 41.772 13.1984 41.772Z" fill="#1CA500"/>
<path d="M9.95626 523.797C10.411 523.797 10.7797 523.438 10.7797 522.994C10.7797 522.55 10.411 522.19 9.95626 522.19C9.50148 522.19 9.13281 522.55 9.13281 522.994C9.13281 523.438 9.50148 523.797 9.95626 523.797Z" fill="#1CA500"/>
<path d="M5.33516 79.0839C5.78994 79.0839 6.1586 78.7241 6.1586 78.2803C6.1586 77.8365 5.78994 77.4767 5.33516 77.4767C4.88039 77.4767 4.51172 77.8365 4.51172 78.2803C4.51172 78.7241 4.88039 79.0839 5.33516 79.0839Z" fill="#1CA500"/>
<path d="M6.13204 222.819C6.58681 222.819 6.95548 222.459 6.95548 222.015C6.95548 221.571 6.58681 221.212 6.13204 221.212C5.67726 221.212 5.30859 221.571 5.30859 222.015C5.30859 222.459 5.67726 222.819 6.13204 222.819Z" fill="#1CA500"/>
<path d="M8.33126 147.681C8.78603 147.681 9.1547 147.321 9.1547 146.877C9.1547 146.433 8.78603 146.073 8.33126 146.073C7.87648 146.073 7.50781 146.433 7.50781 146.877C7.50781 147.321 7.87648 147.681 8.33126 147.681Z" fill="#1CA500"/>
<path d="M12.5813 182.389C13.036 182.389 13.4047 182.029 13.4047 181.585C13.4047 181.142 13.036 180.782 12.5813 180.782C12.1265 180.782 11.7578 181.142 11.7578 181.585C11.7578 182.029 12.1265 182.389 12.5813 182.389Z" fill="#1CA500"/>
<path d="M13.3469 48.8278C13.8017 48.8278 14.1703 48.468 14.1703 48.0242C14.1703 47.5804 13.8017 47.2206 13.3469 47.2206C12.8921 47.2206 12.5234 47.5804 12.5234 48.0242C12.5234 48.468 12.8921 48.8278 13.3469 48.8278Z" fill="#1CA500"/>
<path d="M12.3 241.953C12.7548 241.953 13.1234 241.593 13.1234 241.149C13.1234 240.705 12.7548 240.346 12.3 240.346C11.8452 240.346 11.4766 240.705 11.4766 241.149C11.4766 241.593 11.8452 241.953 12.3 241.953Z" fill="#1CA500"/>
<path d="M11.2727 344.181C11.7274 344.181 12.0961 343.821 12.0961 343.377C12.0961 342.934 11.7274 342.574 11.2727 342.574C10.8179 342.574 10.4492 342.934 10.4492 343.377C10.4492 343.821 10.8179 344.181 11.2727 344.181Z" fill="#1CA500"/>
<path d="M7.13985 37.7941C7.59462 37.7941 7.96329 37.4343 7.96329 36.9905C7.96329 36.5467 7.59462 36.1869 7.13985 36.1869C6.68507 36.1869 6.31641 36.5467 6.31641 36.9905C6.31641 37.4343 6.68507 37.7941 7.13985 37.7941Z" fill="#1CA500"/>
<path d="M13.1672 464.917C13.622 464.917 13.9906 464.557 13.9906 464.113C13.9906 463.669 13.622 463.309 13.1672 463.309C12.7124 463.309 12.3438 463.669 12.3438 464.113C12.3438 464.557 12.7124 464.917 13.1672 464.917Z" fill="#1CA500"/>
<path d="M9.57735 22.6941C10.0321 22.6941 10.4008 22.3344 10.4008 21.8905C10.4008 21.4467 10.0321 21.0869 9.57735 21.0869C9.12257 21.0869 8.75391 21.4467 8.75391 21.8905C8.75391 22.3344 9.12257 22.6941 9.57735 22.6941Z" fill="#1CA500"/>
<path d="M12.2922 280.591C12.747 280.591 13.1156 280.231 13.1156 279.787C13.1156 279.343 12.747 278.984 12.2922 278.984C11.8374 278.984 11.4688 279.343 11.4688 279.787C11.4688 280.231 11.8374 280.591 12.2922 280.591Z" fill="#1CA500"/>
<path d="M10.0461 404.332C10.5009 404.332 10.8695 403.972 10.8695 403.528C10.8695 403.084 10.5009 402.725 10.0461 402.725C9.59132 402.725 9.22266 403.084 9.22266 403.528C9.22266 403.972 9.59132 404.332 10.0461 404.332Z" fill="#1CA500"/>
<path d="M7.83126 230.341C8.28603 230.341 8.6547 229.981 8.6547 229.537C8.6547 229.093 8.28603 228.733 7.83126 228.733C7.37648 228.733 7.00781 229.093 7.00781 229.537C7.00781 229.981 7.37648 230.341 7.83126 230.341Z" fill="#1CA500"/>
<path d="M11.8547 455.41C12.3095 455.41 12.6781 455.05 12.6781 454.606C12.6781 454.162 12.3095 453.802 11.8547 453.802C11.3999 453.802 11.0312 454.162 11.0312 454.606C11.0312 455.05 11.3999 455.41 11.8547 455.41Z" fill="#1CA500"/>
<path d="M7.35079 143.574C7.80556 143.574 8.17423 143.214 8.17423 142.771C8.17423 142.327 7.80556 141.967 7.35079 141.967C6.89601 141.967 6.52734 142.327 6.52734 142.771C6.52734 143.214 6.89601 143.574 7.35079 143.574Z" fill="#1CA500"/>
<path d="M10.0695 645.963C10.5243 645.963 10.893 645.604 10.893 645.16C10.893 644.716 10.5243 644.356 10.0695 644.356C9.61476 644.356 9.24609 644.716 9.24609 645.16C9.24609 645.604 9.61476 645.963 10.0695 645.963Z" fill="#1CA500"/>
<path d="M9.12422 397.284C9.579 397.284 9.94767 396.924 9.94767 396.48C9.94767 396.037 9.579 395.677 9.12422 395.677C8.66945 395.677 8.30078 396.037 8.30078 396.48C8.30078 396.924 8.66945 397.284 9.12422 397.284Z" fill="#1CA500"/>
<path d="M9.67501 200.157C10.1298 200.157 10.4984 199.797 10.4984 199.353C10.4984 198.909 10.1298 198.55 9.67501 198.55C9.22023 198.55 8.85156 198.909 8.85156 199.353C8.85156 199.797 9.22023 200.157 9.67501 200.157Z" fill="#1CA500"/>
<path d="M12.6555 571.098C13.1102 571.098 13.4789 570.739 13.4789 570.295C13.4789 569.851 13.1102 569.491 12.6555 569.491C12.2007 569.491 11.832 569.851 11.832 570.295C11.832 570.739 12.2007 571.098 12.6555 571.098Z" fill="#1CA500"/>
<path d="M12.4563 288.45C12.911 288.45 13.2797 288.09 13.2797 287.647C13.2797 287.203 12.911 286.843 12.4563 286.843C12.0015 286.843 11.6328 287.203 11.6328 287.647C11.6328 288.09 12.0015 288.45 12.4563 288.45Z" fill="#1CA500"/>
<path d="M7.94454 177.181C8.39931 177.181 8.76798 176.822 8.76798 176.378C8.76798 175.934 8.39931 175.574 7.94454 175.574C7.48976 175.574 7.12109 175.934 7.12109 176.378C7.12109 176.822 7.48976 177.181 7.94454 177.181Z" fill="#1CA500"/>
<path d="M7.36251 514.259C7.81728 514.259 8.18595 513.899 8.18595 513.455C8.18595 513.011 7.81728 512.651 7.36251 512.651C6.90773 512.651 6.53906 513.011 6.53906 513.455C6.53906 513.899 6.90773 514.259 7.36251 514.259Z" fill="#1CA500"/>
<path d="M9.4211 140.279C9.87587 140.279 10.2445 139.92 10.2445 139.476C10.2445 139.032 9.87587 138.672 9.4211 138.672C8.96632 138.672 8.59766 139.032 8.59766 139.476C8.59766 139.92 8.96632 140.279 9.4211 140.279Z" fill="#1CA500"/>
<path d="M9.38594 5.58514C9.84072 5.58514 10.2094 5.22535 10.2094 4.78152C10.2094 4.3377 9.84072 3.97791 9.38594 3.97791C8.93117 3.97791 8.5625 4.3377 8.5625 4.78152C8.5625 5.22535 8.93117 5.58514 9.38594 5.58514Z" fill="#1CA500"/>
<path d="M12.2023 470.204C12.6571 470.204 13.0258 469.845 13.0258 469.401C13.0258 468.957 12.6571 468.597 12.2023 468.597C11.7476 468.597 11.3789 468.957 11.3789 469.401C11.3789 469.845 11.7476 470.204 12.2023 470.204Z" fill="#1CA500"/>
<path d="M13.132 238.112C13.5868 238.112 13.9555 237.752 13.9555 237.308C13.9555 236.864 13.5868 236.504 13.132 236.504C12.6773 236.504 12.3086 236.864 12.3086 237.308C12.3086 237.752 12.6773 238.112 13.132 238.112Z" fill="#1CA500"/>
<path d="M13.2961 135.064C13.7509 135.064 14.1195 134.704 14.1195 134.26C14.1195 133.816 13.7509 133.457 13.2961 133.457C12.8413 133.457 12.4727 133.816 12.4727 134.26C12.4727 134.704 12.8413 135.064 13.2961 135.064Z" fill="#1CA500"/>
<path d="M8.37422 379.556C8.829 379.556 9.19767 379.196 9.19767 378.753C9.19767 378.309 8.829 377.949 8.37422 377.949C7.91945 377.949 7.55078 378.309 7.55078 378.753C7.55078 379.196 7.91945 379.556 8.37422 379.556Z" fill="#1CA500"/>
<path d="M12.8547 589.148C13.3095 589.148 13.6781 588.788 13.6781 588.344C13.6781 587.9 13.3095 587.541 12.8547 587.541C12.3999 587.541 12.0312 587.9 12.0312 588.344C12.0312 588.788 12.3999 589.148 12.8547 589.148Z" fill="#1CA500"/>
<path d="M13.3547 467.359C13.8095 467.359 14.1781 467 14.1781 466.556C14.1781 466.112 13.8095 465.752 13.3547 465.752C12.8999 465.752 12.5312 466.112 12.5312 466.556C12.5312 467 12.8999 467.359 13.3547 467.359Z" fill="#1CA500"/>
<path d="M12.6633 567.683C13.1181 567.683 13.4867 567.323 13.4867 566.879C13.4867 566.435 13.1181 566.076 12.6633 566.076C12.2085 566.076 11.8398 566.435 11.8398 566.879C11.8398 567.323 12.2085 567.683 12.6633 567.683Z" fill="#1CA500"/>
<path d="M1.44063 394.351C1.89541 394.351 2.26407 393.991 2.26407 393.547C2.26407 393.103 1.89541 392.744 1.44063 392.744C0.985855 392.744 0.617188 393.103 0.617188 393.547C0.617188 393.991 0.985855 394.351 1.44063 394.351Z" fill="#1CA500"/>
<path d="M13.1008 300.489C13.5556 300.489 13.9242 300.129 13.9242 299.685C13.9242 299.241 13.5556 298.881 13.1008 298.881C12.646 298.881 12.2773 299.241 12.2773 299.685C12.2773 300.129 12.646 300.489 13.1008 300.489Z" fill="#1CA500"/>
<path d="M9.37032 363.805C9.82509 363.805 10.1938 363.446 10.1938 363.002C10.1938 362.558 9.82509 362.198 9.37032 362.198C8.91554 362.198 8.54688 362.558 8.54688 363.002C8.54688 363.446 8.91554 363.805 9.37032 363.805Z" fill="#1CA500"/>
<path d="M8.3586 416.097C8.81337 416.097 9.18204 415.737 9.18204 415.293C9.18204 414.849 8.81337 414.49 8.3586 414.49C7.90382 414.49 7.53516 414.849 7.53516 415.293C7.53516 415.737 7.90382 416.097 8.3586 416.097Z" fill="#1CA500"/>
<path d="M10.6867 479.309C11.1415 479.309 11.5102 478.95 11.5102 478.506C11.5102 478.062 11.1415 477.702 10.6867 477.702C10.2319 477.702 9.86328 478.062 9.86328 478.506C9.86328 478.95 10.2319 479.309 10.6867 479.309Z" fill="#1CA500"/>
<path d="M10.1008 15.4374C10.5556 15.4374 10.9242 15.0776 10.9242 14.6338C10.9242 14.19 10.5556 13.8302 10.1008 13.8302C9.64601 13.8302 9.27734 14.19 9.27734 14.6338C9.27734 15.0776 9.64601 15.4374 10.1008 15.4374Z" fill="#1CA500"/>
<path d="M11.1633 291.689C11.6181 291.689 11.9867 291.329 11.9867 290.885C11.9867 290.441 11.6181 290.082 11.1633 290.082C10.7085 290.082 10.3398 290.441 10.3398 290.885C10.3398 291.329 10.7085 291.689 11.1633 291.689Z" fill="#1CA500"/>
<path d="M5.96797 61.7017C6.42275 61.7017 6.79142 61.3419 6.79142 60.8981C6.79142 60.4543 6.42275 60.0945 5.96797 60.0945C5.5132 60.0945 5.14453 60.4543 5.14453 60.8981C5.14453 61.3419 5.5132 61.7017 5.96797 61.7017Z" fill="#1CA500"/>
<path d="M13.0188 522.737C13.4735 522.737 13.8422 522.377 13.8422 521.933C13.8422 521.489 13.4735 521.129 13.0188 521.129C12.564 521.129 12.1953 521.489 12.1953 521.933C12.1953 522.377 12.564 522.737 13.0188 522.737Z" fill="#1CA500"/>
<path d="M11.1633 423.779C11.6181 423.779 11.9867 423.42 11.9867 422.976C11.9867 422.532 11.6181 422.172 11.1633 422.172C10.7085 422.172 10.3398 422.532 10.3398 422.976C10.3398 423.42 10.7085 423.779 11.1633 423.779Z" fill="#1CA500"/>
<path d="M6.79219 623.317C7.24697 623.317 7.61564 622.958 7.61564 622.514C7.61564 622.07 7.24697 621.71 6.79219 621.71C6.33742 621.71 5.96875 622.07 5.96875 622.514C5.96875 622.958 6.33742 623.317 6.79219 623.317Z" fill="#1CA500"/>
<path d="M13.5188 541.935C13.9735 541.935 14.3422 541.575 14.3422 541.131C14.3422 540.688 13.9735 540.328 13.5188 540.328C13.064 540.328 12.6953 540.688 12.6953 541.131C12.6953 541.575 13.064 541.935 13.5188 541.935Z" fill="#1CA500"/>
<path d="M10.1008 247.795C10.5556 247.795 10.9242 247.435 10.9242 246.992C10.9242 246.548 10.5556 246.188 10.1008 246.188C9.64601 246.188 9.27734 246.548 9.27734 246.992C9.27734 247.435 9.64601 247.795 10.1008 247.795Z" fill="#1CA500"/>
<path d="M9.24532 89.5069C9.70009 89.5069 10.0688 89.1471 10.0688 88.7033C10.0688 88.2594 9.70009 87.8997 9.24532 87.8997C8.79054 87.8997 8.42188 88.2594 8.42188 88.7033C8.42188 89.1471 8.79054 89.5069 9.24532 89.5069Z" fill="#1CA500"/>
<path d="M11.9953 153.089C12.4501 153.089 12.8188 152.729 12.8188 152.285C12.8188 151.842 12.4501 151.482 11.9953 151.482C11.5405 151.482 11.1719 151.842 11.1719 152.285C11.1719 152.729 11.5405 153.089 11.9953 153.089Z" fill="#1CA500"/>
<path d="M7.26094 308.163C7.71572 308.163 8.08439 307.803 8.08439 307.359C8.08439 306.915 7.71572 306.556 7.26094 306.556C6.80617 306.556 6.4375 306.915 6.4375 307.359C6.4375 307.803 6.80617 308.163 7.26094 308.163Z" fill="#1CA500"/>
<path d="M2.33907 32.434C2.79384 32.434 3.16251 32.0742 3.16251 31.6304C3.16251 31.1866 2.79384 30.8268 2.33907 30.8268C1.88429 30.8268 1.51562 31.1866 1.51562 31.6304C1.51562 32.0742 1.88429 32.434 2.33907 32.434Z" fill="#1CA500"/>
<path d="M8.52266 262.108C8.97744 262.108 9.3461 261.748 9.3461 261.304C9.3461 260.86 8.97744 260.5 8.52266 260.5C8.06789 260.5 7.69922 260.86 7.69922 261.304C7.69922 261.748 8.06789 262.108 8.52266 262.108Z" fill="#1CA500"/>
<path d="M9.04219 593.503C9.49697 593.503 9.86564 593.143 9.86564 592.7C9.86564 592.256 9.49697 591.896 9.04219 591.896C8.58742 591.896 8.21875 592.256 8.21875 592.7C8.21875 593.143 8.58742 593.503 9.04219 593.503Z" fill="#1CA500"/>
<path d="M8.62813 442.632C9.08291 442.632 9.45157 442.272 9.45157 441.829C9.45157 441.385 9.08291 441.025 8.62813 441.025C8.17336 441.025 7.80469 441.385 7.80469 441.829C7.80469 442.272 8.17336 442.632 8.62813 442.632Z" fill="#1CA500"/>
<path d="M12.5734 11.9819C13.0282 11.9819 13.3969 11.6221 13.3969 11.1783C13.3969 10.7344 13.0282 10.3746 12.5734 10.3746C12.1187 10.3746 11.75 10.7344 11.75 11.1783C11.75 11.6221 12.1187 11.9819 12.5734 11.9819Z" fill="#1CA500"/>
<path d="M5.87032 446.104C6.32509 446.104 6.69376 445.744 6.69376 445.3C6.69376 444.856 6.32509 444.497 5.87032 444.497C5.41554 444.497 5.04688 444.856 5.04688 445.3C5.04688 445.744 5.41554 446.104 5.87032 446.104Z" fill="#1CA500"/>
<path d="M12.6711 87.6585C13.1259 87.6585 13.4945 87.2987 13.4945 86.8549C13.4945 86.4111 13.1259 86.0513 12.6711 86.0513C12.2163 86.0513 11.8477 86.4111 11.8477 86.8549C11.8477 87.2987 12.2163 87.6585 12.6711 87.6585Z" fill="#1CA500"/>
<path d="M8.21797 151.787C8.67275 151.787 9.04142 151.427 9.04142 150.984C9.04142 150.54 8.67275 150.18 8.21797 150.18C7.7632 150.18 7.39453 150.54 7.39453 150.984C7.39453 151.427 7.7632 151.787 8.21797 151.787Z" fill="#1CA500"/>
<path d="M13.1672 333.348C13.622 333.348 13.9906 332.989 13.9906 332.545C13.9906 332.101 13.622 331.741 13.1672 331.741C12.7124 331.741 12.3438 332.101 12.3438 332.545C12.3438 332.989 12.7124 333.348 13.1672 333.348Z" fill="#1CA500"/>
<path d="M13.5383 452.372C13.9931 452.372 14.3617 452.012 14.3617 451.568C14.3617 451.124 13.9931 450.765 13.5383 450.765C13.0835 450.765 12.7148 451.124 12.7148 451.568C12.7148 452.012 13.0835 452.372 13.5383 452.372Z" fill="#1CA500"/>
<path d="M7.13985 480.892C7.59462 480.892 7.96329 480.533 7.96329 480.089C7.96329 479.645 7.59462 479.285 7.13985 479.285C6.68507 479.285 6.31641 479.645 6.31641 480.089C6.31641 480.533 6.68507 480.892 7.13985 480.892Z" fill="#1CA500"/>
<path d="M11.6906 204.979C12.1454 204.979 12.5141 204.619 12.5141 204.175C12.5141 203.731 12.1454 203.371 11.6906 203.371C11.2359 203.371 10.8672 203.731 10.8672 204.175C10.8672 204.619 11.2359 204.979 11.6906 204.979Z" fill="#1CA500"/>
<path d="M12.8781 156.424C13.3329 156.424 13.7016 156.064 13.7016 155.62C13.7016 155.177 13.3329 154.817 12.8781 154.817C12.4234 154.817 12.0547 155.177 12.0547 155.62C12.0547 156.064 12.4234 156.424 12.8781 156.424Z" fill="#1CA500"/>
<path d="M8.93282 407.707C9.38759 407.707 9.75626 407.347 9.75626 406.903C9.75626 406.46 9.38759 406.1 8.93282 406.1C8.47804 406.1 8.10938 406.46 8.10938 406.903C8.10938 407.347 8.47804 407.707 8.93282 407.707Z" fill="#1CA500"/>
<path d="M11.2063 449.616C11.661 449.616 12.0297 449.256 12.0297 448.812C12.0297 448.368 11.661 448.008 11.2063 448.008C10.7515 448.008 10.3828 448.368 10.3828 448.812C10.3828 449.256 10.7515 449.616 11.2063 449.616Z" fill="#1CA500"/>
<path d="M13.2219 504.76C13.6767 504.76 14.0453 504.4 14.0453 503.956C14.0453 503.512 13.6767 503.153 13.2219 503.153C12.7671 503.153 12.3984 503.512 12.3984 503.956C12.3984 504.4 12.7671 504.76 13.2219 504.76Z" fill="#1CA500"/>
<path d="M11.8 172.36C12.2548 172.36 12.6234 172 12.6234 171.556C12.6234 171.112 12.2548 170.752 11.8 170.752C11.3452 170.752 10.9766 171.112 10.9766 171.556C10.9766 172 11.3452 172.36 11.8 172.36Z" fill="#1CA500"/>
<path d="M12.7219 533.353C13.1767 533.353 13.5453 532.993 13.5453 532.549C13.5453 532.105 13.1767 531.745 12.7219 531.745C12.2671 531.745 11.8984 532.105 11.8984 532.549C11.8984 532.993 12.2671 533.353 12.7219 533.353Z" fill="#1CA500"/>
<path d="M6.1086 276.484C6.56337 276.484 6.93204 276.125 6.93204 275.681C6.93204 275.237 6.56337 274.877 6.1086 274.877C5.65382 274.877 5.28516 275.237 5.28516 275.681C5.28516 276.125 5.65382 276.484 6.1086 276.484Z" fill="#1CA500"/>
<path d="M13.0109 252.585C13.4657 252.585 13.8344 252.225 13.8344 251.781C13.8344 251.337 13.4657 250.978 13.0109 250.978C12.5562 250.978 12.1875 251.337 12.1875 251.781C12.1875 252.225 12.5562 252.585 13.0109 252.585Z" fill="#1CA500"/>
<path d="M12.0695 604.649C12.5243 604.649 12.893 604.289 12.893 603.846C12.893 603.402 12.5243 603.042 12.0695 603.042C11.6148 603.042 11.2461 603.402 11.2461 603.846C11.2461 604.289 11.6148 604.649 12.0695 604.649Z" fill="#1CA500"/>
<path d="M11.7922 369.109C12.247 369.109 12.6156 368.749 12.6156 368.306C12.6156 367.862 12.247 367.502 11.7922 367.502C11.3374 367.502 10.9688 367.862 10.9688 368.306C10.9688 368.749 11.3374 369.109 11.7922 369.109Z" fill="#1CA500"/>
<path d="M13.5773 246.526C14.0321 246.526 14.4008 246.166 14.4008 245.722C14.4008 245.278 14.0321 244.918 13.5773 244.918C13.1226 244.918 12.7539 245.278 12.7539 245.722C12.7539 246.166 13.1226 246.526 13.5773 246.526Z" fill="#1CA500"/>
<path d="M7.88594 526.715C8.34072 526.715 8.70939 526.355 8.70939 525.911C8.70939 525.467 8.34072 525.107 7.88594 525.107C7.43117 525.107 7.0625 525.467 7.0625 525.911C7.0625 526.355 7.43117 526.715 7.88594 526.715Z" fill="#1CA500"/>
<path d="M7.80391 634.922C8.25869 634.922 8.62735 634.562 8.62735 634.118C8.62735 633.674 8.25869 633.314 7.80391 633.314C7.34914 633.314 6.98047 633.674 6.98047 634.118C6.98047 634.562 7.34914 634.922 7.80391 634.922Z" fill="#1CA500"/>
<path d="M12.0969 69.1352C12.5517 69.1352 12.9203 68.7754 12.9203 68.3316C12.9203 67.8877 12.5517 67.528 12.0969 67.528C11.6421 67.528 11.2734 67.8877 11.2734 68.3316C11.2734 68.7754 11.6421 69.1352 12.0969 69.1352Z" fill="#1CA500"/>
<path d="M9.61641 222.208C10.0712 222.208 10.4399 221.848 10.4399 221.404C10.4399 220.961 10.0712 220.601 9.61641 220.601C9.16164 220.601 8.79297 220.961 8.79297 221.404C8.79297 221.848 9.16164 222.208 9.61641 222.208Z" fill="#1CA500"/>
<path d="M8.82735 258.684C9.28212 258.684 9.65079 258.325 9.65079 257.881C9.65079 257.437 9.28212 257.077 8.82735 257.077C8.37257 257.077 8.00391 257.437 8.00391 257.881C8.00391 258.325 8.37257 258.684 8.82735 258.684Z" fill="#1CA500"/>
<path d="M10.8352 372.332C11.2899 372.332 11.6586 371.972 11.6586 371.528C11.6586 371.084 11.2899 370.725 10.8352 370.725C10.3804 370.725 10.0117 371.084 10.0117 371.528C10.0117 371.972 10.3804 372.332 10.8352 372.332Z" fill="#1CA500"/>
<path d="M12.632 391.289C13.0868 391.289 13.4555 390.929 13.4555 390.486C13.4555 390.042 13.0868 389.682 12.632 389.682C12.1773 389.682 11.8086 390.042 11.8086 390.486C11.8086 390.929 12.1773 391.289 12.632 391.289Z" fill="#1CA500"/>
<path d="M13.9406 163.303C14.3954 163.303 14.7641 162.943 14.7641 162.499C14.7641 162.056 14.3954 161.696 13.9406 161.696C13.4859 161.696 13.1172 162.056 13.1172 162.499C13.1172 162.943 13.4859 163.303 13.9406 163.303Z" fill="#1CA500"/>
<path d="M11.6828 44.4319C12.1376 44.4319 12.5063 44.0721 12.5063 43.6283C12.5063 43.1845 12.1376 42.8247 11.6828 42.8247C11.228 42.8247 10.8594 43.1845 10.8594 43.6283C10.8594 44.0721 11.228 44.4319 11.6828 44.4319Z" fill="#1CA500"/>
<path d="M5.64766 535.209C6.10244 535.209 6.4711 534.849 6.4711 534.405C6.4711 533.961 6.10244 533.602 5.64766 533.602C5.19289 533.602 4.82422 533.961 4.82422 534.405C4.82422 534.849 5.19289 535.209 5.64766 535.209Z" fill="#1CA500"/>
<path d="M12.2844 530.13C12.7392 530.13 13.1078 529.77 13.1078 529.326C13.1078 528.882 12.7392 528.523 12.2844 528.523C11.8296 528.523 11.4609 528.882 11.4609 529.326C11.4609 529.77 11.8296 530.13 12.2844 530.13Z" fill="#1CA500"/>
<path d="M12.6047 610.62C13.0595 610.62 13.4281 610.261 13.4281 609.817C13.4281 609.373 13.0595 609.013 12.6047 609.013C12.1499 609.013 11.7812 609.373 11.7812 609.817C11.7812 610.261 12.1499 610.62 12.6047 610.62Z" fill="#1CA500"/>
<path d="M12.343 378.592C12.7977 378.592 13.1664 378.232 13.1664 377.788C13.1664 377.345 12.7977 376.985 12.343 376.985C11.8882 376.985 11.5195 377.345 11.5195 377.788C11.5195 378.232 11.8882 378.592 12.343 378.592Z" fill="#1CA500"/>
<path d="M12.4484 273.881C12.9032 273.881 13.2719 273.521 13.2719 273.077C13.2719 272.633 12.9032 272.273 12.4484 272.273C11.9937 272.273 11.625 272.633 11.625 273.077C11.625 273.521 11.9937 273.881 12.4484 273.881Z" fill="#1CA500"/>
<path d="M7.71407 487.418C8.16884 487.418 8.53751 487.058 8.53751 486.614C8.53751 486.17 8.16884 485.811 7.71407 485.811C7.25929 485.811 6.89062 486.17 6.89062 486.614C6.89062 487.058 7.25929 487.418 7.71407 487.418Z" fill="#1CA500"/>
<path d="M12.3664 592.258C12.8212 592.258 13.1899 591.898 13.1899 591.454C13.1899 591.01 12.8212 590.65 12.3664 590.65C11.9116 590.65 11.543 591.01 11.543 591.454C11.543 591.898 11.9116 592.258 12.3664 592.258Z" fill="#1CA500"/>
<path d="M12.1359 4.04217C12.5907 4.04217 12.9594 3.68238 12.9594 3.23855C12.9594 2.79473 12.5907 2.43494 12.1359 2.43494C11.6812 2.43494 11.3125 2.79473 11.3125 3.23855C11.3125 3.68238 11.6812 4.04217 12.1359 4.04217Z" fill="#1CA500"/>
<path d="M9.67501 279.723C10.1298 279.723 10.4984 279.363 10.4984 278.919C10.4984 278.476 10.1298 278.116 9.67501 278.116C9.22023 278.116 8.85156 278.476 8.85156 278.919C8.85156 279.363 9.22023 279.723 9.67501 279.723Z" fill="#1CA500"/>
<path d="M11.8313 318.16C12.286 318.16 12.6547 317.8 12.6547 317.356C12.6547 316.913 12.286 316.553 11.8313 316.553C11.3765 316.553 11.0078 316.913 11.0078 317.356C11.0078 317.8 11.3765 318.16 11.8313 318.16Z" fill="#1CA500"/>
<path d="M11.7258 250.102C12.1806 250.102 12.5492 249.742 12.5492 249.298C12.5492 248.854 12.1806 248.494 11.7258 248.494C11.271 248.494 10.9023 248.854 10.9023 249.298C10.9023 249.742 11.271 250.102 11.7258 250.102Z" fill="#1CA500"/>
<path d="M12.9602 65.8886C13.4149 65.8886 13.7836 65.5288 13.7836 65.085C13.7836 64.6412 13.4149 64.2814 12.9602 64.2814C12.5054 64.2814 12.1367 64.6412 12.1367 65.085C12.1367 65.5288 12.5054 65.8886 12.9602 65.8886Z" fill="#1CA500"/>
<path d="M3.05391 66.3787C3.50869 66.3787 3.87735 66.0189 3.87735 65.5751C3.87735 65.1313 3.50869 64.7715 3.05391 64.7715C2.59914 64.7715 2.23047 65.1313 2.23047 65.5751C2.23047 66.0189 2.59914 66.3787 3.05391 66.3787Z" fill="#1CA500"/>
<path d="M12.425 106.158C12.8798 106.158 13.2484 105.798 13.2484 105.354C13.2484 104.91 12.8798 104.551 12.425 104.551C11.9702 104.551 11.6016 104.91 11.6016 105.354C11.6016 105.798 11.9702 106.158 12.425 106.158Z" fill="#1CA500"/>
<path d="M12.218 298.624C12.6727 298.624 13.0414 298.264 13.0414 297.82C13.0414 297.377 12.6727 297.017 12.218 297.017C11.7632 297.017 11.3945 297.377 11.3945 297.82C11.3945 298.264 11.7632 298.624 12.218 298.624Z" fill="#1CA500"/>
<path d="M12.8859 553.901C13.3407 553.901 13.7094 553.541 13.7094 553.097C13.7094 552.653 13.3407 552.294 12.8859 552.294C12.4312 552.294 12.0625 552.653 12.0625 553.097C12.0625 553.541 12.4312 553.901 12.8859 553.901Z" fill="#1CA500"/>
<path d="M12.1789 336C12.6337 336 13.0024 335.641 13.0024 335.197C13.0024 334.753 12.6337 334.393 12.1789 334.393C11.7241 334.393 11.3555 334.753 11.3555 335.197C11.3555 335.641 11.7241 336 12.1789 336Z" fill="#1CA500"/>
<path d="M13.1984 500.107C13.6532 500.107 14.0219 499.747 14.0219 499.303C14.0219 498.86 13.6532 498.5 13.1984 498.5C12.7437 498.5 12.375 498.86 12.375 499.303C12.375 499.747 12.7437 500.107 13.1984 500.107Z" fill="#1CA500"/>
<path d="M12.4328 365.927C12.8876 365.927 13.2563 365.567 13.2563 365.123C13.2563 364.68 12.8876 364.32 12.4328 364.32C11.978 364.32 11.6094 364.68 11.6094 365.123C11.6094 365.567 11.978 365.927 12.4328 365.927Z" fill="#1CA500"/>
<path d="M11.4289 486.164C11.8837 486.164 12.2524 485.804 12.2524 485.361C12.2524 484.917 11.8837 484.557 11.4289 484.557C10.9741 484.557 10.6055 484.917 10.6055 485.361C10.6055 485.804 10.9741 486.164 11.4289 486.164Z" fill="#1CA500"/>
<path d="M6.51094 118.212C6.96572 118.212 7.33439 117.852 7.33439 117.408C7.33439 116.965 6.96572 116.605 6.51094 116.605C6.05617 116.605 5.6875 116.965 5.6875 117.408C5.6875 117.852 6.05617 118.212 6.51094 118.212Z" fill="#1CA500"/>
<path d="M13.1672 147.882C13.622 147.882 13.9906 147.522 13.9906 147.078C13.9906 146.634 13.622 146.274 13.1672 146.274C12.7124 146.274 12.3438 146.634 12.3438 147.078C12.3438 147.522 12.7124 147.882 13.1672 147.882Z" fill="#1CA500"/>
<path d="M7.49922 420.227C7.954 420.227 8.32267 419.868 8.32267 419.424C8.32267 418.98 7.954 418.62 7.49922 418.62C7.04445 418.62 6.67578 418.98 6.67578 419.424C6.67578 419.868 7.04445 420.227 7.49922 420.227Z" fill="#1CA500"/>
<path d="M13.2414 196.227C13.6962 196.227 14.0649 195.867 14.0649 195.423C14.0649 194.98 13.6962 194.62 13.2414 194.62C12.7866 194.62 12.418 194.98 12.418 195.423C12.418 195.867 12.7866 196.227 13.2414 196.227Z" fill="#1CA500"/>
<path d="M13.093 519.586C13.5477 519.586 13.9164 519.227 13.9164 518.783C13.9164 518.339 13.5477 517.979 13.093 517.979C12.6382 517.979 12.2695 518.339 12.2695 518.783C12.2695 519.227 12.6382 519.586 13.093 519.586Z" fill="#1CA500"/>
<path d="M10.3078 234.544C10.7626 234.544 11.1313 234.184 11.1313 233.74C11.1313 233.296 10.7626 232.936 10.3078 232.936C9.85304 232.936 9.48438 233.296 9.48438 233.74C9.48438 234.184 9.85304 234.544 10.3078 234.544Z" fill="#1CA500"/>
<path d="M9.52657 331.211C9.98134 331.211 10.35 330.851 10.35 330.407C10.35 329.963 9.98134 329.604 9.52657 329.604C9.07179 329.604 8.70312 329.963 8.70312 330.407C8.70312 330.851 9.07179 331.211 9.52657 331.211Z" fill="#1CA500"/>
<path d="M10.0852 41.1613C10.5399 41.1613 10.9086 40.8015 10.9086 40.3577C10.9086 39.9139 10.5399 39.5541 10.0852 39.5541C9.63039 39.5541 9.26172 39.9139 9.26172 40.3577C9.26172 40.8015 9.63039 41.1613 10.0852 41.1613Z" fill="#1CA500"/>
<path d="M9.05001 326.445C9.50478 326.445 9.87345 326.085 9.87345 325.642C9.87345 325.198 9.50478 324.838 9.05001 324.838C8.59523 324.838 8.22656 325.198 8.22656 325.642C8.22656 326.085 8.59523 326.445 9.05001 326.445Z" fill="#1CA500"/>
<path d="M12.5383 78.9554C12.9931 78.9554 13.3617 78.5956 13.3617 78.1518C13.3617 77.7079 12.9931 77.3481 12.5383 77.3481C12.0835 77.3481 11.7148 77.7079 11.7148 78.1518C11.7148 78.5956 12.0835 78.9554 12.5383 78.9554Z" fill="#1CA500"/>
<path d="M13.5695 537.258C14.0243 537.258 14.393 536.898 14.393 536.454C14.393 536.011 14.0243 535.651 13.5695 535.651C13.1148 535.651 12.7461 536.011 12.7461 536.454C12.7461 536.898 13.1148 537.258 13.5695 537.258Z" fill="#1CA500"/>
<path d="M6.85079 469.682C7.30556 469.682 7.67423 469.322 7.67423 468.878C7.67423 468.434 7.30556 468.075 6.85079 468.075C6.39601 468.075 6.02734 468.434 6.02734 468.878C6.02734 469.322 6.39601 469.682 6.85079 469.682Z" fill="#1CA500"/>
<path d="M9.05782 630.301C9.51259 630.301 9.88126 629.941 9.88126 629.497C9.88126 629.053 9.51259 628.694 9.05782 628.694C8.60304 628.694 8.23438 629.053 8.23438 629.497C8.23438 629.941 8.60304 630.301 9.05782 630.301Z" fill="#1CA500"/>
<path d="M10.4406 126.12C10.8954 126.12 11.2641 125.76 11.2641 125.316C11.2641 124.872 10.8954 124.512 10.4406 124.512C9.98586 124.512 9.61719 124.872 9.61719 125.316C9.61719 125.76 9.98586 126.12 10.4406 126.12Z" fill="#1CA500"/>
<path d="M8.81954 563.078C9.27431 563.078 9.64298 562.719 9.64298 562.275C9.64298 561.831 9.27431 561.471 8.81954 561.471C8.36476 561.471 7.99609 561.831 7.99609 562.275C7.99609 562.719 8.36476 563.078 8.81954 563.078Z" fill="#1CA500"/>
<path d="M12.9523 150.003C13.4071 150.003 13.7758 149.643 13.7758 149.199C13.7758 148.756 13.4071 148.396 12.9523 148.396C12.4976 148.396 12.1289 148.756 12.1289 149.199C12.1289 149.643 12.4976 150.003 12.9523 150.003Z" fill="#1CA500"/>
<path d="M10.925 493.959C11.3798 493.959 11.7484 493.599 11.7484 493.156C11.7484 492.712 11.3798 492.352 10.925 492.352C10.4702 492.352 10.1016 492.712 10.1016 493.156C10.1016 493.599 10.4702 493.959 10.925 493.959Z" fill="#1CA500"/>
<path d="M13.1086 6.59771C13.5634 6.59771 13.932 6.23792 13.932 5.7941C13.932 5.35027 13.5634 4.99048 13.1086 4.99048C12.6538 4.99048 12.2852 5.35027 12.2852 5.7941C12.2852 6.23792 12.6538 6.59771 13.1086 6.59771Z" fill="#1CA500"/>
<path d="M5.78829 596.653C6.24306 596.653 6.61173 596.294 6.61173 595.85C6.61173 595.406 6.24306 595.046 5.78829 595.046C5.33351 595.046 4.96484 595.406 4.96484 595.85C4.96484 596.294 5.33351 596.653 5.78829 596.653Z" fill="#1CA500"/>
<path d="M10.4914 121.29C10.9462 121.29 11.3149 120.93 11.3149 120.486C11.3149 120.042 10.9462 119.683 10.4914 119.683C10.0366 119.683 9.66797 120.042 9.66797 120.486C9.66797 120.93 10.0366 121.29 10.4914 121.29Z" fill="#1CA500"/>
<path d="M12.7805 341.545C13.2352 341.545 13.6039 341.185 13.6039 340.742C13.6039 340.298 13.2352 339.938 12.7805 339.938C12.3257 339.938 11.957 340.298 11.957 340.742C11.957 341.185 12.3257 341.545 12.7805 341.545Z" fill="#1CA500"/>
<path d="M12.7805 117.368C13.2352 117.368 13.6039 117.008 13.6039 116.565C13.6039 116.121 13.2352 115.761 12.7805 115.761C12.3257 115.761 11.957 116.121 11.957 116.565C11.957 117.008 12.3257 117.368 12.7805 117.368Z" fill="#1CA500"/>
<path d="M13.2414 447.486C13.6962 447.486 14.0649 447.126 14.0649 446.683C14.0649 446.239 13.6962 445.879 13.2414 445.879C12.7866 445.879 12.418 446.239 12.418 446.683C12.418 447.126 12.7866 447.486 13.2414 447.486Z" fill="#1CA500"/>
<path d="M13.5617 97.334C14.0165 97.334 14.3852 96.9742 14.3852 96.5304C14.3852 96.0866 14.0165 95.7268 13.5617 95.7268C13.1069 95.7268 12.7383 96.0866 12.7383 96.5304C12.7383 96.9742 13.1069 97.334 13.5617 97.334Z" fill="#1CA500"/>
<path d="M13.257 306.708C13.7118 306.708 14.0805 306.349 14.0805 305.905C14.0805 305.461 13.7118 305.101 13.257 305.101C12.8023 305.101 12.4336 305.461 12.4336 305.905C12.4336 306.349 12.8023 306.708 13.257 306.708Z" fill="#1CA500"/>
<path d="M4.88985 547.625C5.34462 547.625 5.71329 547.265 5.71329 546.821C5.71329 546.377 5.34462 546.018 4.88985 546.018C4.43507 546.018 4.06641 546.377 4.06641 546.821C4.06641 547.265 4.43507 547.625 4.88985 547.625Z" fill="#1CA500"/>
<path d="M11.8898 1.71978C12.3446 1.71978 12.7133 1.35999 12.7133 0.916166C12.7133 0.47234 12.3446 0.112549 11.8898 0.112549C11.4351 0.112549 11.0664 0.47234 11.0664 0.916166C11.0664 1.35999 11.4351 1.71978 11.8898 1.71978Z" fill="#1CA500"/>
<path d="M12.1438 575.317C12.5985 575.317 12.9672 574.958 12.9672 574.514C12.9672 574.07 12.5985 573.71 12.1438 573.71C11.689 573.71 11.3203 574.07 11.3203 574.514C11.3203 574.958 11.689 575.317 12.1438 575.317Z" fill="#1CA500"/>
<path d="M12.8273 628.573C13.2821 628.573 13.6508 628.213 13.6508 627.769C13.6508 627.326 13.2821 626.966 12.8273 626.966C12.3726 626.966 12.0039 627.326 12.0039 627.769C12.0039 628.213 12.3726 628.573 12.8273 628.573Z" fill="#1CA500"/>
<path d="M13.132 303.59C13.5868 303.59 13.9555 303.231 13.9555 302.787C13.9555 302.343 13.5868 301.983 13.132 301.983C12.6773 301.983 12.3086 302.343 12.3086 302.787C12.3086 303.231 12.6773 303.59 13.132 303.59Z" fill="#1CA500"/>
<path d="M8.14376 492.481C8.59853 492.481 8.9672 492.121 8.9672 491.677C8.9672 491.233 8.59853 490.873 8.14376 490.873C7.68898 490.873 7.32031 491.233 7.32031 491.677C7.32031 492.121 7.68898 492.481 8.14376 492.481Z" fill="#1CA500"/>
<path d="M9.63985 81.1894C10.0946 81.1894 10.4633 80.8296 10.4633 80.3858C10.4633 79.9419 10.0946 79.5822 9.63985 79.5822C9.18507 79.5822 8.81641 79.9419 8.81641 80.3858C8.81641 80.8296 9.18507 81.1894 9.63985 81.1894Z" fill="#1CA500"/>
<path d="M11.8234 509.574C12.2782 509.574 12.6469 509.214 12.6469 508.77C12.6469 508.326 12.2782 507.966 11.8234 507.966C11.3687 507.966 11 508.326 11 508.77C11 509.214 11.3687 509.574 11.8234 509.574Z" fill="#1CA500"/>
<path d="M8.15157 465.833C8.60634 465.833 8.97501 465.473 8.97501 465.029C8.97501 464.585 8.60634 464.225 8.15157 464.225C7.69679 464.225 7.32812 464.585 7.32812 465.029C7.32812 465.473 7.69679 465.833 8.15157 465.833Z" fill="#1CA500"/>
<path d="M10.2492 584.262C10.704 584.262 11.0727 583.902 11.0727 583.458C11.0727 583.014 10.704 582.654 10.2492 582.654C9.79445 582.654 9.42578 583.014 9.42578 583.458C9.42578 583.902 9.79445 584.262 10.2492 584.262Z" fill="#1CA500"/>
<path d="M13.0109 420.75C13.4657 420.75 13.8344 420.39 13.8344 419.946C13.8344 419.502 13.4657 419.143 13.0109 419.143C12.5562 419.143 12.1875 419.502 12.1875 419.946C12.1875 420.39 12.5562 420.75 13.0109 420.75Z" fill="#1CA500"/>
<path d="M12.0383 215.321C12.4931 215.321 12.8617 214.961 12.8617 214.517C12.8617 214.074 12.4931 213.714 12.0383 213.714C11.5835 213.714 11.2148 214.074 11.2148 214.517C11.2148 214.961 11.5835 215.321 12.0383 215.321Z" fill="#1CA500"/>
<path d="M11.6594 632.069C12.1142 632.069 12.4828 631.709 12.4828 631.265C12.4828 630.821 12.1142 630.462 11.6594 630.462C11.2046 630.462 10.8359 630.821 10.8359 631.265C10.8359 631.709 11.2046 632.069 11.6594 632.069Z" fill="#1CA500"/>
<path d="M7.83907 341.425C8.29384 341.425 8.66251 341.065 8.66251 340.621C8.66251 340.177 8.29384 339.817 7.83907 339.817C7.38429 339.817 7.01562 340.177 7.01562 340.621C7.01562 341.065 7.38429 341.425 7.83907 341.425Z" fill="#1CA500"/>
<path d="M12.8547 121.949C13.3095 121.949 13.6781 121.589 13.6781 121.145C13.6781 120.701 13.3095 120.342 12.8547 120.342C12.3999 120.342 12.0312 120.701 12.0312 121.145C12.0312 121.589 12.3999 121.949 12.8547 121.949Z" fill="#1CA500"/>
<path d="M13.4289 642.444C13.8837 642.444 14.2524 642.084 14.2524 641.64C14.2524 641.196 13.8837 640.836 13.4289 640.836C12.9741 640.836 12.6055 641.196 12.6055 641.64C12.6055 642.084 12.9741 642.444 13.4289 642.444Z" fill="#1CA500"/>
<path d="M11.7492 548.999C12.204 548.999 12.5727 548.639 12.5727 548.195C12.5727 547.751 12.204 547.392 11.7492 547.392C11.2944 547.392 10.9258 547.751 10.9258 548.195C10.9258 548.639 11.2944 548.999 11.7492 548.999Z" fill="#1CA500"/>
<path d="M12.7883 58.9533C13.2431 58.9533 13.6117 58.5935 13.6117 58.1497C13.6117 57.7059 13.2431 57.3461 12.7883 57.3461C12.3335 57.3461 11.9648 57.7059 11.9648 58.1497C11.9648 58.5935 12.3335 58.9533 12.7883 58.9533Z" fill="#1CA500"/>
<path d="M10.4484 9.05682C10.9032 9.05682 11.2719 8.69703 11.2719 8.2532C11.2719 7.80938 10.9032 7.44958 10.4484 7.44958C9.99367 7.44958 9.625 7.80938 9.625 8.2532C9.625 8.69703 9.99367 9.05682 10.4484 9.05682Z" fill="#1CA500"/>
<path d="M9.4836 642.162C9.93837 642.162 10.307 641.802 10.307 641.359C10.307 640.915 9.93837 640.555 9.4836 640.555C9.02882 640.555 8.66016 640.915 8.66016 641.359C8.66016 641.802 9.02882 642.162 9.4836 642.162Z" fill="#1CA500"/>
<path d="M13.132 346.536C13.5868 346.536 13.9555 346.176 13.9555 345.732C13.9555 345.288 13.5868 344.928 13.132 344.928C12.6773 344.928 12.3086 345.288 12.3086 345.732C12.3086 346.176 12.6773 346.536 13.132 346.536Z" fill="#1CA500"/>
<path d="M13.0188 382.16C13.4735 382.16 13.8422 381.8 13.8422 381.356C13.8422 380.913 13.4735 380.553 13.0188 380.553C12.564 380.553 12.1953 380.913 12.1953 381.356C12.1953 381.8 12.564 382.16 13.0188 382.16Z" fill="#1CA500"/>
<path d="M6.12422 282.913C6.579 282.913 6.94767 282.554 6.94767 282.11C6.94767 281.666 6.579 281.306 6.12422 281.306C5.66945 281.306 5.30078 281.666 5.30078 282.11C5.30078 282.554 5.66945 282.913 6.12422 282.913Z" fill="#1CA500"/>
<path d="M8.46407 458.897C8.91884 458.897 9.28751 458.537 9.28751 458.094C9.28751 457.65 8.91884 457.29 8.46407 457.29C8.00929 457.29 7.64062 457.65 7.64062 458.094C7.64062 458.537 8.00929 458.897 8.46407 458.897Z" fill="#1CA500"/>
<path d="M10.4797 639.567C10.9345 639.567 11.3031 639.207 11.3031 638.763C11.3031 638.319 10.9345 637.959 10.4797 637.959C10.0249 637.959 9.65625 638.319 9.65625 638.763C9.65625 639.207 10.0249 639.567 10.4797 639.567Z" fill="#1CA500"/>
<path d="M9.46016 255.092C9.91494 255.092 10.2836 254.732 10.2836 254.288C10.2836 253.845 9.91494 253.485 9.46016 253.485C9.00539 253.485 8.63672 253.845 8.63672 254.288C8.63672 254.732 9.00539 255.092 9.46016 255.092Z" fill="#1CA500"/>
<path d="M9.22188 303.944C9.67666 303.944 10.0453 303.584 10.0453 303.14C10.0453 302.696 9.67666 302.337 9.22188 302.337C8.76711 302.337 8.39844 302.696 8.39844 303.14C8.39844 303.584 8.76711 303.944 9.22188 303.944Z" fill="#1CA500"/>
<path d="M10.2922 161.953C10.747 161.953 11.1156 161.593 11.1156 161.149C11.1156 160.705 10.747 160.346 10.2922 160.346C9.83742 160.346 9.46875 160.705 9.46875 161.149C9.46875 161.593 9.83742 161.953 10.2922 161.953Z" fill="#1CA500"/>
<path d="M13.2063 233.081C13.661 233.081 14.0297 232.721 14.0297 232.277C14.0297 231.834 13.661 231.474 13.2063 231.474C12.7515 231.474 12.3828 231.834 12.3828 232.277C12.3828 232.721 12.7515 233.081 13.2063 233.081Z" fill="#1CA500"/>
<path d="M7.38594 425.338C7.84072 425.338 8.20939 424.979 8.20939 424.535C8.20939 424.091 7.84072 423.731 7.38594 423.731C6.93117 423.731 6.5625 424.091 6.5625 424.535C6.5625 424.979 6.93117 425.338 7.38594 425.338Z" fill="#1CA500"/>
<path d="M12.9523 358.638C13.4071 358.638 13.7758 358.278 13.7758 357.835C13.7758 357.391 13.4071 357.031 12.9523 357.031C12.4976 357.031 12.1289 357.391 12.1289 357.835C12.1289 358.278 12.4976 358.638 12.9523 358.638Z" fill="#1CA500"/>
<path d="M9.35469 438.903C9.80947 438.903 10.1781 438.544 10.1781 438.1C10.1781 437.656 9.80947 437.296 9.35469 437.296C8.89992 437.296 8.53125 437.656 8.53125 438.1C8.53125 438.544 8.89992 438.903 9.35469 438.903Z" fill="#1CA500"/>
<path d="M13.7258 255.992C14.1806 255.992 14.5492 255.632 14.5492 255.189C14.5492 254.745 14.1806 254.385 13.7258 254.385C13.271 254.385 12.9023 254.745 12.9023 255.189C12.9023 255.632 13.271 255.992 13.7258 255.992Z" fill="#1CA500"/>
<path d="M9.61641 212.066C10.0712 212.066 10.4399 211.707 10.4399 211.263C10.4399 210.819 10.0712 210.459 9.61641 210.459C9.16164 210.459 8.79297 210.819 8.79297 211.263C8.79297 211.707 9.16164 212.066 9.61641 212.066Z" fill="#1CA500"/>
<path d="M12.9914 405.184C13.4462 405.184 13.8149 404.824 13.8149 404.38C13.8149 403.936 13.4462 403.576 12.9914 403.576C12.5366 403.576 12.168 403.936 12.168 404.38C12.168 404.824 12.5366 405.184 12.9914 405.184Z" fill="#1CA500"/>
<path d="M7.68282 299.315C8.13759 299.315 8.50626 298.955 8.50626 298.512C8.50626 298.068 8.13759 297.708 7.68282 297.708C7.22804 297.708 6.85938 298.068 6.85938 298.512C6.85938 298.955 7.22804 299.315 7.68282 299.315Z" fill="#1CA500"/>
<path d="M12.0227 429.357C12.4774 429.357 12.8461 428.997 12.8461 428.553C12.8461 428.109 12.4774 427.749 12.0227 427.749C11.5679 427.749 11.1992 428.109 11.1992 428.553C11.1992 428.997 11.5679 429.357 12.0227 429.357Z" fill="#1CA500"/>
<path d="M9.08126 545.23C9.53603 545.23 9.9047 544.87 9.9047 544.426C9.9047 543.982 9.53603 543.623 9.08126 543.623C8.62648 543.623 8.25781 543.982 8.25781 544.426C8.25781 544.87 8.62648 545.23 9.08126 545.23Z" fill="#1CA500"/>
<path d="M12.9758 495.815C13.4306 495.815 13.7992 495.456 13.7992 495.012C13.7992 494.568 13.4306 494.208 12.9758 494.208C12.521 494.208 12.1523 494.568 12.1523 495.012C12.1523 495.456 12.521 495.815 12.9758 495.815Z" fill="#1CA500"/>
<path d="M9.35469 463.317C9.80947 463.317 10.1781 462.957 10.1781 462.514C10.1781 462.07 9.80947 461.71 9.35469 461.71C8.89992 461.71 8.53125 462.07 8.53125 462.514C8.53125 462.957 8.89992 463.317 9.35469 463.317Z" fill="#1CA500"/>
<path d="M8.78438 271.454C9.23916 271.454 9.60782 271.094 9.60782 270.65C9.60782 270.206 9.23916 269.846 8.78438 269.846C8.32961 269.846 7.96094 270.206 7.96094 270.65C7.96094 271.094 8.32961 271.454 8.78438 271.454Z" fill="#1CA500"/>
<path d="M12.0227 284.77C12.4774 284.77 12.8461 284.41 12.8461 283.966C12.8461 283.522 12.4774 283.162 12.0227 283.162C11.5679 283.162 11.1992 283.522 11.1992 283.966C11.1992 284.41 11.5679 284.77 12.0227 284.77Z" fill="#1CA500"/>
<path d="M11.5773 93.0186C12.0321 93.0186 12.4008 92.6588 12.4008 92.215C12.4008 91.7712 12.0321 91.4114 11.5773 91.4114C11.1226 91.4114 10.7539 91.7712 10.7539 92.215C10.7539 92.6588 11.1226 93.0186 11.5773 93.0186Z" fill="#1CA500"/>
<path d="M13.4641 329.668C13.9188 329.668 14.2875 329.308 14.2875 328.864C14.2875 328.42 13.9188 328.061 13.4641 328.061C13.0093 328.061 12.6406 328.42 12.6406 328.864C12.6406 329.308 13.0093 329.668 13.4641 329.668Z" fill="#1CA500"/>
<path d="M11.0734 356.043C11.5282 356.043 11.8969 355.683 11.8969 355.239C11.8969 354.795 11.5282 354.435 11.0734 354.435C10.6187 354.435 10.25 354.795 10.25 355.239C10.25 355.683 10.6187 356.043 11.0734 356.043Z" fill="#1CA500"/>
<path d="M9.80782 552.004C10.2626 552.004 10.6313 551.645 10.6313 551.201C10.6313 550.757 10.2626 550.397 9.80782 550.397C9.35304 550.397 8.98438 550.757 8.98438 551.201C8.98438 551.645 9.35304 552.004 9.80782 552.004Z" fill="#1CA500"/>
<path d="M7.26094 353.808C7.71572 353.808 8.08439 353.449 8.08439 353.005C8.08439 352.561 7.71572 352.201 7.26094 352.201C6.80617 352.201 6.4375 352.561 6.4375 353.005C6.4375 353.449 6.80617 353.808 7.26094 353.808Z" fill="#1CA500"/>
<path d="M9.34688 157.413C9.80166 157.413 10.1703 157.053 10.1703 156.609C10.1703 156.165 9.80166 155.805 9.34688 155.805C8.89211 155.805 8.52344 156.165 8.52344 156.609C8.52344 157.053 8.89211 157.413 9.34688 157.413Z" fill="#1CA500"/>
<path d="M12.6555 103.176C13.1102 103.176 13.4789 102.817 13.4789 102.373C13.4789 101.929 13.1102 101.569 12.6555 101.569C12.2007 101.569 11.832 101.929 11.832 102.373C11.832 102.817 12.2007 103.176 12.6555 103.176Z" fill="#1CA500"/>
<path d="M7.24532 195.801C7.70009 195.801 8.06876 195.442 8.06876 194.998C8.06876 194.554 7.70009 194.194 7.24532 194.194C6.79054 194.194 6.42188 194.554 6.42188 194.998C6.42188 195.442 6.79054 195.801 7.24532 195.801Z" fill="#1CA500"/>
<path d="M12.0227 208.498C12.4774 208.498 12.8461 208.139 12.8461 207.695C12.8461 207.251 12.4774 206.891 12.0227 206.891C11.5679 206.891 11.1992 207.251 11.1992 207.695C11.1992 208.139 11.5679 208.498 12.0227 208.498Z" fill="#1CA500"/>
<path d="M11.6984 624.748C12.1532 624.748 12.5219 624.388 12.5219 623.944C12.5219 623.5 12.1532 623.141 11.6984 623.141C11.2437 623.141 10.875 623.5 10.875 623.944C10.875 624.388 11.2437 624.748 11.6984 624.748Z" fill="#1CA500"/>
<path d="M13.2414 646.052C13.6962 646.052 14.0649 645.692 14.0649 645.248C14.0649 644.804 13.6962 644.444 13.2414 644.444C12.7866 644.444 12.418 644.804 12.418 645.248C12.418 645.692 12.7866 646.052 13.2414 646.052Z" fill="#1CA500"/>
<path d="M12.9445 475.002C13.3993 475.002 13.768 474.642 13.768 474.198C13.768 473.754 13.3993 473.395 12.9445 473.395C12.4898 473.395 12.1211 473.754 12.1211 474.198C12.1211 474.642 12.4898 475.002 12.9445 475.002Z" fill="#1CA500"/>
<path d="M8.64376 67.3029C9.09853 67.3029 9.4672 66.9431 9.4672 66.4993C9.4672 66.0555 9.09853 65.6957 8.64376 65.6957C8.18898 65.6957 7.82031 66.0555 7.82031 66.4993C7.82031 66.9431 8.18898 67.3029 8.64376 67.3029Z" fill="#1CA500"/>
<path d="M12.1125 229.802C12.5673 229.802 12.9359 229.443 12.9359 228.999C12.9359 228.555 12.5673 228.195 12.1125 228.195C11.6577 228.195 11.2891 228.555 11.2891 228.999C11.2891 229.443 11.6577 229.802 12.1125 229.802Z" fill="#1CA500"/>
<path d="M11.6594 458.672C12.1142 458.672 12.4828 458.313 12.4828 457.869C12.4828 457.425 12.1142 457.065 11.6594 457.065C11.2046 457.065 10.8359 457.425 10.8359 457.869C10.8359 458.313 11.2046 458.672 11.6594 458.672Z" fill="#1CA500"/>
<path d="M5.53438 11.106C5.98916 11.106 6.35782 10.7462 6.35782 10.3024C6.35782 9.85857 5.98916 9.49878 5.53438 9.49878C5.07961 9.49878 4.71094 9.85857 4.71094 10.3024C4.71094 10.7462 5.07961 11.106 5.53438 11.106Z" fill="#1CA500"/>
<path d="M13.4641 478.192C13.9188 478.192 14.2875 477.832 14.2875 477.389C14.2875 476.945 13.9188 476.585 13.4641 476.585C13.0093 476.585 12.6406 476.945 12.6406 477.389C12.6406 477.832 13.0093 478.192 13.4641 478.192Z" fill="#1CA500"/>
<path d="M12.6984 462.723C13.1532 462.723 13.5219 462.363 13.5219 461.919C13.5219 461.475 13.1532 461.115 12.6984 461.115C12.2437 461.115 11.875 461.475 11.875 461.919C11.875 462.363 12.2437 462.723 12.6984 462.723Z" fill="#1CA500"/>
<path d="M11.8664 187.419C12.3212 187.419 12.6899 187.06 12.6899 186.616C12.6899 186.172 12.3212 185.812 11.8664 185.812C11.4116 185.812 11.043 186.172 11.043 186.616C11.043 187.06 11.4116 187.419 11.8664 187.419Z" fill="#1CA500"/>
<path d="M12.7453 142.128C13.2001 142.128 13.5688 141.768 13.5688 141.324C13.5688 140.88 13.2001 140.521 12.7453 140.521C12.2905 140.521 11.9219 140.88 11.9219 141.324C11.9219 141.768 12.2905 142.128 12.7453 142.128Z" fill="#1CA500"/>
<path d="M10.7375 48.0081C11.1923 48.0081 11.5609 47.6483 11.5609 47.2045C11.5609 46.7607 11.1923 46.4009 10.7375 46.4009C10.2827 46.4009 9.91406 46.7607 9.91406 47.2045C9.91406 47.6483 10.2827 48.0081 10.7375 48.0081Z" fill="#1CA500"/>
<path d="M9.04219 226.781C9.49697 226.781 9.86564 226.421 9.86564 225.977C9.86564 225.533 9.49697 225.174 9.04219 225.174C8.58742 225.174 8.21875 225.533 8.21875 225.977C8.21875 226.421 8.58742 226.781 9.04219 226.781Z" fill="#1CA500"/>
<path d="M11.1008 520.197C11.5556 520.197 11.9242 519.838 11.9242 519.394C11.9242 518.95 11.5556 518.59 11.1008 518.59C10.646 518.59 10.2773 518.95 10.2773 519.394C10.2773 519.838 10.646 520.197 11.1008 520.197Z" fill="#1CA500"/>
<path d="M8.64376 384.932C9.09853 384.932 9.4672 384.573 9.4672 384.129C9.4672 383.685 9.09853 383.325 8.64376 383.325C8.18898 383.325 7.82031 383.685 7.82031 384.129C7.82031 384.573 8.18898 384.932 8.64376 384.932Z" fill="#1CA500"/>
<path d="M12.8859 596.147C13.3407 596.147 13.7094 595.787 13.7094 595.344C13.7094 594.9 13.3407 594.54 12.8859 594.54C12.4312 594.54 12.0625 594.9 12.0625 595.344C12.0625 595.787 12.4312 596.147 12.8859 596.147Z" fill="#1CA500"/>
<path d="M12.4992 177.069C12.954 177.069 13.3227 176.709 13.3227 176.265C13.3227 175.821 12.954 175.462 12.4992 175.462C12.0444 175.462 11.6758 175.821 11.6758 176.265C11.6758 176.709 12.0444 177.069 12.4992 177.069Z" fill="#1CA500"/>
<path d="M7.41719 555.468C7.87197 555.468 8.24064 555.108 8.24064 554.664C8.24064 554.221 7.87197 553.861 7.41719 553.861C6.96242 553.861 6.59375 554.221 6.59375 554.664C6.59375 555.108 6.96242 555.468 7.41719 555.468Z" fill="#1CA500"/>
<path d="M12.8703 482.998C13.3251 482.998 13.6938 482.638 13.6938 482.194C13.6938 481.75 13.3251 481.391 12.8703 481.391C12.4155 481.391 12.0469 481.75 12.0469 482.194C12.0469 482.638 12.4155 482.998 12.8703 482.998Z" fill="#1CA500"/>
<path d="M9.32735 108.536C9.78212 108.536 10.1508 108.177 10.1508 107.733C10.1508 107.289 9.78212 106.929 9.32735 106.929C8.87257 106.929 8.50391 107.289 8.50391 107.733C8.50391 108.177 8.87257 108.536 9.32735 108.536Z" fill="#1CA500"/>
<path d="M2.03438 4.14666C2.48916 4.14666 2.85782 3.78687 2.85782 3.34305C2.85782 2.89922 2.48916 2.53943 2.03438 2.53943C1.57961 2.53943 1.21094 2.89922 1.21094 3.34305C1.21094 3.78687 1.57961 4.14666 2.03438 4.14666Z" fill="#1CA500"/>
<path d="M11.5109 115.375C11.9657 115.375 12.3344 115.016 12.3344 114.572C12.3344 114.128 11.9657 113.768 11.5109 113.768C11.0562 113.768 10.6875 114.128 10.6875 114.572C10.6875 115.016 11.0562 115.375 11.5109 115.375Z" fill="#1CA500"/>
<path d="M9.58516 167.643C10.0399 167.643 10.4086 167.283 10.4086 166.839C10.4086 166.395 10.0399 166.035 9.58516 166.035C9.13039 166.035 8.76172 166.395 8.76172 166.839C8.76172 167.283 9.13039 167.643 9.58516 167.643Z" fill="#1CA500"/>
<path d="M13.0734 438.879C13.5282 438.879 13.8969 438.519 13.8969 438.076C13.8969 437.632 13.5282 437.272 13.0734 437.272C12.6187 437.272 12.25 437.632 12.25 438.076C12.25 438.519 12.6187 438.879 13.0734 438.879Z" fill="#1CA500"/>
<path d="M11.7648 362.656C12.2196 362.656 12.5883 362.297 12.5883 361.853C12.5883 361.409 12.2196 361.049 11.7648 361.049C11.3101 361.049 10.9414 361.409 10.9414 361.853C10.9414 362.297 11.3101 362.656 11.7648 362.656Z" fill="#1CA500"/>
<path d="M10.4719 57.0649C10.9267 57.0649 11.2953 56.7051 11.2953 56.2613C11.2953 55.8174 10.9267 55.4576 10.4719 55.4576C10.0171 55.4576 9.64844 55.8174 9.64844 56.2613C9.64844 56.7051 10.0171 57.0649 10.4719 57.0649Z" fill="#1CA500"/>
<path d="M12.7961 586.512C13.2509 586.512 13.6195 586.152 13.6195 585.708C13.6195 585.264 13.2509 584.905 12.7961 584.905C12.3413 584.905 11.9727 585.264 11.9727 585.708C11.9727 586.152 12.3413 586.512 12.7961 586.512Z" fill="#1CA500"/>
<path d="M8.9836 474.359C9.43837 474.359 9.80704 473.999 9.80704 473.555C9.80704 473.112 9.43837 472.752 8.9836 472.752C8.52882 472.752 8.16016 473.112 8.16016 473.555C8.16016 473.999 8.52882 474.359 8.9836 474.359Z" fill="#1CA500"/>
<path d="M7.57344 72.2773C8.02822 72.2773 8.39689 71.9175 8.39689 71.4737C8.39689 71.0298 8.02822 70.67 7.57344 70.67C7.11867 70.67 6.75 71.0298 6.75 71.4737C6.75 71.9175 7.11867 72.2773 7.57344 72.2773Z" fill="#1CA500"/>
<path d="M12.7219 294.373C13.1767 294.373 13.5453 294.013 13.5453 293.569C13.5453 293.125 13.1767 292.766 12.7219 292.766C12.2671 292.766 11.8984 293.125 11.8984 293.569C11.8984 294.013 12.2671 294.373 12.7219 294.373Z" fill="#1CA500"/>
<path d="M12.6633 560.177C13.1181 560.177 13.4867 559.818 13.4867 559.374C13.4867 558.93 13.1181 558.57 12.6633 558.57C12.2085 558.57 11.8398 558.93 11.8398 559.374C11.8398 559.818 12.2085 560.177 12.6633 560.177Z" fill="#1CA500"/>
<path d="M5.29219 607.285C5.74697 607.285 6.11564 606.925 6.11564 606.482C6.11564 606.038 5.74697 605.678 5.29219 605.678C4.83742 605.678 4.46875 606.038 4.46875 606.482C4.46875 606.925 4.83742 607.285 5.29219 607.285Z" fill="#1CA500"/>
<path d="M11.3859 539.846C11.8407 539.846 12.2094 539.486 12.2094 539.042C12.2094 538.598 11.8407 538.239 11.3859 538.239C10.9312 538.239 10.5625 538.598 10.5625 539.042C10.5625 539.486 10.9312 539.846 11.3859 539.846Z" fill="#1CA500"/>
<path d="M12.5148 265.041C12.9696 265.041 13.3383 264.681 13.3383 264.237C13.3383 263.793 12.9696 263.434 12.5148 263.434C12.0601 263.434 11.6914 263.793 11.6914 264.237C11.6914 264.681 12.0601 265.041 12.5148 265.041Z" fill="#1CA500"/>
<path d="M7.87032 265.7C8.32509 265.7 8.69376 265.34 8.69376 264.896C8.69376 264.452 8.32509 264.093 7.87032 264.093C7.41554 264.093 7.04688 264.452 7.04688 264.896C7.04688 265.34 7.41554 265.7 7.87032 265.7Z" fill="#1CA500"/>
<path d="M13.0852 227.986C13.5399 227.986 13.9086 227.626 13.9086 227.183C13.9086 226.739 13.5399 226.379 13.0852 226.379C12.6304 226.379 12.2617 226.739 12.2617 227.183C12.2617 227.626 12.6304 227.986 13.0852 227.986Z" fill="#1CA500"/>
<path d="M9.16329 98.668C9.61806 98.668 9.98673 98.3082 9.98673 97.8644C9.98673 97.4206 9.61806 97.0608 9.16329 97.0608C8.70851 97.0608 8.33984 97.4206 8.33984 97.8644C8.33984 98.3082 8.70851 98.668 9.16329 98.668Z" fill="#1CA500"/>
<path d="M9.76485 412.818C10.2196 412.818 10.5883 412.458 10.5883 412.014C10.5883 411.57 10.2196 411.211 9.76485 411.211C9.31007 411.211 8.94141 411.57 8.94141 412.014C8.94141 412.458 9.31007 412.818 9.76485 412.818Z" fill="#1CA500"/>
<path d="M11.718 326.767C12.1727 326.767 12.5414 326.407 12.5414 325.963C12.5414 325.519 12.1727 325.159 11.718 325.159C11.2632 325.159 10.8945 325.519 10.8945 325.963C10.8945 326.407 11.2632 326.767 11.718 326.767Z" fill="#1CA500"/>
<path d="M8.63594 172.271C9.09072 172.271 9.45939 171.912 9.45939 171.468C9.45939 171.024 9.09072 170.664 8.63594 170.664C8.18117 170.664 7.8125 171.024 7.8125 171.468C7.8125 171.912 8.18117 172.271 8.63594 172.271Z" fill="#1CA500"/>
<path d="M12.968 515.504C13.4227 515.504 13.7914 515.144 13.7914 514.701C13.7914 514.257 13.4227 513.897 12.968 513.897C12.5132 513.897 12.1445 514.257 12.1445 514.701C12.1445 515.144 12.5132 515.504 12.968 515.504Z" fill="#1CA500"/>
<path d="M11.4445 544.081C11.8993 544.081 12.268 543.721 12.268 543.277C12.268 542.833 11.8993 542.474 11.4445 542.474C10.9898 542.474 10.6211 542.833 10.6211 543.277C10.6211 543.721 10.9898 544.081 11.4445 544.081Z" fill="#1CA500"/>
<path d="M13.2336 296.655C13.6884 296.655 14.057 296.295 14.057 295.851C14.057 295.408 13.6884 295.048 13.2336 295.048C12.7788 295.048 12.4102 295.408 12.4102 295.851C12.4102 296.295 12.7788 296.655 13.2336 296.655Z" fill="#1CA500"/>
<path d="M12.1711 401.021C12.6259 401.021 12.9945 400.661 12.9945 400.217C12.9945 399.773 12.6259 399.414 12.1711 399.414C11.7163 399.414 11.3477 399.773 11.3477 400.217C11.3477 400.661 11.7163 401.021 12.1711 401.021Z" fill="#1CA500"/>
<path d="M7.53438 287.928C7.98916 287.928 8.35782 287.568 8.35782 287.124C8.35782 286.681 7.98916 286.321 7.53438 286.321C7.07961 286.321 6.71094 286.681 6.71094 287.124C6.71094 287.568 7.07961 287.928 7.53438 287.928Z" fill="#1CA500"/>
<path d="M5.11251 498.95C5.56728 498.95 5.93595 498.59 5.93595 498.146C5.93595 497.702 5.56728 497.343 5.11251 497.343C4.65773 497.343 4.28906 497.702 4.28906 498.146C4.28906 498.59 4.65773 498.95 5.11251 498.95Z" fill="#1CA500"/>
<path d="M7.28829 252.03C7.74306 252.03 8.11173 251.671 8.11173 251.227C8.11173 250.783 7.74306 250.423 7.28829 250.423C6.83351 250.423 6.46484 250.783 6.46484 251.227C6.46484 251.671 6.83351 252.03 7.28829 252.03Z" fill="#1CA500"/>
<path d="M12.843 563.866C13.2977 563.866 13.6664 563.506 13.6664 563.062C13.6664 562.618 13.2977 562.259 12.843 562.259C12.3882 562.259 12.0195 562.618 12.0195 563.062C12.0195 563.506 12.3882 563.866 12.843 563.866Z" fill="#1CA500"/>
<path d="M4.39766 576.016C4.85244 576.016 5.2211 575.657 5.2211 575.213C5.2211 574.769 4.85244 574.409 4.39766 574.409C3.94289 574.409 3.57422 574.769 3.57422 575.213C3.57422 575.657 3.94289 576.016 4.39766 576.016Z" fill="#1CA500"/>
<path d="M5.57344 433.616C6.02822 433.616 6.39689 433.256 6.39689 432.812C6.39689 432.368 6.02822 432.008 5.57344 432.008C5.11867 432.008 4.75 432.368 4.75 432.812C4.75 433.256 5.11867 433.616 5.57344 433.616Z" fill="#1CA500"/>
<path d="M8.00313 569.99C8.45791 569.99 8.82657 569.63 8.82657 569.186C8.82657 568.742 8.45791 568.382 8.00313 568.382C7.54836 568.382 7.17969 568.742 7.17969 569.186C7.17969 569.63 7.54836 569.99 8.00313 569.99Z" fill="#1CA500"/>
<path d="M8.18282 25.7077C8.63759 25.7077 9.00626 25.3479 9.00626 24.9041C9.00626 24.4603 8.63759 24.1005 8.18282 24.1005C7.72804 24.1005 7.35938 24.4603 7.35938 24.9041C7.35938 25.3479 7.72804 25.7077 8.18282 25.7077Z" fill="#1CA500"/>
<path d="M9.22188 612.485C9.67666 612.485 10.0453 612.125 10.0453 611.681C10.0453 611.237 9.67666 610.877 9.22188 610.877C8.76711 610.877 8.39844 611.237 8.39844 611.681C8.39844 612.125 8.76711 612.485 9.22188 612.485Z" fill="#1CA500"/>
<path d="M6.33126 137.073C6.78603 137.073 7.1547 136.713 7.1547 136.269C7.1547 135.825 6.78603 135.466 6.33126 135.466C5.87648 135.466 5.50781 135.825 5.50781 136.269C5.50781 136.713 5.87648 137.073 6.33126 137.073Z" fill="#1CA500"/>
<path d="M12.6867 472.446C13.1415 472.446 13.5102 472.087 13.5102 471.643C13.5102 471.199 13.1415 470.839 12.6867 470.839C12.2319 470.839 11.8633 471.199 11.8633 471.643C11.8633 472.087 12.2319 472.446 12.6867 472.446Z" fill="#1CA500"/>
<path d="M13.1906 210.588C13.6454 210.588 14.0141 210.228 14.0141 209.784C14.0141 209.34 13.6454 208.98 13.1906 208.98C12.7359 208.98 12.3672 209.34 12.3672 209.784C12.3672 210.228 12.7359 210.588 13.1906 210.588Z" fill="#1CA500"/>
<path d="M9.91329 559.848C10.3681 559.848 10.7367 559.488 10.7367 559.044C10.7367 558.6 10.3681 558.24 9.91329 558.24C9.45851 558.24 9.08984 558.6 9.08984 559.044C9.08984 559.488 9.45851 559.848 9.91329 559.848Z" fill="#1CA500"/>
<path d="M7.87813 215.667C8.33291 215.667 8.70157 215.307 8.70157 214.863C8.70157 214.419 8.33291 214.059 7.87813 214.059C7.42336 214.059 7.05469 214.419 7.05469 214.863C7.05469 215.307 7.42336 215.667 7.87813 215.667Z" fill="#1CA500"/>
<path d="M14.0969 138.077C14.5517 138.077 14.9203 137.718 14.9203 137.274C14.9203 136.83 14.5517 136.47 14.0969 136.47C13.6421 136.47 13.2734 136.83 13.2734 137.274C13.2734 137.718 13.6421 138.077 14.0969 138.077Z" fill="#1CA500"/>
<path d="M2.42891 408.358C2.88369 408.358 3.25235 407.998 3.25235 407.554C3.25235 407.111 2.88369 406.751 2.42891 406.751C1.97414 406.751 1.60547 407.111 1.60547 407.554C1.60547 407.998 1.97414 408.358 2.42891 408.358Z" fill="#1CA500"/>
<path d="M11.1828 445.999C11.6376 445.999 12.0063 445.64 12.0063 445.196C12.0063 444.752 11.6376 444.392 11.1828 444.392C10.728 444.392 10.3594 444.752 10.3594 445.196C10.3594 445.64 10.728 445.999 11.1828 445.999Z" fill="#1CA500"/>
<path d="M14.1867 323.528C14.6415 323.528 15.0102 323.168 15.0102 322.725C15.0102 322.281 14.6415 321.921 14.1867 321.921C13.7319 321.921 13.3633 322.281 13.3633 322.725C13.3633 323.168 13.7319 323.528 14.1867 323.528Z" fill="#1CA500"/>
<path d="M13.0266 583.104C13.4813 583.104 13.85 582.745 13.85 582.301C13.85 581.857 13.4813 581.497 13.0266 581.497C12.5718 581.497 12.2031 581.857 12.2031 582.301C12.2031 582.745 12.5718 583.104 13.0266 583.104Z" fill="#1CA500"/>
<path d="M12.6789 224.723C13.1337 224.723 13.5024 224.364 13.5024 223.92C13.5024 223.476 13.1337 223.116 12.6789 223.116C12.2241 223.116 11.8555 223.476 11.8555 223.92C11.8555 224.364 12.2241 224.723 12.6789 224.723Z" fill="#1CA500"/>
<path d="M7.69063 315.058C8.14541 315.058 8.51407 314.698 8.51407 314.254C8.51407 313.81 8.14541 313.451 7.69063 313.451C7.23586 313.451 6.86719 313.81 6.86719 314.254C6.86719 314.698 7.23586 315.058 7.69063 315.058Z" fill="#1CA500"/>
<path d="M12.1594 409.483C12.6142 409.483 12.9828 409.123 12.9828 408.679C12.9828 408.236 12.6142 407.876 12.1594 407.876C11.7046 407.876 11.3359 408.236 11.3359 408.679C11.3359 409.123 11.7046 409.483 12.1594 409.483Z" fill="#1CA500"/>
<path d="M7.84688 358.558C8.30166 358.558 8.67032 358.198 8.67032 357.754C8.67032 357.31 8.30166 356.951 7.84688 356.951C7.39211 356.951 7.02344 357.31 7.02344 357.754C7.02344 358.198 7.39211 358.558 7.84688 358.558Z" fill="#1CA500"/>
<path d="M12.2766 577.391C12.7313 577.391 13.1 577.031 13.1 576.587C13.1 576.143 12.7313 575.783 12.2766 575.783C11.8218 575.783 11.4531 576.143 11.4531 576.587C11.4531 577.031 11.8218 577.391 12.2766 577.391Z" fill="#1CA500"/>
<path d="M7.76485 590.015C8.21962 590.015 8.58829 589.656 8.58829 589.212C8.58829 588.768 8.21962 588.408 7.76485 588.408C7.31007 588.408 6.94141 588.768 6.94141 589.212C6.94141 589.656 7.31007 590.015 7.76485 590.015Z" fill="#1CA500"/>
<path d="M13.1672 111.574C13.622 111.574 13.9906 111.214 13.9906 110.771C13.9906 110.327 13.622 109.967 13.1672 109.967C12.7124 109.967 12.3438 110.327 12.3438 110.771C12.3438 111.214 12.7124 111.574 13.1672 111.574Z" fill="#1CA500"/>
<path d="M14.1125 222.072C14.5673 222.072 14.9359 221.712 14.9359 221.268C14.9359 220.824 14.5673 220.464 14.1125 220.464C13.6577 220.464 13.2891 220.824 13.2891 221.268C13.2891 221.712 13.6577 222.072 14.1125 222.072Z" fill="#1CA500"/>
<path d="M10.507 535.354C10.9618 535.354 11.3305 534.994 11.3305 534.55C11.3305 534.106 10.9618 533.746 10.507 533.746C10.0523 533.746 9.68359 534.106 9.68359 534.55C9.68359 534.994 10.0523 535.354 10.507 535.354Z" fill="#1CA500"/>
<path d="M11.6984 219.733C12.1532 219.733 12.5219 219.373 12.5219 218.929C12.5219 218.486 12.1532 218.126 11.6984 218.126C11.2437 218.126 10.875 218.486 10.875 218.929C10.875 219.373 11.2437 219.733 11.6984 219.733Z" fill="#1CA500"/>
<path d="M12.7219 315.62C13.1767 315.62 13.5453 315.261 13.5453 314.817C13.5453 314.373 13.1767 314.013 12.7219 314.013C12.2671 314.013 11.8984 314.373 11.8984 314.817C11.8984 315.261 12.2671 315.62 12.7219 315.62Z" fill="#1CA500"/>
<path d="M9.40157 113.784C9.85634 113.784 10.225 113.424 10.225 112.98C10.225 112.537 9.85634 112.177 9.40157 112.177C8.94679 112.177 8.57812 112.537 8.57812 112.98C8.57812 113.424 8.94679 113.784 9.40157 113.784Z" fill="#1CA500"/>
<path d="M12.3508 386.709C12.8056 386.709 13.1742 386.349 13.1742 385.905C13.1742 385.461 12.8056 385.101 12.3508 385.101C11.896 385.101 11.5273 385.461 11.5273 385.905C11.5273 386.349 11.896 386.709 12.3508 386.709Z" fill="#1CA500"/>
<path d="M10.7453 389.368C11.2001 389.368 11.5688 389.009 11.5688 388.565C11.5688 388.121 11.2001 387.761 10.7453 387.761C10.2905 387.761 9.92188 388.121 9.92188 388.565C9.92188 389.009 10.2905 389.368 10.7453 389.368Z" fill="#1CA500"/>
<path d="M9.4836 433.736C9.93837 433.736 10.307 433.376 10.307 432.933C10.307 432.489 9.93837 432.129 9.4836 432.129C9.02882 432.129 8.66016 432.489 8.66016 432.933C8.66016 433.376 9.02882 433.736 9.4836 433.736Z" fill="#1CA500"/>
<path d="M12.4172 600.133C12.872 600.133 13.2406 599.773 13.2406 599.329C13.2406 598.886 12.872 598.526 12.4172 598.526C11.9624 598.526 11.5938 598.886 11.5938 599.329C11.5938 599.773 11.9624 600.133 12.4172 600.133Z" fill="#1CA500"/>
<path d="M7.21407 295C7.66884 295 8.03751 294.64 8.03751 294.196C8.03751 293.752 7.66884 293.393 7.21407 293.393C6.75929 293.393 6.39062 293.752 6.39062 294.196C6.39062 294.64 6.75929 295 7.21407 295Z" fill="#1CA500"/>
<path d="M13.3898 190.988C13.8446 190.988 14.2133 190.628 14.2133 190.184C14.2133 189.74 13.8446 189.38 13.3898 189.38C12.9351 189.38 12.5664 189.74 12.5664 190.184C12.5664 190.628 12.9351 190.988 13.3898 190.988Z" fill="#1CA500"/>
<path d="M10.4719 323.384C10.9267 323.384 11.2953 323.024 11.2953 322.58C11.2953 322.136 10.9267 321.776 10.4719 321.776C10.0171 321.776 9.64844 322.136 9.64844 322.58C9.64844 323.024 10.0171 323.384 10.4719 323.384Z" fill="#1CA500"/>
<path d="M8.95626 29.34C9.41103 29.34 9.7797 28.9802 9.7797 28.5364C9.7797 28.0926 9.41103 27.7328 8.95626 27.7328C8.50148 27.7328 8.13281 28.0926 8.13281 28.5364C8.13281 28.9802 8.50148 29.34 8.95626 29.34Z" fill="#1CA500"/>
<path d="M13.0578 218.222C13.5126 218.222 13.8813 217.862 13.8813 217.419C13.8813 216.975 13.5126 216.615 13.0578 216.615C12.603 216.615 12.2344 216.975 12.2344 217.419C12.2344 217.862 12.603 218.222 13.0578 218.222Z" fill="#1CA500"/>
<path d="M10.5734 34.9894C11.0282 34.9894 11.3969 34.6296 11.3969 34.1858C11.3969 33.742 11.0282 33.3822 10.5734 33.3822C10.1187 33.3822 9.75 33.742 9.75 34.1858C9.75 34.6296 10.1187 34.9894 10.5734 34.9894Z" fill="#1CA500"/>
<path d="M9.74141 598.052C10.1962 598.052 10.5649 597.692 10.5649 597.248C10.5649 596.804 10.1962 596.445 9.74141 596.445C9.28664 596.445 8.91797 596.804 8.91797 597.248C8.91797 597.692 9.28664 598.052 9.74141 598.052Z" fill="#1CA500"/>
<path d="M6.40547 18.4671C6.86025 18.4671 7.22892 18.1073 7.22892 17.6635C7.22892 17.2197 6.86025 16.8599 6.40547 16.8599C5.9507 16.8599 5.58203 17.2197 5.58203 17.6635C5.58203 18.1073 5.9507 18.4671 6.40547 18.4671Z" fill="#1CA500"/>
<path d="M7.81172 428.721C8.2665 428.721 8.63517 428.362 8.63517 427.918C8.63517 427.474 8.2665 427.114 7.81172 427.114C7.35695 427.114 6.98828 427.474 6.98828 427.918C6.98828 428.362 7.35695 428.721 7.81172 428.721Z" fill="#1CA500"/>
<path d="M6.71016 372.533C7.16494 372.533 7.5336 372.173 7.5336 371.729C7.5336 371.285 7.16494 370.926 6.71016 370.926C6.25539 370.926 5.88672 371.285 5.88672 371.729C5.88672 372.173 6.25539 372.533 6.71016 372.533Z" fill="#1CA500"/>
<path d="M5.62422 203.982C6.079 203.982 6.44767 203.622 6.44767 203.178C6.44767 202.735 6.079 202.375 5.62422 202.375C5.16945 202.375 4.80078 202.735 4.80078 203.178C4.80078 203.622 5.16945 203.982 5.62422 203.982Z" fill="#1CA500"/>
<path d="M12.7219 108.802C13.1767 108.802 13.5453 108.442 13.5453 107.998C13.5453 107.554 13.1767 107.194 12.7219 107.194C12.2671 107.194 11.8984 107.554 11.8984 107.998C11.8984 108.442 12.2671 108.802 12.7219 108.802Z" fill="#1CA500"/>
<path d="M6.48751 102.895C6.94228 102.895 7.31095 102.535 7.31095 102.091C7.31095 101.648 6.94228 101.288 6.48751 101.288C6.03273 101.288 5.66406 101.648 5.66406 102.091C5.66406 102.535 6.03273 102.895 6.48751 102.895Z" fill="#1CA500"/>
<path d="M8.50704 579.553C8.96181 579.553 9.33048 579.193 9.33048 578.749C9.33048 578.305 8.96181 577.945 8.50704 577.945C8.05226 577.945 7.68359 578.305 7.68359 578.749C7.68359 579.193 8.05226 579.553 8.50704 579.553Z" fill="#1CA500"/>
<path d="M6.34688 365.26C6.80166 365.26 7.17032 364.9 7.17032 364.456C7.17032 364.013 6.80166 363.653 6.34688 363.653C5.89211 363.653 5.52344 364.013 5.52344 364.456C5.52344 364.9 5.89211 365.26 6.34688 365.26Z" fill="#1CA500"/>
<path d="M13.2063 16.0804C13.661 16.0804 14.0297 15.7206 14.0297 15.2768C14.0297 14.8329 13.661 14.4731 13.2063 14.4731C12.7515 14.4731 12.3828 14.8329 12.3828 15.2768C12.3828 15.7206 12.7515 16.0804 13.2063 16.0804Z" fill="#1CA500"/>
<path d="M12.5813 145.567C13.036 145.567 13.4047 145.207 13.4047 144.764C13.4047 144.32 13.036 143.96 12.5813 143.96C12.1265 143.96 11.7578 144.32 11.7578 144.764C11.7578 145.207 12.1265 145.567 12.5813 145.567Z" fill="#1CA500"/>
<path d="M11.0344 556.762C11.4892 556.762 11.8578 556.402 11.8578 555.958C11.8578 555.515 11.4892 555.155 11.0344 555.155C10.5796 555.155 10.2109 555.515 10.2109 555.958C10.2109 556.402 10.5796 556.762 11.0344 556.762Z" fill="#1CA500"/>
<path d="M2.44454 328.31C2.89931 328.31 3.26798 327.95 3.26798 327.506C3.26798 327.062 2.89931 326.702 2.44454 326.702C1.98976 326.702 1.62109 327.062 1.62109 327.506C1.62109 327.95 1.98976 328.31 2.44454 328.31Z" fill="#1CA500"/>
<path d="M9.27266 517.971C9.72744 517.971 10.0961 517.611 10.0961 517.168C10.0961 516.724 9.72744 516.364 9.27266 516.364C8.81789 516.364 8.44922 516.724 8.44922 517.168C8.44922 517.611 8.81789 517.971 9.27266 517.971Z" fill="#1CA500"/>
<path d="M12.9094 442.214C13.3642 442.214 13.7328 441.855 13.7328 441.411C13.7328 440.967 13.3642 440.607 12.9094 440.607C12.4546 440.607 12.0859 440.967 12.0859 441.411C12.0859 441.855 12.4546 442.214 12.9094 442.214Z" fill="#1CA500"/>
<path d="M12.5578 37.9066C13.0126 37.9066 13.3813 37.5468 13.3813 37.1029C13.3813 36.6591 13.0126 36.2993 12.5578 36.2993C12.103 36.2993 11.7344 36.6591 11.7344 37.1029C11.7344 37.5468 12.103 37.9066 12.5578 37.9066Z" fill="#1CA500"/>
<path d="M14.1789 54.3727C14.6337 54.3727 15.0024 54.0129 15.0024 53.5691C15.0024 53.1253 14.6337 52.7655 14.1789 52.7655C13.7241 52.7655 13.3555 53.1253 13.3555 53.5691C13.3555 54.0129 13.7241 54.3727 14.1789 54.3727Z" fill="#1CA500"/>
<path d="M2.88985 319.815C3.34462 319.815 3.71329 319.456 3.71329 319.012C3.71329 318.568 3.34462 318.208 2.88985 318.208C2.43507 318.208 2.06641 318.568 2.06641 319.012C2.06641 319.456 2.43507 319.815 2.88985 319.815Z" fill="#1CA500"/>
<path d="M12.425 397.308C12.8798 397.308 13.2484 396.948 13.2484 396.505C13.2484 396.061 12.8798 395.701 12.425 395.701C11.9702 395.701 11.6016 396.061 11.6016 396.505C11.6016 396.948 11.9702 397.308 12.425 397.308Z" fill="#1CA500"/>
<path d="M11.2961 194.805C11.7509 194.805 12.1195 194.445 12.1195 194.001C12.1195 193.557 11.7509 193.198 11.2961 193.198C10.8413 193.198 10.4727 193.557 10.4727 194.001C10.4727 194.445 10.8413 194.805 11.2961 194.805Z" fill="#1CA500"/>
<path d="M7.89766 189.557C8.35244 189.557 8.7211 189.197 8.7211 188.754C8.7211 188.31 8.35244 187.95 7.89766 187.95C7.44289 187.95 7.07422 188.31 7.07422 188.754C7.07422 189.197 7.44289 189.557 7.89766 189.557Z" fill="#1CA500"/>
<path d="M12.6789 320.732C13.1337 320.732 13.5024 320.372 13.5024 319.928C13.5024 319.484 13.1337 319.124 12.6789 319.124C12.2241 319.124 11.8555 319.484 11.8555 319.928C11.8555 320.372 12.2241 320.732 12.6789 320.732Z" fill="#1CA500"/>
<path d="M8.32344 574.064C8.77822 574.064 9.14689 573.704 9.14689 573.26C9.14689 572.816 8.77822 572.457 8.32344 572.457C7.86867 572.457 7.5 572.816 7.5 573.26C7.5 573.704 7.86867 574.064 8.32344 574.064Z" fill="#1CA500"/>
<path d="M1.56172 169.475C2.0165 169.475 2.38517 169.115 2.38517 168.671C2.38517 168.227 2.0165 167.867 1.56172 167.867C1.10695 167.867 0.738281 168.227 0.738281 168.671C0.738281 169.115 1.10695 169.475 1.56172 169.475Z" fill="#1CA500"/>
<path d="M11.7258 613.545C12.1806 613.545 12.5492 613.186 12.5492 612.742C12.5492 612.298 12.1806 611.938 11.7258 611.938C11.271 611.938 10.9023 612.298 10.9023 612.742C10.9023 613.186 11.271 613.545 11.7258 613.545Z" fill="#1CA500"/>
<path d="M10.6945 19.7449C11.1493 19.7449 11.518 19.3851 11.518 18.9413C11.518 18.4975 11.1493 18.1377 10.6945 18.1377C10.2398 18.1377 9.87109 18.4975 9.87109 18.9413C9.87109 19.3851 10.2398 19.7449 10.6945 19.7449Z" fill="#1CA500"/>
<path d="M6.30782 583.153C6.76259 583.153 7.13126 582.793 7.13126 582.349C7.13126 581.905 6.76259 581.545 6.30782 581.545C5.85304 581.545 5.48438 581.905 5.48438 582.349C5.48438 582.793 5.85304 583.153 6.30782 583.153Z" fill="#1CA500"/>
<path d="M12.8547 431.502C13.3095 431.502 13.6781 431.142 13.6781 430.698C13.6781 430.255 13.3095 429.895 12.8547 429.895C12.3999 429.895 12.0312 430.255 12.0312 430.698C12.0312 431.142 12.3999 431.502 12.8547 431.502Z" fill="#1CA500"/>
<path d="M12.8195 24.8799C13.2743 24.8799 13.643 24.5201 13.643 24.0763C13.643 23.6325 13.2743 23.2727 12.8195 23.2727C12.3648 23.2727 11.9961 23.6325 11.9961 24.0763C11.9961 24.5201 12.3648 24.8799 12.8195 24.8799Z" fill="#1CA500"/>
<path d="M7.01485 401.125C7.46962 401.125 7.83829 400.766 7.83829 400.322C7.83829 399.878 7.46962 399.518 7.01485 399.518C6.56007 399.518 6.19141 399.878 6.19141 400.322C6.19141 400.766 6.56007 401.125 7.01485 401.125Z" fill="#1CA500"/>
<path d="M11.6086 132.219C12.0634 132.219 12.432 131.859 12.432 131.415C12.432 130.972 12.0634 130.612 11.6086 130.612C11.1538 130.612 10.7852 130.972 10.7852 131.415C10.7852 131.859 11.1538 132.219 11.6086 132.219Z" fill="#1CA500"/>
<path d="M3.97579 640.844C4.43056 640.844 4.79923 640.485 4.79923 640.041C4.79923 639.597 4.43056 639.237 3.97579 639.237C3.52101 639.237 3.15234 639.597 3.15234 640.041C3.15234 640.485 3.52101 640.844 3.97579 640.844Z" fill="#1CA500"/>
</svg>
