<?xml version="1.0" encoding="UTF-8"?>
<svg id="Layer_1" data-name="Layer 1" xmlns="http://www.w3.org/2000/svg" viewBox="0 0 253.6 90.74">
  <defs>
    <style>
      .cls-1 {
        fill: #399dc9;
        stroke-width: 0px;
      }
    </style>
  </defs>
  <circle class="cls-1" cx="211.85" cy="53.33" r="1"/>
  <circle class="cls-1" cx="121.16" cy="12.24" r="1"/>
  <circle class="cls-1" cx="24.67" cy="64.13" r="1"/>
  <circle class="cls-1" cx="247.85" cy="47.76" r="1"/>
  <circle class="cls-1" cx="93.69" cy="3.26" r="1"/>
  <circle class="cls-1" cx="116.71" cy="23.93" r="1"/>
  <circle class="cls-1" cx="165.76" cy="8.12" r="1"/>
  <circle class="cls-1" cx="41.51" cy="42.91" r="1"/>
  <circle class="cls-1" cx="147.24" cy="34.43" r="1"/>
  <circle class="cls-1" cx="210.5" cy="28.81" r="1"/>
  <circle class="cls-1" cx="133.63" cy="51.78" r="1"/>
  <circle class="cls-1" cx="40.14" cy="6.52" r="1"/>
  <circle class="cls-1" cx="252.3" cy="15.15" r="1"/>
  <circle class="cls-1" cx="54.34" cy="5.79" r="1"/>
  <circle class="cls-1" cx="205.92" cy="7.57" r="1"/>
  <circle class="cls-1" cx="220.46" cy="47.08" r="1"/>
  <circle class="cls-1" cx="195.94" cy="8.34" r="1"/>
  <circle class="cls-1" cx="49.91" cy="50.46" r="1"/>
  <circle class="cls-1" cx="130.51" cy="78.69" r="1"/>
  <circle class="cls-1" cx="30.71" cy="59.02" r="1"/>
  <circle class="cls-1" cx="191.08" cy="25.06" r="1"/>
  <circle class="cls-1" cx="245.39" cy="61.98" r="1"/>
  <circle class="cls-1" cx="246.05" cy="37.76" r="1"/>
  <circle class="cls-1" cx="120.54" cy="10.42" r="1"/>
  <circle class="cls-1" cx="217.2" cy="2.23" r="1"/>
  <circle class="cls-1" cx="191.67" cy="7.94" r="1"/>
  <circle class="cls-1" cx="59.47" cy="46.15" r="1"/>
  <circle class="cls-1" cx="68.87" cy="4.85" r="1"/>
  <circle class="cls-1" cx="104.07" cy="49.06" r="1"/>
  <circle class="cls-1" cx="115.16" cy="12.53" r="1"/>
  <circle class="cls-1" cx="47.86" cy="42.53" r="1"/>
  <circle class="cls-1" cx="175.84" cy="18.06" r="1"/>
  <circle class="cls-1" cx="105.79" cy="19.67" r="1"/>
  <circle class="cls-1" cx="121.51" cy="23.73" r="1"/>
  <circle class="cls-1" cx="69.87" cy="20.61" r="1"/>
  <circle class="cls-1" cx="38.11" cy="22.94" r="1"/>
  <circle class="cls-1" cx="89.47" cy="25.84" r="1"/>
  <circle class="cls-1" cx="218.52" cy="15.12" r="1"/>
  <circle class="cls-1" cx="35.6" cy="45.97" r="1"/>
  <circle class="cls-1" cx="170.92" cy="33.04" r="1"/>
  <circle class="cls-1" cx="203.82" cy="25.42" r="1"/>
  <circle class="cls-1" cx="15.94" cy="65.81" r="1"/>
  <circle class="cls-1" cx="4.59" cy="12.63" r="1"/>
  <circle class="cls-1" cx="33.52" cy="4.06" r="1"/>
  <circle class="cls-1" cx="139.25" cy="10.08" r="1"/>
  <circle class="cls-1" cx="199.34" cy="3.54" r="1"/>
  <circle class="cls-1" cx="192.15" cy="18.81" r="1"/>
  <circle class="cls-1" cx="108.29" cy="53.29" r="1"/>
  <circle class="cls-1" cx="79.19" cy="74.18" r="1"/>
  <circle class="cls-1" cx="130.09" cy="48.72" r="1"/>
  <circle class="cls-1" cx="110.25" cy="7.87" r="1"/>
  <circle class="cls-1" cx="179.37" cy="35.75" r="1"/>
  <circle class="cls-1" cx="129.34" cy="25.64" r="1"/>
  <circle class="cls-1" cx="179.27" cy="11.52" r="1"/>
  <circle class="cls-1" cx="90.56" cy="10.55" r="1"/>
  <circle class="cls-1" cx="212.58" cy="15.68" r="1"/>
  <circle class="cls-1" cx="164.67" cy="58.02" r="1"/>
  <circle class="cls-1" cx="156.96" cy="16.33" r="1"/>
  <circle class="cls-1" cx="117.87" cy="8.69" r="1"/>
  <circle class="cls-1" cx="81.78" cy="16.62" r="1"/>
  <circle class="cls-1" cx="150.19" cy="46.42" r="1"/>
  <circle class="cls-1" cx="142.57" cy="17.45" r="1"/>
  <circle class="cls-1" cx="199.61" cy="51.57" r="1"/>
  <circle class="cls-1" cx="123.03" cy="19.95" r="1"/>
  <circle class="cls-1" cx="48.09" cy="60.04" r="1"/>
  <circle class="cls-1" cx="105.53" cy="24.35" r="1"/>
  <circle class="cls-1" cx="244.09" cy="17.18" r="1"/>
  <circle class="cls-1" cx="217.49" cy="18.55" r="1"/>
  <circle class="cls-1" cx="137.64" cy="55.48" r="1"/>
  <circle class="cls-1" cx="122.74" cy="23.24" r="1"/>
  <circle class="cls-1" cx="5.9" cy="8.69" r="1"/>
  <circle class="cls-1" cx="127.47" cy="62.62" r="1"/>
  <circle class="cls-1" cx="49.76" cy="5.73" r="1"/>
  <circle class="cls-1" cx="115.24" cy="30.15" r="1"/>
  <circle class="cls-1" cx="14.38" cy="6.22" r="1"/>
  <circle class="cls-1" cx="163.27" cy="5.29" r="1"/>
  <circle class="cls-1" cx="213.34" cy="58.25" r="1"/>
  <circle class="cls-1" cx="237.4" cy="18.7" r="1"/>
  <circle class="cls-1" cx="20.3" cy="18.86" r="1"/>
  <circle class="cls-1" cx="141.11" cy="31.98" r="1"/>
  <circle class="cls-1" cx="232.91" cy="12.18" r="1"/>
  <circle class="cls-1" cx="234.76" cy="2.46" r="1"/>
  <circle class="cls-1" cx="99.34" cy="8.72" r="1"/>
  <circle class="cls-1" cx="215.27" cy="24.83" r="1"/>
  <circle class="cls-1" cx="134.81" cy="32.21" r="1"/>
  <circle class="cls-1" cx="56.77" cy="3.76" r="1"/>
  <circle class="cls-1" cx="215.91" cy="11.65" r="1"/>
  <circle class="cls-1" cx="190" cy="12.9" r="1"/>
  <circle class="cls-1" cx="165.7" cy="33.59" r="1"/>
  <circle class="cls-1" cx="212.36" cy="37.25" r="1"/>
  <circle class="cls-1" cx="49.85" cy="2.14" r="1"/>
  <circle class="cls-1" cx="195.11" cy="4.9" r="1"/>
  <circle class="cls-1" cx="89.31" cy="59.73" r="1"/>
  <circle class="cls-1" cx="200.25" cy="71.16" r="1"/>
  <circle class="cls-1" cx="41.05" cy="15.42" r="1"/>
  <circle class="cls-1" cx="97.37" cy="2.75" r="1"/>
  <circle class="cls-1" cx="16.52" cy="16.93" r="1"/>
  <circle class="cls-1" cx="91.46" cy="5.1" r="1"/>
  <circle class="cls-1" cx="112.17" cy="16.41" r="1"/>
  <circle class="cls-1" cx="179.2" cy="76.79" r="1"/>
  <circle class="cls-1" cx="160.85" cy="46.63" r="1"/>
  <circle class="cls-1" cx="71.38" cy="2.43" r="1"/>
  <circle class="cls-1" cx="107.55" cy="2.13" r="1"/>
  <circle class="cls-1" cx="252.6" cy="4.51" r="1"/>
  <circle class="cls-1" cx="126.06" cy="2.28" r="1"/>
  <circle class="cls-1" cx="108.78" cy="34.86" r="1"/>
  <circle class="cls-1" cx="229.77" cy="19.94" r="1"/>
  <circle class="cls-1" cx="21.16" cy="58.62" r="1"/>
  <circle class="cls-1" cx="93.44" cy="26.67" r="1"/>
  <circle class="cls-1" cx="129.93" cy="5.34" r="1"/>
  <circle class="cls-1" cx="195.3" cy="27.23" r="1"/>
  <circle class="cls-1" cx="48.33" cy="11.1" r="1"/>
  <circle class="cls-1" cx="32.3" cy="1.69" r="1"/>
  <circle class="cls-1" cx="1.92" cy="32.38" r="1"/>
  <circle class="cls-1" cx="157.34" cy="4.6" r="1"/>
  <circle class="cls-1" cx="169.65" cy="5.6" r="1"/>
  <circle class="cls-1" cx="249.73" cy="77.29" r="1"/>
  <circle class="cls-1" cx="44.58" cy="27.82" r="1"/>
  <circle class="cls-1" cx="24.83" cy="1.69" r="1"/>
  <circle class="cls-1" cx="203.22" cy="18.9" r="1"/>
  <circle class="cls-1" cx="126.02" cy="32.82" r="1"/>
  <circle class="cls-1" cx="137.2" cy="73.99" r="1"/>
  <circle class="cls-1" cx="189.88" cy="32.33" r="1"/>
  <circle class="cls-1" cx="175.76" cy="34.21" r="1"/>
  <circle class="cls-1" cx="46.01" cy="3.6" r="1"/>
  <circle class="cls-1" cx="82.95" cy="48.14" r="1"/>
  <circle class="cls-1" cx="132.76" cy="5.09" r="1"/>
  <circle class="cls-1" cx="71.28" cy="49.16" r="1"/>
  <circle class="cls-1" cx="193.99" cy="60.76" r="1"/>
  <circle class="cls-1" cx="245.25" cy="26.31" r="1"/>
  <circle class="cls-1" cx="123.59" cy="7.82" r="1"/>
  <circle class="cls-1" cx="170.41" cy="9.78" r="1"/>
  <circle class="cls-1" cx="214.54" cy="7.99" r="1"/>
  <circle class="cls-1" cx="110.53" cy="27.28" r="1"/>
  <circle class="cls-1" cx="146.29" cy="17.81" r="1"/>
  <circle class="cls-1" cx="46.39" cy="23.84" r="1"/>
  <circle class="cls-1" cx="186.29" cy="64.56" r="1"/>
  <circle class="cls-1" cx="241.26" cy="28.72" r="1"/>
  <circle class="cls-1" cx="34.54" cy="37.39" r="1"/>
  <circle class="cls-1" cx="243.38" cy="71.48" r="1"/>
  <circle class="cls-1" cx="32.22" cy="14.95" r="1"/>
  <circle class="cls-1" cx="4.93" cy="53.36" r="1"/>
  <circle class="cls-1" cx="206.86" cy="4.73" r="1"/>
  <circle class="cls-1" cx="210.86" cy="8.25" r="1"/>
  <circle class="cls-1" cx="243.3" cy="6.42" r="1"/>
  <circle class="cls-1" cx="79.19" cy="55.61" r="1"/>
  <circle class="cls-1" cx="63.75" cy="44.84" r="1"/>
  <circle class="cls-1" cx="99.8" cy="3.65" r="1"/>
  <circle class="cls-1" cx="202.62" cy="83.66" r="1"/>
  <circle class="cls-1" cx="105.6" cy="30.61" r="1"/>
  <circle class="cls-1" cx="45.52" cy="72.9" r="1"/>
  <circle class="cls-1" cx="114.99" cy="48.84" r="1"/>
  <circle class="cls-1" cx="213.69" cy="2" r="1"/>
  <circle class="cls-1" cx="238.73" cy="65.4" r="1"/>
  <circle class="cls-1" cx="169.42" cy="18.76" r="1"/>
  <circle class="cls-1" cx="25.91" cy="30.59" r="1"/>
  <circle class="cls-1" cx="36.82" cy="16.1" r="1"/>
  <circle class="cls-1" cx="129.97" cy="11.36" r="1"/>
  <circle class="cls-1" cx="119.9" cy="48.66" r="1"/>
  <circle class="cls-1" cx="142.98" cy="34.99" r="1"/>
  <circle class="cls-1" cx="139.48" cy="42.53" r="1"/>
  <circle class="cls-1" cx="146.42" cy="42.64" r="1"/>
  <circle class="cls-1" cx="50.76" cy="15.87" r="1"/>
  <circle class="cls-1" cx="138.78" cy="2.29" r="1"/>
  <circle class="cls-1" cx="123.14" cy="39.99" r="1"/>
  <circle class="cls-1" cx="171.75" cy="3.65" r="1"/>
  <circle class="cls-1" cx="81.35" cy="62.15" r="1"/>
  <circle class="cls-1" cx="9.28" cy="19.81" r="1"/>
  <circle class="cls-1" cx="134.57" cy="16.51" r="1"/>
  <circle class="cls-1" cx="175.96" cy="49.32" r="1"/>
  <circle class="cls-1" cx="130.09" cy="17.05" r="1"/>
  <circle class="cls-1" cx="29.3" cy="26.96" r="1"/>
  <circle class="cls-1" cx="19.78" cy="13.44" r="1"/>
  <circle class="cls-1" cx="115.23" cy="18.17" r="1"/>
  <circle class="cls-1" cx="90.36" cy="1.52" r="1"/>
  <circle class="cls-1" cx="35.84" cy="11.3" r="1"/>
  <circle class="cls-1" cx="137.44" cy="37.52" r="1"/>
  <circle class="cls-1" cx="249.12" cy="38.68" r="1"/>
  <circle class="cls-1" cx="200.78" cy="44.67" r="1"/>
  <circle class="cls-1" cx="177.02" cy="1.9" r="1"/>
  <circle class="cls-1" cx="139.31" cy="27.36" r="1"/>
  <circle class="cls-1" cx="85.85" cy="12.97" r="1"/>
  <circle class="cls-1" cx="187.73" cy="10.16" r="1"/>
  <circle class="cls-1" cx="98.84" cy="23.84" r="1"/>
  <circle class="cls-1" cx="35.03" cy="26.52" r="1"/>
  <circle class="cls-1" cx="207.3" cy="46.7" r="1"/>
  <circle class="cls-1" cx="187.25" cy="38.54" r="1"/>
  <circle class="cls-1" cx="188.91" cy="4.59" r="1"/>
  <circle class="cls-1" cx="57.04" cy="29.79" r="1"/>
  <circle class="cls-1" cx="109.55" cy="12.08" r="1"/>
  <circle class="cls-1" cx="234.24" cy="8.59" r="1"/>
  <circle class="cls-1" cx="159.38" cy="67.48" r="1"/>
  <circle class="cls-1" cx="37.14" cy="69.45" r="1"/>
  <circle class="cls-1" cx="38.39" cy="2.21" r="1"/>
  <circle class="cls-1" cx="173.44" cy="7.15" r="1"/>
  <circle class="cls-1" cx="111.09" cy="60.72" r="1"/>
  <circle class="cls-1" cx="200.75" cy="63.91" r="1"/>
  <circle class="cls-1" cx="73.77" cy="47.96" r="1"/>
  <circle class="cls-1" cx="65.6" cy="28.71" r="1"/>
  <circle class="cls-1" cx="183.15" cy="36.37" r="1"/>
  <circle class="cls-1" cx="228.13" cy="65.9" r="1"/>
  <circle class="cls-1" cx="96.88" cy="6.39" r="1"/>
  <circle class="cls-1" cx="56.19" cy="35.18" r="1"/>
  <circle class="cls-1" cx="23.47" cy="24.69" r="1"/>
  <circle class="cls-1" cx="18" cy="50.85" r="1"/>
  <circle class="cls-1" cx="75.16" cy="26.58" r="1"/>
  <circle class="cls-1" cx="11.67" cy="1.59" r="1"/>
  <circle class="cls-1" cx="23.26" cy="14.02" r="1"/>
  <circle class="cls-1" cx="143.22" cy="2.18" r="1"/>
  <circle class="cls-1" cx="33.68" cy="32.3" r="1"/>
  <circle class="cls-1" cx="127.87" cy="44.34" r="1"/>
  <circle class="cls-1" cx="183.02" cy="2.13" r="1"/>
  <circle class="cls-1" cx="176.87" cy="64.71" r="1"/>
  <circle class="cls-1" cx="25.25" cy="53.04" r="1"/>
  <circle class="cls-1" cx="7.16" cy="1.67" r="1"/>
  <circle class="cls-1" cx="53.98" cy="12.03" r="1"/>
  <circle class="cls-1" cx="100.08" cy="44.42" r="1"/>
  <circle class="cls-1" cx="179" cy="27.61" r="1"/>
  <circle class="cls-1" cx="24.1" cy="34.74" r="1"/>
  <circle class="cls-1" cx="137.19" cy="13.73" r="1"/>
  <circle class="cls-1" cx="33.85" cy="6.43" r="1"/>
  <circle class="cls-1" cx="176.88" cy="6.76" r="1"/>
  <circle class="cls-1" cx="104.24" cy="68.54" r="1"/>
  <circle class="cls-1" cx="214.78" cy="44.29" r="1"/>
  <circle class="cls-1" cx="122.84" cy="3.27" r="1"/>
  <circle class="cls-1" cx="136.77" cy="61.91" r="1"/>
  <circle class="cls-1" cx="104.06" cy="2.04" r="1"/>
  <circle class="cls-1" cx="156.29" cy="74.53" r="1"/>
  <circle class="cls-1" cx="75.07" cy="53.69" r="1"/>
  <circle class="cls-1" cx="142.95" cy="8.62" r="1"/>
  <circle class="cls-1" cx="82.18" cy="4.66" r="1"/>
  <circle class="cls-1" cx="247.51" cy="2.12" r="1"/>
  <circle class="cls-1" cx="169.05" cy="27.09" r="1"/>
  <circle class="cls-1" cx="171.09" cy="13.59" r="1"/>
  <circle class="cls-1" cx="231.74" cy="84.64" r="1"/>
  <circle class="cls-1" cx="52.14" cy="9.23" r="1"/>
  <circle class="cls-1" cx="206.12" cy="1.71" r="1"/>
  <circle class="cls-1" cx="116.64" cy="57.44" r="1"/>
  <circle class="cls-1" cx="122.79" cy="17.39" r="1"/>
  <circle class="cls-1" cx="96.3" cy="64.56" r="1"/>
  <circle class="cls-1" cx="28.85" cy="20.1" r="1"/>
  <circle class="cls-1" cx="64.31" cy="1.46" r="1"/>
  <circle class="cls-1" cx="27.14" cy="17.69" r="1"/>
  <circle class="cls-1" cx="186.29" cy="6.38" r="1"/>
  <circle class="cls-1" cx="159.9" cy="25.28" r="1"/>
  <circle class="cls-1" cx="211.48" cy="11.84" r="1"/>
  <circle class="cls-1" cx="208.49" cy="15" r="1"/>
  <circle class="cls-1" cx="100.47" cy="12.56" r="1"/>
  <circle class="cls-1" cx="111.94" cy="68.76" r="1"/>
  <circle class="cls-1" cx="199.7" cy="12.77" r="1"/>
  <circle class="cls-1" cx="95.19" cy="35.45" r="1"/>
  <circle class="cls-1" cx="142.3" cy="23.15" r="1"/>
  <circle class="cls-1" cx="78.05" cy="43.76" r="1"/>
  <circle class="cls-1" cx="172.87" cy="25.21" r="1"/>
  <circle class="cls-1" cx="84.74" cy="86.12" r="1"/>
  <circle class="cls-1" cx="61.66" cy="6.49" r="1"/>
  <circle class="cls-1" cx="11.97" cy="9.15" r="1"/>
  <circle class="cls-1" cx="67.13" cy="9.3" r="1"/>
  <circle class="cls-1" cx="251.45" cy="60.47" r="1"/>
  <circle class="cls-1" cx="174.7" cy="13.67" r="1"/>
  <circle class="cls-1" cx="120.97" cy="45.9" r="1"/>
  <circle class="cls-1" cx="245.63" cy="55.2" r="1"/>
  <circle class="cls-1" cx="137.75" cy="18.64" r="1"/>
  <circle class="cls-1" cx="12.91" cy="55.33" r="1"/>
  <circle class="cls-1" cx="202.86" cy="9.93" r="1"/>
  <circle class="cls-1" cx="202.6" cy="57.07" r="1"/>
  <circle class="cls-1" cx="222.94" cy="32.07" r="1"/>
  <circle class="cls-1" cx="227.25" cy="46.14" r="1"/>
  <circle class="cls-1" cx="117.98" cy="14.83" r="1"/>
  <circle class="cls-1" cx="34.39" cy="50.21" r="1"/>
  <circle class="cls-1" cx="241.96" cy="9.53" r="1"/>
  <circle class="cls-1" cx="156.37" cy="29.19" r="1"/>
  <circle class="cls-1" cx="7.13" cy="17.71" r="1"/>
  <circle class="cls-1" cx="226.31" cy="26.73" r="1"/>
  <circle class="cls-1" cx="237.92" cy="8.68" r="1"/>
  <circle class="cls-1" cx="114.53" cy="7.01" r="1"/>
  <circle class="cls-1" cx="117.78" cy="4.16" r="1"/>
  <circle class="cls-1" cx="248.3" cy="25.83" r="1"/>
  <circle class="cls-1" cx="88.04" cy="18.7" r="1"/>
  <circle class="cls-1" cx="225.17" cy="15.83" r="1"/>
  <circle class="cls-1" cx="83.29" cy="39.91" r="1"/>
  <circle class="cls-1" cx="79.34" cy="37.1" r="1"/>
  <circle class="cls-1" cx="194.6" cy="12.23" r="1"/>
  <circle class="cls-1" cx="71.64" cy="8.72" r="1"/>
  <circle class="cls-1" cx="146.89" cy="72.69" r="1"/>
  <circle class="cls-1" cx="182.91" cy="13.21" r="1"/>
  <circle class="cls-1" cx="216.33" cy="49.82" r="1"/>
  <circle class="cls-1" cx="251.86" cy="8.02" r="1"/>
  <circle class="cls-1" cx="68.45" cy="18.33" r="1"/>
  <circle class="cls-1" cx="101.12" cy="79.87" r="1"/>
  <circle class="cls-1" cx="211.79" cy="76.59" r="1"/>
  <circle class="cls-1" cx="79.73" cy="10.5" r="1"/>
  <circle class="cls-1" cx="242.61" cy="39.7" r="1"/>
  <circle class="cls-1" cx="129.9" cy="14.21" r="1"/>
  <circle class="cls-1" cx="30.69" cy="55.49" r="1"/>
  <circle class="cls-1" cx="101.93" cy="28.37" r="1"/>
  <circle class="cls-1" cx="108.67" cy="39.96" r="1"/>
  <circle class="cls-1" cx="165.62" cy="63.75" r="1"/>
  <circle class="cls-1" cx="6.62" cy="28.63" r="1"/>
  <circle class="cls-1" cx="195.24" cy="20.02" r="1"/>
  <circle class="cls-1" cx="16.24" cy="39.16" r="1"/>
  <circle class="cls-1" cx="175.4" cy="3.06" r="1"/>
  <circle class="cls-1" cx="167.11" cy="11.81" r="1"/>
  <circle class="cls-1" cx="119.44" cy="28.29" r="1"/>
  <circle class="cls-1" cx="77.43" cy="19.07" r="1"/>
  <circle class="cls-1" cx="38.79" cy="8.69" r="1"/>
  <circle class="cls-1" cx="65.83" cy="63.7" r="1"/>
  <circle class="cls-1" cx="247.15" cy="16.77" r="1"/>
  <circle class="cls-1" cx="224.05" cy="18.89" r="1"/>
  <circle class="cls-1" cx="222.23" cy="83.65" r="1"/>
  <circle class="cls-1" cx="158.07" cy="1" r="1"/>
  <circle class="cls-1" cx="11.74" cy="32.3" r="1"/>
  <circle class="cls-1" cx="204.43" cy="65.87" r="1"/>
  <circle class="cls-1" cx="58.39" cy="7.53" r="1"/>
  <circle class="cls-1" cx="114.01" cy="2.35" r="1"/>
  <circle class="cls-1" cx="239.3" cy="56.31" r="1"/>
  <circle class="cls-1" cx="141.77" cy="65.71" r="1"/>
  <circle class="cls-1" cx="133.48" cy="26.25" r="1"/>
  <circle class="cls-1" cx="42.34" cy="89.74" r="1"/>
  <circle class="cls-1" cx="252.51" cy="1.76" r="1"/>
  <circle class="cls-1" cx="64.03" cy="10.64" r="1"/>
  <circle class="cls-1" cx="151.84" cy="11.59" r="1"/>
  <circle class="cls-1" cx="34.17" cy="79.12" r="1"/>
  <circle class="cls-1" cx="66.15" cy="72.88" r="1"/>
  <circle class="cls-1" cx="180.58" cy="2.05" r="1"/>
  <circle class="cls-1" cx="157.97" cy="55.54" r="1"/>
  <circle class="cls-1" cx="133.54" cy="89.13" r="1"/>
  <circle class="cls-1" cx="42.05" cy="19.09" r="1"/>
  <circle class="cls-1" cx="142.42" cy="66.4" r="1"/>
  <circle class="cls-1" cx="44.71" cy="49.54" r="1"/>
  <circle class="cls-1" cx="231.7" cy="63.13" r="1"/>
  <circle class="cls-1" cx="119.31" cy="33.95" r="1"/>
  <circle class="cls-1" cx="227.15" cy="8.82" r="1"/>
  <circle class="cls-1" cx="86.92" cy="7.03" r="1"/>
  <circle class="cls-1" cx="2.87" cy="2.78" r="1"/>
  <circle class="cls-1" cx="251.87" cy="26.97" r="1"/>
  <circle class="cls-1" cx="176.45" cy="25.92" r="1"/>
  <circle class="cls-1" cx="91.76" cy="13.26" r="1"/>
  <circle class="cls-1" cx="156.89" cy="13.33" r="1"/>
  <circle class="cls-1" cx="245.54" cy="12" r="1"/>
  <circle class="cls-1" cx="13.85" cy="45.83" r="1"/>
  <circle class="cls-1" cx="12.99" cy="67.58" r="1"/>
  <circle class="cls-1" cx="15.28" cy="2.03" r="1"/>
  <circle class="cls-1" cx="240.13" cy="15.96" r="1"/>
  <circle class="cls-1" cx="246.53" cy="20.25" r="1"/>
  <circle class="cls-1" cx="115.51" cy="80.21" r="1"/>
  <circle class="cls-1" cx="19.47" cy="46.3" r="1"/>
  <circle class="cls-1" cx="213.32" cy="68.86" r="1"/>
  <circle class="cls-1" cx="193.94" cy="43.45" r="1"/>
  <circle class="cls-1" cx="40.06" cy="11.57" r="1"/>
  <circle class="cls-1" cx="72.27" cy="72" r="1"/>
  <circle class="cls-1" cx="252.59" cy="73.44" r="1"/>
  <circle class="cls-1" cx="200.79" cy="7.11" r="1"/>
  <circle class="cls-1" cx="219.42" cy="42.3" r="1"/>
  <circle class="cls-1" cx="147.68" cy="10" r="1"/>
  <circle class="cls-1" cx="17.41" cy="6.2" r="1"/>
  <circle class="cls-1" cx="41.13" cy="4.42" r="1"/>
  <circle class="cls-1" cx="152.47" cy="4.36" r="1"/>
  <circle class="cls-1" cx="69.8" cy="26.37" r="1"/>
  <circle class="cls-1" cx="56.69" cy="25.38" r="1"/>
  <circle class="cls-1" cx="54.44" cy="1.64" r="1"/>
  <circle class="cls-1" cx="70.15" cy="37.63" r="1"/>
  <circle class="cls-1" cx="105.26" cy="47.09" r="1"/>
  <circle class="cls-1" cx="153.09" cy="8.02" r="1"/>
  <circle class="cls-1" cx="21.34" cy="27.77" r="1"/>
  <circle class="cls-1" cx="152.47" cy="33.18" r="1"/>
  <circle class="cls-1" cx="202.67" cy="1.85" r="1"/>
  <circle class="cls-1" cx="141.93" cy="5.62" r="1"/>
  <circle class="cls-1" cx="219.83" cy="66.13" r="1"/>
  <circle class="cls-1" cx="24.58" cy="38.98" r="1"/>
  <circle class="cls-1" cx="103.49" cy="63.34" r="1"/>
  <circle class="cls-1" cx="38.75" cy="56.23" r="1"/>
  <circle class="cls-1" cx="118.23" cy="37.74" r="1"/>
  <circle class="cls-1" cx="199.94" cy="27.36" r="1"/>
  <circle class="cls-1" cx="156.07" cy="19.66" r="1"/>
  <circle class="cls-1" cx="68.42" cy="43.52" r="1"/>
  <circle class="cls-1" cx="146.81" cy="52.28" r="1"/>
  <circle class="cls-1" cx="102.82" cy="39.69" r="1"/>
  <circle class="cls-1" cx="38.88" cy="25" r="1"/>
  <circle class="cls-1" cx="217.24" cy="30.42" r="1"/>
  <circle class="cls-1" cx="234.58" cy="51.67" r="1"/>
  <circle class="cls-1" cx="196.18" cy="1.78" r="1"/>
  <circle class="cls-1" cx="144.87" cy="59.68" r="1"/>
  <circle class="cls-1" cx="230.53" cy="23.09" r="1"/>
  <circle class="cls-1" cx="31.9" cy="9.81" r="1"/>
  <circle class="cls-1" cx="150.07" cy="4.95" r="1"/>
  <circle class="cls-1" cx="24.34" cy="47.5" r="1"/>
  <circle class="cls-1" cx="100.7" cy="57.36" r="1"/>
  <circle class="cls-1" cx="145.9" cy="28.9" r="1"/>
  <circle class="cls-1" cx="63.79" cy="16.15" r="1"/>
  <circle class="cls-1" cx="54.26" cy="56.62" r="1"/>
  <circle class="cls-1" cx="8.57" cy="57.75" r="1"/>
  <circle class="cls-1" cx="248.3" cy="49.95" r="1"/>
  <circle class="cls-1" cx="158.75" cy="62.55" r="1"/>
  <circle class="cls-1" cx="172.78" cy="39.9" r="1"/>
  <circle class="cls-1" cx="144.22" cy="24.03" r="1"/>
  <circle class="cls-1" cx="222.11" cy="9.46" r="1"/>
  <circle class="cls-1" cx="232.26" cy="3.69" r="1"/>
  <circle class="cls-1" cx="9.92" cy="5.29" r="1"/>
  <circle class="cls-1" cx="239.49" cy="78.8" r="1"/>
  <circle class="cls-1" cx="152.01" cy="88.75" r="1"/>
  <circle class="cls-1" cx="129.39" cy="68.76" r="1"/>
  <circle class="cls-1" cx="218.95" cy="25.18" r="1"/>
  <circle class="cls-1" cx="236.8" cy="27.61" r="1"/>
  <circle class="cls-1" cx="2.72" cy="45.17" r="1"/>
  <circle class="cls-1" cx="134.57" cy="3.79" r="1"/>
  <circle class="cls-1" cx="51.54" cy="65.93" r="1"/>
  <circle class="cls-1" cx="89.57" cy="52.88" r="1"/>
  <circle class="cls-1" cx="232" cy="9.75" r="1"/>
  <circle class="cls-1" cx="47.06" cy="66.55" r="1"/>
  <circle class="cls-1" cx="55.26" cy="18.58" r="1"/>
  <circle class="cls-1" cx="45.34" cy="36.09" r="1"/>
  <circle class="cls-1" cx="65.23" cy="24.11" r="1"/>
  <circle class="cls-1" cx="232.54" cy="42.34" r="1"/>
  <circle class="cls-1" cx="152.35" cy="58.46" r="1"/>
  <circle class="cls-1" cx="182.7" cy="30.49" r="1"/>
  <circle class="cls-1" cx="234.67" cy="34.11" r="1"/>
  <circle class="cls-1" cx="214.59" cy="33.42" r="1"/>
  <circle class="cls-1" cx="61.18" cy="59.33" r="1"/>
  <circle class="cls-1" cx="74.29" cy="6.31" r="1"/>
  <circle class="cls-1" cx="85.6" cy="2.51" r="1"/>
  <circle class="cls-1" cx="247.12" cy="7.34" r="1"/>
  <circle class="cls-1" cx="185.18" cy="86.15" r="1"/>
  <circle class="cls-1" cx="3.78" cy="20.64" r="1"/>
  <circle class="cls-1" cx="161.5" cy="10.13" r="1"/>
  <circle class="cls-1" cx="98.63" cy="37.09" r="1"/>
  <circle class="cls-1" cx="110.86" cy="2.58" r="1"/>
  <circle class="cls-1" cx="150.1" cy="2.01" r="1"/>
  <circle class="cls-1" cx="227.12" cy="4.81" r="1"/>
  <circle class="cls-1" cx="231.37" cy="16.51" r="1"/>
  <circle class="cls-1" cx="107.42" cy="6.09" r="1"/>
  <circle class="cls-1" cx="161.47" cy="37.15" r="1"/>
  <circle class="cls-1" cx="198.79" cy="33.37" r="1"/>
  <circle class="cls-1" cx="67.31" cy="1.77" r="1"/>
  <circle class="cls-1" cx="196.13" cy="16.49" r="1"/>
  <circle class="cls-1" cx="78.11" cy="15.07" r="1"/>
  <circle class="cls-1" cx="82.25" cy="14.07" r="1"/>
  <circle class="cls-1" cx="51.65" cy="48.17" r="1"/>
  <circle class="cls-1" cx="73.59" cy="63.38" r="1"/>
  <circle class="cls-1" cx="76.32" cy="32.37" r="1"/>
  <circle class="cls-1" cx="164.59" cy="28.12" r="1"/>
  <circle class="cls-1" cx="251.42" cy="33.81" r="1"/>
  <circle class="cls-1" cx="69.73" cy="11.61" r="1"/>
  <circle class="cls-1" cx="120.57" cy="1.71" r="1"/>
  <circle class="cls-1" cx="122.55" cy="53.79" r="1"/>
  <circle class="cls-1" cx="71.88" cy="32.21" r="1"/>
  <circle class="cls-1" cx="81" cy="27.18" r="1"/>
  <circle class="cls-1" cx="152.32" cy="23.17" r="1"/>
  <circle class="cls-1" cx="225.42" cy="20.71" r="1"/>
  <circle class="cls-1" cx="224.09" cy="65.77" r="1"/>
  <circle class="cls-1" cx="27.68" cy="8.85" r="1"/>
  <circle class="cls-1" cx="120.8" cy="62.35" r="1"/>
  <circle class="cls-1" cx="169.96" cy="37.3" r="1"/>
  <circle class="cls-1" cx="42.79" cy="12.04" r="1"/>
  <circle class="cls-1" cx="237.64" cy="5.65" r="1"/>
  <circle class="cls-1" cx="39.79" cy="35.11" r="1"/>
  <circle class="cls-1" cx="83.01" cy="8.62" r="1"/>
  <circle class="cls-1" cx="99.74" cy="16.48" r="1"/>
  <circle class="cls-1" cx="56.12" cy="76.22" r="1"/>
  <circle class="cls-1" cx="194.5" cy="36.04" r="1"/>
  <circle class="cls-1" cx="219.61" cy="13.07" r="1"/>
  <circle class="cls-1" cx="166.06" cy="45.88" r="1"/>
  <circle class="cls-1" cx="239.49" cy="47.21" r="1"/>
  <circle class="cls-1" cx="225.46" cy="13.54" r="1"/>
  <circle class="cls-1" cx="106.03" cy="10.96" r="1"/>
  <circle class="cls-1" cx="89.25" cy="38.22" r="1"/>
  <circle class="cls-1" cx="28.11" cy="3.35" r="1"/>
  <circle class="cls-1" cx="3.66" cy="26.34" r="1"/>
  <circle class="cls-1" cx="75.57" cy="10.41" r="1"/>
  <circle class="cls-1" cx="125.8" cy="27.97" r="1"/>
  <circle class="cls-1" cx="5.76" cy="38.36" r="1"/>
  <circle class="cls-1" cx="178.31" cy="40.09" r="1"/>
  <circle class="cls-1" cx="157.74" cy="8.67" r="1"/>
  <circle class="cls-1" cx="230.46" cy="5.64" r="1"/>
  <circle class="cls-1" cx="222.1" cy="1.41" r="1"/>
  <circle class="cls-1" cx="97.08" cy="32.14" r="1"/>
  <circle class="cls-1" cx="128.1" cy="8.06" r="1"/>
  <circle class="cls-1" cx="59.55" cy="11.41" r="1"/>
  <circle class="cls-1" cx="108.34" cy="14.46" r="1"/>
  <circle class="cls-1" cx="210.26" cy="1.62" r="1"/>
  <circle class="cls-1" cx="3.27" cy="14.64" r="1"/>
  <circle class="cls-1" cx="61.25" cy="25.44" r="1"/>
  <circle class="cls-1" cx="6.63" cy="64.9" r="1"/>
  <circle class="cls-1" cx="3.57" cy="70.54" r="1"/>
  <circle class="cls-1" cx="1" cy="57.71" r="1"/>
  <circle class="cls-1" cx="162.73" cy="16.85" r="1"/>
  <circle class="cls-1" cx="151.05" cy="26.84" r="1"/>
  <circle class="cls-1" cx="141.79" cy="12.7" r="1"/>
  <circle class="cls-1" cx="68.94" cy="14.74" r="1"/>
  <circle class="cls-1" cx="188.56" cy="50.14" r="1"/>
  <circle class="cls-1" cx="4.6" cy="23.43" r="1"/>
  <circle class="cls-1" cx="234.64" cy="24.59" r="1"/>
  <circle class="cls-1" cx="103.23" cy="5.72" r="1"/>
  <circle class="cls-1" cx="43.79" cy="1.61" r="1"/>
  <circle class="cls-1" cx="12.11" cy="36.82" r="1"/>
  <circle class="cls-1" cx="115.37" cy="43.84" r="1"/>
  <circle class="cls-1" cx="236.89" cy="39.57" r="1"/>
  <circle class="cls-1" cx="127.85" cy="36.97" r="1"/>
  <circle class="cls-1" cx="29.53" cy="38.3" r="1"/>
  <circle class="cls-1" cx="6.17" cy="79.84" r="1"/>
  <circle class="cls-1" cx="10.87" cy="76.45" r="1"/>
  <circle class="cls-1" cx="3.04" cy="86.1" r="1"/>
  <circle class="cls-1" cx="204.51" cy="34.47" r="1"/>
  <circle class="cls-1" cx="194.08" cy="55.77" r="1"/>
  <circle class="cls-1" cx="142.35" cy="46.76" r="1"/>
  <circle class="cls-1" cx="230.4" cy="28.61" r="1"/>
  <circle class="cls-1" cx="229.08" cy="55.43" r="1"/>
  <circle class="cls-1" cx="159.95" cy="33.14" r="1"/>
  <circle class="cls-1" cx="150.11" cy="14.85" r="1"/>
  <circle class="cls-1" cx="11.46" cy="16.15" r="1"/>
  <circle class="cls-1" cx="206.25" cy="42.43" r="1"/>
  <circle class="cls-1" cx="46.29" cy="16.25" r="1"/>
  <circle class="cls-1" cx="54.82" cy="39.92" r="1"/>
  <circle class="cls-1" cx="54.97" cy="87.51" r="1"/>
  <circle class="cls-1" cx="139.17" cy="23.03" r="1"/>
  <circle class="cls-1" cx="79.47" cy="20.25" r="1"/>
  <circle class="cls-1" cx="38.14" cy="29.65" r="1"/>
  <circle class="cls-1" cx="13.9" cy="27.59" r="1"/>
  <circle class="cls-1" cx="78.54" cy="5.17" r="1"/>
  <circle class="cls-1" cx="59.67" cy="15.49" r="1"/>
  <circle class="cls-1" cx="154.75" cy="42.6" r="1"/>
  <circle class="cls-1" cx="97.29" cy="27.32" r="1"/>
  <circle class="cls-1" cx="18.57" cy="9.06" r="1"/>
  <circle class="cls-1" cx="135.87" cy="23.05" r="1"/>
  <circle class="cls-1" cx="8.7" cy="10.32" r="1"/>
  <circle class="cls-1" cx="5.9" cy="32.85" r="1"/>
  <circle class="cls-1" cx="50.24" cy="13.77" r="1"/>
  <circle class="cls-1" cx="90.84" cy="33.37" r="1"/>
  <circle class="cls-1" cx="155.87" cy="36.44" r="1"/>
  <circle class="cls-1" cx="226.03" cy="37.59" r="1"/>
  <circle class="cls-1" cx="206.29" cy="30.66" r="1"/>
  <circle class="cls-1" cx="210.47" cy="4.36" r="1"/>
  <circle class="cls-1" cx="182.48" cy="9.51" r="1"/>
  <circle class="cls-1" cx="23.13" cy="87.28" r="1"/>
  <circle class="cls-1" cx="15.09" cy="83.28" r="1"/>
  <circle class="cls-1" cx="94.85" cy="17.36" r="1"/>
  <circle class="cls-1" cx="15.58" cy="12.77" r="1"/>
  <circle class="cls-1" cx="226.46" cy="1.48" r="1"/>
  <circle class="cls-1" cx="161.7" cy="14.03" r="1"/>
  <circle class="cls-1" cx="46.14" cy="7.31" r="1"/>
  <circle class="cls-1" cx="104" cy="17.59" r="1"/>
  <circle class="cls-1" cx="225.35" cy="52.56" r="1"/>
  <circle class="cls-1" cx="185.46" cy="25.94" r="1"/>
  <circle class="cls-1" cx="64.11" cy="4.89" r="1"/>
  <circle class="cls-1" cx="245.46" cy="32.2" r="1"/>
  <circle class="cls-1" cx="221.72" cy="58.95" r="1"/>
  <circle class="cls-1" cx="239.16" cy="33.43" r="1"/>
  <circle class="cls-1" cx="119.91" cy="68.12" r="1"/>
  <circle class="cls-1" cx="91.44" cy="44.61" r="1"/>
  <circle class="cls-1" cx="217.75" cy="5.88" r="1"/>
  <circle class="cls-1" cx="26.93" cy="11.92" r="1"/>
  <circle class="cls-1" cx="185.08" cy="44.99" r="1"/>
  <circle class="cls-1" cx="191.65" cy="1.63" r="1"/>
  <circle class="cls-1" cx="93.88" cy="7.57" r="1"/>
  <circle class="cls-1" cx="76.32" cy="1.28" r="1"/>
  <circle class="cls-1" cx="189.61" cy="15.85" r="1"/>
  <circle class="cls-1" cx="187.91" cy="1.57" r="1"/>
  <circle class="cls-1" cx="18.27" cy="34.93" r="1"/>
  <circle class="cls-1" cx="59.38" cy="2.01" r="1"/>
  <circle class="cls-1" cx="35.99" cy="19.34" r="1"/>
  <circle class="cls-1" cx="153.54" cy="12.36" r="1"/>
  <circle class="cls-1" cx="168.9" cy="1.36" r="1"/>
  <circle class="cls-1" cx="95.46" cy="50.2" r="1"/>
  <circle class="cls-1" cx="95.53" cy="39.7" r="1"/>
  <circle class="cls-1" cx="193.79" cy="48.68" r="1"/>
  <circle class="cls-1" cx="162.97" cy="2.64" r="1"/>
  <circle class="cls-1" cx="238.54" cy="3.8" r="1"/>
  <circle class="cls-1" cx="132" cy="35.06" r="1"/>
  <circle class="cls-1" cx="5.65" cy="5.4" r="1"/>
  <circle class="cls-1" cx="183.85" cy="49.36" r="1"/>
  <circle class="cls-1" cx="129.46" cy="58.98" r="1"/>
  <circle class="cls-1" cx="73.01" cy="15.76" r="1"/>
  <circle class="cls-1" cx="15.83" cy="23.23" r="1"/>
  <circle class="cls-1" cx="240.35" cy="13.12" r="1"/>
  <circle class="cls-1" cx="85.31" cy="25.81" r="1"/>
  <circle class="cls-1" cx="17.94" cy="2.99" r="1"/>
  <circle class="cls-1" cx="168.66" cy="53.02" r="1"/>
  <circle class="cls-1" cx="49.82" cy="28.08" r="1"/>
  <circle class="cls-1" cx="181.87" cy="15.84" r="1"/>
  <circle class="cls-1" cx="240.67" cy="1.98" r="1"/>
  <circle class="cls-1" cx="89.32" cy="19.91" r="1"/>
  <circle class="cls-1" cx="85.35" cy="33.75" r="1"/>
  <circle class="cls-1" cx="73.83" cy="39.36" r="1"/>
  <circle class="cls-1" cx="95.32" cy="12.27" r="1"/>
  <circle class="cls-1" cx="151.55" cy="17.12" r="1"/>
  <circle class="cls-1" cx="179.54" cy="53.04" r="1"/>
  <circle class="cls-1" cx="81.55" cy="2.16" r="1"/>
  <circle class="cls-1" cx="18.98" cy="76.41" r="1"/>
  <circle class="cls-1" cx="18.75" cy="28.82" r="1"/>
  <circle class="cls-1" cx="243.37" cy="3.04" r="1"/>
  <circle class="cls-1" cx="22.76" cy="9.18" r="1"/>
  <circle class="cls-1" cx="166.17" cy="38.64" r="1"/>
  <circle class="cls-1" cx="170.9" cy="14.4" r="1"/>
  <circle class="cls-1" cx="80.69" cy="32.31" r="1"/>
  <circle class="cls-1" cx="62.34" cy="36.47" r="1"/>
  <circle class="cls-1" cx="228.61" cy="33.2" r="1"/>
  <circle class="cls-1" cx="22.14" cy="5.86" r="1"/>
  <circle class="cls-1" cx="126.72" cy="11.38" r="1"/>
  <circle class="cls-1" cx="211.61" cy="24.78" r="1"/>
  <circle class="cls-1" cx="252.47" cy="11.13" r="1"/>
  <circle class="cls-1" cx="131.51" cy="44.78" r="1"/>
  <circle class="cls-1" cx="206.21" cy="49.61" r="1"/>
  <circle class="cls-1" cx="67.26" cy="6.76" r="1"/>
  <circle class="cls-1" cx="166.19" cy="2.89" r="1"/>
  <circle class="cls-1" cx="226.61" cy="72.54" r="1"/>
  <circle class="cls-1" cx="219.14" cy="36.24" r="1"/>
  <circle class="cls-1" cx="159.82" cy="49.56" r="1"/>
  <circle class="cls-1" cx="133.18" cy="9.41" r="1"/>
  <circle class="cls-1" cx="177.27" cy="20.83" r="1"/>
  <circle class="cls-1" cx="136.62" cy="46.93" r="1"/>
  <circle class="cls-1" cx="182.19" cy="6.14" r="1"/>
  <circle class="cls-1" cx="23.35" cy="4.3" r="1"/>
  <circle class="cls-1" cx="168.51" cy="77.16" r="1"/>
  <circle class="cls-1" cx="190.47" cy="72.28" r="1"/>
  <circle class="cls-1" cx="164.57" cy="71.09" r="1"/>
  <circle class="cls-1" cx="181.51" cy="68.72" r="1"/>
  <circle class="cls-1" cx="86.9" cy="71.51" r="1"/>
  <circle class="cls-1" cx="152.9" cy="51.36" r="1"/>
  <circle class="cls-1" cx="66.97" cy="34.43" r="1"/>
  <circle class="cls-1" cx="185.81" cy="19.21" r="1"/>
  <circle class="cls-1" cx="137.13" cy="6.97" r="1"/>
  <circle class="cls-1" cx="207.85" cy="18.58" r="1"/>
  <circle class="cls-1" cx="222.74" cy="5.62" r="1"/>
  <circle class="cls-1" cx="10.42" cy="12.87" r="1"/>
  <circle class="cls-1" cx="173.34" cy="58.31" r="1"/>
  <circle class="cls-1" cx="135.53" cy="11.07" r="1"/>
  <circle class="cls-1" cx="147.02" cy="5.25" r="1"/>
  <circle class="cls-1" cx="60.51" cy="19.27" r="1"/>
  <circle class="cls-1" cx="183.38" cy="57.28" r="1"/>
  <circle class="cls-1" cx="200.93" cy="16.2" r="1"/>
  <circle class="cls-1" cx="207.21" cy="10.94" r="1"/>
  <circle class="cls-1" cx="223.18" cy="24.58" r="1"/>
  <circle class="cls-1" cx="61.46" cy="30.26" r="1"/>
  <circle class="cls-1" cx="230.53" cy="13.75" r="1"/>
  <circle class="cls-1" cx="67.02" cy="52.82" r="1"/>
  <circle class="cls-1" cx="51.65" cy="33.23" r="1"/>
  <circle class="cls-1" cx="60.21" cy="51.95" r="1"/>
  <circle class="cls-1" cx="55.21" cy="66.08" r="1"/>
  <circle class="cls-1" cx="2.96" cy="8.46" r="1"/>
  <circle class="cls-1" cx="8.85" cy="24.75" r="1"/>
  <circle class="cls-1" cx="32.29" cy="65.41" r="1"/>
  <circle class="cls-1" cx="69.57" cy="85.2" r="1"/>
  <circle class="cls-1" cx="7.65" cy="45.65" r="1"/>
  <circle class="cls-1" cx="94.86" cy="71.05" r="1"/>
</svg>