<?xml version="1.0" encoding="UTF-8"?>
<svg id="Layer_1" data-name="Layer 1" xmlns="http://www.w3.org/2000/svg" viewBox="0 0 253.71 88.6">
  <defs>
    <style>
      .cls-1 {
        fill: #399dc9;
        stroke-width: 0px;
      }
    </style>
  </defs>
  <circle class="cls-1" cx="70.89" cy="19.65" r="1"/>
  <circle class="cls-1" cx="233.79" cy="87.32" r="1"/>
  <circle class="cls-1" cx="47.73" cy="49.13" r="1"/>
  <circle class="cls-1" cx="246.66" cy="11.63" r="1"/>
  <circle class="cls-1" cx="117.8" cy="61.8" r="1"/>
  <circle class="cls-1" cx="242.72" cy="71.16" r="1"/>
  <circle class="cls-1" cx="210.2" cy="80.72" r="1"/>
  <circle class="cls-1" cx="45.78" cy="76.11" r="1"/>
  <circle class="cls-1" cx="231.95" cy="4.99" r="1"/>
  <circle class="cls-1" cx="57.65" cy="60.55" r="1"/>
  <circle class="cls-1" cx="69.2" cy="49.42" r="1"/>
  <circle class="cls-1" cx="110.97" cy="52.69" r="1"/>
  <circle class="cls-1" cx="109.62" cy="40.43" r="1"/>
  <circle class="cls-1" cx="134.88" cy="78.41" r="1"/>
  <circle class="cls-1" cx="211.89" cy="6.97" r="1"/>
  <circle class="cls-1" cx="35.33" cy="78.35" r="1"/>
  <circle class="cls-1" cx="70.58" cy="41.41" r="1"/>
  <circle class="cls-1" cx="196.88" cy="39.77" r="1"/>
  <circle class="cls-1" cx="214.22" cy="69.21" r="1"/>
  <circle class="cls-1" cx="110.55" cy="78.11" r="1"/>
  <circle class="cls-1" cx="193.31" cy="44.37" r="1"/>
  <circle class="cls-1" cx="71.91" cy="83.28" r="1"/>
  <circle class="cls-1" cx="8.79" cy="76.75" r="1"/>
  <circle class="cls-1" cx="9.31" cy="71.4" r="1"/>
  <circle class="cls-1" cx="6.08" cy="78.43" r="1"/>
  <circle class="cls-1" cx="5.39" cy="75.3" r="1"/>
  <circle class="cls-1" cx="1.34" cy="76.38" r="1"/>
  <circle class="cls-1" cx="12.76" cy="25.04" r="1"/>
  <circle class="cls-1" cx="1.82" cy="18.12" r="1"/>
  <circle class="cls-1" cx="12.21" cy="69.83" r="1"/>
  <circle class="cls-1" cx="169.04" cy="77" r="1"/>
  <circle class="cls-1" cx="42.06" cy="61.07" r="1"/>
  <circle class="cls-1" cx="157.11" cy="17.6" r="1"/>
  <circle class="cls-1" cx="116.75" cy="5.9" r="1"/>
  <circle class="cls-1" cx="30.59" cy="74.28" r="1"/>
  <circle class="cls-1" cx="188.73" cy="11.3" r="1"/>
  <circle class="cls-1" cx="28.79" cy="80.91" r="1"/>
  <circle class="cls-1" cx="235.21" cy="56.91" r="1"/>
  <circle class="cls-1" cx="237.73" cy="83.68" r="1"/>
  <circle class="cls-1" cx="102.94" cy="69.79" r="1"/>
  <circle class="cls-1" cx="119.72" cy="40.45" r="1"/>
  <circle class="cls-1" cx="105.75" cy="82.05" r="1"/>
  <circle class="cls-1" cx="227.8" cy="29.84" r="1"/>
  <circle class="cls-1" cx="224.02" cy="48.31" r="1"/>
  <circle class="cls-1" cx="48.47" cy="72.88" r="1"/>
  <circle class="cls-1" cx="33.12" cy="48.9" r="1"/>
  <circle class="cls-1" cx="195.36" cy="16.89" r="1"/>
  <circle class="cls-1" cx="199.39" cy="74.64" r="1"/>
  <circle class="cls-1" cx="32.37" cy="81.41" r="1"/>
  <circle class="cls-1" cx="142.02" cy="53.95" r="1"/>
  <circle class="cls-1" cx="19.37" cy="78.96" r="1"/>
  <circle class="cls-1" cx="25.99" cy="59.34" r="1"/>
  <circle class="cls-1" cx="80.78" cy="54.97" r="1"/>
  <circle class="cls-1" cx="96.66" cy="37.39" r="1"/>
  <circle class="cls-1" cx="136.48" cy="63.33" r="1"/>
  <circle class="cls-1" cx="95.92" cy="79.78" r="1"/>
  <circle class="cls-1" cx="127.17" cy="18.78" r="1"/>
  <circle class="cls-1" cx="124.88" cy="60.17" r="1"/>
  <circle class="cls-1" cx="80.26" cy="80.29" r="1"/>
  <circle class="cls-1" cx="147.94" cy="84.7" r="1"/>
  <circle class="cls-1" cx="106.03" cy="75.82" r="1"/>
  <circle class="cls-1" cx="135.54" cy="83.06" r="1"/>
  <circle class="cls-1" cx="223.46" cy="87.11" r="1"/>
  <circle class="cls-1" cx="92.68" cy="78.4" r="1"/>
  <circle class="cls-1" cx="59.26" cy="58.62" r="1"/>
  <circle class="cls-1" cx="68.53" cy="82.7" r="1"/>
  <circle class="cls-1" cx="186.34" cy="62.52" r="1"/>
  <circle class="cls-1" cx="201.89" cy="83.08" r="1"/>
  <circle class="cls-1" cx="137.67" cy="71.92" r="1"/>
  <circle class="cls-1" cx="177.24" cy="63.33" r="1"/>
  <circle class="cls-1" cx="1" cy="34.7" r="1"/>
  <circle class="cls-1" cx="89.02" cy="53.8" r="1"/>
  <circle class="cls-1" cx="183.69" cy="76.86" r="1"/>
  <circle class="cls-1" cx="80.26" cy="74.63" r="1"/>
  <circle class="cls-1" cx="244.46" cy="35.96" r="1"/>
  <circle class="cls-1" cx="213.15" cy="83.9" r="1"/>
  <circle class="cls-1" cx="25.65" cy="83.71" r="1"/>
  <circle class="cls-1" cx="178.48" cy="58.41" r="1"/>
  <circle class="cls-1" cx="40.23" cy="22.7" r="1"/>
  <circle class="cls-1" cx="97.79" cy="75.41" r="1"/>
  <circle class="cls-1" cx="210.9" cy="47.81" r="1"/>
  <circle class="cls-1" cx="85.16" cy="58.73" r="1"/>
  <circle class="cls-1" cx="78.22" cy="49.05" r="1"/>
  <circle class="cls-1" cx="63.98" cy="86.59" r="1"/>
  <circle class="cls-1" cx="86.12" cy="82.51" r="1"/>
  <circle class="cls-1" cx="128.79" cy="65.1" r="1"/>
  <circle class="cls-1" cx="235.85" cy="39.07" r="1"/>
  <circle class="cls-1" cx="179.45" cy="52.85" r="1"/>
  <circle class="cls-1" cx="47.91" cy="43.34" r="1"/>
  <circle class="cls-1" cx="49.89" cy="68.16" r="1"/>
  <circle class="cls-1" cx="56.3" cy="44.25" r="1"/>
  <circle class="cls-1" cx="64.6" cy="51.1" r="1"/>
  <circle class="cls-1" cx="165.32" cy="79.62" r="1"/>
  <circle class="cls-1" cx="26.89" cy="87.07" r="1"/>
  <circle class="cls-1" cx="15.69" cy="73.38" r="1"/>
  <circle class="cls-1" cx="48.26" cy="19.71" r="1"/>
  <circle class="cls-1" cx="14.42" cy="86.2" r="1"/>
  <circle class="cls-1" cx="90.15" cy="40.06" r="1"/>
  <circle class="cls-1" cx="94.74" cy="83.26" r="1"/>
  <circle class="cls-1" cx="54.98" cy="48.32" r="1"/>
  <circle class="cls-1" cx="238.66" cy="61.68" r="1"/>
  <circle class="cls-1" cx="24.78" cy="68.48" r="1"/>
  <circle class="cls-1" cx="91.99" cy="85.27" r="1"/>
  <circle class="cls-1" cx="119.15" cy="65.27" r="1"/>
  <circle class="cls-1" cx="41.34" cy="57.47" r="1"/>
  <circle class="cls-1" cx="104.63" cy="19.44" r="1"/>
  <circle class="cls-1" cx="44.79" cy="38.82" r="1"/>
  <circle class="cls-1" cx="70.23" cy="58.72" r="1"/>
  <circle class="cls-1" cx="50.94" cy="80.19" r="1"/>
  <circle class="cls-1" cx="100.19" cy="76.93" r="1"/>
  <circle class="cls-1" cx="176.05" cy="69.37" r="1"/>
  <circle class="cls-1" cx="220.36" cy="83.43" r="1"/>
  <circle class="cls-1" cx="98.71" cy="55.94" r="1"/>
  <circle class="cls-1" cx="234.11" cy="83.64" r="1"/>
  <circle class="cls-1" cx="92.65" cy="4.78" r="1"/>
  <circle class="cls-1" cx="137.23" cy="43.08" r="1"/>
  <circle class="cls-1" cx="178.69" cy="86.05" r="1"/>
  <circle class="cls-1" cx="87.83" cy="79.23" r="1"/>
  <circle class="cls-1" cx="39.4" cy="4.9" r="1"/>
  <circle class="cls-1" cx="130.42" cy="84.33" r="1"/>
  <circle class="cls-1" cx="239.27" cy="52.37" r="1"/>
  <circle class="cls-1" cx="12.72" cy="47.09" r="1"/>
  <circle class="cls-1" cx="93.23" cy="68.32" r="1"/>
  <circle class="cls-1" cx="238.58" cy="73.37" r="1"/>
  <circle class="cls-1" cx="158.66" cy="83.06" r="1"/>
  <circle class="cls-1" cx="42.81" cy="66.5" r="1"/>
  <circle class="cls-1" cx="93.2" cy="14.68" r="1"/>
  <circle class="cls-1" cx="35.12" cy="57.88" r="1"/>
  <circle class="cls-1" cx="198.82" cy="75.5" r="1"/>
  <circle class="cls-1" cx="120.81" cy="86.98" r="1"/>
  <circle class="cls-1" cx="62.56" cy="76.24" r="1"/>
  <circle class="cls-1" cx="176.78" cy="72.93" r="1"/>
  <circle class="cls-1" cx="133.9" cy="86.19" r="1"/>
  <circle class="cls-1" cx="106.89" cy="78.11" r="1"/>
  <circle class="cls-1" cx="240.78" cy="82.34" r="1"/>
  <circle class="cls-1" cx="96.7" cy="70.31" r="1"/>
  <circle class="cls-1" cx="114.68" cy="76.44" r="1"/>
  <circle class="cls-1" cx="155.25" cy="86.75" r="1"/>
  <circle class="cls-1" cx="129.78" cy="26.52" r="1"/>
  <circle class="cls-1" cx="23.09" cy="76.31" r="1"/>
  <circle class="cls-1" cx="89.56" cy="75.64" r="1"/>
  <circle class="cls-1" cx="155.75" cy="66.17" r="1"/>
  <circle class="cls-1" cx="6.21" cy="68.73" r="1"/>
  <circle class="cls-1" cx="132.58" cy="56.98" r="1"/>
  <circle class="cls-1" cx="70.19" cy="59.95" r="1"/>
  <circle class="cls-1" cx="123.62" cy="28.98" r="1"/>
  <circle class="cls-1" cx="27.94" cy="58.54" r="1"/>
  <circle class="cls-1" cx="192.49" cy="31.03" r="1"/>
  <circle class="cls-1" cx="136.62" cy="32.34" r="1"/>
  <circle class="cls-1" cx="77.97" cy="59.2" r="1"/>
  <circle class="cls-1" cx="156.78" cy="27.77" r="1"/>
  <circle class="cls-1" cx="172.81" cy="33.41" r="1"/>
  <circle class="cls-1" cx="247.69" cy="73.81" r="1"/>
  <circle class="cls-1" cx="103.78" cy="32.81" r="1"/>
  <circle class="cls-1" cx="22.24" cy="46.4" r="1"/>
  <circle class="cls-1" cx="144.63" cy="86.91" r="1"/>
  <circle class="cls-1" cx="190.01" cy="47.06" r="1"/>
  <circle class="cls-1" cx="115.46" cy="57.57" r="1"/>
  <circle class="cls-1" cx="210.19" cy="41.42" r="1"/>
  <circle class="cls-1" cx="3.41" cy="39.27" r="1"/>
  <circle class="cls-1" cx="34.34" cy="31.47" r="1"/>
  <circle class="cls-1" cx="77.36" cy="39.54" r="1"/>
  <circle class="cls-1" cx="246.5" cy="80.98" r="1"/>
  <circle class="cls-1" cx="144.85" cy="81.89" r="1"/>
  <circle class="cls-1" cx="73.35" cy="66.58" r="1"/>
  <circle class="cls-1" cx="215.81" cy="86.39" r="1"/>
  <circle class="cls-1" cx="106.75" cy="64.13" r="1"/>
  <circle class="cls-1" cx="103.47" cy="78.62" r="1"/>
  <circle class="cls-1" cx="186.75" cy="87.6" r="1"/>
  <circle class="cls-1" cx="174.9" cy="77" r="1"/>
  <circle class="cls-1" cx="154.06" cy="34.51" r="1"/>
  <circle class="cls-1" cx="200.22" cy="33.36" r="1"/>
  <circle class="cls-1" cx="75.67" cy="82.87" r="1"/>
  <circle class="cls-1" cx="82.54" cy="71.34" r="1"/>
  <circle class="cls-1" cx="174.9" cy="83.41" r="1"/>
  <circle class="cls-1" cx="222.5" cy="69.61" r="1"/>
  <circle class="cls-1" cx="76.28" cy="55.18" r="1"/>
  <circle class="cls-1" cx="149.15" cy="52.34" r="1"/>
  <circle class="cls-1" cx="55.18" cy="55.28" r="1"/>
  <circle class="cls-1" cx="66.49" cy="79.55" r="1"/>
  <circle class="cls-1" cx="173.9" cy="38.63" r="1"/>
  <circle class="cls-1" cx="101.1" cy="81.28" r="1"/>
  <circle class="cls-1" cx="164.71" cy="51.84" r="1"/>
  <circle class="cls-1" cx="34.22" cy="62.2" r="1"/>
  <circle class="cls-1" cx="113.81" cy="65.68" r="1"/>
  <circle class="cls-1" cx="212.66" cy="87.23" r="1"/>
  <circle class="cls-1" cx="171.7" cy="78.97" r="1"/>
  <circle class="cls-1" cx="87.36" cy="68.55" r="1"/>
  <circle class="cls-1" cx="240.8" cy="78.49" r="1"/>
  <circle class="cls-1" cx="37.9" cy="49.16" r="1"/>
  <circle class="cls-1" cx="133.03" cy="71.93" r="1"/>
  <circle class="cls-1" cx="15.81" cy="83.5" r="1"/>
  <circle class="cls-1" cx="156.04" cy="79.89" r="1"/>
  <circle class="cls-1" cx="163.15" cy="48.8" r="1"/>
  <circle class="cls-1" cx="93.34" cy="32.68" r="1"/>
  <circle class="cls-1" cx="118.12" cy="80.15" r="1"/>
  <circle class="cls-1" cx="78.37" cy="67.01" r="1"/>
  <circle class="cls-1" cx="124.03" cy="58.1" r="1"/>
  <circle class="cls-1" cx="65.32" cy="73.43" r="1"/>
  <circle class="cls-1" cx="10.95" cy="85.11" r="1"/>
  <circle class="cls-1" cx="240.72" cy="58.88" r="1"/>
  <circle class="cls-1" cx="153" cy="84.46" r="1"/>
  <circle class="cls-1" cx="24.03" cy="86.24" r="1"/>
  <circle class="cls-1" cx="93.05" cy="62.35" r="1"/>
  <circle class="cls-1" cx="73.84" cy="71.04" r="1"/>
  <circle class="cls-1" cx="182.63" cy="38.6" r="1"/>
  <circle class="cls-1" cx="207.81" cy="70.07" r="1"/>
  <circle class="cls-1" cx="98.01" cy="47.33" r="1"/>
  <circle class="cls-1" cx="220.61" cy="80.01" r="1"/>
  <circle class="cls-1" cx="62.32" cy="72.23" r="1"/>
  <circle class="cls-1" cx="140.73" cy="86.01" r="1"/>
  <circle class="cls-1" cx="141.26" cy="82.05" r="1"/>
  <circle class="cls-1" cx="95.9" cy="65.74" r="1"/>
  <circle class="cls-1" cx="102.67" cy="47.46" r="1"/>
  <circle class="cls-1" cx="171.73" cy="83.13" r="1"/>
  <circle class="cls-1" cx="78.94" cy="70.54" r="1"/>
  <circle class="cls-1" cx="228.84" cy="62.66" r="1"/>
  <circle class="cls-1" cx="115.01" cy="79.84" r="1"/>
  <circle class="cls-1" cx="76.39" cy="80.48" r="1"/>
  <circle class="cls-1" cx="157.23" cy="76.77" r="1"/>
  <circle class="cls-1" cx="60" cy="40.44" r="1"/>
  <circle class="cls-1" cx="243.71" cy="44.98" r="1"/>
  <circle class="cls-1" cx="200.4" cy="59.93" r="1"/>
  <circle class="cls-1" cx="43.17" cy="72.79" r="1"/>
  <circle class="cls-1" cx="56.35" cy="35.28" r="1"/>
  <circle class="cls-1" cx="182.73" cy="64.15" r="1"/>
  <circle class="cls-1" cx="86.65" cy="50.52" r="1"/>
  <circle class="cls-1" cx="244.66" cy="66.26" r="1"/>
  <circle class="cls-1" cx="235.12" cy="33.54" r="1"/>
  <circle class="cls-1" cx="237.14" cy="76.4" r="1"/>
  <circle class="cls-1" cx="80.33" cy="77.18" r="1"/>
  <circle class="cls-1" cx="43.63" cy="52.47" r="1"/>
  <circle class="cls-1" cx="7.25" cy="85.47" r="1"/>
  <circle class="cls-1" cx="1.63" cy="84.79" r="1"/>
  <circle class="cls-1" cx="225.43" cy="66.62" r="1"/>
  <circle class="cls-1" cx="106.68" cy="73.89" r="1"/>
  <circle class="cls-1" cx="143.72" cy="48.61" r="1"/>
  <circle class="cls-1" cx="140.27" cy="77.04" r="1"/>
  <circle class="cls-1" cx="107.93" cy="69.38" r="1"/>
  <circle class="cls-1" cx="20.23" cy="82.05" r="1"/>
  <circle class="cls-1" cx="22.32" cy="25.91" r="1"/>
  <circle class="cls-1" cx="162.07" cy="79.44" r="1"/>
  <circle class="cls-1" cx="102.89" cy="64.91" r="1"/>
  <circle class="cls-1" cx="207.25" cy="55.46" r="1"/>
  <circle class="cls-1" cx="4.02" cy="30.03" r="1"/>
  <circle class="cls-1" cx="231.28" cy="66.11" r="1"/>
  <circle class="cls-1" cx="98.61" cy="85.75" r="1"/>
  <circle class="cls-1" cx="167.59" cy="82.92" r="1"/>
  <circle class="cls-1" cx="182.58" cy="70.67" r="1"/>
  <circle class="cls-1" cx="158.61" cy="73.38" r="1"/>
  <circle class="cls-1" cx="1.73" cy="59.26" r="1"/>
  <circle class="cls-1" cx="69.28" cy="54.41" r="1"/>
  <circle class="cls-1" cx="167.85" cy="18.44" r="1"/>
  <circle class="cls-1" cx="42.29" cy="78.18" r="1"/>
  <circle class="cls-1" cx="235.86" cy="67.64" r="1"/>
  <circle class="cls-1" cx="30.56" cy="63.41" r="1"/>
  <circle class="cls-1" cx="194.77" cy="76.47" r="1"/>
  <circle class="cls-1" cx="138.42" cy="67.05" r="1"/>
  <circle class="cls-1" cx="249.39" cy="66.28" r="1"/>
  <circle class="cls-1" cx="162.84" cy="63.99" r="1"/>
  <circle class="cls-1" cx="39.85" cy="44.45" r="1"/>
  <circle class="cls-1" cx="145.62" cy="32.2" r="1"/>
  <circle class="cls-1" cx="249.3" cy="22.52" r="1"/>
  <circle class="cls-1" cx="38.45" cy="38.19" r="1"/>
  <circle class="cls-1" cx="167.12" cy="55.45" r="1"/>
  <circle class="cls-1" cx="235.21" cy="73.69" r="1"/>
  <circle class="cls-1" cx="26.42" cy="54.69" r="1"/>
  <circle class="cls-1" cx="27.97" cy="71.44" r="1"/>
  <circle class="cls-1" cx="228.01" cy="69.8" r="1"/>
  <circle class="cls-1" cx="252" cy="81.09" r="1"/>
  <circle class="cls-1" cx="195.81" cy="24.66" r="1"/>
  <circle class="cls-1" cx="7.89" cy="61.06" r="1"/>
  <circle class="cls-1" cx="224.63" cy="36.35" r="1"/>
  <circle class="cls-1" cx="224.31" cy="78.54" r="1"/>
  <circle class="cls-1" cx="210.55" cy="67.85" r="1"/>
  <circle class="cls-1" cx="7.54" cy="65.44" r="1"/>
  <circle class="cls-1" cx="1.92" cy="66.03" r="1"/>
  <circle class="cls-1" cx="183.75" cy="67.62" r="1"/>
  <circle class="cls-1" cx="151.19" cy="48.14" r="1"/>
  <circle class="cls-1" cx="151.14" cy="77.7" r="1"/>
  <circle class="cls-1" cx="139.15" cy="9.17" r="1"/>
  <circle class="cls-1" cx="93.29" cy="53.77" r="1"/>
  <circle class="cls-1" cx="57.59" cy="11.76" r="1"/>
  <circle class="cls-1" cx="13.28" cy="34.1" r="1"/>
  <circle class="cls-1" cx="223.7" cy="75.3" r="1"/>
  <circle class="cls-1" cx="38.87" cy="64.91" r="1"/>
  <circle class="cls-1" cx="36.87" cy="14.5" r="1"/>
  <circle class="cls-1" cx="217.75" cy="61.83" r="1"/>
  <circle class="cls-1" cx="210.28" cy="24.97" r="1"/>
  <circle class="cls-1" cx="144.39" cy="73.29" r="1"/>
  <circle class="cls-1" cx="92.04" cy="47.68" r="1"/>
  <circle class="cls-1" cx="58.48" cy="77" r="1"/>
  <circle class="cls-1" cx="25.19" cy="80.35" r="1"/>
  <circle class="cls-1" cx="59.16" cy="84.64" r="1"/>
  <circle class="cls-1" cx="237.04" cy="87.27" r="1"/>
  <circle class="cls-1" cx="19.36" cy="54.68" r="1"/>
  <circle class="cls-1" cx="139.33" cy="26.62" r="1"/>
  <circle class="cls-1" cx="122" cy="72.93" r="1"/>
  <circle class="cls-1" cx="236.54" cy="80.1" r="1"/>
  <circle class="cls-1" cx="36.75" cy="67.42" r="1"/>
  <circle class="cls-1" cx="126.66" cy="52.24" r="1"/>
  <circle class="cls-1" cx="148.42" cy="74.35" r="1"/>
  <circle class="cls-1" cx="69.78" cy="76.77" r="1"/>
  <circle class="cls-1" cx="96.13" cy="86.25" r="1"/>
  <circle class="cls-1" cx="200.99" cy="43.07" r="1"/>
  <circle class="cls-1" cx="25.36" cy="73.05" r="1"/>
  <circle class="cls-1" cx="33.76" cy="38.84" r="1"/>
  <circle class="cls-1" cx="69.59" cy="74.17" r="1"/>
  <circle class="cls-1" cx="164.6" cy="28.96" r="1"/>
  <circle class="cls-1" cx="204.25" cy="72.16" r="1"/>
  <circle class="cls-1" cx="242.81" cy="27.6" r="1"/>
  <circle class="cls-1" cx="144.69" cy="57.07" r="1"/>
  <circle class="cls-1" cx="206.63" cy="36.74" r="1"/>
  <circle class="cls-1" cx="244.74" cy="72.88" r="1"/>
  <circle class="cls-1" cx="107.12" cy="85.63" r="1"/>
  <circle class="cls-1" cx="127.47" cy="76.28" r="1"/>
  <circle class="cls-1" cx="23.88" cy="14.1" r="1"/>
  <circle class="cls-1" cx="69.3" cy="8.82" r="1"/>
  <circle class="cls-1" cx="236.61" cy="49.04" r="1"/>
  <circle class="cls-1" cx="216.69" cy="76.94" r="1"/>
  <circle class="cls-1" cx="42.47" cy="30.21" r="1"/>
  <circle class="cls-1" cx="69.43" cy="69.63" r="1"/>
  <circle class="cls-1" cx="74.26" cy="27.82" r="1"/>
  <circle class="cls-1" cx="241.96" cy="55" r="1"/>
  <circle class="cls-1" cx="46.29" cy="64.04" r="1"/>
  <circle class="cls-1" cx="9.31" cy="80.88" r="1"/>
  <circle class="cls-1" cx="6.67" cy="82.25" r="1"/>
  <circle class="cls-1" cx="2.54" cy="79.8" r="1"/>
  <circle class="cls-1" cx="124.02" cy="64.13" r="1"/>
  <circle class="cls-1" cx="14.47" cy="57.34" r="1"/>
  <circle class="cls-1" cx="52.94" cy="65.56" r="1"/>
  <circle class="cls-1" cx="13.24" cy="42.87" r="1"/>
  <circle class="cls-1" cx="120.1" cy="76.58" r="1"/>
  <circle class="cls-1" cx="173.07" cy="73.81" r="1"/>
  <circle class="cls-1" cx="148.96" cy="39.73" r="1"/>
  <circle class="cls-1" cx="162.04" cy="6.61" r="1"/>
  <circle class="cls-1" cx="54" cy="77.9" r="1"/>
  <circle class="cls-1" cx="207.6" cy="76.49" r="1"/>
  <circle class="cls-1" cx="202.55" cy="63.37" r="1"/>
  <circle class="cls-1" cx="105.61" cy="59.53" r="1"/>
  <circle class="cls-1" cx="173.65" cy="86.98" r="1"/>
  <circle class="cls-1" cx="58.17" cy="23.41" r="1"/>
  <circle class="cls-1" cx="8.69" cy="10.86" r="1"/>
  <circle class="cls-1" cx="13.82" cy="15.79" r="1"/>
  <circle class="cls-1" cx="4.59" cy="11.65" r="1"/>
  <circle class="cls-1" cx="9.65" cy="5.68" r="1"/>
  <circle class="cls-1" cx="1.82" cy="2.47" r="1"/>
  <circle class="cls-1" cx="137.86" cy="50.65" r="1"/>
  <circle class="cls-1" cx="200.62" cy="48.54" r="1"/>
  <circle class="cls-1" cx="17.39" cy="50.61" r="1"/>
  <circle class="cls-1" cx="115.04" cy="83.69" r="1"/>
  <circle class="cls-1" cx="51.46" cy="86.94" r="1"/>
  <circle class="cls-1" cx="55.91" cy="86.49" r="1"/>
  <circle class="cls-1" cx="203.58" cy="79.62" r="1"/>
  <circle class="cls-1" cx="192.15" cy="68.59" r="1"/>
  <circle class="cls-1" cx="194.05" cy="80.78" r="1"/>
  <circle class="cls-1" cx="58.02" cy="68.87" r="1"/>
  <circle class="cls-1" cx="38.06" cy="72.87" r="1"/>
  <circle class="cls-1" cx="45.2" cy="85.91" r="1"/>
  <circle class="cls-1" cx="39.59" cy="84.57" r="1"/>
  <circle class="cls-1" cx="158.5" cy="63.94" r="1"/>
  <circle class="cls-1" cx="113.28" cy="73.22" r="1"/>
  <circle class="cls-1" cx="125.6" cy="42.24" r="1"/>
  <circle class="cls-1" cx="96.27" cy="42.7" r="1"/>
  <circle class="cls-1" cx="216.46" cy="82.81" r="1"/>
  <circle class="cls-1" cx="7.65" cy="46.83" r="1"/>
  <circle class="cls-1" cx="3.51" cy="47.69" r="1"/>
  <circle class="cls-1" cx="45.61" cy="68.98" r="1"/>
  <circle class="cls-1" cx="249.7" cy="32.81" r="1"/>
  <circle class="cls-1" cx="61.95" cy="79.97" r="1"/>
  <circle class="cls-1" cx="63.45" cy="83.43" r="1"/>
  <circle class="cls-1" cx="185.39" cy="83.8" r="1"/>
  <circle class="cls-1" cx="116.21" cy="28.9" r="1"/>
  <circle class="cls-1" cx="9.38" cy="39.28" r="1"/>
  <circle class="cls-1" cx="34.63" cy="84.45" r="1"/>
  <circle class="cls-1" cx="223.13" cy="62.35" r="1"/>
  <circle class="cls-1" cx="123.67" cy="77.9" r="1"/>
  <circle class="cls-1" cx="182.96" cy="48.09" r="1"/>
  <circle class="cls-1" cx="221.18" cy="19.98" r="1"/>
  <circle class="cls-1" cx="199.37" cy="56.12" r="1"/>
  <circle class="cls-1" cx="197.16" cy="52.12" r="1"/>
  <circle class="cls-1" cx="173.11" cy="25.5" r="1"/>
  <circle class="cls-1" cx="250.47" cy="42.4" r="1"/>
  <circle class="cls-1" cx="15.98" cy="61.31" r="1"/>
  <circle class="cls-1" cx="154.3" cy="54.61" r="1"/>
  <circle class="cls-1" cx="72.97" cy="46.75" r="1"/>
  <circle class="cls-1" cx="249.38" cy="77.43" r="1"/>
  <circle class="cls-1" cx="41.82" cy="82.32" r="1"/>
  <circle class="cls-1" cx="232.25" cy="70.28" r="1"/>
  <circle class="cls-1" cx="176.46" cy="9.3" r="1"/>
  <circle class="cls-1" cx="47.73" cy="86.1" r="1"/>
  <circle class="cls-1" cx="210.88" cy="60.22" r="1"/>
  <circle class="cls-1" cx="85.11" cy="42.92" r="1"/>
  <circle class="cls-1" cx="176.71" cy="45.21" r="1"/>
  <circle class="cls-1" cx="182.92" cy="22.47" r="1"/>
  <circle class="cls-1" cx="11.35" cy="82.66" r="1"/>
  <circle class="cls-1" cx="102.77" cy="53.03" r="1"/>
  <circle class="cls-1" cx="229.8" cy="76.82" r="1"/>
  <circle class="cls-1" cx="23.02" cy="33.72" r="1"/>
  <circle class="cls-1" cx="48.7" cy="61.43" r="1"/>
  <circle class="cls-1" cx="12.01" cy="77.51" r="1"/>
  <circle class="cls-1" cx="98.48" cy="62.49" r="1"/>
  <circle class="cls-1" cx="247.96" cy="61.8" r="1"/>
  <circle class="cls-1" cx="242.49" cy="63.01" r="1"/>
  <circle class="cls-1" cx="64.82" cy="40.17" r="1"/>
  <circle class="cls-1" cx="108.98" cy="26.72" r="1"/>
  <circle class="cls-1" cx="110.55" cy="59.54" r="1"/>
  <circle class="cls-1" cx="26.04" cy="49.95" r="1"/>
  <circle class="cls-1" cx="129.74" cy="81.48" r="1"/>
  <circle class="cls-1" cx="106.67" cy="48.84" r="1"/>
  <circle class="cls-1" cx="199.16" cy="79.91" r="1"/>
  <circle class="cls-1" cx="57.57" cy="65.13" r="1"/>
  <circle class="cls-1" cx="216.88" cy="56.76" r="1"/>
  <circle class="cls-1" cx="163.88" cy="57.99" r="1"/>
  <circle class="cls-1" cx="131.55" cy="53.88" r="1"/>
  <circle class="cls-1" cx="25.8" cy="65.29" r="1"/>
  <circle class="cls-1" cx="211.76" cy="76.29" r="1"/>
  <circle class="cls-1" cx="11.11" cy="74.65" r="1"/>
  <circle class="cls-1" cx="50.18" cy="76.19" r="1"/>
  <circle class="cls-1" cx="188.11" cy="72.3" r="1"/>
  <circle class="cls-1" cx="171.38" cy="62.15" r="1"/>
  <circle class="cls-1" cx="182.8" cy="31.2" r="1"/>
  <circle class="cls-1" cx="191.65" cy="83.19" r="1"/>
  <circle class="cls-1" cx="133.91" cy="46.34" r="1"/>
  <circle class="cls-1" cx="142.16" cy="66.21" r="1"/>
  <circle class="cls-1" cx="47.59" cy="81.97" r="1"/>
  <circle class="cls-1" cx="177.46" cy="80.08" r="1"/>
  <circle class="cls-1" cx="129.42" cy="73.41" r="1"/>
  <circle class="cls-1" cx="89.93" cy="83.16" r="1"/>
  <circle class="cls-1" cx="16.2" cy="78.54" r="1"/>
  <circle class="cls-1" cx="28.63" cy="29.27" r="1"/>
  <circle class="cls-1" cx="231.67" cy="24.09" r="1"/>
  <circle class="cls-1" cx="34.5" cy="73.73" r="1"/>
  <circle class="cls-1" cx="196" cy="65.05" r="1"/>
  <circle class="cls-1" cx="215.01" cy="73.75" r="1"/>
  <circle class="cls-1" cx="229.85" cy="51.55" r="1"/>
  <circle class="cls-1" cx="250.66" cy="71.12" r="1"/>
  <circle class="cls-1" cx="19.99" cy="86.86" r="1"/>
  <circle class="cls-1" cx="198.64" cy="86.84" r="1"/>
  <circle class="cls-1" cx="111.94" cy="69.84" r="1"/>
  <circle class="cls-1" cx="141.78" cy="59.3" r="1"/>
  <circle class="cls-1" cx="154.35" cy="51.54" r="1"/>
  <circle class="cls-1" cx="227.04" cy="75.23" r="1"/>
  <circle class="cls-1" cx="110.48" cy="82.39" r="1"/>
  <circle class="cls-1" cx="195.15" cy="71.72" r="1"/>
  <circle class="cls-1" cx="53.69" cy="70.39" r="1"/>
  <circle class="cls-1" cx="38.1" cy="80.6" r="1"/>
  <circle class="cls-1" cx="209.9" cy="84.84" r="1"/>
  <circle class="cls-1" cx="162.22" cy="83.3" r="1"/>
  <circle class="cls-1" cx="184.44" cy="80.31" r="1"/>
  <circle class="cls-1" cx="123.89" cy="47.3" r="1"/>
  <circle class="cls-1" cx="167.12" cy="63.35" r="1"/>
  <circle class="cls-1" cx="161.47" cy="59.45" r="1"/>
  <circle class="cls-1" cx="96.73" cy="25.34" r="1"/>
  <circle class="cls-1" cx="218.33" cy="45.62" r="1"/>
  <circle class="cls-1" cx="105.46" cy="55.48" r="1"/>
  <circle class="cls-1" cx="112.65" cy="47.83" r="1"/>
  <circle class="cls-1" cx="112.7" cy="37.17" r="1"/>
  <circle class="cls-1" cx="206.48" cy="83.19" r="1"/>
  <circle class="cls-1" cx="20.77" cy="1" r="1"/>
  <circle class="cls-1" cx="195.6" cy="59.28" r="1"/>
  <circle class="cls-1" cx="87.5" cy="27.1" r="1"/>
  <circle class="cls-1" cx="159.44" cy="87.25" r="1"/>
  <circle class="cls-1" cx="145.33" cy="70.66" r="1"/>
  <circle class="cls-1" cx="8.81" cy="55.99" r="1"/>
  <circle class="cls-1" cx="144.7" cy="61.19" r="1"/>
  <circle class="cls-1" cx="181.94" cy="73.69" r="1"/>
  <circle class="cls-1" cx="153.53" cy="59.66" r="1"/>
  <circle class="cls-1" cx="4.38" cy="55.46" r="1"/>
  <circle class="cls-1" cx="2.25" cy="52.82" r="1"/>
  <circle class="cls-1" cx="44.33" cy="81.29" r="1"/>
  <circle class="cls-1" cx="150.16" cy="86.8" r="1"/>
  <circle class="cls-1" cx="78.35" cy="85.24" r="1"/>
  <circle class="cls-1" cx="83.26" cy="45.27" r="1"/>
  <circle class="cls-1" cx="193.57" cy="86.15" r="1"/>
  <circle class="cls-1" cx="79.95" cy="21.91" r="1"/>
  <circle class="cls-1" cx="111.84" cy="63.13" r="1"/>
  <circle class="cls-1" cx="146.85" cy="43.93" r="1"/>
  <circle class="cls-1" cx="241.15" cy="86.83" r="1"/>
  <circle class="cls-1" cx="94.99" cy="58.46" r="1"/>
  <circle class="cls-1" cx="81.42" cy="86.45" r="1"/>
  <circle class="cls-1" cx="63.52" cy="67.31" r="1"/>
  <circle class="cls-1" cx="211.11" cy="71.99" r="1"/>
  <circle class="cls-1" cx="53.29" cy="52.25" r="1"/>
  <circle class="cls-1" cx="118.75" cy="54.39" r="1"/>
  <circle class="cls-1" cx="216.16" cy="39.67" r="1"/>
  <circle class="cls-1" cx="104.28" cy="86.98" r="1"/>
  <circle class="cls-1" cx="115.86" cy="18.59" r="1"/>
  <circle class="cls-1" cx="57.15" cy="81.1" r="1"/>
  <circle class="cls-1" cx="219.84" cy="68.63" r="1"/>
  <circle class="cls-1" cx="229" cy="73.72" r="1"/>
  <circle class="cls-1" cx="143.83" cy="77.68" r="1"/>
  <circle class="cls-1" cx="182.61" cy="54.51" r="1"/>
  <circle class="cls-1" cx="116.45" cy="87.45" r="1"/>
  <circle class="cls-1" cx="50.35" cy="31.72" r="1"/>
  <circle class="cls-1" cx="148.36" cy="61.82" r="1"/>
  <circle class="cls-1" cx="203.52" cy="67.94" r="1"/>
  <circle class="cls-1" cx="110.69" cy="57.53" r="1"/>
  <circle class="cls-1" cx="226.28" cy="55.28" r="1"/>
  <circle class="cls-1" cx="175.88" cy="42.92" r="1"/>
  <circle class="cls-1" cx="13.44" cy="64.98" r="1"/>
  <circle class="cls-1" cx="164.83" cy="68.24" r="1"/>
  <circle class="cls-1" cx="26.98" cy="76.66" r="1"/>
  <circle class="cls-1" cx="51.72" cy="84.21" r="1"/>
  <circle class="cls-1" cx="75.32" cy="87.04" r="1"/>
  <circle class="cls-1" cx="161.65" cy="36.68" r="1"/>
  <circle class="cls-1" cx="47.45" cy="56.15" r="1"/>
  <circle class="cls-1" cx="28.03" cy="45.1" r="1"/>
  <circle class="cls-1" cx="66.88" cy="27.74" r="1"/>
  <circle class="cls-1" cx="77.36" cy="75.41" r="1"/>
  <circle class="cls-1" cx="116.34" cy="52.04" r="1"/>
  <circle class="cls-1" cx="249.41" cy="85.22" r="1"/>
  <circle class="cls-1" cx="212.88" cy="63.65" r="1"/>
  <circle class="cls-1" cx="200.78" cy="68.97" r="1"/>
  <circle class="cls-1" cx="32.44" cy="67.54" r="1"/>
  <circle class="cls-1" cx="132.42" cy="39.61" r="1"/>
  <circle class="cls-1" cx="147.65" cy="67.12" r="1"/>
  <circle class="cls-1" cx="83.68" cy="83.65" r="1"/>
  <circle class="cls-1" cx="243.79" cy="82.4" r="1"/>
  <circle class="cls-1" cx="62.74" cy="55.46" r="1"/>
  <circle class="cls-1" cx="42.06" cy="87" r="1"/>
  <circle class="cls-1" cx="118.86" cy="46.33" r="1"/>
  <circle class="cls-1" cx="20.81" cy="72" r="1"/>
  <circle class="cls-1" cx="137.43" cy="17.52" r="1"/>
  <circle class="cls-1" cx="52.64" cy="60.56" r="1"/>
  <circle class="cls-1" cx="158.85" cy="69.71" r="1"/>
  <circle class="cls-1" cx="103.28" cy="39.38" r="1"/>
  <circle class="cls-1" cx="235.14" cy="17.96" r="1"/>
  <circle class="cls-1" cx="195.96" cy="84.25" r="1"/>
  <circle class="cls-1" cx="140.43" cy="72.98" r="1"/>
  <circle class="cls-1" cx="163.38" cy="73.9" r="1"/>
  <circle class="cls-1" cx="169.3" cy="69.78" r="1"/>
  <circle class="cls-1" cx="188.71" cy="59.61" r="1"/>
  <circle class="cls-1" cx="160.63" cy="45.1" r="1"/>
  <circle class="cls-1" cx="190.49" cy="65.04" r="1"/>
  <circle class="cls-1" cx="18.76" cy="84.3" r="1"/>
  <circle class="cls-1" cx="235.97" cy="44.01" r="1"/>
  <circle class="cls-1" cx="18.11" cy="67.24" r="1"/>
  <circle class="cls-1" cx="122.39" cy="68.49" r="1"/>
  <circle class="cls-1" cx="57.44" cy="72.35" r="1"/>
  <circle class="cls-1" cx="167.59" cy="86.67" r="1"/>
  <circle class="cls-1" cx="180.14" cy="82.66" r="1"/>
  <circle class="cls-1" cx="251.19" cy="58.32" r="1"/>
  <circle class="cls-1" cx="169.12" cy="48.59" r="1"/>
  <circle class="cls-1" cx="232.95" cy="77.75" r="1"/>
  <circle class="cls-1" cx="31.51" cy="54.1" r="1"/>
  <circle class="cls-1" cx="173.75" cy="52.68" r="1"/>
  <circle class="cls-1" cx="172.45" cy="66.54" r="1"/>
  <circle class="cls-1" cx="116.84" cy="71.13" r="1"/>
  <circle class="cls-1" cx="118.22" cy="83.42" r="1"/>
  <circle class="cls-1" cx="30.06" cy="43.47" r="1"/>
  <circle class="cls-1" cx="35.58" cy="87.04" r="1"/>
  <circle class="cls-1" cx="187.13" cy="40.02" r="1"/>
  <circle class="cls-1" cx="158.34" cy="42.33" r="1"/>
  <circle class="cls-1" cx="206.79" cy="64.17" r="1"/>
  <circle class="cls-1" cx="137.11" cy="85.99" r="1"/>
  <circle class="cls-1" cx="6.38" cy="72.75" r="1"/>
  <circle class="cls-1" cx="4.68" cy="62.57" r="1"/>
  <circle class="cls-1" cx="1.34" cy="71.48" r="1"/>
  <circle class="cls-1" cx="61.09" cy="63.35" r="1"/>
  <circle class="cls-1" cx="190.06" cy="79.3" r="1"/>
  <circle class="cls-1" cx="175.75" cy="48.87" r="1"/>
  <circle class="cls-1" cx="213.95" cy="34.09" r="1"/>
  <circle class="cls-1" cx="203.23" cy="27.14" r="1"/>
  <circle class="cls-1" cx="24.7" cy="40.74" r="1"/>
  <circle class="cls-1" cx="244.34" cy="77.86" r="1"/>
  <circle class="cls-1" cx="29.95" cy="84.81" r="1"/>
  <circle class="cls-1" cx="211.88" cy="56.5" r="1"/>
  <circle class="cls-1" cx="231.65" cy="81.94" r="1"/>
  <circle class="cls-1" cx="188.97" cy="77.19" r="1"/>
  <circle class="cls-1" cx="63.95" cy="61.95" r="1"/>
  <circle class="cls-1" cx="61.71" cy="32.14" r="1"/>
  <circle class="cls-1" cx="146.83" cy="20.79" r="1"/>
  <circle class="cls-1" cx="85.46" cy="86.6" r="1"/>
  <circle class="cls-1" cx="203.92" cy="86.35" r="1"/>
  <circle class="cls-1" cx="222.92" cy="44.45" r="1"/>
  <circle class="cls-1" cx="134.93" cy="67.99" r="1"/>
  <circle class="cls-1" cx="216.88" cy="66.76" r="1"/>
  <circle class="cls-1" cx="188.52" cy="83.67" r="1"/>
  <circle class="cls-1" cx="67.64" cy="64.81" r="1"/>
  <circle class="cls-1" cx="240.89" cy="67.51" r="1"/>
  <circle class="cls-1" cx="191.71" cy="53.56" r="1"/>
  <circle class="cls-1" cx="81.85" cy="34.4" r="1"/>
  <circle class="cls-1" cx="68.07" cy="86.57" r="1"/>
  <circle class="cls-1" cx="150.96" cy="66.21" r="1"/>
  <circle class="cls-1" cx="91.38" cy="72.83" r="1"/>
  <circle class="cls-1" cx="71.95" cy="34.21" r="1"/>
  <circle class="cls-1" cx="247.89" cy="55.65" r="1"/>
  <circle class="cls-1" cx="151.04" cy="72.39" r="1"/>
  <circle class="cls-1" cx="20.96" cy="61.71" r="1"/>
  <circle class="cls-1" cx="226.05" cy="59.85" r="1"/>
  <circle class="cls-1" cx="131.33" cy="62.74" r="1"/>
  <circle class="cls-1" cx="31.1" cy="78.31" r="1"/>
  <circle class="cls-1" cx="128.39" cy="35.83" r="1"/>
  <circle class="cls-1" cx="138.38" cy="81.07" r="1"/>
  <circle class="cls-1" cx="75.52" cy="63.82" r="1"/>
  <circle class="cls-1" cx="165.77" cy="42.65" r="1"/>
  <circle class="cls-1" cx="245.41" cy="49.8" r="1"/>
  <circle class="cls-1" cx="250.26" cy="48.42" r="1"/>
  <circle class="cls-1" cx="190.64" cy="37.54" r="1"/>
  <circle class="cls-1" cx="80.35" cy="63.32" r="1"/>
  <circle class="cls-1" cx="137.54" cy="76.27" r="1"/>
  <circle class="cls-1" cx="98.99" cy="72.99" r="1"/>
  <circle class="cls-1" cx="246.35" cy="85.28" r="1"/>
  <circle class="cls-1" cx="219.5" cy="86.7" r="1"/>
  <circle class="cls-1" cx="140.78" cy="37.39" r="1"/>
  <circle class="cls-1" cx="172.91" cy="57.71" r="1"/>
  <circle class="cls-1" cx="84.11" cy="66.33" r="1"/>
  <circle class="cls-1" cx="182.18" cy="86.55" r="1"/>
  <circle class="cls-1" cx="128.14" cy="87.33" r="1"/>
  <circle class="cls-1" cx="161.61" cy="76.23" r="1"/>
  <circle class="cls-1" cx="84.19" cy="61.21" r="1"/>
  <circle class="cls-1" cx="227.52" cy="79.95" r="1"/>
  <circle class="cls-1" cx="210.62" cy="15.97" r="1"/>
  <circle class="cls-1" cx="205.99" cy="59.37" r="1"/>
  <circle class="cls-1" cx="87.16" cy="72.58" r="1"/>
  <circle class="cls-1" cx="89.76" cy="63.17" r="1"/>
  <circle class="cls-1" cx="230.64" cy="86.21" r="1"/>
  <circle class="cls-1" cx="105.83" cy="44.81" r="1"/>
  <circle class="cls-1" cx="226.03" cy="83.58" r="1"/>
  <circle class="cls-1" cx="133.58" cy="60.29" r="1"/>
  <circle class="cls-1" cx="122.09" cy="81.6" r="1"/>
  <circle class="cls-1" cx="101.26" cy="84.37" r="1"/>
  <circle class="cls-1" cx="203.19" cy="51.68" r="1"/>
  <circle class="cls-1" cx="245.39" cy="42.78" r="1"/>
  <circle class="cls-1" cx="153.71" cy="70.65" r="1"/>
  <circle class="cls-1" cx="127.54" cy="69.3" r="1"/>
  <circle class="cls-1" cx="111.42" cy="85.6" r="1"/>
  <circle class="cls-1" cx="221.22" cy="55.98" r="1"/>
  <circle class="cls-1" cx="122.05" cy="84.18" r="1"/>
  <circle class="cls-1" cx="124.72" cy="86.56" r="1"/>
  <circle class="cls-1" cx="130.71" cy="77.12" r="1"/>
  <circle class="cls-1" cx="147.92" cy="80.42" r="1"/>
  <circle class="cls-1" cx="152.77" cy="80.83" r="1"/>
  <circle class="cls-1" cx="252.71" cy="86.32" r="1"/>
  <circle class="cls-1" cx="168.53" cy="74.23" r="1"/>
  <circle class="cls-1" cx="197.64" cy="69.62" r="1"/>
  <circle class="cls-1" cx="214.59" cy="79.34" r="1"/>
  <circle class="cls-1" cx="215.23" cy="51.52" r="1"/>
  <circle class="cls-1" cx="218.96" cy="30.5" r="1"/>
  <circle class="cls-1" cx="234.22" cy="59.7" r="1"/>
  <circle class="cls-1" cx="225.55" cy="41.16" r="1"/>
</svg>