<svg width="567" height="147" viewBox="0 0 567 147" fill="none" xmlns="http://www.w3.org/2000/svg">
<path d="M72.46 36.6419H72.6299L94.02 66.7119H105.86L87.71 42.5119C96.83 42.2519 106.3 35.7619 106.3 23.4019C106.3 10.0719 99.37 1.83194 83.77 1.83194H62.9899V66.7119H72.46V36.6419ZM72.46 10.5119H82.45C90.87 10.5119 96.83 15.1619 96.83 22.6119C96.83 31.0319 90.4299 35.3219 79.3799 35.3219H72.45V10.5119H72.46Z" fill="#2E3196"/>
<path d="M120.8 66.7119H130.26V10.5119H142.72V1.83194H108.35V10.5119H120.8V66.7119Z" fill="#2E3196"/>
<path d="M159.14 1.83194H149.67V66.7119H159.14V1.83194Z" fill="#2E3196"/>
<path d="M166.1 66.7119H175.57V38.6619H198.9V29.9819H175.57V10.5119H198.9V1.83194H166.1V66.7119Z" fill="#2E3196"/>
<path d="M215.32 1.83194H205.85V66.7119H215.32V1.83194Z" fill="#2E3196"/>
<path d="M283.27 50.6719H271.61C266.35 56.6319 260.3 59.2619 253.55 59.2619C240.22 59.2619 229.96 47.2519 229.96 33.6619C229.96 20.7719 240.48 9.29194 254.07 9.29194C261.7 9.29194 267.4 12.7119 272.31 18.4119H283.71C277.13 6.22194 265.65 0.611938 253.38 0.611938C235.93 0.611938 220.5 14.9919 220.5 34.5419C220.5 51.8119 235.32 67.9419 253.29 67.9419C266.27 67.9419 276.7 61.9819 283.28 50.6719H283.27Z" fill="#2E3196"/>
<path d="M298.25 62.4219V1.83194H288.78V66.7119H306.88L319.94 47.6019H342.03V66.7119H351.5V1.83194H339.84L298.25 62.4219ZM342.04 14.1119V38.9219H325.91L341.87 14.1119H342.05H342.04Z" fill="#2E3196"/>
<path d="M367.94 1.83194H358.47V66.7119H390.47V58.0319H367.94V1.83194Z" fill="#2E3196"/>
<path d="M421 1.83194H411.53V66.7119H443.53V58.0319H421V1.83194Z" fill="#2E3196"/>
<path d="M459.96 1.83194H450.49V66.7119H459.96V1.83194Z" fill="#2E3196"/>
<path d="M566.19 33.8319C566.19 15.7719 551.29 0.601929 532.44 0.601929C515.67 0.601929 501.09 12.9519 498.96 29.9719H476.39V10.5119H499.71V1.83193H466.92V66.7119H476.39V38.6519H498.98C501.13 55.1019 515.18 67.9319 532.44 67.9319C546.21 67.9319 558.57 59.8619 564 46.2719H553.83C549.27 54.9519 541.56 59.2419 532.44 59.2419C520.34 59.2419 511.14 51.2619 508.59 38.9919H565.84C566.19 37.4119 566.19 35.9219 566.19 33.8219V33.8319ZM508.5 30.3319C510.78 17.6219 520.34 9.29193 532.35 9.29193C544.36 9.29193 554.09 17.9719 556.37 30.3319H508.5Z" fill="#2E3196"/>
<path d="M47.89 66.7119H57.97L33.33 1.83194H24.83L0.189941 66.7119H10.1799L17.3699 47.6019H40.6899L47.8799 66.7119H47.89ZM20.71 38.9219L29.0399 14.1119H29.21L37.45 38.9219H20.7H20.71Z" fill="#2E3196"/>
<path d="M14.1199 80.7319H4.64996V145.612H14.1199V80.7319Z" fill="#2E3196"/>
<path d="M63.1699 130.092H62.9899L31.4299 80.7319H21.08V145.612H30.5499V95.4619H30.7299L62.8199 145.612H72.64V80.7319H63.1699V130.092Z" fill="#2E3196"/>
<path d="M167.04 80.7319H157.57V145.612H167.04V80.7319Z" fill="#2E3196"/>
<path d="M174.01 89.4119H187.42V145.612H196.89V80.7319H174.01V89.4119Z" fill="#2E3196"/>
<path d="M237.87 124.752C237.87 133.172 232.7 138.162 225.6 138.162C218.5 138.162 213.32 133.252 213.32 124.572V89.4119H227V80.7319H203.85V125.272C203.85 138.772 213.49 146.842 225.6 146.842C237.71 146.842 247.34 138.952 247.34 125.102V80.7419H237.87V124.752Z" fill="#2E3196"/>
<path d="M254.3 89.4119H266.75V145.612H276.22V89.4119H288.67V80.7319H254.3V89.4119Z" fill="#2E3196"/>
<path d="M295.63 145.612H330.61V136.932H305.1V117.212H330.61V108.532H305.1V89.4119H330.61V80.7319H295.63V145.612Z" fill="#2E3196"/>
<path d="M96.78 106.252C90.47 104.232 87.4 101.602 87.4 97.0419C87.4 92.4819 91.52 88.1919 96.08 88.1919C101.43 88.1919 105.2 91.6919 105.2 97.5719H114.67C114.5 86.2619 106.78 79.5119 96.08 79.5119C86.08 79.5119 77.9299 87.3119 77.9299 97.2219C77.9299 106.432 81.4299 111.692 97.4799 117.122C104.4 119.492 106.51 122.472 106.51 127.202C106.51 133.602 102.39 138.162 96.08 138.162C89.77 138.162 85.6499 133.432 85.5599 126.412H76.09C76.26 138.602 84.51 146.842 96.08 146.842C107.65 146.842 115.98 138.952 115.98 127.202C115.98 115.452 110.81 110.722 96.78 106.252Z" fill="#2E3196"/>
<path d="M116.25 89.4219H128.7V145.612H138.16V89.4219H150.61V80.7419H116.25V89.4219Z" fill="#2E3196"/>
</svg>
