<svg width="320" height="180" viewBox="0 0 320 180" fill="none" xmlns="http://www.w3.org/2000/svg">
<rect x="0.5" y="0.5" width="319" height="179" rx="4.5" stroke="#E1E1E1"/>
<path d="M114.179 97.5941V82.3878H96.6007L86.2074 97.5941H77L112.435 45.9766H121.712V97.5941H114.179ZM114.179 55.742H114.039L101.344 75.4822H114.179V55.742Z" fill="#2E3192"/>
<path d="M125.477 97.5941V45.9766H133.01V90.6885H150.937V97.5941H125.477Z" fill="#2E3192"/>
<path d="M154.773 97.5941V45.9766H162.307V97.5941H154.773Z" fill="#2E3192"/>
<path d="M166.426 97.5941V45.9766H192.514V52.8821H173.959V68.3674H192.514V75.273H173.959V97.5941H166.426Z" fill="#2E3192"/>
<path d="M197.675 75.552C199.698 85.3175 207.022 91.665 216.648 91.665C223.902 91.665 230.041 88.2471 233.668 81.3415H241.759C237.435 92.1533 227.599 98.5706 216.648 98.5706C201.721 98.5706 189.793 86.5033 189.793 71.7853C189.793 57.0673 202.209 45 216.648 45C231.087 45 243.503 57.0673 243.503 71.4365C243.503 73.1106 243.503 74.2964 243.224 75.552H197.675ZM235.691 68.6464C233.877 58.8112 226.553 51.9056 216.578 51.9056C206.604 51.9056 199.419 58.5322 197.605 68.6464H235.691Z" fill="#2E3192"/>
<path d="M80.5739 117.787H78.7812L82.813 106.592H84.7661L88.7978 117.787H87.0052L83.8384 108.629H83.7547L80.5879 117.787H80.5739ZM80.8739 113.407H86.6913V114.83H80.8739V113.407Z" fill="#2E3192"/>
<path d="M90.8624 117.787V106.592H94.8523C95.7173 106.592 96.4427 106.738 97.0147 107.038C97.5867 107.338 98.0191 107.75 98.3051 108.273C98.5911 108.796 98.7306 109.41 98.7306 110.093C98.7306 110.777 98.5841 111.384 98.2982 111.9C98.0122 112.423 97.5797 112.821 97.0077 113.114C96.4357 113.4 95.7103 113.546 94.8454 113.546H91.825V112.095H94.6919C95.236 112.095 95.6824 112.019 96.0312 111.858C96.373 111.705 96.631 111.475 96.7845 111.175C96.9449 110.875 97.0217 110.519 97.0217 110.1C97.0217 109.682 96.938 109.312 96.7775 108.998C96.6171 108.691 96.359 108.454 96.0172 108.287C95.6754 108.119 95.222 108.036 94.664 108.036H92.5435V117.78H90.8555L90.8624 117.787ZM96.3869 112.737L99.1561 117.787H97.2309L94.5175 112.737H96.3869Z" fill="#2E3192"/>
<path d="M100.695 108.05V106.599H109.359V108.05H105.864V117.788H104.183V108.05H100.695Z" fill="#2E3192"/>
<path d="M113.418 106.592V117.787H111.73V106.592H113.418Z" fill="#2E3192"/>
<path d="M116.344 117.787V106.592H123.284V108.043H118.032V111.454H122.789V112.904H118.032V117.787H116.344Z" fill="#2E3192"/>
<path d="M127.508 106.592V117.787H125.82V106.592H127.508Z" fill="#2E3192"/>
<path d="M139.732 110.233H138.03C137.967 109.87 137.842 109.55 137.66 109.271C137.479 108.992 137.263 108.761 137.005 108.566C136.747 108.371 136.454 108.224 136.14 108.127C135.819 108.029 135.484 107.98 135.128 107.98C134.487 107.98 133.908 108.141 133.398 108.468C132.889 108.796 132.492 109.271 132.199 109.891C131.906 110.519 131.759 111.286 131.759 112.186C131.759 113.086 131.906 113.867 132.199 114.495C132.492 115.123 132.896 115.597 133.405 115.918C133.915 116.239 134.487 116.399 135.128 116.399C135.484 116.399 135.819 116.351 136.14 116.253C136.461 116.155 136.747 116.016 137.005 115.82C137.263 115.625 137.486 115.402 137.66 115.123C137.835 114.844 137.967 114.53 138.037 114.174H139.739C139.648 114.732 139.474 115.235 139.209 115.695C138.951 116.155 138.616 116.553 138.211 116.888C137.807 117.222 137.339 117.481 136.816 117.662C136.293 117.843 135.728 117.934 135.114 117.934C134.145 117.934 133.28 117.704 132.526 117.243C131.766 116.783 131.173 116.12 130.734 115.262C130.301 114.404 130.078 113.379 130.078 112.186C130.078 110.994 130.294 109.961 130.734 109.103C131.173 108.245 131.766 107.583 132.526 107.122C133.287 106.662 134.145 106.432 135.114 106.432C135.707 106.432 136.265 106.515 136.781 106.683C137.298 106.85 137.758 107.101 138.17 107.429C138.581 107.757 138.923 108.155 139.195 108.622C139.467 109.089 139.648 109.626 139.739 110.226L139.732 110.233Z" fill="#2E3192"/>
<path d="M143.911 106.592V117.787H142.223V106.592H143.911Z" fill="#2E3192"/>
<path d="M147.773 117.787H145.98L150.012 106.592H151.965L155.997 117.787H154.204L151.038 108.629H150.954L147.787 117.787H147.773ZM148.073 113.407H153.891V114.83H148.073V113.407Z" fill="#2E3192"/>
<path d="M158.062 117.787V106.592H159.751V116.329H164.822V117.78H158.062V117.787Z" fill="#2E3192"/>
<path d="M171.746 117.787V106.592H173.434V116.329H178.505V117.78H171.746V117.787Z" fill="#2E3192"/>
<path d="M182.586 106.592V117.787H180.898V106.592H182.586Z" fill="#2E3192"/>
<path d="M185.508 117.787V106.592H192.448V108.043H187.196V111.454H191.953V112.904H187.196V117.787H185.508Z" fill="#2E3192"/>
<path d="M194.987 117.787V106.592H202.005V108.043H196.675V111.454H201.642V112.904H196.675V116.329H202.067V117.78H194.98L194.987 117.787Z" fill="#2E3192"/>
<path d="M81.313 123.556V134.751H79.625V123.556H81.313Z" fill="#2E3192"/>
<path d="M93.2744 123.556V134.751H91.7189L86.027 126.541H85.9224V134.751H84.2344V123.556H85.7969L91.4957 131.78H91.6003V123.556H93.2744Z" fill="#2E3192"/>
<path d="M102.301 126.5C102.245 125.983 102.001 125.579 101.582 125.293C101.157 125.007 100.627 124.86 99.9849 124.86C99.5245 124.86 99.1269 124.93 98.7921 125.077C98.4573 125.223 98.1992 125.418 98.0108 125.669C97.8295 125.921 97.7318 126.2 97.7318 126.52C97.7318 126.786 97.7946 127.016 97.9202 127.211C98.0457 127.406 98.2131 127.567 98.4154 127.692C98.6177 127.825 98.8409 127.929 99.0781 128.013C99.3152 128.097 99.5454 128.167 99.7617 128.222L100.857 128.508C101.213 128.592 101.582 128.711 101.959 128.864C102.336 129.011 102.684 129.213 103.005 129.457C103.326 129.701 103.584 130.001 103.786 130.364C103.982 130.727 104.086 131.159 104.086 131.661C104.086 132.296 103.926 132.861 103.598 133.349C103.27 133.845 102.803 134.228 102.182 134.514C101.561 134.8 100.815 134.94 99.943 134.94C99.0711 134.94 98.3805 134.807 97.7667 134.542C97.1529 134.277 96.6716 133.9 96.3298 133.405C95.988 132.91 95.7927 132.331 95.7578 131.661H97.4528C97.4877 132.066 97.6202 132.401 97.8504 132.673C98.0806 132.938 98.3805 133.14 98.7433 133.266C99.106 133.391 99.5036 133.461 99.936 133.461C100.41 133.461 100.836 133.384 101.213 133.231C101.589 133.077 101.882 132.868 102.098 132.596C102.315 132.324 102.419 132.01 102.419 131.64C102.419 131.306 102.329 131.04 102.14 130.824C101.952 130.615 101.701 130.441 101.38 130.301C101.059 130.162 100.703 130.043 100.299 129.931L98.9734 129.569C98.0736 129.325 97.3691 128.962 96.846 128.494C96.3228 128.02 96.0647 127.392 96.0647 126.611C96.0647 125.969 96.2391 125.404 96.5879 124.923C96.9366 124.442 97.411 124.065 98.0108 123.8C98.6107 123.535 99.2804 123.396 100.034 123.396C100.787 123.396 101.464 123.528 102.043 123.793C102.622 124.058 103.082 124.421 103.417 124.888C103.752 125.356 103.926 125.886 103.94 126.486H102.315L102.301 126.5Z" fill="#2E3192"/>
<path d="M106.012 125.014V123.563H114.675V125.014H111.18V134.751H109.499V125.014H106.012Z" fill="#2E3192"/>
<path d="M118.727 123.556V134.751H117.039V123.556H118.727Z" fill="#2E3192"/>
<path d="M121.098 125.014V123.563H129.761V125.014H126.266V134.751H124.585V125.014H121.098Z" fill="#2E3192"/>
<path d="M139.331 123.556H141.026V130.922C141.026 131.703 140.845 132.4 140.475 133C140.106 133.607 139.589 134.074 138.92 134.423C138.25 134.765 137.469 134.939 136.576 134.939C135.683 134.939 134.902 134.765 134.239 134.423C133.57 134.081 133.054 133.607 132.684 133C132.314 132.4 132.133 131.703 132.133 130.922V123.556H133.821V130.782C133.821 131.291 133.932 131.738 134.156 132.135C134.379 132.533 134.7 132.84 135.111 133.063C135.523 133.286 136.011 133.398 136.576 133.398C137.141 133.398 137.636 133.286 138.048 133.063C138.459 132.84 138.78 132.533 138.997 132.135C139.22 131.745 139.324 131.291 139.324 130.782V123.556H139.331Z" fill="#2E3192"/>
<path d="M143.398 125.014V123.563H152.062V125.014H148.567V134.751H146.886V125.014H143.398Z" fill="#2E3192"/>
<path d="M154.429 134.751V123.556H161.446V125.007H156.117V128.417H161.083V129.868H156.117V133.293H161.509V134.744H154.422L154.429 134.751Z" fill="#2E3192"/>
</svg>
