<svg width="1173" height="644" viewBox="0 0 1173 644" fill="none" xmlns="http://www.w3.org/2000/svg">
<circle cx="746" cy="6" r="6" fill="#4D50A1"/>
<circle cx="755" cy="16" r="6" fill="#4D50A1"/>
<circle cx="762" cy="26" r="6" fill="#4D50A1"/>
<circle cx="770" cy="37" r="6" fill="#4D50A1"/>
<circle cx="751" cy="39" r="6" fill="#4D50A1"/>
<circle cx="758" cy="51" r="6" fill="#4D50A1"/>
<circle cx="766" cy="64" r="6" fill="#4D50A1"/>
<circle cx="784" cy="83" r="6" fill="#4D50A1"/>
<circle cx="753" cy="70" r="6" fill="#4D50A1"/>
<circle cx="767" cy="80" r="6" fill="#4D50A1"/>
<circle cx="816" cy="96" r="6" fill="#4D50A1"/>
<circle cx="814" cy="108" r="6" fill="#4D50A1"/>
<circle cx="800" cy="94" r="6" fill="#4D50A1"/>
<circle cx="784" cy="95" r="6" fill="#4D50A1"/>
<circle cx="770" cy="95" r="6" fill="#4D50A1"/>
<circle cx="813" cy="120" r="6" fill="#4D50A1"/>
<circle cx="804" cy="131" r="6" fill="#4D50A1"/>
<circle cx="793" cy="143" r="6" fill="#4D50A1"/>
<circle cx="791" cy="160" r="6" fill="#4D50A1"/>
<circle cx="778" cy="154" r="6" fill="#4D50A1"/>
<circle cx="795" cy="120" r="6" fill="#4D50A1"/>
<circle cx="786" cy="131" r="6" fill="#4D50A1"/>
<circle cx="775" cy="140" r="6" fill="#4D50A1"/>
<circle cx="798" cy="108" r="6" fill="#4D50A1"/>
<circle cx="782" cy="108" r="6" fill="#4D50A1"/>
<circle cx="756" cy="87" r="6" fill="#4D50A1"/>
<circle cx="772" cy="52" r="6" fill="#4D50A1"/>
<circle cx="780" cy="71" r="6" fill="#4D50A1"/>
<circle cx="798" cy="79" r="6" fill="#4D50A1"/>
<circle cx="784" cy="50" r="6" fill="#4D50A1"/>
<circle cx="791" cy="62" r="6" fill="#4D50A1"/>
<circle cx="804" cy="65" r="6" fill="#4D50A1"/>
<circle cx="813" cy="82" r="6" fill="#4D50A1"/>
<circle cx="820" cy="70" r="6" fill="#4D50A1"/>
<circle cx="835" cy="79" r="6" fill="#4D50A1"/>
<circle cx="828" cy="89" r="6" fill="#4D50A1"/>
<circle cx="847" cy="116" r="6" fill="#4D50A1"/>
<circle cx="830" cy="115" r="6" fill="#4D50A1"/>
<circle cx="867" cy="108" r="6" fill="#4D50A1"/>
<circle cx="847" cy="102" r="6" fill="#4D50A1"/>
<circle cx="834" cy="102" r="6" fill="#4D50A1"/>
<circle cx="849" cy="84" r="6" fill="#4D50A1"/>
<circle cx="858" cy="95" r="6" fill="#4D50A1"/>
<circle cx="859" cy="68" r="6" fill="#4D50A1"/>
<circle cx="744" cy="52" r="6" fill="#4D50A1"/>
<circle cx="741" cy="68" r="6" fill="#4D50A1"/>
<circle cx="737" cy="82" r="6" fill="#4D50A1"/>
<circle cx="732" cy="94" r="6" fill="#4D50A1"/>
<circle cx="736" cy="109" r="6" fill="#4D50A1"/>
<circle cx="728" cy="136" r="6" fill="#4D50A1"/>
<circle cx="728" cy="125" r="6" fill="#4D50A1"/>
<circle cx="720" cy="115" r="6" fill="#4D50A1"/>
<circle cx="698" cy="110" r="6" fill="#4D50A1"/>
<circle cx="710" cy="123" r="6" fill="#4D50A1"/>
<circle cx="698" cy="128" r="6" fill="#4D50A1"/>
<circle cx="681" cy="139" r="6" fill="#4D50A1"/>
<circle cx="673" cy="154" r="6" fill="#4D50A1"/>
<circle cx="688" cy="161" r="6" fill="#4D50A1"/>
<circle cx="691" cy="176" r="6" fill="#4D50A1"/>
<circle cx="685" cy="187" r="6" fill="#4D50A1"/>
<circle cx="723" cy="221" r="6" fill="#4D50A1"/>
<circle cx="682" cy="231" r="6" fill="#4D50A1"/>
<circle cx="692" cy="238" r="6" fill="#4D50A1"/>
<circle cx="684" cy="250" r="6" fill="#4D50A1"/>
<circle cx="679" cy="263" r="6" fill="#4D50A1"/>
<circle cx="703" cy="242" r="6" fill="#4D50A1"/>
<circle cx="709" cy="255" r="6" fill="#4D50A1"/>
<circle cx="693" cy="270" r="6" fill="#4D50A1"/>
<circle cx="687" cy="283" r="6" fill="#4D50A1"/>
<circle cx="682" cy="297" r="6" fill="#4D50A1"/>
<circle cx="678" cy="311" r="6" fill="#4D50A1"/>
<circle cx="682" cy="357" r="6" fill="#4D50A1"/>
<circle cx="696" cy="293" r="6" fill="#4D50A1"/>
<circle cx="693" cy="309" r="6" fill="#4D50A1"/>
<circle cx="669" cy="352" r="6" fill="#4D50A1"/>
<circle cx="699" cy="323" r="6" fill="#4D50A1"/>
<circle cx="623" cy="348" r="6" fill="#4D50A1"/>
<circle cx="668" cy="327" r="6" fill="#4D50A1"/>
<circle cx="648" cy="357" r="6" fill="#4D50A1"/>
<circle cx="664" cy="342" r="6" fill="#4D50A1"/>
<circle cx="672" cy="372" r="6" fill="#4D50A1"/>
<circle cx="701" cy="347" r="6" fill="#4D50A1"/>
<circle cx="657" cy="376" r="6" fill="#4D50A1"/>
<circle cx="645" cy="383" r="6" fill="#4D50A1"/>
<circle cx="645" cy="398" r="6" fill="#4D50A1"/>
<circle cx="709" cy="362" r="6" fill="#4D50A1"/>
<circle cx="630" cy="378" r="6" fill="#4D50A1"/>
<circle cx="632" cy="395" r="6" fill="#4D50A1"/>
<circle cx="620" cy="391" r="6" fill="#4D50A1"/>
<circle cx="611" cy="399" r="6" fill="#4D50A1"/>
<circle cx="601" cy="413" r="6" fill="#4D50A1"/>
<circle cx="597" cy="399" r="6" fill="#4D50A1"/>
<circle cx="587" cy="410" r="6" fill="#4D50A1"/>
<circle cx="599" cy="427" r="6" fill="#4D50A1"/>
<circle cx="571" cy="406" r="6" fill="#4D50A1"/>
<circle cx="580" cy="420" r="6" fill="#4D50A1"/>
<circle cx="563" cy="417" r="6" fill="#4D50A1"/>
<circle cx="587" cy="434" r="6" fill="#4D50A1"/>
<circle cx="597" cy="444" r="6" fill="#4D50A1"/>
<circle cx="609" cy="455" r="6" fill="#4D50A1"/>
<circle cx="619" cy="463" r="6" fill="#4D50A1"/>
<circle cx="620" cy="476" r="6" fill="#4D50A1"/>
<circle cx="613" cy="488" r="6" fill="#4D50A1"/>
<circle cx="569" cy="430" r="6" fill="#4D50A1"/>
<circle cx="552" cy="428" r="6" fill="#4D50A1"/>
<circle cx="544" cy="441" r="6" fill="#4D50A1"/>
<circle cx="546" cy="478" r="6" fill="#4D50A1"/>
<circle cx="507" cy="494" r="6" fill="#4D50A1"/>
<circle cx="522" cy="484" r="6" fill="#4D50A1"/>
<circle cx="563" cy="479" r="6" fill="#4D50A1"/>
<circle cx="563" cy="507" r="6" fill="#4D50A1"/>
<circle cx="554" cy="495" r="6" fill="#4D50A1"/>
<circle cx="545" cy="518" r="6" fill="#4D50A1"/>
<circle cx="541" cy="505" r="6" fill="#4D50A1"/>
<circle cx="532" cy="520" r="6" fill="#4D50A1"/>
<circle cx="513" cy="519" r="6" fill="#4D50A1"/>
<circle cx="521" cy="509" r="6" fill="#4D50A1"/>
<circle cx="528" cy="497" r="6" fill="#4D50A1"/>
<circle cx="540" cy="491" r="6" fill="#D6B870"/>
<circle cx="533" cy="537" r="6" fill="#4D50A1"/>
<circle cx="521" cy="532" r="6" fill="#4D50A1"/>
<circle cx="556" cy="468" r="6" fill="#4D50A1"/>
<circle cx="536" cy="461" r="6" fill="#4D50A1"/>
<circle cx="531" cy="475" r="6" fill="#4D50A1"/>
<circle cx="522" cy="464" r="6" fill="#4D50A1"/>
<circle cx="501" cy="482" r="6" fill="#4D50A1"/>
<circle cx="488" cy="485" r="6" fill="#4D50A1"/>
<circle cx="468" cy="532" r="6" fill="#4D50A1"/>
<circle cx="467" cy="517" r="6" fill="#4D50A1"/>
<circle cx="451" cy="540" r="6" fill="#4D50A1"/>
<circle cx="455" cy="526" r="6" fill="#4D50A1"/>
<circle cx="428" cy="531" r="6" fill="#4D50A1"/>
<circle cx="439" cy="533" r="6" fill="#4D50A1"/>
<circle cx="425" cy="558" r="6" fill="#4D50A1"/>
<circle cx="428" cy="570" r="6" fill="#4D50A1"/>
<circle cx="438" cy="552" r="6" fill="#4D50A1"/>
<circle cx="424" cy="545" r="6" fill="#4D50A1"/>
<circle cx="403" cy="531" r="6" fill="#4D50A1"/>
<circle cx="485" cy="530" r="6" fill="#4D50A1"/>
<circle cx="474" cy="543" r="6" fill="#4D50A1"/>
<circle cx="477" cy="510" r="6" fill="#4D50A1"/>
<circle cx="509" cy="473" r="6" fill="#4D50A1"/>
<circle cx="511" cy="457" r="6" fill="#4D50A1"/>
<circle cx="491" cy="469" r="6" fill="#4D50A1"/>
<circle cx="477" cy="479" r="6" fill="#4D50A1"/>
<circle cx="455" cy="501" r="6" fill="#4D50A1"/>
<circle cx="432" cy="513" r="6" fill="#4D50A1"/>
<circle cx="417" cy="507" r="6" fill="#4D50A1"/>
<circle cx="457" cy="489" r="6" fill="#4D50A1"/>
<circle cx="439" cy="501" r="6" fill="#4D50A1"/>
<circle cx="471" cy="493" r="6" fill="#4D50A1"/>
<circle cx="499" cy="457" r="6" fill="#4D50A1"/>
<circle cx="483" cy="459" r="6" fill="#4D50A1"/>
<circle cx="471" cy="468" r="6" fill="#4D50A1"/>
<circle cx="457" cy="478" r="6" fill="#4D50A1"/>
<circle cx="439" cy="489" r="6" fill="#4D50A1"/>
<circle cx="437" cy="478" r="6" fill="#4D50A1"/>
<circle cx="424" cy="495" r="6" fill="#4D50A1"/>
<circle cx="420" cy="481" r="6" fill="#4D50A1"/>
<circle cx="397" cy="495" r="6" fill="#4D50A1"/>
<circle cx="384" cy="505" r="6" fill="#4D50A1"/>
<circle cx="377" cy="518" r="6" fill="#4D50A1"/>
<circle cx="367" cy="545" r="6" fill="#4D50A1"/>
<circle cx="369" cy="559" r="6" fill="#4D50A1"/>
<circle cx="356" cy="564" r="6" fill="#4D50A1"/>
<circle cx="351" cy="551" r="6" fill="#4D50A1"/>
<circle cx="324" cy="571" r="6" fill="#4D50A1"/>
<circle cx="318" cy="553" r="6" fill="#4D50A1"/>
<circle cx="308" cy="510" r="6" fill="#4D50A1"/>
<circle cx="292" cy="571" r="6" fill="#4D50A1"/>
<circle cx="340" cy="568" r="6" fill="#4D50A1"/>
<circle cx="336" cy="587" r="6" fill="#4D50A1"/>
<circle cx="334" cy="556" r="6" fill="#4D50A1"/>
<circle cx="334" cy="544" r="6" fill="#4D50A1"/>
<circle cx="366" cy="512" r="6" fill="#4D50A1"/>
<circle cx="360" cy="530" r="6" fill="#4D50A1"/>
<circle cx="350" cy="537" r="6" fill="#4D50A1"/>
<circle cx="409" cy="488" r="6" fill="#4D50A1"/>
<circle cx="404" cy="507" r="6" fill="#4D50A1"/>
<circle cx="394" cy="516" r="6" fill="#4D50A1"/>
<circle cx="382" cy="547" r="6" fill="#4D50A1"/>
<circle cx="392" cy="571" r="6" fill="#4D50A1"/>
<circle cx="384" cy="582" r="6" fill="#4D50A1"/>
<circle cx="382" cy="563" r="6" fill="#4D50A1"/>
<circle cx="368" cy="574" r="6" fill="#4D50A1"/>
<circle cx="355" cy="580" r="6" fill="#4D50A1"/>
<circle cx="335" cy="611" r="6" fill="#4D50A1"/>
<circle cx="353" cy="613" r="6" fill="#4D50A1"/>
<circle cx="357" cy="638" r="6" fill="#4D50A1"/>
<circle cx="343" cy="628" r="6" fill="#4D50A1"/>
<circle cx="369" cy="610" r="6" fill="#4D50A1"/>
<circle cx="361" cy="626" r="6" fill="#4D50A1"/>
<circle cx="374" cy="622" r="6" fill="#4D50A1"/>
<circle cx="347" cy="597" r="6" fill="#4D50A1"/>
<circle cx="379" cy="600" r="6" fill="#4D50A1"/>
<circle cx="370" cy="588" r="6" fill="#4D50A1"/>
<circle cx="360" cy="598" r="6" fill="#4D50A1"/>
<circle cx="459" cy="464" r="6" fill="#4D50A1"/>
<circle cx="444" cy="466" r="6" fill="#4D50A1"/>
<circle cx="425" cy="468" r="6" fill="#4D50A1"/>
<circle cx="558" cy="442" r="6" fill="#4D50A1"/>
<circle cx="548" cy="457" r="6" fill="#4D50A1"/>
<circle cx="574" cy="443" r="6" fill="#4D50A1"/>
<circle cx="565" cy="455" r="6" fill="#4D50A1"/>
<circle cx="582" cy="453" r="6" fill="#4D50A1"/>
<circle cx="575" cy="469" r="6" fill="#4D50A1"/>
<circle cx="595" cy="458" r="6" fill="#4D50A1"/>
<circle cx="588" cy="469" r="6" fill="#4D50A1"/>
<circle cx="603" cy="472" r="6" fill="#4D50A1"/>
<circle cx="587" cy="484" r="6" fill="#4D50A1"/>
<circle cx="600" cy="488" r="6" fill="#4D50A1"/>
<circle cx="569" cy="391" r="6" fill="#4D50A1"/>
<circle cx="576" cy="378" r="6" fill="#4D50A1"/>
<circle cx="615" cy="414" r="6" fill="#4D50A1"/>
<circle cx="622" cy="428" r="6" fill="#4D50A1"/>
<circle cx="634" cy="440" r="6" fill="#4D50A1"/>
<circle cx="638" cy="465" r="6" fill="#4D50A1"/>
<circle cx="641" cy="476" r="6" fill="#4D50A1"/>
<circle cx="644" cy="489" r="6" fill="#4D50A1"/>
<circle cx="632" cy="454" r="6" fill="#4D50A1"/>
<circle cx="621" cy="444" r="6" fill="#4D50A1"/>
<circle cx="610" cy="436" r="6" fill="#4D50A1"/>
<circle cx="696" cy="359" r="6" fill="#4D50A1"/>
<circle cx="643" cy="369" r="6" fill="#4D50A1"/>
<circle cx="681" cy="343" r="6" fill="#4D50A1"/>
<circle cx="667" cy="386" r="6" fill="#4D50A1"/>
<circle cx="660" cy="398" r="6" fill="#4D50A1"/>
<circle cx="692" cy="335" r="6" fill="#4D50A1"/>
<circle cx="686" cy="372" r="6" fill="#4D50A1"/>
<circle cx="682" cy="323" r="6" fill="#4D50A1"/>
<circle cx="660" cy="362" r="6" fill="#4D50A1"/>
<circle cx="707" cy="309" r="6" fill="#4D50A1"/>
<circle cx="699" cy="376" r="6" fill="#4D50A1"/>
<circle cx="709" cy="338" r="6" fill="#4D50A1"/>
<circle cx="680" cy="386" r="6" fill="#4D50A1"/>
<circle cx="673" cy="404" r="6" fill="#4D50A1"/>
<circle cx="720" cy="301" r="6" fill="#4D50A1"/>
<circle cx="696" cy="257" r="6" fill="#4D50A1"/>
<circle cx="717" cy="243" r="6" fill="#4D50A1"/>
<circle cx="726" cy="260" r="6" fill="#4D50A1"/>
<circle cx="731" cy="273" r="6" fill="#4D50A1"/>
<circle cx="714" cy="268" r="6" fill="#4D50A1"/>
<circle cx="704" cy="277" r="6" fill="#4D50A1"/>
<circle cx="719" cy="282" r="6" fill="#4D50A1"/>
<circle cx="711" cy="292" r="6" fill="#4D50A1"/>
<circle cx="728" cy="237" r="6" fill="#4D50A1"/>
<circle cx="735" cy="249" r="6" fill="#4D50A1"/>
<circle cx="742" cy="264" r="6" fill="#4D50A1"/>
<circle cx="745" cy="281" r="6" fill="#4D50A1"/>
<circle cx="732" cy="290" r="6" fill="#4D50A1"/>
<circle cx="739" cy="299" r="6" fill="#4D50A1"/>
<circle cx="727" cy="312" r="6" fill="#4D50A1"/>
<circle cx="711" cy="381" r="6" fill="#4D50A1"/>
<circle cx="726" cy="329" r="6" fill="#4D50A1"/>
<circle cx="694" cy="389" r="6" fill="#4D50A1"/>
<circle cx="687" cy="402" r="6" fill="#4D50A1"/>
<circle cx="686" cy="420" r="6" fill="#4D50A1"/>
<circle cx="697" cy="449" r="6" fill="#4D50A1"/>
<circle cx="697" cy="436" r="6" fill="#4D50A1"/>
<circle cx="684" cy="436" r="6" fill="#4D50A1"/>
<circle cx="671" cy="433" r="6" fill="#4D50A1"/>
<circle cx="658" cy="431" r="6" fill="#4D50A1"/>
<circle cx="663" cy="446" r="6" fill="#4D50A1"/>
<circle cx="688" cy="464" r="6" fill="#4D50A1"/>
<circle cx="678" cy="474" r="6" fill="#4D50A1"/>
<circle cx="667" cy="461" r="6" fill="#4D50A1"/>
<circle cx="645" cy="431" r="6" fill="#4D50A1"/>
<circle cx="649" cy="447" r="6" fill="#4D50A1"/>
<circle cx="653" cy="462" r="6" fill="#4D50A1"/>
<circle cx="636" cy="422" r="6" fill="#4D50A1"/>
<circle cx="678" cy="449" r="6" fill="#D6B870"/>
<circle cx="673" cy="418" r="6" fill="#4D50A1"/>
<circle cx="660" cy="415" r="6" fill="#4D50A1"/>
<circle cx="647" cy="411" r="6" fill="#4D50A1"/>
<circle cx="629" cy="410" r="6" fill="#4D50A1"/>
<circle cx="697" cy="414" r="6" fill="#4D50A1"/>
<circle cx="714" cy="323" r="6" fill="#4D50A1"/>
<circle cx="704" cy="398" r="6" fill="#4D50A1"/>
<circle cx="711" cy="226" r="6" fill="#4D50A1"/>
<circle cx="697" cy="222" r="6" fill="#4D50A1"/>
<circle cx="722" cy="203" r="6" fill="#4D50A1"/>
<circle cx="697" cy="209" r="6" fill="#4D50A1"/>
<circle cx="704" cy="169" r="6" fill="#4D50A1"/>
<circle cx="695" cy="139" r="6" fill="#4D50A1"/>
<circle cx="714" cy="142" r="6" fill="#4D50A1"/>
<circle cx="766" cy="129" r="6" fill="#4D50A1"/>
<circle cx="763" cy="146" r="6" fill="#4D50A1"/>
<circle cx="755" cy="122" r="6" fill="#4D50A1"/>
<circle cx="742" cy="124" r="6" fill="#4D50A1"/>
<circle cx="750" cy="137" r="6" fill="#4D50A1"/>
<circle cx="747" cy="94" r="6" fill="#4D50A1"/>
<circle cx="764" cy="108" r="6" fill="#4D50A1"/>
<circle cx="776" cy="119" r="6" fill="#4D50A1"/>
<circle cx="751" cy="106" r="6" fill="#4D50A1"/>
<circle cx="745" cy="26" r="6" fill="#4D50A1"/>
<path d="M679 448.125L728.332 405H910.832" stroke="#D6B870"/>
<path d="M925.512 388.176C920.424 388.176 917.64 390.72 916.632 396.096H915.864L916.248 386.4H916.824C917.016 387.264 917.352 387.36 918.888 387.36H942.936C944.424 387.36 944.76 387.264 945 386.4H945.576L945.96 396.096H945.192C944.184 390.72 941.4 388.176 936.312 388.176H933.768V416.112C933.768 418.8 934.344 419.184 939.192 419.184V420H922.632V419.184C927.48 419.184 928.056 418.8 928.056 416.112V388.176H925.512ZM955.309 420.672C948.589 420.672 943.837 415.968 943.837 408.672C943.837 401.376 948.589 396.672 955.309 396.672C962.077 396.672 966.829 401.376 966.829 408.672C966.829 415.968 962.077 420.672 955.309 420.672ZM949.789 407.712C949.789 414.144 951.853 419.856 955.645 419.856C958.237 419.856 960.829 417.36 960.829 409.68C960.829 403.2 958.813 397.488 955.021 397.488C952.429 397.488 949.789 399.984 949.789 407.712ZM967.833 419.184C970.377 419.184 970.809 418.8 970.809 416.64V391.536C970.809 388.656 970.425 388.272 967.737 388.608V388.032L975.417 385.92H975.801V409.536L984.489 401.856C985.497 400.992 985.929 400.224 985.929 399.648C985.929 398.592 984.393 398.064 981.561 398.064V397.248H992.217V398.064C990.825 398.064 989.481 398.688 985.497 402.24L981.225 406.032L989.769 416.928C991.065 418.56 991.689 419.184 992.217 419.184V420H981.609V419.184C983.289 419.184 984.057 418.896 984.057 418.176C984.057 417.84 983.865 417.36 983.433 416.832L977.481 409.344L975.801 410.784V416.64C975.801 418.8 976.329 419.184 978.633 419.184V420H967.833V419.184ZM995.28 430.32C992.448 430.32 990.432 428.736 990.432 426.48C990.432 424.608 991.584 423.504 993.264 423.504C995.808 423.504 995.616 426.768 997.872 428.496C999.888 427.344 1001.23 425.664 1003.39 420.528L994.416 400.08C993.744 398.448 993.36 398.064 992.256 398.064V397.248H1003.58V398.064C1001.28 398.064 1000.27 398.4 1000.27 399.6C1000.27 400.224 1000.56 401.04 1000.99 402.192L1005.94 414.24L1010.5 402.72C1010.98 401.472 1011.26 400.56 1011.26 399.888C1011.26 398.352 1009.92 398.064 1006.99 398.064V397.248H1015.06V398.064C1013.81 398.064 1013.23 398.4 1012.03 401.52L1004.45 420.768C1001.76 427.584 999.216 430.32 995.28 430.32ZM1026.36 420.672C1019.64 420.672 1014.89 415.968 1014.89 408.672C1014.89 401.376 1019.64 396.672 1026.36 396.672C1033.13 396.672 1037.88 401.376 1037.88 408.672C1037.88 415.968 1033.13 420.672 1026.36 420.672ZM1020.84 407.712C1020.84 414.144 1022.91 419.856 1026.7 419.856C1029.29 419.856 1031.88 417.36 1031.88 409.68C1031.88 403.2 1029.87 397.488 1026.08 397.488C1023.48 397.488 1020.84 399.984 1020.84 407.712ZM1066.01 420.672C1055.97 420.672 1048.58 413.856 1048.58 403.68C1048.58 393.504 1055.97 386.688 1066.01 386.688C1076.04 386.688 1083.38 393.504 1083.38 403.68C1083.38 413.856 1076.04 420.672 1066.01 420.672ZM1055.25 403.68C1055.25 413.808 1059.48 419.856 1066.01 419.856C1072.53 419.856 1076.71 413.808 1076.71 403.68C1076.71 393.552 1072.53 387.504 1066.01 387.504C1059.48 387.504 1055.25 393.552 1055.25 403.68ZM1085.23 419.184C1088.97 419.184 1089.6 418.896 1089.6 416.496V398.064H1085.23V397.248H1089.6C1089.84 390.048 1094.35 385.44 1101.45 385.44C1104.91 385.44 1107.64 386.4 1108.94 388.08C1110.96 386.304 1113.64 385.44 1116.76 385.44C1122.19 385.44 1125.26 387.36 1125.26 390.192C1125.26 392.016 1124.06 393.216 1122.33 393.216C1120.99 393.216 1120.03 392.688 1119.55 391.392C1118.97 389.808 1119.07 387.6 1118.59 386.4C1117.77 386.208 1117.29 386.16 1116.52 386.16C1112.25 386.16 1109.95 389.472 1109.95 394.896C1109.95 395.472 1110 396.288 1110.14 397.248H1124.16L1125.45 396.96H1125.88V416.592C1125.88 418.608 1126.36 419.184 1129.05 419.184V420H1117.63V419.184C1120.36 419.184 1120.89 418.608 1120.89 416.592V400.608C1120.89 398.16 1120.27 398.064 1117.44 398.064H1110.24V416.496C1110.24 418.8 1110.81 419.184 1114.46 419.184V420H1100.88V419.184C1104.62 419.184 1105.24 418.896 1105.24 416.496V398.064H1094.59V416.496C1094.59 418.8 1095.26 419.184 1098.57 419.184V420H1085.23V419.184ZM1094.3 394.896C1094.3 395.616 1094.35 396.288 1094.49 397.248H1105.24C1105.29 395.76 1105.48 394.464 1105.82 393.264C1105.1 393.024 1104.52 392.496 1104.24 391.632C1103.71 390 1103.71 387.888 1103.32 386.736C1102.41 386.256 1101.93 386.16 1100.83 386.16C1096.84 386.16 1094.3 389.472 1094.3 394.896ZM1140.77 420.672C1134.43 420.672 1130.35 416.16 1130.35 409.152C1130.35 401.616 1135.01 396.672 1141.73 396.672C1146.43 396.672 1149.55 399.12 1149.55 402.672C1149.55 405.024 1148.3 406.512 1146.29 406.512C1144.51 406.512 1143.21 405.408 1143.21 403.632C1143.21 401.184 1144.99 400.224 1145.66 398.4C1144.94 397.824 1143.74 397.536 1142.3 397.536C1137.65 397.536 1134.72 401.184 1134.72 406.944C1134.72 412.608 1137.69 415.92 1142.45 415.92C1145.33 415.92 1147.73 414.576 1148.78 412.176L1149.26 412.368C1148.35 417.888 1145.61 420.672 1140.77 420.672ZM1162.15 420.672C1155.82 420.672 1151.74 416.112 1151.74 409.152C1151.74 401.568 1155.72 396.672 1162.3 396.672C1168.06 396.672 1171.23 399.936 1171.13 405.696H1156.15C1156.11 406.08 1156.11 406.464 1156.11 406.896C1156.11 412.656 1159.08 415.92 1163.83 415.92C1166.71 415.92 1169.11 414.576 1170.17 412.176L1170.65 412.368C1169.74 417.888 1167 420.672 1162.15 420.672ZM1156.2 404.88H1166.09C1166.09 400.272 1164.75 397.44 1161.67 397.44C1158.65 397.44 1156.63 400.176 1156.2 404.88Z" fill="#D6B870"/>
<path d="M1.728 377.184C5.664 377.184 6.144 376.656 6.144 373.776V349.584C6.144 346.608 5.76 346.176 1.728 346.176V345.36H16.128V346.176C12.384 346.176 11.856 346.512 11.856 349.248V362.88L24.432 351.792C26.208 350.16 27.072 348.96 27.072 348.048C27.072 346.752 25.344 346.176 22.08 346.176V345.36H34.368V346.176C32.928 346.176 30.864 347.376 26.832 350.976L18.192 358.656L31.488 374.592C33.216 376.704 33.84 377.184 34.368 377.184V378H20.784V377.184C23.328 377.184 24.432 376.848 24.432 375.984C24.432 375.456 24 374.736 23.232 373.776L13.968 362.4L11.856 364.272V374.064C11.856 376.752 12.288 377.184 15.936 377.184V378H1.728V377.184ZM34.8319 388.32C31.9999 388.32 29.9839 386.736 29.9839 384.48C29.9839 382.608 31.1359 381.504 32.8159 381.504C35.3599 381.504 35.1679 384.768 37.4239 386.496C39.4399 385.344 40.7839 383.664 42.9439 378.528L33.9679 358.08C33.2959 356.448 32.9119 356.064 31.8079 356.064V355.248H43.1359V356.064C40.8319 356.064 39.8239 356.4 39.8239 357.6C39.8239 358.224 40.1119 359.04 40.5439 360.192L45.4879 372.24L50.0479 360.72C50.5279 359.472 50.8159 358.56 50.8159 357.888C50.8159 356.352 49.4719 356.064 46.5439 356.064V355.248H54.6079V356.064C53.3599 356.064 52.7839 356.4 51.5839 359.52L43.9999 378.768C41.3119 385.584 38.7679 388.32 34.8319 388.32ZM65.916 378.672C59.196 378.672 54.444 373.968 54.444 366.672C54.444 359.376 59.196 354.672 65.916 354.672C72.684 354.672 77.436 359.376 77.436 366.672C77.436 373.968 72.684 378.672 65.916 378.672ZM60.396 365.712C60.396 372.144 62.46 377.856 66.252 377.856C68.844 377.856 71.436 375.36 71.436 367.68C71.436 361.2 69.42 355.488 65.628 355.488C63.036 355.488 60.396 357.984 60.396 365.712ZM87.9443 378.48C84.3443 378.48 82.0883 376.08 82.0883 371.808V356.064H78.0083V355.248C83.8163 354.96 85.8323 352.656 86.3123 348.432H87.0803V355.248H93.8003V356.064H87.0803V371.424C87.0803 373.968 88.2323 375.504 90.5363 375.504C92.5523 375.504 93.7523 374.64 94.8083 373.296L95.2403 373.632C93.1283 377.04 91.0163 378.48 87.9443 378.48ZM106.958 378.672C100.238 378.672 95.4859 373.968 95.4859 366.672C95.4859 359.376 100.238 354.672 106.958 354.672C113.726 354.672 118.478 359.376 118.478 366.672C118.478 373.968 113.726 378.672 106.958 378.672ZM101.438 365.712C101.438 372.144 103.502 377.856 107.294 377.856C109.886 377.856 112.478 375.36 112.478 367.68C112.478 361.2 110.462 355.488 106.67 355.488C104.078 355.488 101.438 357.984 101.438 365.712ZM149.143 377.184C153.079 377.184 153.559 376.656 153.559 373.776V361.44H138.919V373.776C138.919 376.656 139.447 377.184 143.383 377.184V378H128.791V377.184C132.727 377.184 133.207 376.656 133.207 373.776V349.584C133.207 346.608 132.823 346.176 128.791 346.176V345.36H143.383V346.176C139.351 346.176 138.919 346.608 138.919 349.584V360.624H153.559V349.584C153.559 346.608 153.175 346.176 149.143 346.176V345.36H163.735V346.176C159.703 346.176 159.319 346.608 159.319 349.584V373.776C159.319 376.656 159.799 377.184 163.735 377.184V378H149.143V377.184ZM188.361 388.368C184.233 388.368 181.497 385.968 181.497 382.176C181.497 380.784 181.929 379.632 182.601 378.672C172.809 378.432 165.657 371.664 165.657 361.68C165.657 351.504 173.049 344.688 183.081 344.688C193.113 344.688 200.457 351.504 200.457 361.68C200.457 371.808 193.161 378.624 183.225 378.672C182.985 379.248 182.937 379.92 182.937 380.496C182.937 383.136 184.953 384.48 188.601 384.48C192.777 384.48 194.409 382.368 194.409 379.152H194.937C195.705 384.96 193.209 388.368 188.361 388.368ZM172.329 361.68C172.329 371.808 176.553 377.856 183.081 377.856C189.609 377.856 193.785 371.808 193.785 361.68C193.785 351.552 189.609 345.504 183.081 345.504C176.553 345.504 172.329 351.552 172.329 361.68Z" fill="#D6B870"/>
<path d="M67.5813 400.537C67.4783 400.214 67.3398 399.925 67.1658 399.669C66.9954 399.41 66.7912 399.19 66.5533 399.009C66.3153 398.824 66.0437 398.684 65.7383 398.588C65.4364 398.492 65.1044 398.444 64.7422 398.444C64.1278 398.444 63.5739 398.602 63.0803 398.918C62.5866 399.234 62.196 399.697 61.9084 400.308C61.6243 400.915 61.4822 401.659 61.4822 402.54C61.4822 403.424 61.6261 404.172 61.9137 404.783C62.2013 405.393 62.5955 405.857 63.0962 406.173C63.5969 406.489 64.1669 406.647 64.8061 406.647C65.3991 406.647 65.9158 406.526 66.3562 406.285C66.8001 406.043 67.1428 405.702 67.3842 405.262C67.6293 404.818 67.7518 404.296 67.7518 403.696L68.1779 403.776H65.0565V402.418H69.3445V403.659C69.3445 404.575 69.1491 405.37 68.7585 406.045C68.3714 406.716 67.8352 407.235 67.1499 407.6C66.468 407.966 65.6868 408.149 64.8061 408.149C63.8189 408.149 62.9524 407.922 62.2067 407.467C61.4645 407.013 60.8857 406.368 60.4702 405.534C60.0547 404.696 59.8469 403.701 59.8469 402.551C59.8469 401.681 59.9677 400.9 60.2092 400.207C60.4506 399.515 60.7898 398.927 61.2266 398.444C61.6669 397.957 62.1836 397.586 62.7766 397.331C63.3732 397.071 64.0249 396.942 64.7315 396.942C65.321 396.942 65.8697 397.029 66.3775 397.203C66.8888 397.377 67.3434 397.624 67.7411 397.943C68.1424 398.263 68.4744 398.643 68.7372 399.083C69 399.52 69.1776 400.005 69.2699 400.537H67.5813ZM80.4601 402.545C80.4601 403.71 80.247 404.712 79.8209 405.55C79.3947 406.384 78.8106 407.027 78.0684 407.478C77.3297 407.925 76.4899 408.149 75.5488 408.149C74.6042 408.149 73.7608 407.925 73.0187 407.478C72.28 407.027 71.6976 406.382 71.2715 405.544C70.8454 404.706 70.6323 403.707 70.6323 402.545C70.6323 401.381 70.8454 400.381 71.2715 399.547C71.6976 398.708 72.28 398.066 73.0187 397.618C73.7608 397.167 74.6042 396.942 75.5488 396.942C76.4899 396.942 77.3297 397.167 78.0684 397.618C78.8106 398.066 79.3947 398.708 79.8209 399.547C80.247 400.381 80.4601 401.381 80.4601 402.545ZM78.8301 402.545C78.8301 401.658 78.6863 400.91 78.3986 400.303C78.1145 399.692 77.7239 399.23 77.2268 398.918C76.7332 398.602 76.1738 398.444 75.5488 398.444C74.9203 398.444 74.3592 398.602 73.8656 398.918C73.372 399.23 72.9814 399.692 72.6937 400.303C72.4096 400.91 72.2676 401.658 72.2676 402.545C72.2676 403.433 72.4096 404.183 72.6937 404.793C72.9814 405.401 73.372 405.862 73.8656 406.178C74.3592 406.491 74.9203 406.647 75.5488 406.647C76.1738 406.647 76.7332 406.491 77.2268 406.178C77.7239 405.862 78.1145 405.401 78.3986 404.793C78.6863 404.183 78.8301 403.433 78.8301 402.545ZM86.3022 397.091H87.9429V404.825C87.9429 405.525 87.8044 406.123 87.5274 406.62C87.2539 407.118 86.8686 407.498 86.3715 407.76C85.8743 408.02 85.2919 408.149 84.6243 408.149C84.01 408.149 83.4578 408.037 82.9677 407.814C82.4812 407.59 82.0959 407.265 81.8118 406.839C81.5313 406.409 81.391 405.887 81.391 405.273H83.0263C83.0263 405.575 83.0956 405.836 83.2341 406.056C83.3761 406.276 83.5696 406.448 83.8147 406.572C84.0632 406.693 84.3473 406.754 84.6669 406.754C85.015 406.754 85.3097 406.681 85.5512 406.535C85.7962 406.386 85.9826 406.168 86.1105 405.88C86.2383 405.592 86.3022 405.241 86.3022 404.825V397.091ZM99.3648 402.545C99.3648 403.71 99.1517 404.712 98.7256 405.55C98.2994 406.384 97.7153 407.027 96.9731 407.478C96.2344 407.925 95.3946 408.149 94.4535 408.149C93.5089 408.149 92.6655 407.925 91.9233 407.478C91.1847 407.027 90.6023 406.382 90.1762 405.544C89.7501 404.706 89.537 403.707 89.537 402.545C89.537 401.381 89.7501 400.381 90.1762 399.547C90.6023 398.708 91.1847 398.066 91.9233 397.618C92.6655 397.167 93.5089 396.942 94.4535 396.942C95.3946 396.942 96.2344 397.167 96.9731 397.618C97.7153 398.066 98.2994 398.708 98.7256 399.547C99.1517 400.381 99.3648 401.381 99.3648 402.545ZM97.7348 402.545C97.7348 401.658 97.591 400.91 97.3033 400.303C97.0192 399.692 96.6286 399.23 96.1314 398.918C95.6378 398.602 95.0785 398.444 94.4535 398.444C93.825 398.444 93.2639 398.602 92.7703 398.918C92.2767 399.23 91.8861 399.692 91.5984 400.303C91.3143 400.91 91.1723 401.658 91.1723 402.545C91.1723 403.433 91.3143 404.183 91.5984 404.793C91.8861 405.401 92.2767 405.862 92.7703 406.178C93.2639 406.491 93.825 406.647 94.4535 406.647C95.0785 406.647 95.6378 406.491 96.1314 406.178C96.6286 405.862 97.0192 405.401 97.3033 404.793C97.591 404.183 97.7348 403.433 97.7348 402.545ZM110.437 399.957C110.38 399.452 110.145 399.062 109.733 398.785C109.321 398.504 108.803 398.364 108.178 398.364C107.731 398.364 107.343 398.435 107.017 398.577C106.69 398.716 106.436 398.907 106.255 399.152C106.078 399.394 105.989 399.669 105.989 399.978C105.989 400.237 106.049 400.461 106.17 400.649C106.294 400.837 106.456 400.995 106.655 401.123C106.857 401.248 107.074 401.352 107.304 401.438C107.535 401.519 107.757 401.587 107.97 401.64L109.036 401.917C109.384 402.002 109.741 402.118 110.106 402.263C110.472 402.409 110.811 402.6 111.124 402.838C111.436 403.076 111.688 403.371 111.88 403.723C112.075 404.074 112.173 404.495 112.173 404.985C112.173 405.603 112.013 406.152 111.694 406.631C111.378 407.11 110.918 407.489 110.314 407.766C109.714 408.043 108.988 408.181 108.135 408.181C107.319 408.181 106.612 408.051 106.015 407.792C105.419 407.533 104.952 407.165 104.614 406.69C104.277 406.21 104.091 405.642 104.055 404.985H105.706C105.738 405.379 105.866 405.708 106.09 405.971C106.317 406.23 106.607 406.423 106.958 406.551C107.313 406.675 107.702 406.738 108.125 406.738C108.59 406.738 109.004 406.665 109.366 406.519C109.732 406.37 110.019 406.164 110.229 405.901C110.438 405.635 110.543 405.324 110.543 404.969C110.543 404.646 110.451 404.381 110.266 404.175C110.085 403.969 109.838 403.799 109.526 403.664C109.217 403.529 108.867 403.41 108.476 403.307L107.187 402.956C106.314 402.718 105.621 402.368 105.11 401.906C104.602 401.445 104.348 400.834 104.348 400.074C104.348 399.445 104.519 398.897 104.859 398.428C105.2 397.959 105.662 397.595 106.244 397.336C106.827 397.073 107.484 396.942 108.215 396.942C108.954 396.942 109.606 397.071 110.17 397.331C110.738 397.59 111.186 397.947 111.513 398.401C111.839 398.852 112.01 399.371 112.024 399.957H110.437ZM123.166 402.545C123.166 403.71 122.953 404.712 122.527 405.55C122.101 406.384 121.517 407.027 120.774 407.478C120.036 407.925 119.196 408.149 118.255 408.149C117.31 408.149 116.467 407.925 115.725 407.478C114.986 407.027 114.404 406.382 113.978 405.544C113.551 404.706 113.338 403.707 113.338 402.545C113.338 401.381 113.551 400.381 113.978 399.547C114.404 398.708 114.986 398.066 115.725 397.618C116.467 397.167 117.31 396.942 118.255 396.942C119.196 396.942 120.036 397.167 120.774 397.618C121.517 398.066 122.101 398.708 122.527 399.547C122.953 400.381 123.166 401.381 123.166 402.545ZM121.536 402.545C121.536 401.658 121.392 400.91 121.105 400.303C120.821 399.692 120.43 399.23 119.933 398.918C119.439 398.602 118.88 398.444 118.255 398.444C117.626 398.444 117.065 398.602 116.572 398.918C116.078 399.23 115.687 399.692 115.4 400.303C115.116 400.91 114.974 401.658 114.974 402.545C114.974 403.433 115.116 404.183 115.4 404.793C115.687 405.401 116.078 405.862 116.572 406.178C117.065 406.491 117.626 406.647 118.255 406.647C118.88 406.647 119.439 406.491 119.933 406.178C120.43 405.862 120.821 405.401 121.105 404.793C121.392 404.183 121.536 403.433 121.536 402.545ZM124.768 408V397.091H126.414V401.832H131.853V397.091H133.504V408H131.853V403.243H126.414V408H124.768ZM136.373 408H134.625L138.551 397.091H140.453L144.379 408H142.631L139.547 399.072H139.462L136.373 408ZM136.666 403.728H142.333V405.113H136.666V403.728Z" fill="#D6B870"/>
<path d="M540.625 492.247L445.5 362.5L214 362.5" stroke="#D6B870"/>
</svg>
